<svg width="510" height="671" viewBox="0 0 510 671" fill="none" xmlns="http://www.w3.org/2000/svg">
<path opacity="0.5" d="M491.49 0.00585938C501.757 0.265887 510 8.6705 510 19V652L509.994 652.49C509.738 662.594 501.594 670.738 491.49 670.994L491 671H350V670H491C500.941 670 509 661.941 509 652V19C509 9.05888 500.941 1 491 1H19C9.05888 1 1.00001 9.05888 1 19V652C1 661.941 9.05888 670 19 670H166V671H19C8.6705 671 0.26588 662.757 0.00585938 652.49L0 652V19C5.44433e-06 8.50659 8.50659 4.14741e-07 19 0H491L491.49 0.00585938Z" fill="white"/>
</svg>
