<svg width="676" height="671" viewBox="0 0 676 671" fill="none" xmlns="http://www.w3.org/2000/svg">
<path opacity="0.5" d="M657.49 0.00585938C667.757 0.265881 676 8.67049 676 19V652L675.994 652.49C675.734 662.757 667.33 671 657 671H443V670H657C666.941 670 675 661.941 675 652V19C675 9.05888 666.941 1 657 1H19C9.05888 1 1.00001 9.05888 1 19V652C1 661.941 9.05888 670 19 670H236V671H19C8.67049 671 0.26588 662.757 0.00585938 652.49L0 652V19C5.35929e-06 8.6705 8.24292 0.26588 18.5098 0.00585938L19 0H657L657.49 0.00585938Z" fill="white"/>
</svg>
