<svg width="658" height="1453" viewBox="0 0 658 1453" fill="none" xmlns="http://www.w3.org/2000/svg">
<path d="M441.046 41.5748C469.39 80.6697 492.217 108.087 523.709 144.131C552.1 176.229 585.575 211.651 615.926 252.868C630.811 273.639 645.604 295.691 654 322.983C664.132 348.901 654.758 389.738 628.797 405.465C610.924 418.58 593.845 431.528 577.485 444.055C512.396 494.003 447.74 546.183 385.07 598.404C381.859 601.082 379.738 602.414 378.284 603.629C364.585 615.063 341.979 634.652 328.519 646.153C300.154 670.237 251.505 713.033 226.118 735.709C215.445 745.175 204.264 755.364 199.708 758.455C195.783 762.019 194.134 764.56 193.152 765.526C193.14 765.536 193.128 765.546 193.116 765.556C189.893 768.708 181.487 775.848 179.662 777.612C179.395 777.871 181.432 776.689 176.903 780.726C176.504 781.084 176.603 780.484 172.915 783.958C171.933 784.868 160.164 796.827 156.653 800.276C145.177 811.359 117.71 837.925 104.618 851.886C102.715 853.889 101.554 855.429 99.4524 857.676C98.3512 858.853 96.5617 860.437 96.234 860.793C94.7698 862.362 89.3783 869.828 90.0914 865.969C83.4427 873.497 86.0142 871.714 86.1668 872.198C79.3439 879.93 75.1672 883.399 74.243 886.094C70.2089 890.851 65.6197 896.499 61.9904 901.272C35.5868 934.287 15.9677 983.324 47.9663 1001.49C48.0665 1001.35 48.1667 1001.21 48.2668 1001.08C58.2156 1007.58 63.3914 1007.05 70.3234 1009.3C74.868 1009.75 79.5122 1009.78 84.1101 1009.4C87.3439 1009.31 90.585 1009.02 93.7926 1008.54C226.102 988.611 358.503 978.422 487.432 957.365C491.73 956.662 495.788 956.134 500.156 955.733C506.6 955.247 508.229 955.298 519.039 955.519C530.947 955.892 548.588 957.852 564.092 966.431C577.999 973.018 594.071 992.614 597.89 1009.23C598.937 1012.85 599.689 1015.55 599.78 1015.97C600.241 1018.36 599.904 1018.54 600.254 1020.89C600.666 1023.75 601.265 1027.09 601.402 1030.29C602.019 1042.36 600.084 1054.73 599.833 1056.24C598.685 1062.94 597.876 1064.46 597.778 1065.01C596.043 1072.44 596.965 1069.67 596.503 1071.51C593.84 1081.2 591.094 1087.31 587.022 1099.75C586.883 1099.3 586.743 1098.86 586.601 1098.42C582.626 1107.78 585.877 1101.84 585.231 1103.8C585.164 1104.56 576.089 1123.98 575.188 1125.36C572.484 1130.56 572.09 1130.4 571.858 1130.84C571.413 1131.77 564.812 1144.8 560.837 1150.69C556.03 1157.93 560.6 1148.75 559.361 1150.52C559.199 1150.79 554.448 1158.75 553.667 1159.49C552.735 1160.5 556.812 1153.91 556.667 1153.9C556.511 1154.08 549.34 1164.51 550.302 1162.26C551.017 1160.57 560.659 1145.64 562.157 1142.48C562.426 1141.95 561.47 1142.69 561.716 1142.23C563.26 1140.42 581.393 1104.22 581.61 1102.31C581.006 1104.3 580.368 1106.31 579.696 1108.35C580.872 1105.74 581.947 1103.28 583.056 1100.63C581.686 1104.42 580.289 1108.06 578.729 1111.88C582.967 1107.18 587.98 1089.53 587.24 1088.61C586.976 1088.24 582.301 1097.97 585.178 1088.37C584.576 1089.76 583.958 1091.15 583.32 1092.55C582.371 1095.55 581.285 1098.73 580.22 1101.72C581.11 1099.86 582.07 1097.78 582.941 1095.84C582.765 1096.62 582.583 1097.4 582.396 1098.19C580.298 1103.93 578.159 1109.28 575.721 1114.9C574.36 1117.56 574.304 1116.85 573.337 1118.69C560.622 1141.7 569.593 1126.83 561.086 1141.93C559.747 1143.89 558.377 1145.87 556.977 1147.86C558.139 1147.43 553.696 1154.04 549.261 1161.64C549.625 1160.59 549.982 1159.55 550.333 1158.51C543.565 1169.89 527.166 1190.94 532.433 1185.86C530.621 1188.23 528.832 1190.53 526.978 1192.89C525.684 1195.07 524.363 1197.27 523.014 1199.48C520.828 1202.4 518.79 1205.07 516.668 1207.83C516.56 1207.76 516.451 1207.7 516.343 1207.64C518.033 1205.41 519.588 1203.34 521.326 1201C519.703 1202.55 518.237 1203.87 516.679 1205.31C515.509 1206.96 514.322 1208.63 513.119 1210.3C518.619 1203.68 512.232 1213.03 510.869 1215.57C509.765 1217.07 508.711 1218.41 507.726 1219.6C504.739 1223.23 502.773 1225.13 501.582 1226.62C500.789 1227.6 493.528 1238.74 495.75 1233.85C491.68 1239.31 487.587 1244.81 483.514 1250.33C481.746 1252.46 480.08 1254.47 478.359 1256.54C481.43 1251.59 470.608 1264.51 477.979 1254.52C483.522 1247.03 485.323 1245.61 488.04 1242.11C490.428 1239.03 491.564 1236.98 494.103 1233.7C498.296 1228.3 502.071 1223.46 506.104 1218.33C519.238 1201.55 530.587 1186.22 542.532 1168.33C545.684 1163.6 548.207 1159.27 550.148 1156.2C552.347 1152.69 549.96 1157.45 552.735 1152.72C555.619 1147.74 555.867 1146.52 556.618 1145.24C557.086 1144.44 558.816 1142.15 560.144 1139.8C565.83 1129.99 572.733 1115.2 573.308 1113.84C574.534 1112.22 586.59 1083.13 586.723 1081.25C586.981 1080.49 587.747 1082.49 588.46 1075.36C589.067 1073.17 589.624 1071 590.132 1068.86C590.29 1069.27 590.445 1069.68 590.599 1070.09C592.658 1057.02 592.351 1061.73 594.083 1048.83C595.687 1033.76 595.447 1012.8 584.167 994.619C573.093 976.155 551.989 966.614 535.325 963.906C527.753 962.666 524.855 962.648 515.882 962.446C507.55 961.928 486.329 963.947 491.094 964.604C490.243 964.681 489.423 964.766 488.632 964.857C473.508 966.528 470.868 968.559 462.554 968.714C461.545 969.038 460.535 969.36 459.524 969.682C450.121 970.355 447.358 971.401 437.212 972.931C432.841 973.584 437.789 972.118 429.057 974.198C427.361 974.369 425.666 974.537 423.969 974.705C424.337 974.467 424.705 974.229 425.073 973.991C415.275 975.483 414.623 975.46 415.835 976.003C411.085 976.513 406.309 977.016 401.554 977.507C400.993 977.81 400.432 978.114 399.871 978.417C401.461 978.529 452.21 971.725 488.718 965.397C506.517 962.248 521.72 963.024 526.8 963.55C536.131 964.711 550.666 967.551 563.061 975.148C575.713 982.494 584.226 994.815 587.304 1002.22C589.772 1008.1 590.389 1011 592.046 1019.97C593.675 1029.06 593.814 1040.14 593.361 1045.01C595.06 1061.94 567.489 1129.21 584.483 1082.82C583.796 1084.09 583.091 1085.38 582.37 1086.67C576.346 1105.12 578.439 1098.3 571.679 1113.09C568.935 1119.07 561.814 1133.65 561.219 1132.25C566.925 1121.41 573.235 1109.17 577.263 1099.31C577.796 1098.15 581.981 1086.09 584.078 1079.59C585.866 1074.01 586.084 1078.07 588.045 1065.13C591.443 1055.62 590.909 1049.73 591.079 1047.15C591.284 1042.81 591.932 1042.08 592.125 1037.6C592.296 1032.7 591.61 1029.1 591.566 1028.48C591.357 1025.12 590.197 1014.26 586.087 1004.78C582.216 995.184 575.51 987.883 575.026 987.228C576.116 988.25 577.174 989.32 578.191 990.434C572.011 982.926 572.671 985.136 570.848 983.406C569.453 982.16 567.976 980.964 566.486 979.864C567.154 980.2 567.818 980.55 568.485 980.919C559.207 974.519 566.455 978.888 552.264 971.986C543.044 968.054 532.954 966.103 532.009 965.995C531.734 965.965 534.697 966.741 530.785 966.195C524.152 965.177 512.87 965.062 511.603 964.725C508.377 964.864 508.657 965.311 508.229 965.332C507.266 965.378 498.24 965.865 489.051 967.473C480.889 968.857 472.503 970.203 469.889 970.618C454.797 973.023 437.939 975.363 421.533 977.664C419.845 977.9 420.886 977.481 419.195 977.719C416.482 978.108 402.584 980.381 400.508 980.675C395.313 981.431 381.601 982.993 379.455 983.382C379.15 983.438 383.704 983.245 378.448 984.017C372.613 984.872 375.703 983.983 375.384 984.017C363.446 985.323 355.965 986.572 347.835 987.611C345.198 987.948 340.289 988.152 336.579 988.701C336.152 988.764 337.041 989.01 336.622 989.076C331.014 989.922 325.68 989.894 323.239 990.137C317.269 990.73 320.567 990.825 320.257 990.865C316.288 991.342 310.929 991.791 304.892 992.511C277.989 995.721 256.013 998.241 227.384 1001.6C223.788 1002.02 219.485 1002.2 218.936 1002.26C217.237 1002.47 217.767 1002.8 212.852 1003.38C202.495 1004.61 192.887 1005.81 182.637 1007.1C180.576 1007.36 179.647 1007.11 178.072 1007.3C172.787 1007.94 154.92 1011.26 154.469 1010.12C144.132 1012.57 137.064 1012.63 128.642 1013.84C119.257 1015.18 107.362 1016.98 95.3643 1018.89C82.5164 1021 69.1006 1019.92 59.5277 1017.12C55.7128 1016.02 54.0795 1015.04 52.073 1014.23C50.2502 1013.51 44.2024 1010.88 39.3146 1007.17C34.3435 1003.58 30.7843 999.048 30.4766 998.586C29.4125 996.594 30.3772 997.601 24.7101 987.801C22.4302 981.528 23.4954 982.04 23.1591 980.722C21.0773 970.166 22.1913 958.977 22.9013 961.219C24.5675 948.316 27.7559 939.916 30.8603 935.277C30.3406 935.191 32.6048 929.161 36.5443 922.518C33.7252 929.99 33.8205 928.936 27.2059 946.456C27.1117 946.734 26.9332 946.086 26.8387 946.364C25.9704 948.852 24.6225 954.209 23.8547 958.571C23.1165 962.93 23.2666 960.47 23.0249 962.194C22.8386 963.799 23.1767 963.826 23.0069 966.116C22.4701 973.603 23.6602 980.002 24.8218 983.876C25.5224 986.338 26.3192 989.126 27.2051 990.89C29.988 998.255 42.6648 1009.56 52.5512 1012.88C54.5277 1013.64 53.5297 1013.75 58.008 1015.22C58.5366 1015.37 60.5538 1015.68 64.6131 1016.46C68.682 1017.22 71.8764 1017.75 74.5604 1017.93C76.8062 1018.05 75.8765 1017.74 80.473 1017.82C81.769 1017.82 87.7593 1017.93 95.0499 1016.82C110.118 1014.52 130.723 1011.71 132.391 1011.51C136.016 1011.08 137.798 1011.3 140 1010.94C140.388 1010.87 140.987 1010.34 142.332 1010.12C164.474 1006.48 213.789 1000.98 239.2 998.048C292.325 991.811 341.301 986.209 394.704 979.266C395.648 979.067 396.591 978.868 397.533 978.669C392.128 979.364 386.74 980.045 381.332 980.72C381.272 980.518 381.213 980.316 381.153 980.114C373.849 980.993 374.875 981.358 375.116 981.628C372.399 981.838 369.678 982.046 366.958 982.252C364.719 983.263 346.618 984.966 337.314 986.058C331.26 986.773 324.09 987.889 320.894 988.24C314.141 988.981 314.27 988.514 313.738 988.569C312.838 988.664 303.462 990.146 296.664 990.913C286.614 992.049 285.451 991.49 271.758 993.654C254.089 995.331 234.571 997.773 215.569 1000.12C219.114 999.048 202.147 1001.7 194.469 1002.64C163.905 1006.38 128.773 1010.89 94.9277 1016.01C78.3379 1018.52 61.2225 1016.2 48.2748 1009.39C43.4937 1006.88 40.5567 1004.11 38.4004 1002.22C37.2368 1001.18 36.4189 1001.04 34.9762 999.406C34.7568 999.099 34.7434 998.709 32.4182 995.506C29.4944 991.56 25.5967 983.715 24.8785 975.214C23.965 966.727 25.7 958.312 26.8571 955.112C31.6641 934.642 43.383 915.318 56.8261 897.356C67.3356 883.468 78.8694 870.351 90.9017 857.249C91.7107 856.623 92.5248 855.994 93.3442 855.362C98.135 848.822 119.377 827.61 130.16 816.989C148.725 798.438 172.975 775.111 189.763 759.55C193.472 756.105 196.652 753.504 200.099 750.328C201.588 748.956 203.238 747.014 204.803 745.578C222.365 729.439 246.634 708.121 264.618 692.27C305.582 656.139 344.58 622.844 387.01 587.349C464.753 522.548 543.439 458.613 624.135 399.054C644.127 386.057 654.308 358.352 649.032 335.949C644.731 313.191 633.776 293.813 622.269 275.734C598.767 239.826 570.404 208.184 542.332 176.871C540.673 175.032 541.025 174.879 539.739 173.454C532.134 165.017 514.928 146.658 506.351 137.148C499.601 129.702 489.249 117.245 486.577 115.032C509.649 142.522 535.956 170.341 560.733 198.831C562.491 200.853 562.447 201.332 562.66 201.584C566.568 206.238 564.424 203.035 570.263 209.745C572.261 211.904 589.028 233.719 587.729 230.511C591.896 235.651 619.684 273.011 624.04 281.097C625.539 283.434 624.782 281.591 625.086 282.051C626.398 284.049 626.562 285.198 627.619 287.01C630.548 291.78 637.478 304.436 638.586 307.217C641.498 312.962 647.594 331.36 648.332 340.397C649.189 348.36 649.58 347.058 649.354 354.136C648.677 359.762 649.746 353.731 646.764 366.171C645.939 369.164 643.379 376.181 639.452 381.875C635.532 387.798 630.594 392.415 628.612 394.117C627.08 395.446 625.372 396.764 623.448 398.108C620.867 399.895 617.98 401.887 614.692 404.331C606.861 410.126 590.61 422.537 583.002 428.461C582.543 428.817 581.634 429.968 580.479 430.839C578.086 432.646 578.523 431.746 576.692 433.088C575.066 434.216 544.508 457.91 539.311 462.031C535.807 464.77 533.524 466.904 531.56 468.445C530.016 469.655 529.62 469.49 528.037 470.731C527.579 471.091 523.472 474.74 519.462 477.903C515.669 480.88 500.482 492.563 498.897 493.835C497.792 494.716 499.172 493.954 495.897 496.563C492.908 498.945 490.719 500.256 489.002 501.626C484.993 504.826 480.772 508.598 476.614 511.952C464.595 521.656 464.895 520.88 464.17 521.446C462.114 523.062 461.595 523.989 460.943 524.528C458.221 526.777 451.498 532.339 449.031 534.372C445.968 536.895 444.403 537.691 441.146 540.353C438.736 542.324 434.091 546.596 428.562 551.164C416.089 561.466 401.359 573.757 389.22 583.874C385.591 586.899 384.815 587.105 383.7 588.026C377.829 592.876 374.839 595.886 373.176 597.276C361.316 607.174 339.907 624.538 328.978 633.835C324.527 637.6 305.286 654.493 294.416 663.889C293.171 664.964 294.163 663.748 292.802 664.986C289.54 667.955 290.207 668.097 288.512 669.551C287.693 670.251 285.64 671.634 283.262 673.669C270.988 684.179 262.69 691.829 257.175 696.686C203.831 743.775 150.4 792.548 104.166 840.282C99.1747 845.456 92.8245 852.593 85.332 860.326C84.9805 860.46 84.6514 860.57 84.2791 860.728C84.1286 861.139 83.9796 861.549 83.8314 861.959C75.3303 871.511 72.3125 875.246 64.1587 884.73C63.5085 885.488 60.6112 887.824 60.0854 890.03C56.7495 893.792 55.6622 895.168 55.0585 896.015C54.0882 897.406 54.4008 897.37 51.1459 901.927C45.7912 909.492 40.741 916.961 36.4575 924.781C33.6456 928.925 43.3753 910.434 44.2637 909.579C45.4521 907.776 47.1498 906.122 48.3955 904.383C50.6758 901.196 52.9486 897.878 54.6267 895.688C55.4446 894.619 56.1072 893.844 56.5131 893.56C61.0372 887.032 55.1282 894.962 55.4449 893.916C58.648 890.01 62.6326 885.348 65.9704 881.621C66.4667 878.571 88.0958 857.009 85.8525 858.075C87.5866 856.496 89.351 854.898 91.1447 853.282C97.6167 844.444 102.208 840.955 112.484 831.014C111.665 831.608 110.871 832.179 110.037 832.791C110.164 832.544 118.572 823.637 116.001 827.262C124.299 817.558 125.116 818.977 132.34 810.244C137.068 805.401 134.682 808.637 143.351 800.188C148.378 795.299 154.796 788.656 160.508 783.196C161.832 781.931 162.673 781.659 163.862 780.532C165.052 779.404 165.377 778.581 166.823 777.202C169.798 774.363 173.969 770.806 175.81 769.048C177.457 767.477 179.607 765.012 183.645 761.185C197.875 747.738 193.836 752.152 196.196 750.184C198.719 748.094 200.024 746.046 204.94 741.648C205.434 741.206 204.43 742.649 206.009 741.184C207.286 740.003 207.642 739.103 211.873 735.147C213.421 733.645 239.748 709.803 243.776 706.255C250.019 700.664 263.931 688.831 270.438 683.122C272.936 680.928 275.329 678.381 277.968 676.074C286.711 668.427 300.756 656.26 311.957 646.643C321.998 638.001 340.213 623.44 345.317 618.236C359.46 606.124 363.317 603.654 364.391 602.754C367.309 600.324 368.409 598.9 372.06 595.81C419.373 555.696 482.851 504.294 529.026 468.026C559.765 443.839 591.068 419.659 622.416 396.69C645.271 382.132 652.216 350.24 643.845 326.577C636.579 302.209 622.884 281.041 608.747 261.159C579.877 221.427 546.416 185.896 513.845 149.903C513.475 149.748 513.105 149.593 512.735 149.439C523.49 161.414 536.086 175.613 546.669 187.521C560.867 203.36 582.059 226.929 590.816 239.987C586.702 234.954 580.585 226.866 580.207 227.354C587.363 236.038 594.46 244.97 601.258 254.098C601.273 253.659 601.286 253.22 601.299 252.779C608.527 262.242 615.469 272.18 621.868 282.387C622.98 284.169 622.412 282.773 623.366 284.326C624.423 286.061 623.49 285.017 623.686 285.343C626.322 289.72 627.244 290.89 627.552 291.424C628.342 292.851 627.546 291.875 629.752 296.049C633.75 303.69 636.77 309.088 634.967 307.69C636.162 310.286 637.269 312.861 638.283 315.413C638.819 315.964 639.35 316.518 639.877 317.074C644.738 333.796 647.552 341.7 645.808 351.766C645.953 354.931 645.833 358.308 645.401 361.6C644.731 363.372 643.973 365.09 643.131 366.749C643.262 367.167 643.387 367.588 643.507 368.013C639.503 379.391 631.589 388.846 621.89 395.967C617.515 399.206 613.048 402.533 608.595 405.826C599.873 412.288 597.606 413.871 589.79 419.793C572.613 432.88 589.538 419.384 574.644 430.056C575.599 429.714 576.552 429.376 577.502 429.04C575.085 431.027 572.908 432.837 570.614 434.739C568.828 435.792 567.03 436.855 565.22 437.93C558.585 444.69 553.3 447.461 552.312 448.227C551.504 448.86 549.314 451.544 540.132 457.87C544.362 455.93 533.634 462.961 532.826 463.592C532.107 464.147 522.222 472.228 518.307 475.317C515.206 477.757 508.387 482.866 503.664 486.642C499.481 489.986 500.208 489.877 499.893 490.132C494.898 494.158 497.867 491.424 494.219 494.321C490.566 497.224 487.907 499.756 487.096 500.37C486.687 500.679 487.81 499.342 485.961 500.783C480.896 504.73 472.483 511.889 466.84 516.445C464.863 518.04 462.141 519.873 459.964 521.628C456.619 524.324 455.294 525.897 453.339 527.472C452.658 528.019 447.96 531.076 442.598 535.573C441.567 536.439 439.367 539.855 434.273 541.732C434.124 542.177 433.976 542.622 433.827 543.067C416.171 558.354 409.958 560.889 403.098 568.913C389.929 579.589 398.433 571.613 396.929 572.722C395.967 573.432 391.861 577.101 391.389 577.481C390.552 578.151 390.549 577.859 389.647 578.613C373.115 592.471 380.728 586.675 375.666 591.263C363.657 602.182 353.045 609.253 374.931 591.416C374.85 591.319 374.769 591.223 374.689 591.126C369.447 595.67 355.899 607.021 360 602.728C363.204 599.328 395.57 572.671 376.894 587.38C372.655 590.725 370.836 592.862 363.125 598.195C358.374 602.135 358.425 603.59 351.748 608.633C353.055 608.052 354.359 607.473 355.668 606.89C347.302 614.639 336.149 623.204 329.634 629.067C327.417 631.057 320.523 639.475 321.181 636.401C317.47 639.722 299.376 654.857 296.208 657.847C295.436 658.575 295.09 660.196 283.343 669.965C282.461 670.565 281.581 671.165 280.701 671.765C290.952 662.325 272.181 678.218 276.578 673.099C278.562 671.935 287.069 664.865 288.564 663.857C291.104 662.146 284.592 668.446 293.204 660.787C297.631 654.807 282.434 668.997 283.828 665.764C272.883 676.258 271.346 676.722 268.753 678.955C257.588 688.612 250.955 694.697 240.424 703.841C238.116 706.304 257.119 690.025 259.349 687.9C251.543 696.28 266.286 683.316 272.088 677.363C272.83 677.16 273.571 676.958 274.313 676.755C266.123 683.688 258.089 690.645 250.365 697.867C249.771 698.227 249.157 698.603 248.552 698.973C250.238 697.222 251.866 695.525 253.531 693.798C246.725 699.418 251.328 696.637 241.896 703.881C241.873 704.409 241.85 704.936 241.828 705.464C233.307 712.893 224.754 720.407 216.284 727.91C212.51 732.329 196.076 746.98 198.403 743.523C191.904 749.397 200.212 742.474 194.344 748.194C191.847 750.631 186.602 755.521 185.164 756.497C185.071 755.301 192.782 748.014 194.63 745.448C193.081 746.465 157.711 780.45 160.221 776.679C157.318 779.251 158.992 778.433 154.06 783.333C139.952 797.282 117.326 818.002 107.446 830.198C120.844 817.661 124.337 813.087 134.51 803.054C140.825 796.6 181.305 758.178 172.955 767.454C174.336 765.988 175.724 764.517 177.12 763.042C178.818 761.86 180.524 760.674 182.236 759.484C177.977 763.503 173.927 767.347 169.597 771.477C168.374 772.224 167.154 772.969 165.938 773.712C165.613 774.307 165.29 774.901 164.967 775.494C163.212 777.209 161.47 778.917 159.741 780.617C160.061 779.965 160.383 779.312 160.705 778.658C157.939 781.222 155.287 783.688 152.439 786.353C153.417 785.884 154.397 785.414 155.379 784.942C142.445 797.447 146.725 793.065 139.281 799.395C133.93 804.522 143.346 796.222 132.216 807.345C119.589 820.107 127.112 811.089 110.821 827.842C110.708 828.197 110.596 828.551 110.484 828.905C106.864 832.352 102.92 836.171 99.3035 839.7C99.9216 839.358 100.541 839.014 101.163 838.67C93.9504 846.005 84.0013 857.337 81.1816 859.256C88.626 851.695 87.5713 850.795 85.4704 852.658C83.5413 854.415 65.8951 872.983 50.872 892.84C36.5444 911.311 26.1834 932.484 23.714 939.95C16.5883 959.373 14.1649 977.128 23.2928 993.913C20.27 988.309 16.4288 973.986 18.931 960.034C20.9891 946.097 26.9355 933.581 28.9077 929.868C29.3158 929.142 30.3998 929.755 31.5442 924.337C36.8439 914.577 43.5602 904.014 51.5406 893.347C56.0512 887.3 61.4881 880.563 66.9109 874.257C66.7448 875.033 66.5836 875.804 66.427 876.572C60.0316 883.202 54.6197 891.184 52.4537 894.04C51.3408 895.493 50.7408 896.062 50.7113 895.348C49.0466 897.577 47.455 899.775 45.9347 901.943C46.1418 902.088 46.349 902.233 46.5561 902.379C44.1687 905.783 41.9198 909.163 39.7675 912.601C39.553 912.467 39.3385 912.332 39.124 912.198C37.2584 915.183 35.6263 917.935 33.9394 920.965C33.9847 921.402 34.0324 921.838 34.0825 922.271C27.4596 930.539 19.3833 963.781 22.0931 948.902C20.7674 953.509 19.8032 958.096 19.277 962.686C19.4628 962.691 19.6486 962.696 19.8344 962.701C19.6253 964.744 19.5121 966.667 19.4844 968.65C19.3348 967.962 19.1932 967.344 19.0623 966.683C18.7564 975.733 19.7573 984.583 22.6421 989.827C21.2665 986.168 20.3832 982.389 19.9283 978.47C20.2229 986.233 27.3951 998.102 28.4321 998.809C30.6587 1001.75 31.6988 1003.48 34.6931 1006.24C37.4604 1008.65 37.3033 1008.04 37.8243 1008.48C45.7545 1014.4 48.7931 1015.53 50.2895 1016.52C51.8588 1017.35 52.3021 1017.57 57.0516 1018.11C57.928 1018.64 58.8247 1019.16 59.7405 1019.66C61.0919 1019.8 62.4359 1019.9 63.7901 1019.97C69.6133 1021.2 75.595 1021.79 81.5829 1021.8C79.5954 1021.49 77.6043 1021.11 75.6649 1020.67C84.5169 1021.02 88.709 1020.99 89.5778 1020.99C92.0254 1020.8 93.0844 1020.24 93.8316 1020.14C94.4092 1020.07 94.9713 1019.98 95.5183 1019.9C130.323 1014.66 108.774 1018.28 127.3 1017.06C133.872 1015.53 127.061 1015.91 126.035 1015.46C134.928 1014.47 137.651 1013.92 147 1012.68C149.43 1012.36 152.086 1012.33 153.621 1012.12C154.953 1011.95 159.059 1011.06 162.249 1010.64C167.57 1009.93 174.666 1009.22 181.955 1008.29C188.004 1007.52 206.523 1004.98 219.462 1003.44C224.981 1002.78 223.734 1003.21 225.16 1003.04C225.752 1002.97 230.021 1002.12 233.559 1001.7C262.448 998.291 292.084 995.157 321.102 991.771C341.549 989.386 362.273 986.646 382.734 984.106C387.09 983.565 384.815 984.103 386.716 983.872C387.371 983.791 388.099 983.262 394.85 982.575C397.29 982.325 394.531 982.989 396.924 982.696C398.087 982.552 398.537 982.112 405.316 981.138C417.651 979.358 424.346 978.943 425.445 978.78C427.517 978.465 426.867 978.235 429.615 977.843C443.065 975.922 454.286 974.234 466.253 972.381C468.932 971.967 479.13 970.382 489.249 968.709C500.592 966.736 512.163 966.528 513.3 966.59C518.188 966.745 513.59 967.304 519.94 967.483C521.725 967.397 523.448 967.344 525.249 967.34C522.458 966.958 519.692 966.68 516.816 966.494C524.608 966.809 533.426 967.685 539.098 969.081C540.144 969.218 549.694 972.234 554.216 974.491C552.226 973.711 550.186 973.014 548.098 972.397C548.786 972.757 549.463 973.125 550.13 973.502C559.55 976.979 568.844 983.11 575.466 991.275C577.803 994.239 576.836 993.357 578.974 996.518C584.771 1005.93 585.741 1010.22 586.918 1013.91C587.889 1017.79 588.856 1021.81 588.341 1032.16C588.33 1028.65 587.724 1020.59 585.432 1013.04C583.291 1005.51 579.459 999.133 578.458 997.571C577.342 995.218 571.833 986.383 573.012 990.377C565.802 982.83 564.84 982.808 564.675 982.207C564.333 981.853 564.434 980.925 555.724 976.407C555.981 976.775 556.232 977.143 556.478 977.513C550.36 974.503 545.586 973.123 541.724 971.655C540.29 971.745 517.712 967.456 505.288 969.033C500.178 969.393 494.987 970.034 489.609 970.96C476.407 973.238 462.698 975.479 450.207 977.332C444.202 978.223 440.726 978.303 439.978 978.411C438.877 978.571 435.829 979.36 433.625 979.67C425.406 980.857 400.291 983.585 394.174 985.34C426.088 981.25 457.959 976.802 489.712 971.601C506.837 968.831 524.521 968.345 541.342 972.86C538.293 971.95 549.438 973.847 559.965 980.276C570.827 986.403 578.372 998.018 578.856 999.164C580.034 1001.22 578.735 999.669 579.07 1000.29C581.57 1004.94 583.504 1008.96 584.06 1010.6C584.475 1011.88 585.068 1014.23 586.024 1018.79C586.186 1019.59 586.468 1019.76 586.625 1020.63C587.659 1026.46 587.997 1032.38 587.85 1038.23C587.839 1038.59 587.44 1040.06 587.352 1041.57C587.267 1043.09 587.495 1044.63 587.466 1044.97C587.12 1049.6 585.613 1057.58 584.601 1062.01C584.26 1063.56 584.748 1062.58 584.361 1064.27C583.12 1069.38 583.105 1067.52 581.398 1074.06C580.812 1076.19 581.271 1076.11 579.927 1080.13C578.949 1082.99 578.373 1082.47 578.198 1082.92C577.948 1083.7 575.017 1093.31 573.177 1096.45C574.887 1089.08 570.053 1103.85 570.747 1103.32C568.983 1107.02 567.072 1110.82 565.221 1114.34C564.732 1115.64 564.228 1116.95 563.711 1118.27C555.7 1132.75 550.924 1141.65 542.151 1155.37C541.828 1155.95 533.918 1167.58 534.183 1166.79C538.554 1159.67 542.783 1152.91 546.037 1148.67C549.659 1140.49 550.333 1141.32 557.102 1128.75C559.261 1124.65 559.111 1124.25 559.358 1123.78C567.942 1107.87 578.656 1080.66 582.16 1068.97C582.861 1065.56 579.416 1077.61 580.575 1072.85C580.951 1071.45 585.318 1055.87 586.075 1042.26C587.013 1028.79 584.892 1018.14 586.713 1028.1C586.523 1026.12 586.229 1023.89 585.871 1021.87C584.829 1020 582.28 1010.07 583.392 1010.87C582.888 1009.98 582.368 1009.12 581.831 1008.28C580.975 1006.56 580.005 1004.49 578.428 1001.71C576.15 996.197 561.724 978.738 541.45 974.089C521.826 968.582 502.229 971.199 500.373 971.339C500.305 971.57 500.238 971.802 500.171 972.034C530.622 968.799 569.761 975.684 581.247 1010.49C581.106 1009.46 580.941 1008.45 580.751 1007.44C585.813 1020.45 586.122 1034.76 584.209 1048.47C586.128 1033.99 583.293 1010.02 574.059 997.808C572.553 995.605 573.928 997.021 573.598 996.502C572.683 995.189 571.371 993.961 567.236 989.993C563.38 985.619 550.566 978.38 549.206 978.215C546.802 977.175 539.939 975.567 535.674 974.751C529.958 973.637 533.854 974.023 532.703 973.798C527.987 972.943 523.558 972.732 519.814 972.531C514.152 972.082 502.387 972.086 498.478 973.572C502.575 973.156 506.474 972.912 510.594 972.837C503.374 973.156 496.775 973.832 490.225 974.806C476.889 976.801 464.302 978.407 449.812 981.14C445.032 982.976 462.966 980.203 447.851 982.895C450.611 982.479 453.355 982.061 456.119 981.636C456.733 981.307 457.346 980.977 457.959 980.647C462.738 980.107 467.501 979.554 472.282 978.984C470.895 978.986 469.508 978.987 468.12 978.987C475.854 977.729 483.618 976.41 490.312 975.352C498.117 974.111 504.478 973.89 507.558 974.349C507.872 974.06 508.218 973.77 508.552 973.482C524.149 972.299 546.643 977.296 542.012 977.788C542.716 977.915 543.414 978.05 544.107 978.195C552.537 981.601 549.061 979.74 552.235 981.039C552.711 981.234 556.796 983.362 559.639 985.504C562.456 987.605 564.157 989.293 561.004 987.146C567.586 992.373 569.294 994.744 570.502 995.549C571.623 996.437 571.847 996.074 573.252 997.968C579.846 1006.96 584.054 1026.76 581.359 1018.69C581.684 1020.37 581.914 1021.87 582.118 1023.52C583.784 1028.85 583.016 1034.37 582.425 1040.14C582.314 1042.16 582.137 1044.23 581.922 1046.15C582.081 1047.5 582.215 1048.87 582.322 1050.28C577.765 1068.86 582.256 1063.67 576.996 1071.47C577.194 1070.07 577.37 1068.69 577.524 1067.33C578.236 1064.23 578.864 1061.1 579.399 1057.89C576.828 1070.53 572.63 1082.93 567.524 1095.1C560.253 1109.97 556.902 1118.84 547.07 1134.78C546.3 1136.3 545.513 1137.82 544.707 1139.36C544.956 1137.48 548.489 1131.73 541.816 1142.36C540.841 1143 545.119 1135.7 547.294 1132.62C547.82 1131.89 544.275 1138.92 548.7 1131.16C551.631 1125.83 546 1135.09 554.612 1119.43C554.183 1119.98 553.783 1120.48 553.365 1121C554.227 1119.37 555.203 1117.49 556.09 1115.74C557.146 1114.3 558.182 1112.86 559.199 1111.44C560.672 1107.37 561.451 1104.6 565.446 1095.5C564.564 1098.04 566.556 1094.95 568.431 1090.14C568.234 1090.06 568.038 1089.98 567.842 1089.91C571.893 1078.72 571.201 1082.48 573.694 1072.98C574.121 1072.14 574.591 1071.12 575.024 1070.19C576.233 1064.76 578.956 1045.24 579.318 1048.89C579.174 1043.44 579.862 1031.88 580.082 1027.76C579.844 1027.47 579.602 1027.16 579.359 1026.85C579.072 1024.59 578.694 1022.44 578.222 1020.35C578.094 1019.1 577.934 1017.87 577.742 1016.66C577.219 1015.2 576.659 1013.82 576.015 1012.39C575.902 1011.44 575.766 1010.51 575.608 1009.58C574.458 1007.46 573.096 1005.3 571.668 1003.42C571.06 1002.07 570.373 1000.74 569.636 999.45C569.553 999.263 559.382 988.913 555.53 986.985C554.411 986.455 553.285 985.969 552.127 985.511C551.686 985.047 551.233 984.587 550.766 984.131C549.831 983.868 548.945 983.652 548.023 983.442C546.135 982.457 544.096 981.534 542.104 980.735C533.226 979.231 533.106 978.704 531.024 978.271C527.357 977.429 513.988 977.418 511.841 977.615C509.635 977.628 508.461 977.315 506.717 977.378C498.93 977.705 494.064 978.462 490.893 978.983C481.798 980.521 487.604 980.152 483.041 981.003C479.698 981.623 477.28 981.657 474.326 982.155C469.257 983.048 443.761 987.266 442.264 987.404C440.114 987.645 444.934 985.33 438.03 986.728C437.918 987.629 422.891 988.822 430.017 989.06C423.873 989.801 417.705 990.527 411.556 991.234C412.383 992.162 404.723 992.513 396.476 993.628C384.794 995.231 358.534 999.115 359.372 997.942C356.594 998.522 353.826 999.099 351.051 999.675C331.84 1001.64 313.074 1004.16 294.055 1006.36C237.609 1012.89 176.406 1019.63 120.586 1027.58C117.899 1027.96 118.236 1027.56 116.303 1027.84C112.064 1028.45 104.98 1029.54 97.1731 1030.79C85.3913 1032.81 71.672 1032.25 62.7319 1030.33C57.7855 1029.31 55.5281 1028.23 54.0037 1027.76C48.8527 1026.03 49.9198 1026.79 47.5717 1025.88C43.5947 1025.12 25.3557 1013.2 21.4051 1006.34C19.1126 1003.42 16.3898 999.836 14.6322 995.783C14.4816 995.439 15.1029 995.912 14.9746 995.622C11.9018 988.266 13.4898 992.785 12.5502 990.274C6.30258 971.775 10.3273 951.159 17.6109 933.742C19.4111 929.304 22.8279 922.851 24.7281 919.412C25.4787 918.052 23.8633 920.386 26.5123 915.655C27.4321 914.046 28.0085 913.76 29.0637 912.017C33.765 904.407 34.3742 901.503 39.4788 895.805C41.0196 893.611 42.8395 891.079 44.9043 888.315C53.2912 876.993 65.3461 862.869 72.4186 855.069C74.548 852.713 75.7324 851.729 77.6443 849.641C79.015 848.145 81.2352 845.264 83.4825 842.861C85.7621 840.421 89.4899 836.922 93.737 832.487C98.2609 827.755 103.963 821.68 104.919 820.714C106.153 819.461 107.011 819.151 108.257 817.886C112.066 813.997 121.98 803.583 126.941 798.683C132.352 793.32 135.603 790.445 137.426 788.675C139.104 787.046 140.857 784.897 141.635 784.144C142.845 782.974 143.4 782.978 144.95 781.488C147.498 779.038 149.936 776.371 153.659 772.828C221.895 708.103 291.395 648.048 361.361 589.467C369.149 582.964 373.406 579.033 384.983 569.543C389.674 565.703 387.967 567.644 391.541 564.574C393.147 563.195 392.535 563.293 394.584 561.573C403.653 553.956 414.337 545.528 418.335 542.235C419.903 540.944 421.47 539.193 424.673 536.558C448.575 516.888 477.102 493.937 503.163 473.182C516.737 462.351 537.965 445.445 553.826 433.185C573.645 417.845 594.55 401.973 615.259 386.848C640.416 370.662 638.019 338.56 626.722 314.976C594.054 248.066 536.175 195.003 486.163 137.426C509.471 164.775 542.928 200.253 568.227 230.586C588.284 254.766 608.204 279.961 622.355 307.883C636.933 335.254 641.07 369.203 614.77 386.175C571.241 418.167 528.584 451.692 486.964 484.908C454.751 510.626 414.465 543.55 379.719 572.316C378.142 573.62 375.06 576.553 371.64 579.378C370.898 579.988 361.673 587.07 358.663 589.601C362.084 587.885 349.8 597.19 346.184 600.283C341.624 604.176 332.375 612.595 321.534 621.529C311.702 629.637 314.155 627.094 313.606 627.534C310.097 630.36 309.265 631.803 306.689 634.092C296.027 643.4 241.278 690.833 226.222 704.495C222.349 707.961 222.007 707.799 221.118 708.595C218.771 710.702 215.676 713.955 211.966 717.306C205.314 723.31 197.369 730.107 193.697 733.47C184.973 741.435 168.759 756.978 157.416 767.73C154.26 770.716 154.209 770.264 152.791 771.61C146.563 777.496 130.628 793.431 122.865 801.125C110.57 813.24 97.4504 826.162 85.4781 839.022C84.5615 839.756 83.6507 840.486 82.7459 841.212C81.6307 842.651 80.532 844.08 79.45 845.498C66.9882 858.853 54.9851 872.509 43.7308 887.425C36.2933 897.343 29.4725 907.617 23.6146 918.504C21.788 921.329 14.0947 937.856 13.4219 940.845C12.5931 943.322 12.2768 945.613 11.2446 949.395C9.97003 954.589 10.1769 949.299 8.80974 958.151C8.53981 960.521 9.12712 958.171 8.69408 963.029C8.64079 963.837 7.816 971.867 9.15497 980.197C10.2878 988.508 14.0328 996.393 14.4219 997.096C15.6603 999.724 16.4367 1002.28 16.8389 1002.93C18.9585 1006.27 19.3404 1005.77 20.9918 1007.79C25.844 1013.82 33.7828 1019.81 34.8399 1020.39C47.147 1029.38 73.8651 1034.06 88.4856 1032.53C90.5163 1032.42 90.308 1032.83 90.6666 1032.81C92.9836 1032.68 94.3565 1032.05 96.5247 1031.72C96.7789 1031.69 97.0361 1031.65 97.2962 1031.6C107.993 1029.89 124.318 1027.79 134.885 1026.39C136.127 1026.23 138.717 1025.64 140.938 1025.36C153.504 1023.75 149.476 1024.67 150.192 1024.59C151.885 1024.4 154.812 1023.61 159.31 1022.98C170.896 1021.37 193.17 1018.6 205.634 1017.12C214.971 1016.01 214.884 1016.48 215.497 1016.41C216.809 1016.27 220.407 1015.48 226.55 1014.71C238.379 1013.22 237.067 1013.74 241.933 1013.15C242.342 1013.1 241.593 1012.84 246.988 1012.18C257.413 1010.89 280.898 1008.52 292.077 1007.22C296.375 1006.72 297.346 1006.27 301.747 1005.76C308.724 1004.95 324.524 1003.47 325.767 1003.33C326.116 1003.28 326.854 1002.81 328.902 1002.57C331.153 1002.31 333.393 1002.25 335.073 1002.05C344.637 1000.92 361.04 998.276 356.619 1000.18C359.647 999.478 362.676 998.772 365.7 998.063C385.739 995.687 405.193 993.079 425.022 990.305C429.477 989.681 433.239 989.42 437.004 988.878C440.762 988.352 457.301 985.521 460.081 985.084C463.91 984.515 481.702 981.753 491.088 980.196C493.721 979.765 495.639 979.517 496.383 979.427C502.874 978.617 509.174 978.902 511.823 978.757C513.915 978.645 511.998 978.314 515.955 978.25C523.015 978.001 534.41 980.249 536.309 980.856C537.109 981.117 535.76 980.207 543.472 982.632C547.653 984.084 549.514 985.346 550.938 986.039C551.306 986.349 551.152 985.198 558.113 989.891C562.748 993.316 564.025 995.467 564.464 995.856C565.061 996.496 566.877 997.803 568.96 1000.72C574.37 1007.32 578.27 1022.94 578.198 1031.54C578.224 1033.16 578.825 1032.72 578.621 1039.25C578.357 1044.09 577.996 1043.26 577.843 1045C577.557 1047.75 577.491 1052.19 576.211 1058.43C576.869 1067.04 551.952 1123.44 549.065 1125.69C547.962 1127.55 546.708 1129.78 545.999 1130.65C546.304 1129.74 546.603 1128.83 546.896 1127.93C552.051 1119.87 549.519 1122.92 550.664 1120.7C552.373 1117.47 558.444 1105.37 559.66 1102.1C560.082 1101.01 558.673 1103.28 561.012 1097.45C563.379 1091.42 565.203 1088.53 565.23 1085.81C569.549 1077.32 571.038 1068.25 567.441 1078.55C566.944 1084.77 539.405 1139.15 531.476 1149.26C526.008 1157.96 515.403 1174.03 507.941 1184.01C503.378 1190.28 492.452 1204.37 492.389 1203.59C491.999 1204.07 490.868 1205.54 490.478 1206.03C490.428 1205.99 490.821 1206.3 490.876 1206.34C491.138 1206.02 491.898 1205.03 492.16 1204.7C491.931 1205.03 491.496 1205.6 490.903 1206.36C486.98 1211.38 476.936 1223.79 474.791 1226.57C462.818 1241.98 448.398 1261.97 436.365 1276.37C436.81 1275.58 437.242 1274.8 437.662 1274.04C440.083 1270.54 452.312 1255.23 453.162 1253.04C435.741 1275.82 417.94 1298.46 400.081 1321.13C400.894 1321 378.761 1349.01 377.417 1350.3C377.611 1349.62 377.802 1348.95 377.991 1348.28C391.193 1333.22 389.024 1333.8 398.121 1323.42C401.516 1319.13 400.05 1320.28 401.725 1318.02C417.828 1296.22 402.804 1318.12 415.205 1301.71C410.805 1306.28 421.257 1292.59 425.79 1286.65C426.865 1285.27 440.931 1267.44 442.542 1265.31C451.676 1253.38 467.317 1232.32 476.915 1220.68C481.965 1214.27 485.107 1209.94 488.934 1204.81C490.703 1202.44 492.522 1199.99 494.593 1197.24C499.411 1190.81 498.247 1192.84 500.493 1189.87C505.279 1183.48 506.078 1180.7 510.103 1177.43C512.985 1173.12 516.084 1168.4 518.928 1163.92C519.102 1164.04 519.276 1164.15 519.45 1164.27C521.363 1161.46 523.084 1158.89 525.024 1155.93C525.404 1154.96 525.777 1154.01 526.144 1153.05C532.157 1144.21 530.14 1148.26 531.714 1146.9C532.941 1145.02 534.176 1143.09 535.444 1141.08C535.995 1139.29 536.524 1137.52 537.031 1135.77C542.16 1127.17 547.132 1118.2 551.693 1108.98C552.168 1108.49 552.641 1108 553.11 1107.51C552.93 1107.4 552.75 1107.29 552.57 1107.18C559.964 1091.74 566.127 1075.88 569.666 1059.99C570.653 1055.69 563.382 1080.98 562.167 1082.86C558.641 1093.54 545.009 1121.33 544.21 1120.74C541.345 1127.55 530.026 1146.18 525.677 1151.45C531.27 1142.86 536.697 1133.98 541.722 1125.02C541.339 1125.19 540.956 1125.36 540.572 1125.53C547.588 1114.85 548.507 1113.02 553.116 1100.99C553.427 1101.12 553.738 1101.25 554.049 1101.38C556.944 1092.63 564.161 1078.81 562.904 1077.73C564.561 1073.23 565.988 1068.94 567.279 1064.4C568.391 1059.59 567.707 1060.94 567.979 1058.63C567.934 1056.38 570.345 1050.47 570.412 1032.57C570.313 1030.13 570.763 1030.67 570.354 1027.08C570.09 1026.09 569.506 1019.97 565.241 1010.87C564.542 1009.47 564.768 1009.22 563.992 1007.83C562.284 1004.44 556.697 999.679 559.741 1001.37C554.692 995.981 552.283 995.224 551.473 994.843C550.562 994.545 550.779 994.975 548.63 993.974C545.696 992.703 546.519 992.438 543.865 991.449C540.314 990.531 543.291 991.017 528.572 987.865C530.25 988.078 531.982 988.357 533.606 988.675C532.826 988.331 532.025 987.997 531.204 987.674C522.545 986.674 523.249 986.428 519.022 987.065C512.467 986.391 506.632 986.479 497.322 987.728C495.426 987.992 493.808 988.265 492.421 988.524C479.547 990.866 485.746 990.613 464.97 992.562C461.276 993.313 457.555 994.059 453.862 994.793C447.677 995.286 452.567 994.075 443.396 995.287C450.694 995.254 431.334 997.636 428.192 998.942C427.822 998.78 427.452 998.618 427.082 998.456C425.038 998.735 422.993 999.013 420.946 999.289C420.961 999.458 420.977 999.626 420.993 999.795C418.25 1000.04 415.519 1000.27 412.778 1000.51C410.752 1000.95 408.721 1001.38 406.695 1001.82C403.288 1001.91 399.878 1001.99 396.465 1002.07C394.344 1002.32 392.237 1002.56 390.12 1002.81C390.819 1002.97 391.518 1003.14 392.218 1003.3C389.493 1003.56 386.767 1003.82 384.038 1004.08C387.253 1004.09 385.315 1004.83 376.866 1005.87C369.889 1006.71 377.635 1004.9 362.688 1007.08C361.644 1007.23 359.865 1008.08 345.701 1009.86C328.727 1011.98 336.927 1010.56 333.897 1010.91C333.301 1010.97 328.151 1011.89 323.296 1012.5C320.54 1012.85 317.859 1012.91 317.495 1012.95C315.796 1013.16 315.339 1013.57 312.985 1013.85C307.003 1014.57 298.959 1015.33 293.104 1016.02C290.443 1016.33 287.963 1016.83 286.776 1016.97C284.933 1017.18 282.561 1017.13 280.699 1017.35C273.823 1018.15 263.508 1020.41 260.154 1019.31C253.699 1021.42 239.688 1021.41 240.802 1022.2C223.105 1023.87 176.334 1030.8 177.528 1029.15C167.749 1031.73 168.512 1030.68 164.351 1031.25C159.698 1031.89 162.144 1031.82 158.443 1032.3C149.797 1033.42 141.539 1034.45 132.963 1035.66C134.283 1035.26 135.601 1034.86 136.918 1034.46C127.902 1035.67 131.062 1035.71 121.904 1037.13C105.052 1039.78 112.119 1038.36 109.544 1038.19C109.95 1038.42 104.216 1039.39 98.615 1040.29C93.0454 1041.2 87.4965 1041.46 86.396 1041.47C84.9472 1041.37 91.2614 1040.93 76.6866 1040.98C77.4754 1041.23 78.2697 1041.46 79.0691 1041.69C72.4009 1041.74 54.1867 1038.8 51.1627 1037.35C49.742 1036.9 42.9491 1032.96 35.8724 1030.61C35.1827 1030 34.506 1029.38 33.8428 1028.76C26.6211 1024.86 19.7249 1019.58 14.0247 1012.88C13.4408 1011.55 12.9123 1010.21 12.4276 1008.86C10.842 1006.6 9.42319 1004.26 8.14394 1001.8C8.69398 1003.59 9.3217 1005.35 10.0304 1007.09C0.0122114 992.273 -0.914362 971.093 0.548808 968.151C0.425465 964.817 0.526206 961.336 0.776385 958.096C1.44614 956.054 2.19618 953.973 2.99837 951.976C6.34418 937.582 6.57547 937.619 9.82229 928.305C9.93968 928.779 10.0599 929.25 10.1828 929.719C12.4229 923.031 18.0119 911.265 23.2304 902.953C25.6583 898.935 30.5489 892.5 31.1575 891.606C31.5783 890.93 34.5713 885.154 36.9697 882.298C37.6482 881.489 38.2602 880.955 38.6846 880.943C47.9918 867.984 52.815 863.612 57.1211 858.573C59.7019 855.603 60.6598 854.017 63.7278 850.541C68.2865 845.386 72.6281 840.932 75.2462 838.091C76.7204 836.492 76.7685 835.97 77.8002 834.857C82.7385 829.553 80.0461 832.87 85.0853 827.555C85.5489 827.065 88.9613 822.93 93.371 818.483C95.815 816.007 102.156 810.214 102.745 809.627C105.167 807.187 102.622 808.451 111.704 800.849C111.348 800.966 110.992 801.082 110.637 801.198C120.5 790.817 122.85 789.629 124.998 787.596C125.311 787.296 127.571 784.693 129.106 783.262C131.691 780.854 133.007 780.138 133.587 779.604C135.58 777.761 142.458 770.922 147.022 767.123C145.213 767.261 160.798 751.995 165.006 749.848C167.59 747.092 170.198 744.321 172.831 741.538C174.243 740.517 175.659 739.494 177.079 738.468C177.712 737.598 178.359 736.715 178.966 735.87C183.295 732.506 187.668 729.12 192.082 725.713C192.031 725.133 191.981 724.552 191.931 723.97C193.117 722.959 194.306 721.946 195.499 720.931C196.647 720.382 197.81 719.821 198.933 719.298C200.302 717.958 201.676 716.615 203.055 715.271C203.23 714.753 203.404 714.236 203.579 713.718C211.061 706.544 208.853 711.924 222.072 697.066C224.498 695.176 226.933 693.282 229.376 691.384C231.284 688.314 236.657 684.362 240.463 680.838C243.174 678.33 242.752 678.16 246.53 674.811C250.315 671.459 250.44 671.869 250.737 671.61C253.848 668.901 255.986 666.567 258.296 664.631C258.644 664.34 259.797 663.939 262.705 661.431C265.616 658.922 267.037 657.027 271.428 653.32C273.68 651.42 274.577 651.154 276.574 649.462C286.044 641.445 294.245 631.768 302.832 627.464C304.224 625.873 315.115 615.173 320.126 610.985C327.904 604.481 325.227 607.365 328.35 604.817C328.801 604.452 331.051 602.331 337.557 596.856C338.721 595.877 338.285 595.907 338.45 595.764C346.027 589.348 360.863 577.128 369.266 570.157C370.015 569.536 373.472 565.703 380.709 560.937C390.08 552.193 409.625 538.021 421.998 526.501C423.786 525.006 426.133 523.419 426.922 522.762C433.793 517.05 430.835 518.431 447.119 506.677C445.605 507.392 449.023 504.151 454.269 499.948C462.109 493.671 457.035 498.724 463.248 493.634C463.117 493.47 462.986 493.307 462.854 493.143C477.617 481.987 479.914 478.997 494.515 467.37C499.805 463.161 507.714 457.503 508.987 456.501C509.486 456.104 514.982 451.129 515.524 450.7C518.618 448.247 520.501 447.066 523.148 444.993C531.951 438.096 542.226 429.298 541.007 431.756C543.271 429.681 545.478 427.653 547.854 425.499C558.037 419.248 563.596 412.798 566.46 412.173C567.993 410.681 569.514 409.201 571.023 407.734C583.572 398.251 596.928 388.302 609.616 379.087C632.031 364.534 628.357 337.435 613.618 309.237C612.655 307.718 602.52 290.279 601.715 289.252C599.332 285.105 602.942 288.888 597.206 280.757C596.263 280.057 595.313 279.357 594.358 278.657C586.962 268.446 590.792 273.213 588.067 269.023C586.784 267.37 586.955 268.093 585.227 265.823C576.089 253.565 555.6 229.049 544.151 216.217C541.87 213.631 542.419 213.838 541.71 213.032C539.762 210.828 535.596 206.658 531.642 202.249C507.172 174.841 471.214 136.421 447.212 106.763C445.618 104.796 445.657 104.32 444.54 102.924C442.984 100.988 439.363 96.8948 437.83 94.8889C436.36 92.9744 435.706 91.7253 434.069 89.5426C426.852 79.9213 417.248 67.1843 411.24 54.9218C410.768 54.2952 405.317 40.404 405.539 40.216C405.409 39.2675 406.76 41.5422 407.23 41.6837C407.797 41.8065 406.881 40.0043 403.803 29.6413C407.139 38.6814 409.224 41.234 408.706 39.1646C408.359 36.8115 405.205 30.4301 403.445 17.2561C405.548 30.6089 410.678 40.8073 416.473 51.1371C416.602 51.0833 416.731 51.0295 416.859 50.9757C412.522 41.0869 407.196 32.4216 405 14.6023C405.181 15.2053 405.357 15.6621 405.547 16.1825C408.009 31.5595 416.672 46.6482 422.614 54.9197C415.49 41.4639 408.365 26.8498 408.774 10.0758C408.868 10.9073 408.987 11.7389 409.13 12.5709C409.22 20.366 415.354 36.2188 418.316 41.0484C424.238 51.431 421.839 46.6395 418.763 40.2054C415.817 34.1729 412.925 24.9949 414.374 28.4042C422.933 51.8115 437.707 70.8263 452.575 89.8061C453.093 89.9464 438.581 72.1852 427.06 52.1799C414.519 32.522 412.197 9.19947 413.791 9.69438C413.77 17.2084 415.847 24.292 418.66 31.2332C417.682 27.8713 417.041 24.9592 416.514 21.5887C416.84 22.4649 417.194 23.3598 417.525 24.1166C421.425 36.0115 427.732 46.4807 434.862 57.0505C413.004 25.2773 414.671 5.09557 420.618 9.63448e-06C420.333 0.781165 420.095 1.57335 419.901 2.38026C417.83 5.14115 416.452 15.7745 421.24 27.9363C425.578 39.9279 434.028 52.888 439.802 61.0082C437.639 57.3434 428.022 42.3511 426.706 38.5638C426.286 37.5624 428.29 40.7823 427.295 38.4703C426.018 35.549 422.58 27.6594 421.22 21.3089C419.625 14.5248 420.192 9.77299 420.429 11.4144C420.476 12.5784 421.649 22.5252 427.195 33.6118C432.478 44.7278 440.012 55.5563 442.459 59.1783C431.744 42.399 420.298 22.0682 422.923 6.95659C423.024 16.2528 426.629 25.9664 438.221 45.4937C440.347 48.3458 434.755 39.2807 430.811 29.4865C426.383 19.2269 426.293 10.1027 426.616 9.91308C426.818 15.569 429.125 22.4289 432.609 29.4852C429.835 23.4735 427.897 17.4885 427.406 12.6045C427.51 12.5797 427.614 12.555 427.718 12.5305C429.588 25.7352 439.19 40.8434 451.149 58.0339C451.058 57.0099 444.05 46.8856 441.046 41.5748ZM470.381 1226.98C469.709 1227.09 474.777 1220.71 477.717 1216.97C477.202 1217.49 476.694 1218 476.194 1218.51C479.445 1214.42 483.891 1208.87 487.736 1203.87C491.204 1199.36 493.703 1195.79 493.558 1195.27C497.639 1189.74 496.407 1192.63 497.809 1190.93C498.293 1190.36 503.47 1182.71 508.063 1177.25C509.05 1175.87 510.024 1174.5 510.985 1173.14C510.931 1172.71 510.877 1172.28 510.822 1171.84C512.492 1170.1 514.196 1168.28 515.844 1166.52C507.02 1179.38 497.946 1191.65 488.138 1204.18C482.153 1211.83 476.255 1219.39 470.406 1226.95C470.398 1226.96 470.389 1226.97 470.381 1226.98ZM568.548 1016.78C566.896 1009.8 560.747 1001.66 561.351 1003.83C563.924 1006.99 566.027 1010.69 567.562 1014.69C567.903 1015.37 568.234 1016.07 568.548 1016.78ZM191.784 727.005C198.132 722.279 202.866 717.039 211.914 709.069C211.79 708.955 211.666 708.841 211.542 708.727C208.11 712.358 198.45 720.745 191.784 727.005ZM330.969 1409.63C329.839 1410.96 328.676 1412.32 327.548 1413.64C331.287 1407.48 332.597 1406.85 337.343 1400.73C337.628 1400.37 337.366 1400.36 337.466 1400.24C338.624 1398.75 339.888 1397.56 340.919 1396.26C343.039 1393.57 344.634 1391.16 348.302 1386.55C351.125 1383 351.441 1383.24 352.406 1382C353.126 1381.08 360.959 1369.45 366.655 1363.01C377.612 1350.63 334.185 1405.73 330.969 1409.63ZM299.712 1447.78C300.757 1446.46 301.794 1445.15 302.823 1443.85C300.18 1448.15 306.436 1440.13 310.827 1434.59C311.186 1435.07 301.474 1446.89 297.051 1452.73C297.948 1451.07 298.835 1449.42 299.712 1447.78ZM429.695 1285.44C425.728 1290.62 425.846 1289.29 425.823 1288.96C427.091 1287.34 428.419 1285.64 429.631 1284.09C429.654 1284.54 429.675 1284.99 429.695 1285.44ZM400.045 1323.61C400.797 1321.86 409.252 1310.78 413.418 1305.41C413.584 1305.2 412.731 1306.73 415.497 1303.16C416.463 1301.93 424.124 1290.55 423.161 1293.59C415.449 1303.65 407.804 1313.57 400.056 1323.6C400.052 1323.6 400.049 1323.61 400.045 1323.61ZM391.086 1334.49C392.624 1332.3 393.908 1330.42 395.564 1328.07C396.618 1327.11 397.659 1326.16 398.685 1325.24C396.893 1327.6 394.903 1330.22 393.227 1332.44C392.52 1333.11 391.806 1333.8 391.086 1334.49ZM604.851 283.071C604.965 283.695 605.076 284.317 605.184 284.938C606.329 286.861 613.12 295.87 611.446 292.739C609.351 289.533 607.018 286.111 604.851 283.071ZM576.914 244.505C575.526 242.588 574.16 240.714 572.756 238.811C570.71 236.987 568.644 235.161 566.561 233.332C573.971 242.573 581.454 252.601 581.178 250.25C582.855 252.368 584.504 254.478 586.123 256.579C584.358 255.148 584.372 255.388 588.406 261.232C589.936 262.072 593.994 268.023 598.86 274.697C595.402 269.693 591.987 264.969 588.28 260.017C588.38 259.94 588.48 259.864 588.581 259.787C596.713 270.717 587.252 256.609 581.401 250.12C581.101 249.469 580.798 248.818 580.493 248.165C579.309 246.947 578.116 245.727 576.914 244.505ZM11.4037 939.999C12.1532 938.192 12.8793 936.581 13.6655 934.906C14.8635 927.693 10.4512 941.494 7.03429 951.836C8.58037 948.46 5.67719 964.812 6.0862 965.878C6.5285 963.995 7.0473 962.053 7.6205 960.214C8.16507 953.316 9.55622 946.464 11.4037 939.999ZM36.4124 895.313C34.4267 897.484 37.308 892.781 42.1535 886.229C46.6441 880.098 53.3981 871.972 56.6186 868.347C58.1871 866.561 61.5702 863.338 62.5646 862.12C63.1087 861.244 63.6603 860.363 64.2194 859.477C65.3983 858.931 77.8515 844.185 82.9604 838.399C83.6149 838.01 84.2716 837.62 84.9304 837.229C86.8071 835.123 88.5373 833.186 90.3891 831.135C90.3016 831.528 90.2147 831.921 90.1285 832.313C91.3742 830.649 92.6388 828.971 93.922 827.283C99.4917 821.14 96.8241 825.519 100.842 820.899C105.251 815.843 97.0992 823.18 96.8357 822.829C92.8297 827.084 84.6405 836.004 80.5566 840.408C78.3547 842.797 80.1628 839.596 71.5095 850.392C69.2078 852.608 66.9613 854.79 64.7719 856.936C61.4082 861.231 57.7483 865.963 54.3989 870.48C53.5015 871.093 52.6118 871.702 51.7296 872.307C51.478 872.455 43.3402 883.678 44.1151 883.126C43.3935 883.875 42.5646 884.8 41.6646 885.858C37.6795 890.587 32.3645 897.814 27.3407 905.88C26.8605 906.956 26.3955 908.025 25.9457 909.087C31.7735 898.971 28.0301 906.018 30.0949 903.301C31.2403 901.807 34.9299 896.93 36.4124 895.313ZM632.263 346.983C629.59 331.566 632.284 341.092 627.043 323.932C627.134 325.297 627.192 326.636 627.218 327.948C630.967 335.929 631.52 349.727 632.264 346.999C632.264 346.994 632.263 346.988 632.263 346.983ZM531.445 193.553C538.573 201.145 535.52 196.827 544.447 206.582C544.451 206.586 544.455 206.591 544.459 206.596C539.957 201.45 535.448 196.354 530.902 191.252C531.084 192.019 531.264 192.786 531.445 193.553ZM327.643 612.485C319.871 618.893 321.564 617.836 314.235 623.331C304.369 632.73 313.047 625.156 313.468 625.65C315.707 623.481 317.948 621.313 320.191 619.147C326.324 614.707 321.078 619.587 321.116 619.632C321.121 619.628 321.126 619.624 321.131 619.619C321.257 619.768 321.097 619.957 323.375 618.167C324.799 616.271 326.22 614.378 327.643 612.485ZM295.427 641.168C297.765 638.582 298.576 637.147 291.523 642.878C291.518 642.883 291.514 642.887 291.509 642.891C291.582 644.097 284.506 649.199 281.559 651.848C280.838 652.614 280.118 653.379 279.398 654.144C284.76 649.785 290.063 645.496 295.427 641.168ZM182.548 742.856C181.817 742.085 187.369 736.821 178.757 743.441C177.223 744.887 175.696 746.328 174.176 747.765C173.328 748.87 172.483 749.974 171.642 751.076C151.04 767.747 147.487 775.448 179.356 744.091C179.36 744.086 179.365 744.082 179.369 744.077C180.427 743.67 181.487 743.263 182.548 742.856ZM216.859 711.457C216.736 710.816 216.615 710.175 216.493 709.534C221.816 706.553 226.432 700.677 235.657 693.733C236.32 692.915 236.985 692.096 237.651 691.277C241.07 688.674 272.686 661.013 265.284 666.387C262.08 668.693 255.869 674.832 255.308 675.314C253.38 676.955 250.59 678.775 247.423 681.613C245.578 683.266 242.14 687.062 238.332 690.446C229.889 697.936 213.576 710.521 203.655 721.48C202.761 722.065 201.868 722.649 200.977 723.232C192.858 730.769 195.934 728.681 187.991 735.101C184.53 741.802 218.243 707.364 212.279 715.71C212.283 715.706 212.288 715.702 212.293 715.698C213.81 714.287 215.332 712.873 216.859 711.457ZM445.962 515.091C446.767 515.046 456.142 506.498 454.552 509.256C457.555 506.312 460.545 503.383 463.52 500.472C463.429 500.409 463.338 500.346 463.247 500.284C460.095 502.935 456.927 505.603 453.746 508.288C453.628 508.167 453.51 508.046 453.392 507.926C449.039 512.216 428.934 528.271 429.189 527.305C428.295 528.362 427.399 529.42 426.503 530.48C416.619 537.691 408.869 545.014 398.187 552.989C397.523 553.81 396.858 554.631 396.192 555.453C395.566 555.754 394.939 556.056 394.311 556.357C390.537 559.46 386.778 562.556 383.038 565.644C371.304 576.302 395.5 557.284 398.352 554.815C398.726 554.488 398.39 554.199 400.736 552.169C404.866 548.573 428.965 529.31 436.198 523.063C436.444 523.235 436.69 523.407 436.937 523.579C439.956 520.736 442.965 517.906 445.962 515.091ZM138.71 782.57C138.002 782.842 137.296 783.115 136.591 783.387C128.269 791.82 122.492 797.162 125.429 795.637C125.434 795.633 125.439 795.628 125.443 795.624C129.988 791.114 134.24 786.932 138.71 782.57ZM574.032 1054.98C574.632 1054.88 575.927 1049.47 576.002 1042.86C575.807 1043.19 575.613 1043.48 575.417 1043.78C575.563 1047.23 574.474 1051.51 572.088 1062.4C572.374 1062.47 572.661 1062.53 572.947 1062.6C573.356 1060.15 573.758 1057.44 574.032 1054.98ZM146.382 775.393C149.235 773.142 155.936 765.345 151.015 769.939C147.277 773.433 144.82 776.628 146.382 775.393ZM504.238 162.765C506.011 164.803 507.789 166.844 509.569 168.888C510.705 169.762 511.843 170.638 512.979 171.511C512.975 171.506 512.97 171.502 512.966 171.497C510.053 168.582 507.14 165.668 504.238 162.765ZM353.89 590.189C346.864 596.157 339.861 602.13 332.867 608.122C332.902 608.305 332.938 608.489 332.973 608.673C339.619 602.246 342.866 600.344 344.532 598.985C344.525 598.992 344.517 598.998 344.51 599.004C349.867 594.642 354.968 590.466 360.09 586.414C358.024 587.671 355.957 588.929 353.89 590.189ZM378.741 570.695C376.817 570.802 375.158 571.997 364.833 581.711C365.352 581.461 365.872 581.211 366.391 580.96C371.954 576.185 375.08 573.23 374.473 574.52C375.896 573.243 377.319 571.968 378.741 570.695ZM268.806 664.056C270.314 663.219 280.247 654.07 279.579 654.411C279.297 654.55 265.836 665.692 268.806 664.056ZM535.685 1144.8C537.396 1142.18 539.052 1139.59 540.656 1137.04C538.757 1140.51 536.601 1144.3 534.664 1147.64C535.01 1146.69 535.332 1145.77 535.685 1144.8ZM518.691 1173.59C517.33 1175.26 520.478 1169.05 512.845 1179.34C518.254 1171.76 523.656 1163.86 528.799 1155.91C526.425 1159.86 524.239 1163.44 521.863 1167.22C522.545 1166.75 523.225 1166.28 523.902 1165.81C522.212 1168.37 520.475 1170.97 518.691 1173.59ZM512.217 1181.4C515.926 1177.73 499.965 1199.5 498.273 1201.34C497.913 1201.77 495.797 1203.53 495.081 1204.24C497.623 1200.97 500.099 1197.74 502.509 1194.55C501.552 1195.5 500.589 1196.46 499.619 1197.42C502.435 1193.63 505.155 1189.89 507.999 1185.91C506.938 1187.67 505.841 1189.47 504.759 1191.23C507.3 1187.94 509.803 1184.64 512.217 1181.4ZM565.073 1088.83C563.828 1091.97 562.535 1095.03 561.216 1098.02C561.748 1097.53 562.278 1097.04 562.806 1096.55C563.566 1094.77 564.33 1092.93 565.091 1091.02C565.09 1090.29 565.084 1089.56 565.073 1088.83ZM533.946 1149.61C535.228 1144.96 545.051 1134.71 535.785 1147.68C534.869 1148.93 533.816 1150.08 533.946 1149.61ZM491.776 1209.39C486.044 1218.36 485.57 1215.29 492.457 1207.58C492.47 1207.57 492.482 1207.56 492.495 1207.54C492.608 1207.42 492.622 1207.49 492.573 1207.68C492.463 1208.06 492.081 1208.92 491.776 1209.39ZM442.643 1272.88C442.081 1273.59 440.619 1274.28 436.088 1281.25C435.197 1282.26 434.279 1283.3 433.332 1284.38C435.043 1281.66 451.621 1259.88 449.86 1263.34C447.339 1266.64 445.226 1269.58 442.643 1272.88ZM460.909 1253.61C463.411 1250.31 465.854 1247.09 468.374 1243.79C467.388 1244.69 466.329 1245.69 465.339 1246.6C466.512 1244.97 467.713 1243.31 468.888 1241.68C471.339 1239.16 473.777 1236.66 476.181 1234.22C470.752 1241.31 465.35 1248.43 459.985 1255.54C460.293 1254.9 460.601 1254.25 460.909 1253.61ZM527.077 1166.96C522.44 1173.3 517.293 1181.25 509.557 1191.61C509.553 1191.61 509.548 1191.62 509.544 1191.62C509.165 1192.13 508.173 1192.93 506.99 1194.49C506.468 1195.19 500.887 1202.76 495.324 1209.84C490.119 1216.48 485.575 1222.2 486.173 1221.01C490.046 1215.69 492.755 1212.33 494.929 1209.53C497.123 1206.7 498.348 1204.95 498.876 1203.26C499.475 1202.9 500.073 1202.53 500.67 1202.17C508.707 1192.39 510.246 1188.75 514.176 1182.79C514.314 1182.92 514.452 1183.06 514.589 1183.19C517.374 1179.36 520.126 1175.5 522.919 1171.48C522.43 1171.97 521.939 1172.46 521.445 1172.95C522.425 1171.54 523.392 1170.14 524.345 1168.74C527.132 1165.66 530.078 1161.47 527.077 1166.96ZM449.328 1268.17C448.212 1272.05 424.811 1300.48 414.449 1314.09C419.336 1306.48 428.255 1296.08 434.206 1288.47C445.617 1273.85 437.322 1283.63 439.066 1281.01C440.036 1279.58 447.147 1271.92 449.328 1268.17ZM542.249 1142.74C537.237 1150.81 534.985 1154.93 529.987 1161.58C530.279 1160.95 530.568 1160.32 530.854 1159.69C532.627 1157.39 544.477 1138.73 542.249 1142.74ZM398.805 1333.33C410.573 1319.25 403.773 1325.77 410.498 1318.81C406.544 1323.93 403.11 1328.39 399.101 1333.57C399.003 1333.49 398.904 1333.41 398.805 1333.33ZM165.094 765.146C170.741 759.881 176.982 754.431 180.004 750.889C176.135 754.361 172.311 757.81 168.534 761.232C167.435 762.49 166.235 763.844 165.094 765.146ZM26.7996 931.132C27.6063 929.59 30.3507 923.308 30.7139 922.699C31.3484 921.515 31.3446 921.927 31.3962 921.934C35.7054 914.132 31.1736 920.956 34.2844 915.314C34.6991 914.327 43.3344 901.367 46.9695 896.599C48.0068 895.165 49.0764 893.72 50.1532 892.295C54.4208 886.63 59.3229 880.724 60.9382 878.775C64.7116 874.186 71.6678 865.452 78.4605 857.958C81.3168 854.804 82.3605 854.191 85.1542 851.16C102.901 831.607 139.604 794.788 156.826 778.905C161.006 775.008 165.356 771.542 167.581 769.398C169.231 767.614 170.945 765.774 172.538 764.053C178.929 760.158 179.815 757.485 185.628 751.907C189.355 748.337 191.363 747.104 191.862 746.642C195.151 743.602 196.646 741.939 199.241 739.515C202.153 736.794 206.561 733.05 207.606 732.051C208.25 731.438 205.749 732.875 217.181 722.54C228.972 711.897 240.528 701.655 252.567 691.036C247.399 693.196 244.747 697.203 239.888 701.622C238.586 702.806 239.228 701.849 238.094 702.877C234.88 705.788 228.967 711.462 226.261 713.804C223.317 716.352 223.857 714.969 220.368 718.444C220.192 718.62 220.959 718.298 220.132 719.106C211.828 727.221 208.792 729.317 197.91 739.252C190.727 745.618 148.037 786.075 146.448 787.566C138.175 794.013 183.059 751.481 188.705 746.613C190.567 744.933 188.838 746.939 190.56 745.432C191.287 744.793 197.321 738.451 203.795 732.487C211.502 725.363 227.589 711.389 234.995 704.771C299.345 647.178 364.487 592.377 431.153 537.716C432.582 536.546 434.175 534.791 438.852 530.97C496.84 483.717 556.686 436.128 618.249 390.96C652.821 368.863 639.654 322.477 620.897 292.576C608.561 271.579 593.439 252.406 577.927 233.128C575.782 230.927 573.613 228.722 571.422 226.514C576.727 232.444 585.24 243.895 586.066 244.993C586.355 245.364 588.451 247.529 591.34 251.286C595.385 256.558 597.025 259.219 597.339 259.632C598.362 261.01 597.905 259.95 598.876 261.266C605.992 270.973 611.377 278.679 617.303 288.337C623.688 298.932 626.194 304.883 630.444 313.052C630.668 314.088 630.877 315.115 631.071 316.133C632.666 318.918 637.614 329.887 639.119 342.61C641 355.401 636.917 368.839 632.342 375.273C629.615 379.319 629.69 378.349 628.675 379.672C627.767 380.371 629.399 381.011 618.985 389.444C618.57 389.755 618.17 390.047 617.784 390.32C613.237 393.542 611.586 394.389 608.982 396.323C607.444 397.468 607.906 397.559 605.665 399.22C593.076 408.561 582.805 416.183 570.302 425.659C566.921 428.224 566.694 428.033 565.938 428.618C563.175 430.755 558.418 435.028 551.251 440.579C539.541 449.616 515.826 468.252 506.296 475.536C504.864 476.626 503.476 477.283 502.437 478.115C500.865 479.376 500.469 480.157 500.192 480.38C494.893 484.607 497.861 481.81 494.434 484.647C492.591 486.175 490.903 488.053 486.545 491.601C480.78 496.299 481.608 495.007 479.202 497.001C478.953 497.211 479.073 497.554 476.704 499.473C467.857 506.633 454.73 517.361 446.335 524.2C443.9 526.183 441.941 527.481 438.525 530.266C431.701 535.763 393.08 567.834 389.869 570.393C389.527 570.659 392.624 567.423 387.184 571.972C385.735 573.453 384.286 574.936 382.836 576.421C379.971 578.373 377.103 580.331 374.234 582.294C375.049 583.122 359.654 596.285 359.037 595.257C357.306 596.652 355.575 598.048 353.844 599.446C350.832 603.067 348.286 604.817 341.778 610.97C340.552 611.679 339.327 612.389 338.101 613.099C337.943 613.455 337.784 613.81 337.625 614.166C333.398 616.56 328.036 622.335 327.314 622.959C324.544 625.35 322.306 626.96 321.007 628.081C316.152 632.263 305.86 641.527 300.09 646.321C299.819 646.545 299.826 646.024 298.184 647.38C295.223 649.825 295.312 650.501 291.014 653.341C290.344 654.144 289.676 654.947 289.008 655.749C288.123 656.402 287.248 657.047 286.357 657.706C281.477 662.006 276.62 666.302 271.791 670.589C275.783 666.221 270.438 670.401 265.994 674.994C264.474 676.563 266.19 675.59 265.684 676.115C264.915 676.874 243.126 695.85 241.454 697.019C240.505 698.033 239.558 699.046 238.612 700.058C237.924 700.332 237.236 700.607 236.548 700.882C236.04 701.454 235.532 702.025 235.025 702.596C229.127 707.247 215.141 721.22 212.49 723.527C211.059 724.768 211.594 722.818 204.963 728.996C204.925 729.431 204.887 729.865 204.85 730.3C203.318 731.752 201.792 733.201 200.272 734.647C197.345 737.285 192.815 740.746 192.446 740.609C191.691 741.588 190.939 742.566 190.189 743.542C187.41 745.153 174.477 757.461 169.783 762.473C168.173 763.697 166.46 765.021 164.81 766.289C162.941 768.391 161.088 770.485 159.252 772.569C154.661 777.021 159.277 772.073 158.264 772.984C156.137 774.883 145.95 785.587 146.026 784.307C144.56 785.711 143.102 787.109 141.655 788.501C141.086 789.399 140.52 790.296 139.957 791.19C136.937 792.91 132.765 797.348 123.813 805.733C123.226 806.593 122.642 807.45 122.062 808.306C119.252 810.691 116.285 813.247 113.377 815.765C113.055 816.556 112.736 817.345 112.419 818.133C111.286 819.342 110.162 820.544 109.047 821.741C106.201 823.567 102.604 828.385 100.178 830.453C96.704 833.406 98.7779 830.465 104.55 824.424C103.647 824.505 86.7466 842.381 82.7862 846.808C83.1206 846.603 83.4555 846.398 83.7912 846.193C87.7918 841.781 91.7238 837.518 95.6708 833.296C99.9801 830.77 88.9465 841.699 83.9669 847.349C83.4986 847.883 81.4083 850.851 76.4172 856.273C74.3417 858.501 66.5957 866.103 65.1729 867.715C53.5368 880.863 62.862 871.313 51.27 884.096C53.2037 882.477 50.5461 885.531 47.077 889.963C45.386 892.131 43.5177 894.618 41.7827 897.137C40.7548 898.433 33.206 910.972 32.7744 911.944C29.7235 917.29 32.5481 911.08 28.2692 918.99C27.8916 920.026 27.5299 921.053 27.1838 922.072C26.2329 923.881 25.3117 925.709 24.3879 927.64C17.7053 938.48 18.0507 942.027 16.8169 946.293C16.3715 948.061 16.6181 945.593 15.4396 950.333C15.0386 952.121 14.8312 954.022 14.0668 958.886C12.3638 973.743 11.3429 980.097 17.8249 993.013C18.5079 995.092 19.3543 997.18 20.3232 999.181C21.3094 1000.32 22.359 1001.44 23.4334 1002.48C30.032 1011.71 28.1965 1007.9 31.0503 1010.76C38.6792 1018.83 59.5093 1025.8 61.3093 1026.28C70.4611 1027.03 81.1248 1028.75 84.7719 1028.49C86.9004 1028.25 89.0089 1027.94 91.1088 1027.56C92.9472 1027.5 94.7898 1027.39 96.6322 1027.23C97.2632 1027.18 97.8944 1027.13 98.5258 1027.07C97.1623 1025.91 109.674 1025.34 110.849 1025.2C112.205 1025 131.097 1021.84 138.153 1020.88C145.208 1019.9 157.539 1018.62 158.624 1018.48C159.864 1018.31 171.827 1016.37 181.229 1015.18C189.444 1014.08 238.266 1008.75 235.13 1008.54C231.921 1008.75 227.358 1009.14 223.423 1009.53C211.188 1010.63 139.672 1019.38 121.474 1022.14C113.176 1023.3 104.806 1024.52 96.4151 1025.8C67.8555 1030.35 31.8848 1021.81 18.9247 993.001C18.0169 990.911 18.2126 990.409 17.5828 988.607C16.4941 985.851 14.661 978.537 14.551 975.618C13.4667 964.639 16.4937 951.815 18.2518 946.352C22.0799 934.162 26.3082 926.405 30.9962 918.006C32.2881 915.498 40.0413 902.07 46.3823 894.04C47.1519 893.104 47.9346 892.163 48.7305 891.217C49.1484 890.725 49.5713 890.23 49.9991 889.732C49.6667 890.185 49.2787 890.717 48.8515 891.308C44.9986 896.514 38.5992 906.189 35.6305 911.165C30.6189 919.397 28.112 923.866 26.5271 927.062C25.0299 929.736 19.3392 944.017 17.8882 950.899C17.3609 953.019 16.9116 953.36 16.5378 955.149C14.2633 965.127 14.4881 978.895 17.8223 987.256C17.2688 985.527 18.3543 990.192 20.7712 994.987C23.098 999.844 26.9714 1004.48 27.3787 1004.9C28.7405 1006.42 30.4702 1007.83 33.6341 1010.47C39.9281 1015.22 38.7275 1015.52 47.9552 1019.17C50.1245 1020.35 52.3275 1021.41 54.615 1022.36C54.8197 1021.92 62.2197 1024.51 71.015 1025.49C79.7925 1026.63 89.7908 1025.95 94.0273 1024.73C94.148 1024.64 84.2401 1025.99 73.9364 1024.98C63.5837 1024.2 53.3579 1020.64 51.8525 1019.98C42.7108 1016.58 31.7688 1010.01 24.8206 999.899C17.6818 989.901 15.5767 977.354 16.1231 967.817C15.8218 961.904 20.8341 944.619 21.5781 943.438C22.2916 941.323 21.3148 943.122 21.6226 942.203C28.4927 924.074 25.6916 933.466 26.7996 931.132ZM515.914 1184.04C519.282 1179.44 522.741 1174.59 526.063 1169.79C525.999 1170.25 525.934 1170.72 525.868 1171.19C524.286 1173.36 522.671 1175.54 521.023 1177.74C519.94 1179.5 518.904 1181.17 517.817 1182.91C517.184 1183.28 516.55 1183.66 515.914 1184.04ZM508.046 1196.22C505.141 1200.25 504.613 1200.19 503.895 1201.1C501.733 1203.82 500.011 1206.34 497.872 1209.07C499.523 1205.26 504.96 1198.97 508.046 1196.22ZM563.382 1107.94C562.885 1108.88 558.674 1115.21 555.55 1123.34C552.312 1128.74 548.697 1134.49 545.231 1139.71C551.233 1130.68 557.873 1116.85 560.165 1112.04C561.048 1110.24 561.524 1110.05 562.206 1108.62C566.345 1099.98 568.842 1091.47 570.294 1090.9C566.715 1099.16 564.12 1106.49 563.382 1107.94ZM535.342 1157.12C534.318 1158.26 533.283 1159.41 532.237 1160.57C535.301 1155.89 538.132 1151.43 540.964 1146.81C540.361 1148.26 539.851 1149.55 539.285 1150.92C538.002 1152.97 536.688 1155.03 535.342 1157.12ZM339.61 996.221C342.966 995.828 346.326 995.431 349.684 995.033C349.48 994.88 345.638 995.339 344.208 995.389C344.214 995.388 344.22 995.387 344.227 995.386C342.635 995.44 343.284 995.135 340.408 995.374C340.142 995.657 339.876 995.939 339.61 996.221ZM569.364 222.906C565.95 218.479 531.17 179.476 533.604 183.279C534.886 185.157 547.012 198.228 550.495 202.204C555.198 207.467 567.228 222.462 569.364 222.906ZM507.861 153.864C506.756 153.61 528.708 177.831 530.918 180.129C530.53 179.565 529.978 178.654 529.405 177.954C526.621 174.544 512.451 159.167 507.861 153.864ZM151.49 1016.93C154.142 1016.9 156.805 1016.87 159.451 1016.85C158.711 1016.52 157.97 1016.19 157.23 1015.87C155.316 1016.22 153.402 1016.58 151.49 1016.93ZM51.1087 887.977C78.5562 853.383 110.199 822.154 141.635 791.587C138.966 794.409 136.456 797.09 133.696 800.028C106.468 826.619 77.8671 855.328 54.9728 884.081C53.6512 885.401 52.3631 886.699 51.1087 887.977ZM570.098 1097.45C574.454 1086.91 577.236 1078.32 580.759 1066.55C578.254 1078.04 575.696 1083.1 572.251 1093.85C572.249 1093.86 572.246 1093.86 572.244 1093.87C571.543 1095.06 570.78 1096.37 570.098 1097.45ZM439.454 981.802C442.792 981.031 446.158 980.251 449.498 979.467C445.427 980.06 441.342 980.644 437.274 981.218C438.001 981.413 438.728 981.607 439.454 981.802ZM330.065 624.407C338.605 616.251 362.402 597.647 369.247 590.915C369.688 590.479 365.121 593.886 371.762 587.491C366.523 592.052 362.849 595.32 362.771 596.033C361.082 597.235 359.393 598.438 357.704 599.643C355.164 601.951 352.619 604.267 350.087 606.576C350.053 605.958 349.862 606.152 346.063 609.814C344.15 611.271 342.238 612.728 340.327 614.188C339.687 615.006 339.047 615.824 338.407 616.643C336.634 617.766 334.861 618.89 333.089 620.015C327.127 625.514 331.25 622.745 330.065 624.407ZM298.666 651.221C300.158 649.998 341.455 614.164 321.934 629.577C317.043 633.805 312.181 638.02 307.299 642.267C312.42 640.005 298.115 650.413 297.011 651.333C291.685 655.729 285.287 661.805 281.477 665.101C278.208 667.928 276.087 669.394 273.812 671.394C266.113 678.154 253.757 689.075 252.567 691.036C258.56 685.751 264.765 680.295 271.011 674.797C277.608 668.997 283.949 664.289 295.882 652.794C299.045 650.18 298.273 651.524 298.666 651.221ZM459.704 978.03C459.396 978.784 479.965 975.453 480.055 975.144C480.066 974.985 473.374 976.042 472.405 976.129C472.399 976.13 472.393 976.131 472.386 976.132C471.983 976.168 473.97 975.598 470.808 976.014C467.102 976.696 463.407 977.367 459.704 978.03ZM619.147 286.885C619.052 283.542 580.403 232.189 578.519 231.367C578.153 231.004 578.48 231.662 578.277 231.567C588.241 242.688 600.845 259.958 608.784 271.698C611.021 274.98 610.563 273.846 610.697 274.03C610.702 274.037 610.707 274.045 610.713 274.053C611.992 275.874 616.938 284.696 619.147 286.885ZM384.881 577.426C382.71 579.099 380.538 580.776 378.365 582.455C377.965 583.063 377.565 583.671 377.166 584.28C377.17 584.276 377.175 584.272 377.18 584.268C379.748 581.983 382.315 579.702 384.881 577.426ZM458.575 517.698C457.969 517.999 457.363 518.3 456.757 518.602C451.433 522.894 446.074 527.23 440.685 531.604C441.174 531.097 441.663 530.59 442.151 530.084C433.852 536.571 430.954 539.623 426.589 543.108C426.594 543.104 426.599 543.1 426.604 543.096C426.136 543.469 425.382 543.689 423.654 545.096C419.664 548.339 408.351 557.527 407.189 558.895C404.711 561.788 427.224 542.808 431.478 539.384C433.398 537.829 435.861 536.161 437.023 535.219C438.287 534.193 439.837 532.456 442.97 529.914C443.897 529.16 454.29 521.248 458.575 517.698ZM553.659 441.672C551.81 442.683 548.532 445.633 547.212 446.591C546.897 446.819 549.113 444.744 546.168 446.927C545.464 447.715 544.759 448.505 544.051 449.297C547.289 446.721 550.492 444.179 553.659 441.672ZM494.26 972.321C494.023 972.325 492.159 972.566 489.924 972.931C486.56 973.479 482.391 974.168 482.073 974.246C478.122 975.248 484.942 974.29 489.996 973.377C493.347 972.774 495.899 972.322 494.26 972.321ZM529.551 1173.53C532.36 1170.8 512.602 1198.53 500.164 1213.65C496.129 1218.69 493.356 1222.15 492.427 1223.36C492.223 1222.71 501.576 1211.71 496.285 1217.21C497.154 1216.23 498.29 1214.87 499.632 1213.23C505.585 1206 513.651 1195.04 516.159 1191.75C517.932 1189.45 518.736 1189.15 519.005 1188.81C520.07 1187.5 528.277 1174.92 529.551 1173.53ZM461.282 1262.98C464.89 1258.45 468.496 1253.91 472.116 1249.38C467.992 1254.84 463.879 1260.32 459.774 1265.77C460.257 1264.87 460.782 1263.91 461.282 1262.98ZM457.036 1268.92C457.571 1269.13 445.225 1284.43 442.136 1288.58C444.928 1283.5 451.681 1276.22 457.036 1268.92ZM565.466 984.661C558.269 978.919 553.95 978.5 563.572 983.932C563.853 984.099 565.755 984.907 565.466 984.661ZM333.695 624.344C334.874 623.342 349.898 611.28 350.582 610.365C352.73 607.444 343.303 615.869 339.873 618.373C334.337 622.411 341.713 615.564 329.216 626.629C329.626 626.057 330.036 625.486 330.447 624.914C322.978 631.218 326.169 630.028 324.933 631.281C324.554 631.665 319.855 635.56 319.069 636.334C309.241 645.998 332.578 625.262 333.695 624.344ZM345.123 991.25C327.143 992.879 334.937 992.693 316.531 994.794C315.958 995.24 342.831 991.86 345.123 991.25ZM201.074 740.228C214.85 727.43 226.602 717.487 239.111 705.448C237.579 705.359 197.296 743.228 201.074 740.228ZM483.765 120.26C529.707 176.135 592.438 233.445 629.968 302.078C633.634 309.401 633.645 310.721 634.874 313.428C635.667 315.258 635.842 314.817 636.8 317.252C648.358 342.887 645.59 377.694 620.289 393.765C567.126 432.926 515.94 473.649 465.362 514.307C460.745 518.004 438.488 535.237 434.5 539.861C431.457 543.363 446.781 530.038 449.419 527.91C451.39 526.312 451.705 526.531 453.016 525.467C454.405 524.339 453.1 525.075 454.709 523.763C461.437 518.272 469.187 512.13 475.319 507.163C523.597 468.124 571.535 430.377 620.715 394.35C634.219 384.942 644.127 369.162 644.474 352.334C644.592 342.649 644.528 344.523 644.605 344.054C644.604 344.048 644.603 344.041 644.601 344.035C637.107 291.367 594.889 247.47 561.148 206.787C536.558 178.329 510.816 150.735 486.068 122.531C485.298 121.772 484.53 121.015 483.765 120.26ZM302.697 649.568C306.986 647.342 307.068 645.764 320.158 635.131C321.078 634.092 321.998 633.054 322.918 632.015C316.158 637.857 309.424 643.703 302.676 649.587C302.683 649.581 302.69 649.574 302.697 649.568ZM388.032 577.706C391.152 577.036 419.525 552.107 432.907 541.552C434.866 538.959 415.883 554.991 411.41 558.602C409.166 560.401 396.588 569.804 387.81 577.691C387.884 577.695 387.958 577.701 388.032 577.706ZM564.382 1119.73C565.606 1117.21 566.776 1114.72 567.895 1112.27C564.854 1118.28 561.424 1124.6 558.042 1130.44C563.285 1121.06 568.408 1111 572.831 1100.9C572.325 1102.88 571.785 1104.89 571.21 1106.92C568.929 1111.46 566.796 1115.41 564.382 1119.73ZM578.513 1086.88C571.799 1104.82 578.258 1086.04 580.066 1081.32C581.199 1078.61 579.197 1085.03 578.513 1086.88ZM589.274 1037.49C590.012 1046.83 586.352 1064.91 586.518 1058.28C588.646 1048.76 589.443 1042.28 588.853 1027.94C589.232 1029.97 589.544 1032.08 589.784 1034.25C589.784 1034.26 589.784 1034.27 589.784 1034.28C589.632 1035.43 589.461 1036.41 589.274 1037.49ZM576.006 1095.35C570.859 1107.1 583.983 1072.54 580.366 1083.6C580.217 1084.3 576.314 1094.81 576.006 1095.35ZM538.384 178.943C537.104 178.061 543.588 185.227 545.709 187.634C554.942 198.068 566.916 211.424 576.174 222.524C575.554 221.604 574.928 220.68 574.323 219.783C562.626 205.968 550.517 192.37 538.384 178.943ZM604.455 258.184C610.262 266.086 616.045 274.439 621.381 283.033C621.889 283.837 624.429 287.43 622.795 284.598C616.976 275.33 610.797 266.604 604.455 258.184ZM256.705 692.6C262.537 687.706 246.818 702.995 246.792 701.56C250.139 698.528 253.396 695.583 256.705 692.6ZM204.089 740.461C207.563 737.143 211.106 733.776 214.527 730.531C214.616 730.621 214.706 730.71 214.795 730.8C211.285 733.954 207.653 737.232 204.089 740.461ZM512.256 149.851C515.315 153.858 523.552 162.785 528.598 168.344C525.397 164.269 516.883 155.211 512.256 149.851ZM343.576 617.967C342.901 618.133 366.174 598.557 358.466 605.751C353.488 609.823 348.535 613.887 343.576 617.967ZM391.116 578.545C386.155 582.763 382.208 585.934 382.942 584.716C385.611 582.511 388.278 580.31 390.944 578.115C391.001 578.258 391.059 578.401 391.116 578.545ZM583.4 1002.83C578.392 992.289 569.977 983.423 559.947 977.681C560.377 977.786 560.807 977.895 561.247 978.015C570.878 983.795 578.902 992.479 583.758 1002.7C583.639 1002.74 583.519 1002.79 583.4 1002.83ZM508.929 144.498C503.755 138.927 498.778 133.549 493.62 127.912C498.657 133.666 503.515 139.162 508.569 144.852C508.694 144.738 508.819 144.624 508.943 144.511C508.939 144.507 508.934 144.502 508.929 144.498ZM551.804 1148.4C569.319 1119.4 548.249 1157.41 542.385 1164.12C542.38 1164.13 542.376 1164.13 542.371 1164.14C541.875 1164.77 542.478 1163.16 541.633 1164.18C543.68 1161.34 545.669 1158.53 547.601 1155.75C549.006 1153.11 550.592 1150.11 552.022 1147.32C552.628 1146.46 553.228 1145.61 553.823 1144.76C553.161 1145.97 552.488 1147.18 551.804 1148.4ZM471.865 1258.63C453.305 1282.74 471.49 1257.42 481.241 1246.03C481.373 1246.12 473.545 1256.44 471.865 1258.63ZM520.625 1195.16C523.456 1191.16 526.159 1187.25 528.823 1183.32C529.276 1182.86 529.726 1182.41 530.175 1181.95C528.043 1185.18 526.131 1188.04 524.022 1191.14C522.902 1192.47 521.769 1193.81 520.625 1195.16ZM592.299 1052.77C593.282 1044.6 593.858 1034.47 590.297 1060.04C590.424 1060.06 590.551 1060.07 590.677 1060.08C590.867 1059.05 591.268 1056.1 591.296 1055.94C591.403 1055.46 591.736 1056.22 592.299 1052.77ZM440.013 1305.23C439.527 1305.93 440.209 1307.23 433.611 1313.4C431.866 1315.76 430.426 1317.73 428.774 1319.97C428.105 1320.35 427.432 1320.73 426.754 1321.11C433.391 1313.04 433.717 1311.65 434.155 1311.08C436.253 1308.31 434.916 1310.51 436.278 1308.78C439.97 1304.09 447.914 1293.58 444.916 1298.84C443.759 1300.83 440.531 1304.49 440.013 1305.23ZM453.295 1289.44C452.413 1290.4 454.656 1286.87 453.97 1287.57C453.36 1288.21 445.19 1298.05 446.796 1294.92C448.168 1293.2 449.471 1291.57 450.715 1290.02C451.291 1289.57 451.902 1289.08 452.483 1288.63C453.632 1286.88 454.626 1285.32 455.809 1283.52C458.195 1281.17 463.165 1275.68 458.155 1282.76C460.049 1280.25 461.944 1277.73 463.872 1275.16C464.668 1273.78 465.548 1272.28 466.358 1270.88C466.099 1271.75 465.832 1272.63 465.555 1273.52C461.466 1278.86 457.369 1284.18 453.295 1289.44ZM392.468 1366.59C392.568 1366.19 392.652 1365.82 392.781 1365.38C386.036 1374.41 374.757 1388.84 380.259 1380.2C390.163 1367.55 399.572 1355.52 409.35 1342.99C410.048 1342.31 410.841 1341.51 411.61 1340.74C404.036 1349.55 407.837 1348.08 401.025 1355.74C399.882 1357.02 402.444 1352.61 396.099 1361.39C396.474 1361.19 396.848 1360.98 397.221 1360.78C395.672 1362.68 394.008 1364.71 392.468 1366.59ZM330.157 1444.75C343.082 1428.87 329.356 1447.13 326.957 1449.33C326.961 1449.33 326.965 1449.32 326.969 1449.32C319.714 1456.2 333.519 1439.91 334.469 1438.7C335.553 1437.32 337.402 1433.38 344.27 1427.08C339.745 1432.74 335.044 1438.63 330.157 1444.75ZM370.745 1394.01C369.774 1395.29 370.127 1394.44 369.698 1394.99C369.694 1394.99 369.69 1394.99 369.686 1395C363.27 1403.18 347.681 1423.19 345.18 1425.02C350.313 1418.45 371.697 1391.21 373.646 1389.64C372.693 1391.08 371.699 1392.57 370.745 1394.01ZM416.854 1334.73C421.249 1330.02 412.27 1341.52 409.657 1344.43C409.096 1345.06 412.316 1339.6 416.854 1334.73ZM470.22 965.103C456.115 967.596 474.759 965.052 468.397 966.537C471.093 966.078 473.785 965.616 476.47 965.149C474.389 965.136 472.306 965.121 470.22 965.103ZM111.598 840.048C114.008 837.656 112.671 838.595 112.872 838.381C114.476 836.748 116.025 835.523 116.589 834.91C127.02 823.624 119.663 830.716 119.499 830.793C119.057 830.812 121.654 827.681 117.466 831.432C115.164 833.919 112.901 836.382 110.501 839.006C109.173 840.133 107.857 841.252 106.553 842.364C102.103 847.509 108.326 841.176 109.402 840.76C109.809 840.608 105.467 845.415 111.598 840.048ZM444.727 967.893C442.505 968.75 436.957 970.217 442.568 969.953C442.574 969.952 442.58 969.951 442.587 969.95C443.625 969.901 447.798 969.352 449.094 969.3C458.104 967.26 454.508 967.064 444.727 967.893ZM71.078 885.846C67.766 889.609 63.8163 894.301 60.6777 898.201C60.4791 897.938 60.2806 897.675 60.0826 897.412C61.834 895.273 63.6874 893.062 65.6389 890.783C66.1827 889.88 66.7634 888.937 67.3091 888.044C64.6294 890.739 62.0464 893.395 59.638 895.92C59.0727 896.699 58.5197 897.469 57.9791 898.23C55.9816 901.026 54.1024 903.768 52.3377 906.454C53.5752 904.981 54.8505 903.492 56.1644 901.988C50.2965 910.456 50.8035 908.412 45.9655 915.32C44.5822 918.057 43.3198 920.728 42.1741 923.329C39.7496 926.991 37.6475 930.362 35.535 934.161C32.8062 940.476 32.8304 941.257 34.9792 937.066C33.9242 940.404 31.9952 943.564 30.8247 947.602C30.7308 947.928 31.2751 947.435 31.1855 947.72C25.7288 967.764 27.023 966.472 26.4345 969.697C26.1633 971.99 27.9412 980.409 28.3483 980.377C28.4663 980.44 28.0631 976.144 28.3615 975.201C28.9681 974.083 27.7639 977.306 32.9861 988.813C27.3014 977.179 29.5381 959.755 27.562 970.595C26.6792 966.113 31.7579 944.887 32.9078 943.568C33.699 941.66 33.8361 942.511 34.8536 940.062C35.5497 938.602 35.8508 934.33 42.8336 923.705C43.4606 922.266 44.1236 920.806 44.8232 919.325C45.7256 918.1 46.691 916.808 47.6167 915.612C46.3231 918.56 45.1039 921.533 44.0571 924.362C49.501 913.839 55.9731 906.422 60.0972 899.836C60.255 899.581 60.4093 899.327 60.5599 899.073C64.4858 894.11 66.7998 891.469 65.2843 894.04C66.5321 892.472 67.8862 890.8 69.1726 889.235C69.7903 888.118 70.4255 886.988 71.078 885.846ZM403.151 974.36C396.337 974.752 394.03 976.116 395.092 976.041C401.069 975.606 406.697 974.154 403.151 974.36ZM102.665 848.52C97.3383 853.715 91.8947 859.145 86.7974 864.344C87.0455 864.57 87.2936 864.796 87.5417 865.022C92.3848 859.603 97.5811 853.947 102.665 848.52ZM472.171 964.035C472.891 964.178 473.61 964.32 474.33 964.462C479.196 963.13 484.18 962.605 488.204 962.184C490.999 961.879 493.344 961.698 494.996 961.384C495.914 961.211 493.995 960.992 492.194 961.151C491.892 961.178 490.316 961.362 488.123 961.681C482.696 962.467 473.203 963.815 472.171 964.035ZM513.785 1213.48C515.57 1210.89 517.316 1208.32 519.025 1205.77C519.149 1206.07 519.273 1206.38 519.396 1206.69C518.525 1207.93 517.644 1209.18 516.755 1210.43C515.772 1211.44 514.782 1212.46 513.785 1213.48ZM534.463 1184.61C537.756 1179.94 540.883 1175.38 543.921 1170.82C532.362 1188.46 542.239 1174.12 535.138 1185.08C534.913 1184.92 534.688 1184.77 534.463 1184.61ZM565.197 1136.81C565.007 1137.5 564.812 1138.2 564.615 1138.9C561.752 1144.02 559.104 1148.55 556.095 1153.51C558.477 1150.72 560.797 1147.95 563.057 1145.21C564.056 1143.48 565.107 1141.63 566.146 1139.78C565.834 1138.78 565.518 1137.79 565.197 1136.81ZM219.341 738.773C221.763 736.581 229.979 728.465 229.495 728.652C225.768 731.701 222.068 734.737 218.396 737.758C218.606 738.022 218.815 738.286 219.025 738.55C218.416 738.878 217.807 739.204 217.199 739.531C215.284 741.442 213.304 743.416 211.372 745.35C210.154 746.064 208.939 746.777 207.726 747.489C206.933 748.67 206.143 749.849 205.356 751.026C215.452 742.584 214.781 742.416 216.815 740.568C217.832 739.647 218.616 739.216 219.047 738.966C219.145 738.901 219.243 738.837 219.341 738.773ZM100.671 853.735C111.292 842.631 117.086 835.502 125.534 828.05C119.262 831.877 87.8965 866.728 76.522 878.375C75.5611 879.873 74.6267 881.351 73.7194 882.81C79.5769 875.585 83.701 871.795 86.818 868.441C89.2374 865.854 88.8098 865.939 88.9929 865.741C89.0015 865.732 89.0103 865.722 89.019 865.713C94.4502 859.928 96.3371 858.294 100.671 853.735ZM483.459 960.988C479.25 961.267 471.991 962.446 472 963.034C476.058 962.572 480.143 962.095 484.204 961.609C483.351 961.595 484.177 960.942 483.459 960.988ZM569.758 1131.82C571.453 1129.09 575.084 1121.53 573.02 1124.49C572.652 1125.06 569.261 1132.33 570.605 1127.79C567.072 1134.55 568.749 1133.46 569.758 1131.82ZM104.455 1010.31C107.218 1009.88 109.959 1009.45 112.716 1009.03C113.325 1008.7 113.934 1008.37 114.544 1008.04C111.174 1008.79 107.824 1009.55 104.455 1010.31ZM521.609 957.811C525.504 959.177 532.687 958.645 540.194 961.326C542.929 961.95 545.877 962.759 548.612 963.664C548.619 963.666 548.626 963.668 548.633 963.671C548.806 963.396 548.981 963.121 549.156 962.847C539.973 959.805 530.768 958.341 521.609 957.811ZM42.711 925.853C41.7898 927.209 40.9048 928.548 40.0551 929.871C38.973 932.324 37.7904 935.157 36.8599 937.674C37.5712 936.376 38.3184 935.059 39.1025 933.724C40.2701 930.99 41.3802 928.552 42.711 925.853ZM570.56 973.462C561.555 967.276 557.634 966.35 569.204 973.554C573.871 976.918 579.438 980.73 570.56 973.462ZM347.549 625.94C345.158 627.86 342.769 629.781 340.382 631.703C339.724 632.54 339.066 633.378 338.407 634.217C341.454 631.453 344.498 628.697 347.549 625.94ZM547.37 1169.25C547.399 1168.82 547.426 1168.39 547.453 1167.96C549.035 1165.61 550.579 1163.27 552.086 1160.96C551.893 1161.66 551.697 1162.36 551.499 1163.06C550.152 1165.11 548.776 1167.17 547.37 1169.25ZM331.769 639.225C329.88 640.788 327.993 642.351 326.108 643.914C324.926 645.063 323.745 646.212 322.564 647.361C324.367 645.946 326.172 644.532 327.978 643.118C329.24 641.82 330.504 640.523 331.769 639.225ZM596.179 1063.44C597.336 1059.82 598.702 1044.92 596.443 1058.19C594.74 1066.51 595.99 1064.01 596.179 1063.44ZM591.305 1082.69C595.644 1069.59 590.921 1078.93 586.616 1094.89C592.081 1079.3 590.956 1083.39 591.305 1082.69ZM536.319 1188.46C536.114 1188.75 535.67 1188.77 534.139 1190.91C528.619 1198.64 520.735 1208.95 516.56 1214.31C515.037 1216.28 513.035 1218.88 510.666 1221.92C497.6 1238.56 475.599 1267.67 471.864 1271.17C470.952 1272.01 472.151 1269.39 471.822 1269.77C470.87 1270.86 465.991 1277.72 466.578 1276.18C471.598 1269.66 476.571 1263.16 481.55 1256.69C480.588 1258.49 479.632 1260.28 478.675 1262.07C490.92 1245.86 486.924 1251.12 489.862 1246.14C492.263 1243.5 494.521 1241.06 496.896 1238.47C501.187 1232.54 505.155 1227.05 509.547 1221.03C509.77 1220.73 509.992 1220.42 510.214 1220.12C510.017 1220.44 509.819 1220.77 509.62 1221.09C508.873 1222.31 508.149 1223.5 507.447 1224.66C508.491 1223.42 509.372 1222.37 510.11 1221.48C514.487 1216.19 513.293 1217.31 516.264 1212.74C516.438 1212.85 516.613 1212.97 516.787 1213.09C523.075 1204.01 524.831 1202.6 526.328 1200.6C529.347 1196.45 531.083 1190.19 543.871 1175.68C547.258 1168.45 549.308 1169.68 550.829 1165.05C559.275 1154.22 544.992 1176.03 537.771 1186.03C537.767 1186.04 537.764 1186.04 537.76 1186.05C537.213 1186.82 538.268 1185.71 536.319 1188.46ZM572.221 1127.76C569.493 1135.83 584.223 1105.95 577.972 1115.24C577.252 1116.66 576.516 1118.08 575.762 1119.51C574.637 1122.23 573.454 1124.99 572.211 1127.78C572.214 1127.77 572.217 1127.77 572.221 1127.76ZM414.943 969.61C385.796 973.913 402.475 972.355 412.298 970.432C414.254 970.048 415.311 969.737 414.943 969.61ZM116.747 838.228C116.945 837.838 117.144 837.448 117.344 837.057C110.344 844.308 97.1079 857.58 97.8653 858.104C104.319 851.149 110.143 845.032 116.747 838.228ZM65.446 896.007C66.7219 894.432 72.3019 887.826 71.3441 888.485C69.0096 890.931 66.2038 894.025 63.8704 896.63C62.9653 898.021 62.0967 899.386 61.2657 900.722C61.2576 900.735 61.2496 900.748 61.2415 900.76C61.2508 900.749 61.2601 900.737 61.2694 900.725C62.6309 899.008 65.0851 896.436 65.446 896.007Z" fill="#87392B" fill-opacity="0.59"/>
</svg>
