<svg width="728" height="1397" viewBox="0 0 728 1397" fill="none" xmlns="http://www.w3.org/2000/svg">
<path d="M494.58 53.3374C528.667 96.6399 558.403 121.321 595.746 156.808C625.367 184.617 659.069 215.158 689.152 251.143C703.872 269.232 718.616 289.082 725.4 312.206C733.732 335.828 721.18 362.609 700.013 374.182C669.153 393.676 639.09 413.552 611.683 431.925C538.665 480.951 465.579 532.191 394.782 583.407C391.15 586.036 388.967 587.573 387.323 588.766C371.828 599.991 346.022 618.951 330.741 630.284C298.622 653.952 243.269 695.946 214.531 718.533C202.495 727.926 189.726 738.068 185.127 741.63C180.7 745.161 178.265 747.225 177.12 748.151C177.106 748.162 177.093 748.172 177.08 748.183C173.297 751.233 164.104 758.603 161.973 760.35C161.664 760.603 163.614 759.087 158.544 763.201C158.098 763.564 158.469 763.203 154.259 766.652C153.157 767.538 139.258 779.098 135.233 782.499C122.025 793.447 90.7111 820.455 75.8073 834.636C73.4545 836.842 72.1416 838.115 69.7661 840.382C68.5384 841.554 66.7281 843.264 66.3662 843.616C64.6777 845.218 57.4199 852.587 59.879 849.821C52.5142 857.229 54.8495 855.041 54.6789 855.265C49.3585 860.72 46.0617 864.261 43.9596 866.581C42.6656 868.013 41.7434 869.079 41.0652 869.916C22.8927 890.955 6.1037 915.337 3.58517 943.27C0.118733 971.649 22.9692 996.879 50.1058 1002.72C50.1265 1002.7 50.1472 1002.69 50.1679 1002.68C66.1392 1006.34 72.0112 1005.45 81.3022 1004.94C83.3311 1004.73 85.356 1004.45 87.3793 1004.11C91.133 1003.47 94.8726 1002.83 98.5992 1002.2C240.369 978.487 381.576 952.847 522.452 932.583C529.544 931.549 536.586 930.815 543.589 930.422C550.026 930.138 551.489 929.978 562.023 930.276C573.551 930.698 590.027 932.608 604.283 938.704C616.89 943.326 633.52 957.36 637.601 972.486C638.689 975.79 639.165 978.202 639.25 978.575C639.685 980.798 639.663 980.919 639.962 983.145C640.289 985.705 640.52 988.874 640.485 991.959C640.475 1003.4 637.056 1015.06 636.642 1016.51C634.697 1023.08 634.038 1024.36 633.866 1024.93C631.119 1032.24 632.198 1029.35 631.498 1031.13C627.699 1040.14 624.475 1046.56 617.927 1057.89C618.087 1057.56 618.245 1057.23 618.403 1056.89C613.018 1065.82 616.635 1059.97 615.542 1061.8C615.365 1062.47 603.041 1080.79 601.919 1082.03C598.388 1086.85 598.178 1087 597.907 1087.37C597.362 1088.18 588.006 1100.31 583.262 1105.8C577.43 1112.65 584.194 1104.49 582.737 1106.19C582.551 1106.44 576.29 1113.78 575.454 1114.66C574.469 1115.75 579.93 1109.45 579.814 1109.54C579.723 1109.7 570.835 1119.75 572.502 1117.77C573.735 1116.44 585.951 1102.23 588.145 1099.34C588.559 1098.82 587.734 1099.76 588.102 1099.3C590.092 1097.68 614.808 1063.42 615.16 1061.59C614.055 1063.43 612.931 1065.25 611.756 1067.1C613.37 1064.61 614.772 1062.39 616.4 1059.71C614.167 1063.43 612.12 1066.67 609.763 1070.25C613.514 1065.3 622.697 1049.16 622.861 1048.32C622.937 1048.15 617.441 1057.83 622.44 1048.63C621.613 1050.14 620.892 1051.42 620.097 1052.8C618.512 1055.65 616.823 1058.54 615.028 1061.49C616.244 1059.54 617.414 1057.61 618.537 1055.71C618.139 1056.42 617.734 1057.13 617.323 1057.85C613.992 1063.47 610.948 1068.23 607.275 1073.64C605.495 1076.22 605.84 1075.64 604.597 1077.4C588.243 1099.55 599.254 1084.98 588.002 1099.3C586.37 1101.29 584.816 1103.14 583.166 1105.08C583.873 1104.37 578.548 1110.72 572.375 1117.71C573.102 1116.85 573.822 1115.99 574.536 1115.14C565.622 1125.58 545.796 1145.72 551.205 1140.36C548.881 1142.72 546.735 1144.88 544.511 1147.09C542.662 1148.98 540.782 1150.88 538.871 1152.8C536.928 1154.7 534.953 1156.62 532.948 1158.55C532.192 1159.28 531.447 1160 530.712 1160.7C530.691 1160.71 530.669 1160.71 530.647 1160.71C531.393 1159.99 532.149 1159.26 532.917 1158.52C534.351 1157.14 535.769 1155.76 537.171 1154.39C535.743 1155.73 534.3 1157.09 532.84 1158.44C532.621 1158.65 532.403 1158.85 532.186 1159.05C530.569 1160.62 529.002 1162.14 527.481 1163.61C533.996 1157.39 525.536 1165.64 523.369 1167.79C517.872 1173.11 514.25 1176.47 512.36 1178.27C511.577 1179.03 501.188 1189.08 505.208 1185.06C499.876 1190.15 494.522 1195.22 489.154 1200.25C487.05 1202.19 484.917 1204.16 482.811 1206.09C487.347 1201.81 474.001 1214.04 483.775 1204.97C491.072 1198.17 492.861 1196.56 496.336 1193.3C499.403 1190.41 501.026 1188.82 504.397 1185.62C514.473 1176.05 523.748 1167.12 532.796 1158.4C544.191 1147.39 554.649 1136.81 565.708 1124.77C569.745 1120.37 573.203 1116.44 575.704 1113.57C578.704 1110.11 575.01 1114.47 578.78 1110.07C582.686 1105.48 583.414 1104.5 584.41 1103.3C585.055 1102.52 586.88 1100.37 588.786 1098C596.285 1088.85 606.2 1074.82 606.991 1073.54C608.612 1071.99 625.511 1043.78 625.766 1041.98C626.136 1041.18 625.504 1043.02 628.498 1036.19C629.456 1034.06 630.349 1031.97 631.179 1029.9C631.07 1030.25 630.959 1030.59 630.847 1030.94C635.591 1018.18 634.22 1022.75 637.524 1010.06C641.058 995.097 641.651 973.461 628.702 957.471C616.087 941.487 595.227 935.017 578.624 932.549C570.947 931.488 568.076 931.251 559.105 930.963C550.696 930.428 528.823 932.319 533.574 932.072C529.164 932.489 525.578 932.956 522.57 933.393C513.232 934.755 509.983 935.331 502.932 936.275C501.816 936.46 500.703 936.644 499.591 936.828C489.647 938.226 486.473 938.772 475.655 940.417C470.934 941.137 476.342 940.228 466.865 941.766C465.055 942.035 463.25 942.303 461.451 942.572C461.865 942.487 462.281 942.403 462.696 942.318C452.161 943.949 451.479 944.048 452.692 943.939C447.627 944.705 442.532 945.48 437.445 946.259C436.818 946.383 436.192 946.506 435.566 946.629C437.158 946.401 484.203 939.066 522.583 933.482C544.811 930.071 564.15 930.994 570.161 931.632C589.409 931.453 627.346 947.422 632.985 964.036C635.848 969.561 637.108 972.224 638.773 981.095C640.411 990.051 639.146 1001.58 638.186 1006.23C638.705 1023.58 599.054 1088.76 624.601 1043.9C623.91 1045.2 623.194 1046.51 622.456 1047.84C612.543 1065.62 616.255 1059.1 606.814 1073.44C603.048 1079.15 592.69 1092.88 593.187 1091.94C601.188 1081.66 609.473 1069.87 615.32 1060.23C616.042 1059.17 622.83 1047.46 625.82 1041.11C628.396 1035.57 627.152 1039.34 632.089 1026.69C635.829 1017.14 636.931 1011.15 637.469 1008.66C638.392 1003.91 638.524 1003.52 639.059 998.874C639.583 993.657 639.394 990.318 639.386 989.535C639.374 986.079 638.515 974.909 633.643 965.771C629.046 956.491 621.345 950.315 620.759 949.803C621.903 950.74 622.998 951.71 624.053 952.723C617.035 946.335 618.233 947.96 616.277 946.452C614.762 945.414 613.103 944.387 611.533 943.501C612.171 943.845 612.803 944.2 613.456 944.581C603.626 939.338 611.426 942.632 596.593 937.043C586.965 933.86 576.676 932.558 575.671 932.43C575.381 932.395 578.559 932.836 574.434 932.319C567.76 931.406 556.012 931.15 554.637 931.167C551.353 931.19 551.635 931.254 551.197 931.259C549.904 931.2 534.308 931.849 522.617 933.713C516.988 934.536 512.284 935.23 510.394 935.509C494.135 937.91 476.077 940.61 458.512 943.314C456.695 943.594 457.849 943.386 456.031 943.666C453.113 944.113 438.203 946.472 435.976 946.826C430.455 947.693 415.801 949.985 413.486 950.369C413.158 950.423 418 949.697 412.35 950.606C406.093 951.615 409.455 951.025 409.114 951.078C396.418 953.081 388.39 954.417 379.698 955.835C376.897 956.292 371.697 957.096 367.724 957.759C367.267 957.835 368.179 957.725 367.73 957.8C361.754 958.798 356.118 959.654 353.524 960.077C347.184 961.112 350.645 960.595 350.314 960.65C346.125 961.343 340.364 962.279 333.977 963.346C305.297 968.142 281.947 972.12 251.506 977.336C247.68 977.991 243.143 978.733 242.559 978.833C240.751 979.144 241.274 979.099 236.047 979.996C225.036 981.886 214.819 983.648 203.913 985.523C201.717 985.9 200.774 986.021 199.1 986.308C193.483 987.272 174.347 990.664 174.014 990.586C162.882 992.611 155.452 993.777 146.494 995.302C130.291 998.062 107.089 1001.99 87.5642 1005.22C81.505 1006.23 75.7285 1006.57 70.6491 1006.49C66.1356 1006.4 64.0538 1006.14 61.5512 1005.88C59.3345 1005.65 51.8131 1004.6 45.0202 1002.36C38.1878 1000.24 32.2332 996.962 31.6749 996.632C29.5198 995.122 30.3251 996.684 19.8435 988.169C14.1258 982.688 15.079 983.079 13.9793 981.875C5.67422 971.955 3.39973 959.258 3.98869 961.593C0.680296 947.095 3.16126 937.089 4.48023 931.363C4.41369 931.416 5.92625 924.467 9.18742 916.744C6.56187 924.857 5.07565 923.649 2.60886 944.286C2.58942 944.617 2.5848 943.982 2.56516 944.314C2.34684 947.302 2.41609 953.452 3.39036 958.489C4.39795 963.421 3.81775 960.702 4.2908 962.669C4.7919 964.463 4.76969 964.358 5.65831 966.922C8.582 975.155 13.3956 981.383 16.7875 984.954C18.9184 987.241 21.5269 989.569 23.455 991.052C30.5284 997.381 49.4526 1004.92 61.489 1005.71C63.9781 1005.95 62.9181 1005.99 68.3741 1006.28C69.0207 1006.29 71.3297 1006.41 76.1189 1006.21C80.8477 1005.98 84.5081 1005.52 87.5312 1005.02C87.5576 1005.02 87.5841 1005.01 87.6104 1005.01C90.1677 1004.58 89.0983 1004.72 94.3286 1003.85C98.6873 1003.15 148.024 994.855 150.706 994.385C154.551 993.739 156.405 993.474 158.753 993.067C159.167 992.995 159.859 992.827 161.292 992.579C184.929 988.492 237.268 979.523 264.287 974.904C320.775 965.238 372.928 956.482 430.037 947.515C431.068 947.344 432.066 947.18 433.081 947.012C427.316 947.913 421.507 948.828 415.77 949.736C415.729 949.719 415.688 949.702 415.648 949.685C407.808 950.925 408.872 950.813 409.092 950.811C406.195 951.258 403.351 951.698 400.437 952.15C397.927 952.63 378.705 955.672 368.77 957.302C362.329 958.354 354.639 959.652 351.246 960.21C344.094 961.387 344.234 961.316 343.677 961.407C342.704 961.566 332.708 963.271 325.457 964.484C314.777 966.272 313.61 966.389 298.968 968.93C280.209 972.065 259.451 975.638 239.241 979.118C243.075 978.387 224.98 981.565 216.818 982.969C177.227 989.777 130.457 997.802 87.5085 1004.89C76.499 1006.7 65.4742 1006.54 55.2278 1004.61C48.8193 1003.4 44.1407 1001.77 40.766 1000.47C38.9281 999.748 38.1285 999.486 35.6491 998.315C35.2297 998.077 34.8795 998.027 30.4691 995.51C25.0071 992.419 16.0117 985.572 10.5791 976.614C4.91017 967.774 3.28285 957.834 3.00259 953.892C0.606952 920.224 21.756 890.645 43.4535 866.124C50.1147 858.752 57.4115 851.334 65.0993 843.864C65.8736 843.138 66.6393 842.424 67.4215 841.698C73.2145 835.793 97.3695 813.818 109.739 803.247C130.984 784.761 158.815 761.862 177.967 746.516C182.219 743.102 185.643 740.401 189.576 737.271C191.273 735.919 193.374 734.206 195.16 732.79C215.154 716.911 242.605 695.688 262.997 680.168C309.546 644.713 353.744 612.076 401.74 577.38C499.746 506.805 598.381 437.837 699.545 373.44C716.528 363.507 729.609 344.399 726.806 324.173C724.662 304.419 714.25 286.804 703.163 270.811C680.259 238.801 652.088 211.472 623.876 184.43C621.939 182.589 622.075 182.663 620.583 181.25C611.799 172.892 591.878 154.453 581.848 145.128C573.814 137.672 561.275 125.807 558.473 123.211C586.618 150.059 617.098 177.332 645.843 205.862C647.873 207.881 648.092 208.158 648.341 208.407C652.895 212.999 650.097 210.075 656.763 216.866C659.059 218.985 678.933 240.615 676.538 237.958C681.854 242.871 712.342 281.889 715.632 291.164C717.027 293.811 716.075 291.919 716.352 292.444C717.531 294.719 717.982 295.764 718.918 297.777C721.677 302.903 726.201 317.708 726.248 320.682C728.301 327.132 725.569 347.777 719.379 354.745C714.678 361.243 715.718 359.952 710.496 365.082C706.421 368.482 711.421 364.903 701.231 372.182C700.753 372.497 700.163 372.882 699.469 373.32C693.29 377.195 677.854 387.115 674.109 389.55C669.843 392.306 664.776 395.557 659.061 399.292C650.505 404.868 632.107 417.043 623.393 422.881C622.888 423.219 621.676 424.076 620.421 424.913C617.819 426.65 618.573 426.086 616.596 427.402C614.601 428.687 580.123 451.962 574.559 455.799C570.576 458.514 567.816 460.436 565.59 461.958C563.842 463.153 563.632 463.246 561.842 464.471C561.248 464.878 556.725 468.02 552.085 471.208C547.714 474.202 530.991 485.711 529.121 487.014C527.871 487.881 529.261 486.952 525.559 489.519C522.182 491.862 519.931 493.38 517.994 494.726C513.444 497.89 508.617 501.295 503.875 504.61C490.289 514.113 490.908 513.637 490.114 514.189C487.873 515.758 486.998 516.426 486.262 516.944C483.158 519.129 475.513 524.526 472.72 526.502C469.254 528.952 467.712 529.991 464.068 532.57C461.34 534.501 455.848 538.442 449.593 542.894C435.494 552.925 418.8 564.895 405.062 574.809C400.96 577.77 400.309 578.195 399.054 579.101C392.46 583.863 388.807 586.569 386.929 587.931C373.531 597.635 349.688 615.015 337.333 624.152C332.297 627.856 310.302 644.217 298.006 653.456C296.6 654.51 297.898 653.499 296.337 654.677C292.585 657.509 292.956 657.307 291.044 658.743C290.12 659.437 287.993 660.995 285.312 663.013C271.484 673.424 261.902 680.772 255.642 685.557C195.197 731.904 134.196 779.984 81.6212 827.975C75.8971 833.245 68.7483 839.94 60.0559 848.496C59.7788 848.744 59.503 848.992 59.2281 849.239C58.9437 849.548 58.6607 849.856 58.3793 850.164C51.999 856.563 47.721 861.097 43.2941 865.98C41.2177 868.28 38.9952 870.801 36.4404 873.847C35.7489 874.662 33.2429 877.585 31.9724 879.389C23.7166 890.133 28.1166 884.315 22.4374 892.548C16.8522 900.985 12.0273 909.724 8.4669 918.843C6.20079 923.741 15.283 903.016 16.4513 901.966C17.678 899.815 18.933 897.839 20.1601 895.898C23.8912 889.981 27.5934 884.944 28.6385 883.623C33.7961 876.75 27.36 885.25 27.9378 884.448C31.3587 879.844 35.1995 875.109 38.9173 870.825C39.3606 870.255 40.9376 868.396 43.1943 865.89C49.6464 858.576 62.844 845.66 61.5785 846.814C63.4792 844.976 65.4365 843.107 67.202 841.441C75.1807 833.603 80.0551 829.181 91.4671 818.961C90.6192 819.697 89.7774 820.429 88.9415 821.159C89.2539 820.844 99.0362 812.08 95.5868 815.262C105.539 806.31 105.664 806.454 114.561 798.602C120.05 793.877 116.76 796.758 126.783 788.255C132.483 783.431 140.02 777.081 146.595 771.65C148.101 770.405 148.787 769.895 150.139 768.782C151.493 767.669 152.128 767.092 153.782 765.734C157.183 762.941 161.76 759.249 163.883 757.522C165.769 755.988 168.443 753.769 173.079 750.024C189.451 736.842 184.473 740.936 187.058 738.884C189.809 736.718 191.726 735.099 197.279 730.713C197.837 730.273 196.421 731.448 198.233 730.013C199.689 728.86 200.425 728.214 205.257 724.399C207.037 722.94 237.027 699.561 241.622 696.074C248.777 690.548 264.246 678.773 271.686 673.136C274.478 671.017 277.449 668.72 280.437 666.461C290.378 658.94 306.246 647.033 318.97 637.577C330.304 629.131 350.477 614.365 356.69 609.727C372.785 597.917 376.737 595.145 377.953 594.255C381.24 591.865 382.737 590.724 386.882 587.711C440.553 548.636 512.063 498.252 563.924 462.842C608.708 432.231 653.506 402.171 699.371 373.166C720.017 361.638 732.048 336.769 724.612 313.852C718.52 291.6 704.552 272.209 690.207 254.3C660.884 218.615 626.641 187.383 593.016 155.964C592.714 155.709 592.413 155.455 592.111 155.2C604.788 166.988 619.628 180.86 631.965 192.768C648.504 208.532 672.147 232.774 682.845 245.746C678.401 240.538 670.996 232.363 671.078 232.567C679.209 241.423 687.2 250.628 694.704 260.289C694.508 259.987 694.311 259.684 694.113 259.382C701.843 269.25 709.474 280.173 715.355 291.239C716.416 293.256 715.698 291.817 716.597 293.568C717.58 295.523 716.889 294.21 717.072 294.576C719.491 299.501 720.025 300.929 720.297 301.526C720.915 303.066 720.493 301.889 722.229 306.577C725.297 315.024 726.112 321.828 725.687 319.649C726.187 322.569 726.485 325.366 726.548 328.424C726.595 329.196 726.626 329.966 726.639 330.734C725.421 348.999 718.702 356.157 711.903 363.191C709.324 365.739 707.214 367.518 704.474 369.587C702.94 370.676 701.323 371.744 699.622 372.788C699.511 372.871 699.4 372.953 699.288 373.035C699.108 373.17 698.928 373.305 698.747 373.441C684.085 382.665 667.631 393.347 653.833 402.39C643.74 409.01 641.639 410.389 632.849 416.217C613.299 429.229 632.583 416.314 616.555 426.94C617.409 426.411 618.261 425.882 619.11 425.356C616.475 427.132 613.819 428.926 611.143 430.736C609.26 431.966 607.367 433.204 605.464 434.449C597.437 440.024 592.054 443.53 590.928 444.292C590.08 444.868 586.772 447.204 577.235 453.603C581.292 450.986 569.894 458.605 568.956 459.248C568.079 459.843 556.951 467.49 552.528 470.533C549.029 472.935 541.398 478.16 536.151 481.79C531.559 484.966 532.042 484.683 531.708 484.915C526.031 488.851 529.574 486.358 525.456 489.211C521.333 492.07 518.133 494.339 517.235 494.96C516.783 495.272 518.269 494.192 516.203 495.625C510.694 499.445 500.871 506.345 494.539 510.785C492.297 512.356 489.463 514.306 487.011 516.028C483.235 518.68 481.489 519.962 479.288 521.511C478.521 522.05 473.596 525.438 467.493 529.767C466.314 530.603 463.046 533.086 458.431 536.116C458.101 536.384 457.77 536.653 457.44 536.921C437.106 551.445 431.399 555.28 422.478 561.919C407.739 572.478 417.802 565.153 416.176 566.306C415.131 567.047 410.358 570.509 409.831 570.888C408.898 571.557 409.044 571.421 408.023 572.157C389.308 585.673 397.645 579.719 391.738 584.029C377.711 594.295 366.652 602.146 391.14 584.414C391.132 584.402 391.123 584.391 391.115 584.38C385.092 588.754 369.816 599.88 374.874 596.106C378.833 593.113 415.203 566.847 394.569 581.678C389.885 585.049 387.501 586.839 379.368 592.633C374.026 596.516 373.336 597.175 366.083 602.411C367.298 601.577 368.512 600.746 369.725 599.916C359.894 607.162 347.748 615.989 340.219 621.579C337.652 623.481 328.562 630.473 330.585 628.712C326.308 631.879 306.03 646.932 302.323 649.749C301.404 650.447 300.393 651.323 287.261 661.161C286.346 661.833 285.433 662.504 284.52 663.176C296.411 654.156 275.354 669.99 281 665.595C282.955 664.174 292.439 657.065 293.993 655.932C296.617 654.013 288.925 659.856 298.749 652.462C304.848 647.66 287.139 661.06 289.743 658.895C276.832 668.724 275.556 669.617 272.643 671.817C260.042 681.367 252.448 687.196 240.581 696.309C237.761 698.511 258.991 682.271 261.627 680.265C251.987 687.779 268.754 674.98 275.738 669.611C276.35 669.194 276.963 668.777 277.576 668.36C268.467 675.23 259.33 682.175 250.396 689.065C249.802 689.503 249.209 689.94 248.617 690.377C250.616 688.816 252.622 687.252 254.634 685.686C247.109 691.409 251.722 688 241.561 695.696C241.275 695.969 240.989 696.243 240.703 696.517C231.087 703.91 221.496 711.341 211.93 718.819C207.122 722.668 188.618 737.28 191.953 734.505C184.611 740.333 193.691 733.183 186.854 738.66C183.949 740.988 177.958 745.791 176.501 746.927C177.062 746.337 185.909 739.236 188.455 737.124C186.887 738.208 146.106 771.367 149.764 768.327C146.551 770.956 148.104 769.748 142.332 774.551C126.032 788.052 101.073 809.346 88.6987 820.828C103.526 807.638 108.097 803.624 119.624 793.734C126.9 787.24 173.012 749.408 162.837 757.925C164.493 756.561 166.157 755.193 167.831 753.82C169.554 752.468 171.286 751.112 173.028 749.75C168.146 753.69 163.531 757.437 158.55 761.508C157.364 762.434 156.182 763.357 155.006 764.278C154.488 764.733 153.971 765.187 153.455 765.64C151.429 767.308 149.419 768.967 147.426 770.617C147.969 770.133 148.513 769.648 149.059 769.162C145.966 771.704 142.927 774.212 139.724 776.871C140.597 776.194 141.473 775.515 142.352 774.834C127.546 787.18 132.637 782.918 124.573 789.629C118.458 794.821 128.738 786.144 115.972 797.073C101.66 809.487 110.555 801.485 92.1346 817.853C91.8679 818.117 91.602 818.381 91.3367 818.644C87.082 822.436 82.9823 826.143 79.0471 829.757C79.5815 829.294 80.1186 828.83 80.6586 828.365C72.1581 836.123 61.0431 846.985 58.2388 849.709C66.6253 841.46 66.4226 841.545 64.281 843.556C62.5842 845.218 53.4724 853.854 42.8387 865.569C21.2381 887.181 2.03208 926.714 2.53578 938.802C-0.533381 961.164 7.40984 979.771 23.959 992.114C18.3168 988.198 6.45364 976.276 3.38406 961.016C-0.167822 945.98 3.90094 931.258 5.19901 926.897C5.48827 926.038 5.43301 926.245 7.26098 920.602C13.8984 902.491 26.7214 883.492 42.9042 865.628C42.9587 865.568 43.0135 865.507 43.0683 865.447C43.0172 865.511 42.9662 865.574 42.9153 865.638C42.4955 866.158 42.0801 866.677 41.6689 867.194C31.7679 878.022 24.0946 889.545 25.0903 887.837C23.4242 890.198 21.7883 892.627 20.1908 895.139C20.2145 895.154 20.2383 895.169 20.2621 895.184C17.9354 898.838 15.631 902.792 13.6476 906.605C13.6226 906.592 13.5976 906.579 13.5727 906.566C11.8594 909.857 10.3288 913.105 8.91478 916.52C8.79231 916.889 8.67251 917.257 8.55537 917.625C6.41872 922.532 2.79154 934.234 2.31639 942.888C1.76561 951.486 2.58136 956.797 2.0363 948.545C2.08038 953.753 2.74925 958.785 4.17302 963.773C4.1882 963.752 4.20341 963.73 4.21861 963.708C4.81499 965.794 5.57152 967.923 6.43398 969.925C6.13296 969.27 5.84452 968.606 5.56904 967.932C9.12942 977.434 15.5248 984.984 20.5937 989.233C17.3008 986.35 14.3255 983.089 11.8021 979.512C16.2454 986.841 29.1697 995.801 30.5032 996.193C34.1757 998.269 36.175 999.288 40.4242 1000.99C44.2963 1002.45 43.7852 1002.16 44.5126 1002.42C66.0721 1008.02 57.9743 1005.72 68.2905 1006.61C69.403 1006.68 70.5073 1006.73 71.6144 1006.77C73.0881 1006.75 74.5722 1006.7 76.0461 1006.61C79.9071 1006.44 83.7658 1006.05 87.5962 1005.41C90.295 1004.97 92.9864 1004.52 95.6709 1004.08C93.4934 1004.4 91.3113 1004.73 89.1246 1005.06C98.9133 1003.42 103.452 1002.73 104.411 1002.57C107.093 1002.12 108.309 1001.88 109.136 1001.74C148.922 995.047 124.771 999.152 144.681 995.948C151.76 994.679 144.577 995.834 143.557 995.94C152.987 994.369 155.935 993.847 165.874 992.152C168.467 991.71 171.257 991.268 172.89 990.989C174.307 990.747 178.716 989.953 182.117 989.369C187.778 988.398 195.315 987.126 203.064 985.792C209.509 984.684 229.228 981.261 242.991 978.897C248.857 977.89 247.503 978.155 249.019 977.895C249.647 977.787 254.233 976.962 257.988 976.318C288.728 971.049 320.194 965.736 351.111 960.63C372.874 957.035 395.022 953.414 416.875 949.959C421.497 949.228 419.054 949.643 421.076 949.325C421.777 949.215 422.585 949.036 429.812 947.921C432.423 947.519 429.441 948.021 431.983 947.624C433.223 947.432 433.72 947.308 440.996 946.166C454.183 944.099 461.361 943.064 462.498 942.887C464.71 942.546 464.056 942.61 466.997 942.16C481.463 939.95 493.397 938.157 506.342 936.241C508.454 935.928 514.909 934.974 522.637 933.847C536.705 931.579 554.937 931.243 556.414 931.382C561.598 931.488 556.819 931.418 563.363 931.659C565.188 931.726 567.114 931.831 568.951 931.964C566.005 931.707 563.034 931.535 560.13 931.437C568.188 931.646 577.45 932.671 583.268 933.82C584.421 933.953 594.412 936.24 599.228 938.118C597.133 937.383 595.073 936.743 592.903 936.144C593.663 936.371 594.415 936.605 595.158 936.846C605.101 939.867 615.275 944.831 623.087 952.205C625.84 954.904 624.945 953.989 627.498 956.935C634.558 965.92 635.419 970.404 636.782 974.257C637.842 978.272 639.218 982.182 639.005 993.154C639.155 989.497 638.902 980.778 636.26 973.038C633.805 965.233 629.043 958.957 627.804 957.485C626.319 955.157 618.455 948.029 621.25 950.743C612.762 943.912 611.639 944.161 611.309 943.751C610.829 943.586 610.697 942.867 601.313 939.022C601.686 939.192 602.057 939.364 602.425 939.538C595.771 936.895 590.645 935.654 586.498 934.686C585.05 934.032 561.211 930.706 547.91 931.742C539.747 932.039 531.312 932.837 522.674 934.104C511.076 935.805 499.491 937.529 488.758 939.141C482.28 940.113 478.658 940.616 477.852 940.738C476.692 940.913 473.355 941.458 470.99 941.818C462.238 943.137 435.375 947.225 428.78 948.382C460.033 943.477 491.292 938.743 522.684 934.168C543.864 931.138 565.456 930.353 586.419 934.812C583.126 934.22 594.839 935.892 606.619 941.456C618.714 946.645 628.195 957.621 628.768 958.808C630.262 960.842 628.976 959.151 629.415 959.758C632.688 964.303 634.583 968.705 635.227 970.358C635.687 971.576 636.735 974.212 637.714 978.849C637.889 979.707 637.961 979.941 638.123 980.879C639.163 987.108 639.197 993.2 638.507 999.598C638.464 999.995 638.255 1001.49 638.018 1003.04C637.786 1004.6 637.533 1006.18 637.455 1006.58C636.597 1011.52 634.17 1019.83 632.511 1024.25C631.936 1025.83 632.37 1024.74 631.703 1026.52C629.598 1031.88 630.371 1029.95 627.473 1036.52C626.442 1038.76 626.603 1038.58 624.623 1042.58C623.187 1045.42 623.25 1045.09 623.017 1045.54C622.68 1046.31 617.518 1055.8 615.459 1058.96C619.485 1052.05 610.928 1066.36 611.37 1065.6C609.042 1069.2 606.376 1073.12 603.983 1076.49C603.151 1077.7 602.303 1078.92 601.438 1080.14C590.923 1094.43 584.191 1102.67 572.645 1115.84C572.196 1116.41 562.24 1127.33 562.623 1126.83C568.821 1120.1 574.17 1114.02 578.099 1109.53C584.057 1102.28 584.11 1102.57 593.437 1090.66C596.436 1086.75 596.571 1086.48 596.913 1086.03C608.864 1070.76 624.937 1043.74 629.575 1031.55C631.029 1028.16 625.683 1040.31 627.769 1035.56C628.359 1034.28 635.646 1018.23 637.76 1003.81C640.114 989.463 637.648 978.06 638.824 988.716C638.73 986.434 638.546 984.383 638.205 982.071C638.089 979.772 634.808 969.211 635.167 970.424C634.772 969.473 634.324 968.483 633.86 967.543C632.953 965.668 631.828 963.5 629.873 960.652C626.983 954.667 608.728 938.84 586.841 935.036C565.42 930.281 544.551 932.18 542.49 932.218C542.398 932.248 542.307 932.279 542.215 932.31C575.104 930.831 617.386 933.269 634.543 969.446C634.138 968.417 633.7 967.407 633.23 966.417C640.074 980.03 639.722 996.132 636.286 1010.56C640.839 995.335 638.628 968.001 625.926 955.922C623.923 953.727 625.42 955.309 624.959 954.805C623.687 953.529 622.488 952.049 617.336 948.189C612.379 943.92 597.374 937.782 595.918 937.632C593.212 936.706 585.765 934.863 580.936 934.109C574.691 933.118 578.882 933.742 577.626 933.546C572.263 932.776 567.7 932.437 563.466 932.225C557.421 931.803 544.435 932.092 540.26 932.592C544.544 932.286 549.117 932.098 553.415 932.071C542.351 932.194 532.546 933.111 522.734 934.512C511.384 936.148 500.312 937.77 487.831 939.696C482.543 940.615 501.835 937.709 485.531 940.205C488.486 939.759 491.475 939.31 494.392 938.873C495.077 938.745 495.762 938.616 496.449 938.487C501.51 937.752 506.683 937.006 511.713 936.285C510.264 936.475 508.817 936.664 507.375 936.853C512.535 936.087 517.757 935.315 522.745 934.586C534.992 932.766 545.518 932.289 550.1 932.28C550.472 932.24 550.844 932.202 551.215 932.164C568.122 931.161 593.211 936.498 588.429 935.788C589.202 935.962 589.956 936.141 590.725 936.333C600.626 939.205 596.263 937.943 599.988 939.195C601.308 939.045 618.587 948.529 610.94 944.327C619.285 949.209 621.473 951.875 622.696 952.834C623.846 953.899 623.809 953.752 625.614 955.7C635.234 964.449 638.952 987.079 636.978 977.844C637.377 979.606 637.694 981.419 637.928 983.284C638.77 989.171 638.559 995.244 637.646 1001.72C637.351 1003.88 636.967 1006.08 636.491 1008.33C636.222 1009.77 635.93 1011.17 635.596 1012.62C629.487 1032.58 631.412 1026.35 627.537 1035.04C628.136 1033.65 628.706 1032.28 629.249 1030.92C630.527 1027.83 631.865 1024.27 632.939 1021C628.43 1034.46 621.802 1047.34 614.416 1059.45C604.808 1074.68 598.858 1083.08 586.111 1098.86C584.972 1100.27 583.812 1101.7 582.631 1103.14C583.754 1101.64 588.42 1096.08 579.745 1106.41C579.002 1107.22 584.757 1100.36 587.45 1097.05C588.109 1096.25 582.604 1103.14 588.819 1095.42C592.873 1090.23 585.67 1099.58 597.486 1084.11C597.034 1084.69 596.54 1085.33 596.12 1085.87C597.406 1084.16 598.736 1082.36 599.993 1080.63C601.143 1079.1 602.266 1077.59 603.362 1076.08C605.926 1072.29 607.839 1069.6 613.548 1060.49C611.973 1063.04 614.269 1059.58 617.068 1054.78C617.047 1054.77 617.027 1054.76 617.007 1054.75C623.371 1043.4 621.484 1047.05 626.162 1037.32C626.662 1036.29 627.147 1035.26 627.617 1034.25C630.393 1029.11 636.692 1007.51 635.516 1011.49C637.119 1005.47 638.518 992.576 638.043 987.666C638 987.297 637.953 986.93 637.903 986.565C637.719 984.083 637.358 981.436 636.834 978.96C636.56 977.576 636.233 976.203 635.835 974.801C635.301 973.044 634.691 971.367 633.981 969.703C633.576 968.674 633.138 967.665 632.668 966.676C631.343 964.094 629.767 961.615 627.986 959.31C626.924 957.877 625.791 956.512 624.575 955.195C624.837 954.623 610.863 943.654 605.95 942.126C604.587 941.505 603.276 940.953 601.889 940.411C601.226 940.12 600.555 939.835 599.875 939.557C598.815 939.182 597.763 938.834 596.734 938.513C594.378 937.712 591.841 936.966 589.41 936.345C579.253 934.124 578.927 934.331 576.569 933.924C572.17 933.115 557.3 932.443 554.681 932.599C552.199 932.602 551.014 932.588 548.988 932.642C515.793 934.784 529.334 934.465 522.816 935.071C522.787 935.075 522.757 935.08 522.727 935.084C519.114 935.62 516.564 935.955 513.4 936.424C508.053 937.204 480.621 941.351 479.093 941.587C476.811 941.925 482.16 940.934 474.745 942.103C474.48 942.237 458.585 944.562 466.024 943.564C459.543 944.54 452.873 945.554 446.39 946.546C447.172 946.541 439.007 947.729 430.267 949.106C417.799 951.056 389.741 955.631 390.773 955.353C387.827 955.855 384.8 956.371 381.829 956.88C361.416 960.153 341.422 963.499 321.195 966.893C261.114 976.966 196.043 988.34 136.27 998.441C133.399 998.927 133.805 998.819 131.735 999.168C123.034 1000.64 103.182 1004 87.7846 1006.55C83.9064 1007.19 80.2882 1007.54 77.1866 1007.71C72.1928 1007.95 69.7795 1007.78 68.1857 1007.73C62.8197 1007.44 64.0927 1007.51 61.6202 1007.28C57.6513 1007.43 37.4829 1002.19 31.4997 998.045C28.3893 996.355 24.8367 994.123 21.6289 991.51C21.3513 991.284 21.8903 991.668 21.6553 991.477C15.9258 986.56 19.36 989.54 17.4744 987.811C3.96113 975.311 -1.81764 954.213 2.26097 934.961C3.07716 930.201 5.31698 922.911 6.82094 919.13C7.41245 917.64 6.26372 920.324 8.39704 915.141C9.14894 913.39 9.41642 912.882 10.3197 910.95C14.3536 902.66 15.8646 899.972 20.1333 893.411C25.2384 885.401 33.7351 874.303 42.2061 864.998C46.7701 859.923 52.1984 854.314 55.4908 851C57.7512 848.723 58.9037 847.611 61.1802 845.371C62.8542 843.724 65.5649 841.041 67.9962 838.719C70.3841 836.433 74.6396 832.454 79.393 828.071C84.345 823.49 91.0379 817.452 92.1999 816.419C93.5736 815.191 94.2482 814.649 95.6435 813.409C99.8313 809.661 111.555 799.383 117.105 794.654C123.216 789.421 126.914 786.339 128.929 784.638C130.827 783.039 133.046 781.13 133.93 780.391C135.304 779.241 135.656 779.002 137.416 777.534C140.294 775.134 143.311 772.592 147.502 769.136C225.043 705.443 303.698 646.646 382.537 589.252C391.328 582.872 396.297 579.227 409.29 569.878C414.557 566.092 412.366 567.725 416.457 564.773C418.289 563.452 417.805 563.756 420.124 562.089C430.383 554.712 442.271 546.274 446.765 543.076C448.533 541.818 450.53 540.348 454.147 537.779C481.115 518.617 513.161 496.168 542.459 475.968C557.97 465.257 581.46 449.181 599.452 437.059C631.539 415.425 666.188 392.507 698.65 372.024C716.608 361.57 728.125 342.049 725.022 323.195C702.397 243.127 627.233 193.806 570.203 136.571C598.221 162.987 637.161 198.04 666.351 229.308C685.462 250.014 704.326 271.496 717.037 297.582C723.076 310.427 727.27 324.906 724.318 338.934C721.473 353.023 711.05 364.182 698.597 371.94C639.971 409.058 581.463 448.806 524.868 488.009C488.632 513.125 443.274 545.186 404.161 573.406C402.387 574.685 398.729 577.364 394.893 580.136C394.074 580.726 383.961 587.988 380.569 590.459C383.841 588.199 370.501 597.798 366.403 600.802C361.217 604.596 350.48 612.516 338.388 621.409C327.41 629.489 330.42 627.224 329.811 627.669C325.936 630.52 324.627 631.569 321.679 633.766C309.467 642.718 247.697 689.317 230.626 702.738C226.237 706.138 226.103 706.197 225.114 706.964C222.445 709.038 218.685 712.013 214.475 715.306C206.924 721.206 198.175 728.063 193.991 731.382C184.093 739.208 165.462 754.205 152.549 764.824C148.97 767.762 149.173 767.546 147.567 768.868C140.484 774.67 122.033 790.189 113.309 797.748C99.1954 809.9 84.8396 822.587 71.0295 835.655C70.14 836.471 69.2596 837.282 68.389 838.087C67.0484 839.392 65.7317 840.684 64.4394 841.962C56.5923 849.557 49.0024 857.246 42.0924 864.895C27.5602 881.076 14.5741 898.731 6.77559 918.808C5.01231 922.055 0.680107 940.028 1.02904 943.125C0.850773 945.743 0.789376 948.143 1.00627 951.995C1.51982 957.212 0.618847 952.385 2.18094 960.883C2.74662 963.168 2.14593 960.998 3.46722 965.476C3.67093 966.21 6.13584 973.857 10.8618 980.281C15.4172 986.821 21.7523 991.739 22.3828 992.215C24.4861 993.868 26.4786 995.261 27.0507 995.63C30.0913 997.551 30.0364 997.4 32.1467 998.547C38.4125 1002.01 47.3965 1004.71 48.5058 1004.94C58.0443 1007.69 74.2643 1009.07 87.7955 1006.61C93.3242 1005.69 98.4185 1004.85 102.596 1004.16C104.582 1003.83 104.351 1003.91 104.699 1003.86C106.948 1003.49 108.333 1003.21 110.463 1002.85C121.951 1000.92 139.919 997.916 151.467 995.955C152.79 995.731 155.602 995.227 157.974 994.825C171.382 992.549 167.045 993.328 167.805 993.2C169.615 992.895 172.789 992.308 177.592 991.482C189.983 989.352 213.737 985.269 227.017 982.988C236.966 981.28 236.823 981.355 237.477 981.244C238.873 981.006 242.745 980.3 249.291 979.172C261.904 976.999 260.457 977.288 265.646 976.398C266.079 976.325 265.328 976.414 271.065 975.429C282.18 973.519 307.133 969.322 319.024 967.329C323.604 966.559 324.648 966.347 329.34 965.562C336.776 964.314 353.537 961.58 354.858 961.365C355.229 961.304 356.052 961.125 358.239 960.765C360.654 960.368 362.996 960.006 364.781 959.713C374.979 958.036 392.499 955.132 387.651 956.069C390.906 955.506 394.14 954.947 397.407 954.385C418.743 950.969 439.483 947.698 460.649 944.448C465.372 943.722 469.347 943.146 473.386 942.532C477.392 941.918 495.139 939.206 498.067 938.774C501.209 938.305 512.874 936.575 522.824 935.125C529.784 934.102 535.625 933.585 537.23 933.45C544.5 932.811 551.737 932.727 554.64 932.725C557.072 932.728 554.847 932.651 559.44 932.726C567.326 932.726 580.743 934.559 583.019 935.139C584.01 935.395 582.268 934.731 591.554 937.059C596.63 938.454 599.12 939.467 600.93 940.152C601.448 940.48 600.794 939.598 609.973 944.287C616.162 947.745 618.319 949.836 618.947 950.272C619.82 950.994 621.942 952.555 624.994 955.857C632.921 963.061 638.83 981.964 637.902 991.974C637.809 993.85 638.162 993.164 637.329 1000.86C636.579 1006.2 636.595 1005.3 636.219 1007.35C635.591 1010.46 634.494 1015.46 632.217 1022.08C631.838 1032.13 595.332 1089.15 591.936 1091.05C590.492 1092.89 588.765 1095.07 588 1095.99C588.624 1095.17 589.241 1094.37 589.851 1093.56C596.284 1085.44 593.602 1088.7 595.251 1086.55C597.806 1083.29 606.332 1071.31 608.384 1068.02C609.078 1066.93 607.481 1069.36 611.184 1063.56C615.049 1057.42 616.899 1054.29 618.211 1051.77C623.551 1042.55 627.575 1033.45 622.219 1044.27C620.765 1051.38 581.418 1105.94 571.245 1115.36C564.003 1123.65 549.419 1139.11 539.879 1148.46C537.818 1150.51 534.615 1153.65 531.299 1156.84C525.503 1162.43 519.881 1167.81 520.248 1167.4C515.091 1172.35 520.621 1167.11 519.526 1168.17C517.208 1170.44 501.116 1185.76 498.023 1188.65C482.924 1202.96 463.561 1220.67 448.493 1234.3C449.2 1233.63 449.91 1232.97 450.603 1232.31C453.883 1229.3 469.571 1215.04 471.248 1213.39C448.447 1234.25 425.538 1255.02 402.83 1275.79C403.445 1275.3 374.915 1301.41 373.771 1302.43C374.248 1301.96 374.722 1301.48 375.194 1301.01C391.206 1286.49 389.698 1287.68 400.403 1277.99C404.732 1274.04 403.467 1275.13 405.615 1273.15C426.958 1253.54 406.047 1272.89 422.375 1257.93C417.336 1262.43 430.866 1250.05 436.808 1244.63C438.229 1243.33 456.093 1227.09 458.327 1225.05C470.326 1214.14 490.799 1195.23 502.483 1184.13C511.731 1175.35 516.712 1170.49 525.038 1162.46C529.795 1157.87 529.946 1157.75 531.108 1156.65C531.451 1156.32 531.892 1155.9 532.578 1155.23C538.913 1149.08 540.792 1147.03 544.728 1143.28C548.729 1139.22 553.04 1134.74 556.948 1130.58C556.965 1130.59 556.982 1130.61 556.999 1130.62C559.474 1128 561.943 1125.35 564.502 1122.55C565.227 1121.72 565.944 1120.9 566.656 1120.08C574.432 1111.45 571.193 1115.12 572.679 1113.55C574.239 1111.78 576.051 1109.7 577.687 1107.78C578.931 1106.25 580.153 1104.72 581.352 1103.2C588.457 1094.69 595.416 1085.8 601.974 1076.54C602.407 1075.97 602.837 1075.4 603.263 1074.83C603.257 1074.79 603.251 1074.76 603.245 1074.73C614.13 1059.06 623.793 1042.83 630.491 1024.91C632.587 1020.52 620.525 1047.97 618.753 1049.91C613.009 1061.42 592.869 1089.19 592.711 1088.84C588.023 1095.32 572.349 1113.87 567.346 1119.1C574.79 1110.85 582.258 1102.11 589.357 1093.12C589.106 1093.39 588.854 1093.66 588.601 1093.94C597.31 1082.96 598.703 1081.15 606.752 1069.18C606.791 1069.19 606.83 1069.2 606.868 1069.21C612.532 1060.84 621.371 1045.43 621.422 1044.71C623.906 1039.96 626.232 1035.08 628.279 1030.16C630.355 1025 629.792 1026.22 630.672 1023.78C631.066 1021.25 635.532 1015.12 637.021 992.725C637.033 989.727 637.161 990.207 636.829 985.667C636.461 984.573 637.018 976.161 629.707 963.634C628.501 961.727 628.437 961.565 627.037 959.685C623.985 955.161 615.3 948.522 619.229 951.535C610.751 944.849 607.446 944.075 606.333 943.39C605.124 942.853 605.628 943.073 602.564 941.78C598.407 940.136 599.164 940.37 595.541 939.174C590.853 938.028 594.54 937.96 575.329 934.863C577.521 935.14 579.668 935.464 581.767 935.836C580.715 935.629 579.65 935.433 578.573 935.249C567.489 933.795 568.612 934.091 563.31 933.835C555.327 933.444 548.132 933.471 537.179 934.386C528.896 935.14 525.533 935.717 522.965 936.085C518.889 936.704 517.285 936.936 502.166 939.078C498.179 939.691 494.251 940.297 490.283 940.913C483.722 941.851 488.988 941.002 479.266 942.456C486.902 941.413 466.322 944.483 462.901 945.113C462.536 945.145 462.171 945.177 461.805 945.21C459.643 945.541 457.436 945.879 455.262 946.214C455.258 946.233 455.255 946.253 455.251 946.273C452.347 946.705 449.457 947.137 446.58 947.568C444.408 947.924 442.209 948.284 440.035 948.641C436.435 949.162 432.906 949.673 429.293 950.2C427.035 950.552 424.784 950.903 422.54 951.255C423.254 951.17 423.969 951.086 424.685 951.002C421.791 951.448 418.929 951.89 416.039 952.339C419.412 951.852 417.292 952.238 408.297 953.668C400.894 954.85 409.248 953.411 393.286 956.014C392.186 956.196 390.198 956.575 375.172 959.03C357.077 961.997 365.875 960.512 362.654 961.037C362.044 961.137 356.487 962.084 351.34 962.939C348.421 963.424 345.591 963.865 345.2 963.93C343.387 964.232 342.864 964.359 340.359 964.776C334.026 965.831 325.448 967.245 319.238 968.29C316.397 968.768 313.738 969.239 312.476 969.452C310.514 969.783 308.045 970.163 306.05 970.5C298.718 971.738 287.64 973.74 284.219 974.156C277.209 975.501 262.45 977.84 263.542 977.756C244.749 980.929 194.649 989.685 196.091 989.261C185.471 991.233 186.408 990.965 181.947 991.733C176.958 992.591 179.548 992.175 175.587 992.853C166.333 994.436 157.483 995.936 148.279 997.502C149.721 997.233 151.161 996.964 152.6 996.695C142.946 998.331 146.259 997.823 136.41 999.504C118.249 1002.6 125.912 1001.25 123.218 1001.65C123.948 1001.59 102.55 1005.17 100.355 1005.52C99.0527 1005.73 104.745 1004.71 91.64 1006.92C92.3622 1006.82 93.0838 1006.72 93.805 1006.63C92.3513 1006.86 90.2902 1007.2 87.9576 1007.59C80.587 1008.94 70.4017 1009.02 68.2562 1008.84C66.9394 1008.81 59.9799 1008.25 53.6605 1007.08C52.906 1006.91 52.1681 1006.72 51.4098 1006.53C44.4746 1004.98 37.6832 1002.57 31.3605 999.211C30.3857 998.64 29.3948 998.029 28.4408 997.406C26.501 996.239 24.6054 994.969 22.7891 993.605C23.969 994.538 25.1989 995.44 26.4405 996.289C14.0463 989.072 5.04607 973.529 4.47332 970.696C3.26743 967.933 2.29271 965.058 1.55834 962.116C1.12724 960.147 0.824411 958.286 0.597894 956.304C-0.605878 942.405 0.145805 942.155 1.62919 932.844C1.58503 933.211 1.54366 933.576 1.50505 933.939C2.66678 927.007 6.77753 914.969 11.5006 906.116C13.5566 901.985 17.8811 894.968 18.4853 894.078C19.0625 893.004 25.1219 883.898 26.0894 882.978C33.0079 873.624 37.6775 868.489 41.4367 864.303C42.7896 862.815 44.0413 861.464 45.2939 860.12C48.1462 857.073 49.7517 855.343 53.0012 852.019C57.5575 847.358 63.1181 841.967 65.6892 839.499C67.2914 837.959 67.5752 837.64 68.703 836.565C74.115 831.439 70.9435 834.465 76.8076 828.997C77.3173 828.524 81.3256 824.746 86.1874 820.358C88.9854 817.816 95.8595 811.761 96.4759 811.224C99.2241 808.805 96.832 810.735 106.522 802.433C106.228 802.664 105.934 802.895 105.641 803.125C117.109 793.111 119.156 791.547 121.56 789.496C121.872 789.231 124.782 786.72 126.433 785.334C129.289 782.934 130.492 781.984 131.132 781.449C133.312 779.622 141.286 772.944 146.15 768.994C144.879 769.853 162.845 755.072 166.678 752.188C169.775 749.646 172.905 747.086 176.067 744.511C177.52 743.374 178.98 742.234 180.446 741.091C181.319 740.363 182.175 739.649 183.011 738.951C187.581 735.367 192.211 731.754 196.899 728.113C197.163 727.838 197.428 727.563 197.693 727.288C199.002 726.261 200.315 725.232 201.633 724.201C202.696 723.415 203.712 722.667 204.739 721.912C206.336 720.646 207.939 719.377 209.548 718.105C209.929 717.768 210.311 717.431 210.693 717.094C219.363 710.276 215.182 713.864 231.623 700.797C234.225 698.813 236.839 696.823 239.465 694.829C242.339 692.469 247.97 688.227 252.357 684.854C255.478 682.454 255.277 682.55 259.56 679.28C263.853 676.005 263.732 676.154 264.066 675.9C267.575 673.232 270.242 671.16 272.779 669.246C273.165 668.955 274.156 668.267 277.424 665.799C280.696 663.328 282.635 661.794 287.544 658.108C290.062 656.218 290.817 655.705 293.058 654.026C303.604 646.124 314.255 637.908 322.363 632.212C324.128 630.855 337.126 621.085 342.753 616.954C351.457 610.559 348.138 613.067 351.606 610.529C352.106 610.165 354.745 608.2 362.079 602.835C363.391 601.876 363.07 602.075 363.258 601.937C371.804 595.678 388.421 583.62 397.86 576.809C398.702 576.202 403.065 572.945 410.597 567.654C421.633 559.601 442.641 544.78 457.278 534.264C459.309 532.82 461.789 531.099 462.686 530.462C470.437 524.973 467.613 526.84 485.229 514.599C483.8 515.55 487.809 512.679 493.706 508.551C502.501 502.397 496.31 506.831 503.351 501.9C503.338 501.881 503.324 501.861 503.311 501.842C519.413 490.682 522.817 488.195 539.027 476.992C544.972 472.886 553.654 466.984 555.038 466.036C555.567 465.671 561.939 461.236 562.593 460.789C566.094 458.392 568.075 457.071 571.069 455.029C580.84 448.36 592.795 440.187 590.695 441.769C593.416 439.894 596.119 438.034 598.805 436.189C609.11 429.412 616.924 423.959 619.086 422.681C620.903 421.432 622.694 420.204 624.508 418.961C648.898 402.734 673.441 386.672 698.084 371.128C719.384 359.27 729.841 334.212 721.469 311.488C721.516 309.415 711.638 288.284 710.761 287.683C708.016 283.031 711.244 287.916 705.141 278.379C704.454 277.41 703.753 276.439 703.039 275.464C695.054 264.092 698.823 269.456 695.605 265.021C694.239 263.23 694.665 263.832 692.774 261.395C682.572 247.811 658.875 222.336 645.547 209.31C642.903 206.68 643.318 207.055 642.493 206.237C640.236 204.003 635.621 199.529 631.046 195.12C602.525 167.469 560.392 129.892 532.14 101.393C530.202 99.4419 529.995 99.1773 528.707 97.8674C526.896 96.0303 523.064 92.1249 521.111 90.0619C519.34 88.1973 518.24 86.9908 516.408 85.0172C508.043 76.0389 496.952 63.3569 489.447 52.3419C489.122 51.8737 486.987 48.7266 485.182 45.7475C483.146 42.4361 481.495 39.2927 481.428 39.1557C480.745 37.3931 486.087 48.6947 477.402 30.1122C481.167 38.9065 482.895 40.9537 481.899 39.2501C481.162 37.4298 476.865 31.1221 474.481 19.263C476.711 31.1207 483.08 41.7762 489.598 51.3096C489.62 51.3149 489.642 51.3203 489.665 51.3256C484.134 42.6308 477.01 33.2756 474.351 16.9919C474.424 17.4851 474.507 17.9806 474.6 18.4783C477.031 33.0834 487.204 47.7235 493.869 56.6144C484.551 43.5343 475.091 29.6618 474.534 12.9029C474.548 13.7267 474.593 14.5588 474.669 15.3993C474.689 23.2861 482.007 38.6565 485.736 44.1112C492.291 54.1587 489.401 49.8305 485.487 43.5405C481.398 37.0608 477.826 28.262 479.329 31.7182C490.194 55.1567 508.596 74.4811 526.14 92.9393C526.63 93.2502 508.84 75.7744 494.308 56.235C478.17 36.7299 473.692 12.1006 475.093 12.4518C475.063 20.5567 477.854 28.2253 481.529 35.6115C479.973 32.4412 478.473 28.8352 477.473 25.6255C477.775 26.5175 478.105 27.4178 478.462 28.3264C483.38 40.9683 491.713 52.4923 500.021 62.896C473.126 30.8816 472.644 7.82477 478.829 2.49829e-05C478.29 0.982537 477.823 1.98577 477.428 3.00972C475.178 6.81657 474.128 20.2775 480.88 33.3603C487.068 46.5187 497.066 59.1529 504.439 67.946C501.311 64.4642 489.238 48.5085 487.43 45.0241C486.829 44.0613 488.985 47.3841 487.586 45.1536C485.588 41.9833 480.786 33.9454 478.27 26.3865C475.565 18.7669 475.825 12.4274 475.878 14.587C475.62 15.854 477.804 28.8927 485.132 40.6678C492.042 52.6181 501.59 63.9662 504.713 67.7161C491.12 50.5806 474.19 30.7953 476.448 8.22893C474.938 21.8379 480.262 34.433 495.504 55.4239C497.983 58.5165 490.462 49.3428 484.26 37.9855C477.557 26.7326 476.067 13.2328 476.519 12.4883C476.477 21.505 480.415 30.747 484.862 38.6992C481.174 32.0899 477.75 24.3019 476.836 16.7157C476.845 16.6927 476.854 16.6697 476.863 16.6468C480.216 36.5844 493.106 52.4046 508.174 70.4518C507.764 69.9605 498.426 58.8323 494.58 53.3374ZM495.373 1190.65C494.974 1190.96 501.367 1184.94 504.941 1181.54C504.399 1182.04 503.879 1182.52 503.331 1183.03C510.932 1175.84 525.118 1162.22 525.589 1161.62C530.94 1156.45 528.655 1158.77 530.434 1157.07C530.523 1156.98 530.714 1156.8 530.994 1156.53C532.949 1154.64 539.042 1148.67 543.801 1143.94C545.107 1142.62 546.299 1141.41 547.687 1140C547.923 1139.71 548.158 1139.42 548.393 1139.14C550.282 1137.26 552.138 1135.39 553.962 1133.54C546.295 1141.56 539.083 1148.78 531.025 1156.56C519.064 1168.1 507.374 1179.34 495.402 1190.62C495.392 1190.63 495.383 1190.64 495.373 1190.65ZM633.899 972.075C631.163 962.656 620.33 952.163 622.371 954.416C626.733 958.659 630.26 963.659 632.704 969.189C633.14 970.152 633.535 971.108 633.899 972.075ZM196.038 728.9C202.719 723.731 208.483 719.089 218.664 711.166C218.639 711.161 218.614 711.157 218.589 711.153C214.394 714.477 203.719 722.799 196.038 728.9ZM314.414 1357.04C313.053 1358.28 311.679 1359.54 310.294 1360.81C315.808 1355.59 316.849 1354.73 322.883 1349.16C323.245 1348.83 323.103 1348.93 323.23 1348.81C324.658 1347.5 326.149 1346.16 327.546 1344.88C330.237 1342.4 332.413 1340.36 336.993 1336.15C340.505 1332.92 340.568 1332.92 341.884 1331.71C343.185 1330.52 353.335 1321.03 360.603 1314.43C373.871 1302.37 318.048 1353.68 314.414 1357.04ZM275.535 1392.76C276.854 1391.54 278.164 1390.34 279.465 1389.13C275.582 1392.81 283.546 1385.45 289.107 1380.32C289.026 1380.48 276.995 1391.54 271.278 1396.84C272.708 1395.47 274.127 1394.11 275.535 1392.76ZM439.634 1242.41C434.512 1247.08 435.271 1246.28 435.469 1246.07C437.158 1244.53 438.797 1243.04 440.388 1241.59C440.138 1241.86 439.886 1242.14 439.634 1242.41ZM401.328 1277.39C402.96 1275.82 414.007 1265.7 419.147 1261.01C419.404 1260.77 417.879 1262.2 421.679 1258.73C422.864 1257.65 433.662 1247.66 431.36 1249.93C421.369 1259.05 411.439 1268.13 401.342 1277.38C401.337 1277.38 401.332 1277.39 401.328 1277.39ZM390.187 1287.54C392.139 1285.73 394.417 1283.62 396.452 1281.74C397.546 1280.77 398.626 1279.82 399.692 1278.88C397.387 1280.99 395.016 1283.17 392.576 1285.41C391.736 1286.16 390.953 1286.86 390.187 1287.54ZM709.362 284.01C709.677 284.583 709.988 285.156 710.293 285.726C711.619 287.719 717.395 298.734 715.624 295.227C713.626 291.255 711.606 287.688 709.362 284.01ZM678.047 242.536C676.34 240.575 674.607 238.615 672.939 236.751C670.949 234.624 668.923 232.49 666.864 230.351C675.55 239.634 684.43 250.192 683.071 248.388C684.955 250.605 686.767 252.778 688.684 255.133C687.027 253.217 687.326 253.512 692.079 259.553C693.155 260.802 698.063 267.049 703.193 274.518C699.51 269.128 695.477 263.729 691.438 258.629C691.449 258.621 691.46 258.612 691.471 258.603C700.429 270.175 689.432 255.568 683.119 248.401C682.648 247.818 682.174 247.235 681.697 246.651C680.497 245.283 679.28 243.911 678.047 242.536ZM0.798547 942.95C0.954253 941.099 1.17541 939.307 1.4748 937.439C2.64151 930.214 -0.525888 944.845 0.909884 955.298C0.787359 953.527 1.05799 956.754 1.82145 960.297C2.55999 963.949 3.99219 967.903 4.17687 968.337C3.55643 966.586 3.03844 964.836 2.60499 963.05C0.839467 956.53 0.318506 949.676 0.798547 942.95ZM19.0786 894.48C15.2872 899.631 33.0577 873.67 40.5421 866.316C40.9448 865.865 41.4259 865.333 41.9472 864.764C43.5083 863.056 45.5292 860.919 46.493 859.888C47.2392 859.065 47.9996 858.234 48.7738 857.396C49.8736 856.197 64.2179 841.681 69.8966 836.381C70.4619 835.877 71.031 835.371 71.6037 834.863C73.7175 832.855 76.0728 830.645 78.1121 828.747C77.8659 829.006 77.6204 829.265 77.3757 829.524C78.9248 828.049 80.5004 826.56 82.1023 825.057C88.5149 819.172 84.6038 822.897 89.5287 818.398C95.0847 813.353 85.8874 821.508 86.0663 821.296C81.692 825.246 71.8232 834.432 67.544 838.564C65.0488 840.993 68.0153 837.858 57.2348 848.647C54.8696 850.978 52.8815 852.96 50.4101 855.485C47.3708 858.675 44.5272 861.752 41.8891 864.711C40.6795 866.066 39.5003 867.413 38.3511 868.753C37.5917 869.577 36.844 870.398 36.1079 871.216C35.7128 871.519 27.0091 882.592 27.6271 881.966C24.0879 886.571 17.4577 895.72 11.8583 906.647C11.3257 907.723 10.8058 908.811 10.3123 909.881C15.6105 899.321 12.017 906.539 13.6707 903.452C14.6348 901.658 17.823 896.34 19.0786 894.48ZM714.601 358.063C720.416 350.669 720.677 348.441 721.568 346.774C722.139 344.959 723.92 342.972 724.941 332.749C724.799 334.181 724.598 335.562 724.318 336.992C723.534 347.583 712.463 360.654 714.588 358.078C714.593 358.073 714.597 358.068 714.601 358.063ZM626.351 189.74C634.479 197.517 630.407 193.456 640.666 203.452C640.671 203.456 640.676 203.461 640.681 203.466C635.384 198.253 630.168 193.212 624.821 188.105C625.332 188.65 625.842 189.195 626.351 189.74ZM347.234 614.486C338.585 620.833 340.274 619.629 332.382 625.38C320.75 634.094 330.628 626.763 330.672 626.821C333.33 624.827 335.993 622.832 338.66 620.837C345.201 616.096 339.055 620.671 339.06 620.677C339.065 620.673 339.071 620.668 339.076 620.664C339.089 620.682 338.88 620.841 341.382 619.012C343.343 617.495 345.282 615.995 347.234 614.486ZM310.273 641.981C313.211 639.732 314.498 638.69 306.7 644.475C306.694 644.479 306.689 644.483 306.684 644.487C306.121 645.04 298.632 650.535 295.269 653.071C294.396 653.741 293.506 654.424 292.619 655.106C298.506 650.713 304.356 646.365 310.273 641.981ZM181.807 740.992C181.7 740.926 188.069 735.817 178.996 742.936C177.239 744.347 175.492 745.752 173.754 747.154C172.628 748.093 171.507 749.03 170.39 749.964C148.388 767.573 142.043 773.074 179.058 743.012C179.063 743.008 179.069 743.004 179.074 742.999C179.982 742.331 180.893 741.662 181.807 740.992ZM220.769 710.243C221.015 709.972 221.262 709.701 221.51 709.43C226.63 705.634 232.692 700.742 242.525 693.306C243.395 692.612 244.267 691.918 245.139 691.224C248.718 688.463 284.477 661.307 276.668 667.128C273.293 669.628 265.943 675.283 265.301 675.772C263.143 677.408 260.304 679.503 256.698 682.262C254.602 683.866 250.302 687.233 246.029 690.517C236.422 697.885 219.023 711.149 206.772 720.992C205.876 721.672 204.982 722.352 204.089 723.03C194.839 730.338 197.924 727.975 189.366 734.677C183.601 739.558 223.748 707.554 215.504 714.364C215.509 714.36 215.514 714.355 215.52 714.351C217.263 712.985 219.012 711.616 220.769 710.243ZM480.178 518.942C480.794 518.57 491.792 510.742 489.269 512.671C492.89 510.075 496.521 507.476 500.129 504.899C500.094 504.908 500.06 504.918 500.025 504.928C496.42 507.461 492.79 510.016 489.172 512.568C489.147 512.562 489.123 512.556 489.098 512.551C483.854 516.298 461.322 532.173 462.033 531.601C460.86 532.466 459.685 533.332 458.511 534.199C447.8 541.701 438.623 548.337 426.998 556.57C426.112 557.232 425.227 557.896 424.341 558.559C423.744 558.964 423.147 559.369 422.551 559.774C418.315 562.809 414.09 565.842 409.877 568.873C396.184 578.831 422.931 559.683 426.197 557.351C426.627 557.04 426.533 557.048 429.223 555.113C433.97 551.678 460.863 532.594 469.165 526.712C469.256 526.687 469.347 526.663 469.438 526.638C473.027 524.062 476.607 521.496 480.178 518.942ZM132.872 780.817C132.281 781.269 131.693 781.72 131.105 782.171C121.577 790.213 115.046 795.807 117.716 793.658C117.721 793.653 117.726 793.649 117.731 793.645C122.863 789.253 127.832 785.046 132.872 780.817ZM632.962 1018.83C633.061 1018.65 635.127 1012.71 636.434 1004.99C636.35 1005.36 636.263 1005.74 636.174 1006.11C635.379 1010.19 634.519 1015.12 630.025 1027.05C630.055 1027.06 630.086 1027.08 630.116 1027.09C631.187 1024.27 632.134 1021.52 632.962 1018.83ZM141.475 773.664C144.528 771.173 152.794 764.221 147.278 768.755C143.107 772.188 139.816 775.015 141.475 773.664ZM594.201 159.451C596.318 161.429 598.437 163.409 600.556 165.392C601.681 166.403 602.806 167.413 603.931 168.425C603.926 168.42 603.921 168.416 603.916 168.411C600.679 165.419 597.437 162.431 594.201 159.451ZM376.912 592.758C368.969 598.547 361.017 604.366 353.092 610.189C353.024 610.262 352.956 610.335 352.887 610.407C360.79 604.524 364.04 602.241 365.899 600.887C365.891 600.893 365.883 600.899 365.875 600.905C371.84 596.562 377.524 592.434 383.184 588.348C381.093 589.817 379.002 591.287 376.912 592.758ZM404.286 573.059C402.869 573.926 401.098 575.171 388.908 584.117C389.402 583.779 389.895 583.44 390.389 583.102C396.727 578.496 400.417 575.798 399.34 576.657C400.989 575.457 402.637 574.257 404.286 573.059ZM280.272 664.481C281.728 663.427 293.239 654.706 292.607 655.159C292.333 655.346 277.393 666.551 280.272 664.481ZM575.712 1110.45C577.937 1107.89 580.097 1105.36 582.192 1102.85C579.44 1106.18 576.495 1109.66 573.589 1113C574.244 1112.22 575.005 1111.3 575.712 1110.45ZM551.338 1137.3C549.669 1138.97 554.967 1133.43 545.028 1143.51C552.383 1136.07 559.135 1128.99 566.278 1121.12C562.998 1124.76 559.724 1128.31 556.497 1131.75C557.094 1131.17 557.687 1130.59 558.276 1130.01C556.017 1132.41 553.705 1134.84 551.338 1137.3ZM543.544 1145.11C546.112 1142.61 538.236 1150.6 531.513 1157.07C528.043 1160.42 525.386 1162.97 524.67 1163.66C524.21 1164.1 522.061 1166.07 521.304 1166.78C524.528 1163.68 527.572 1160.75 530.848 1157.59C529.737 1158.63 528.649 1159.65 527.582 1160.65C528.826 1159.45 530.099 1158.22 531.405 1156.95C533.929 1154.51 536.403 1152.09 538.827 1149.69C537.274 1151.25 535.699 1152.83 534.103 1154.41C537.334 1151.28 540.481 1148.18 543.544 1145.11ZM616.721 1054.58C614.881 1057.74 612.857 1061.03 610.966 1063.99C611.383 1063.4 611.794 1062.81 612.201 1062.22C613.294 1060.48 614.546 1058.44 615.668 1056.55C616.024 1055.89 616.375 1055.23 616.721 1054.58ZM572.163 1114.7C575.494 1110.72 585.505 1099.49 574.064 1112.62C572.96 1113.87 571.846 1115.08 572.163 1114.7ZM516.746 1171.24C508.559 1179.24 510.317 1177.21 518.123 1169.83C518.527 1169.45 517.36 1170.64 516.746 1171.24ZM453.961 1229.74C453.331 1230.31 451.97 1231.44 445.562 1237.38C444.479 1238.36 443.34 1239.38 442.244 1240.37C444.842 1237.95 466.399 1218.28 463.47 1221.05C460.135 1224.1 457.451 1226.56 453.961 1229.74ZM475.09 1210.84C478.334 1207.86 481.541 1204.89 484.763 1201.9C483.684 1202.87 482.6 1203.84 481.527 1204.79C483.094 1203.33 484.688 1201.85 486.26 1200.37C488.989 1197.9 491.712 1195.41 494.439 1192.91C487.493 1199.45 480.476 1205.96 473.472 1212.4C474.004 1211.88 474.538 1211.37 475.09 1210.84ZM559.147 1129.61C553.45 1135.63 546.171 1143.24 536.396 1152.8C536.391 1152.81 536.386 1152.81 536.381 1152.82C535.884 1153.3 534.982 1154.14 533.36 1155.71C533.187 1155.88 532.61 1156.44 531.728 1157.29C525.733 1163.11 505.496 1182.52 507.24 1180.76C517.681 1170.73 521.425 1167.21 523.882 1164.67C524.412 1164.2 524.968 1163.7 525.488 1163.24C527.855 1160.98 529.903 1159.01 531.706 1157.27C537.142 1152 539.701 1149.38 543.747 1145.29C543.741 1145.32 543.735 1145.36 543.729 1145.39C547.219 1141.9 551.053 1137.98 554.602 1134.27C554.088 1134.78 553.572 1135.3 553.053 1135.82C554.33 1134.5 555.591 1133.17 556.836 1131.86C559.916 1128.7 563.64 1124.71 559.147 1129.61ZM460.356 1224.28C457.509 1227.1 428.11 1253.7 414.846 1265.86C421.601 1259.57 432.735 1249.51 440.351 1242.57C455.124 1229.12 444.876 1238.38 447.361 1236.08C448.501 1235.02 457.13 1227.3 460.356 1224.28ZM579.721 1106.54C573.025 1114.39 569.693 1118.16 563.64 1124.69C564.132 1124.13 564.621 1123.58 565.107 1123.03C567.263 1120.89 582.986 1102.76 579.721 1106.54ZM395.26 1283.7C409.285 1270.96 402.533 1276.93 409.857 1270.39C405.061 1274.78 400.139 1279.29 395.288 1283.73C395.279 1283.72 395.269 1283.71 395.26 1283.7ZM158.876 760.136C165.295 754.904 172.156 749.406 175.986 746.253C171.645 749.728 167.365 753.174 163.148 756.587C161.778 757.724 160.292 758.957 158.876 760.136ZM4.4745 928.924C4.85853 927.212 7.18984 920.118 7.49943 919.485C8.00964 918.151 7.89415 918.521 7.90501 918.505C11.5496 909.724 8.05676 917.725 10.8599 911.417C11.2219 910.141 18.9362 895.949 22.9627 890.465C28.6384 882.047 35.3394 874.019 37.6966 871.276C39.0131 869.733 40.726 867.756 42.7582 865.496C46.5994 861.198 52.5851 854.901 57.3778 850.116C60.4445 847.051 61.6375 845.932 64.8664 842.794C84.6494 823.205 127.081 786.725 146.425 770.975C151.122 767.103 155.744 763.387 158.307 761.29C160.3 759.639 162.398 757.907 164.313 756.329C170.495 751.535 172.456 749.757 179.178 744.343C183.502 740.864 185.431 739.394 186.007 738.933C189.747 735.95 191.597 734.451 194.574 732.085C197.913 729.432 202.8 725.606 204.013 724.646C204.757 724.064 202.305 725.879 215.293 715.709C228.727 705.208 241.775 695.138 255.389 684.729C250.75 688.024 246.946 691.114 241.356 695.429C239.864 696.581 240.79 695.827 239.493 696.829C235.821 699.662 228.887 705.071 225.908 707.378C222.617 709.926 223.684 709.001 219.545 712.261C219.336 712.426 220.018 711.933 219.045 712.698C209.267 720.402 206.224 722.71 193.823 732.526C185.693 738.756 136.994 778.459 135.248 780.13C126.521 787.098 177.57 745.095 183.933 740.281C186.027 738.613 183.854 740.391 185.766 738.873C186.575 738.231 193.826 732.367 201.236 726.517C209.993 719.581 228.011 705.587 236.419 699.11C309.56 642.672 383 588.966 458.211 535.578C459.816 534.44 461.881 532.927 467.112 529.228C542.191 476.254 620.036 422.571 698.952 372.502C725.534 358.685 732.253 324.511 718.659 299.518C707.66 275.574 690.461 255.02 672.782 235.324C670.559 232.922 668.292 230.511 665.984 228.095C671.867 234.23 682.056 245.908 682.927 247.006C683.274 247.42 685.286 249.693 688.619 253.762C693.295 259.499 695.098 261.985 695.47 262.453C696.569 263.893 695.875 262.933 696.914 264.306C704.921 275.024 710.469 283.399 715.999 294.171C721.875 306.136 724.022 313.146 725.451 322.868C725.56 323.973 725.633 324.994 725.683 326.171C725.888 329.16 726.415 338.388 721.834 348.213C717.21 358.401 708.179 366.64 698.907 372.431C694.881 374.969 691.162 377.331 688.22 379.206C683.38 382.294 684.187 381.733 682.541 382.787C681.443 383.498 682.12 383.095 669.625 391.165C663.196 395.327 661.695 396.265 658.588 398.294C656.907 399.393 657.205 399.244 654.771 400.837C640.466 410.209 628.98 417.816 615.46 426.852C611.604 429.432 611.532 429.443 610.665 430.024C607.429 432.198 601.964 435.932 593.961 441.34C580.485 450.425 554.414 468.251 543.581 475.707C541.986 476.801 540.642 477.681 539.466 478.494C537.684 479.725 537.012 480.239 536.711 480.447C530.88 484.479 534.369 482.021 530.457 484.739C528.344 486.209 526.167 487.773 521.218 491.216C514.679 495.77 515.909 494.849 513.197 496.744C512.912 496.944 512.851 497.032 510.199 498.883C500.139 505.898 485.39 516.254 475.882 522.964C473.134 524.902 471.074 526.324 467.23 529.041C459.557 534.406 415.876 565.62 412.331 568.207C411.954 568.477 415.786 565.648 409.627 570.085C407.851 571.393 406.075 572.702 404.299 574.013C401.285 576.142 398.27 578.275 395.255 580.41C395.428 580.436 377.874 593.204 377.974 592.975C376.05 594.369 374.127 595.764 372.205 597.16C368.266 600.148 365.577 602.066 357.891 607.765C356.672 608.624 355.454 609.483 354.236 610.342C353.944 610.579 353.653 610.816 353.362 611.053C349.185 613.992 342.531 619.021 341.702 619.634C338.549 621.962 336.168 623.69 334.692 624.782C329.167 628.865 317.346 637.685 310.883 642.492C310.581 642.716 310.851 642.46 309.022 643.819C305.726 646.269 305.441 646.56 301.026 649.773C300.155 650.449 299.285 651.124 298.416 651.8C297.476 652.493 296.536 653.185 295.598 653.878C290.049 658.051 284.49 662.245 278.991 666.411C283.963 662.561 278.153 666.895 272.77 671.051C270.948 672.457 272.601 671.259 271.994 671.728C271.084 672.404 246.466 691.168 244.783 692.455C243.617 693.369 242.453 694.283 241.291 695.195C240.683 695.629 240.074 696.062 239.466 696.495C238.828 697 238.191 697.504 237.554 698.008C231.161 702.861 214.601 715.902 211.635 718.23C210.047 719.472 211.371 718.271 203.813 724.231C203.574 724.462 203.318 724.706 203.07 724.943C201.295 726.348 199.528 727.749 197.768 729.146C194.453 731.761 189.666 735.493 189.493 735.582C188.489 736.41 187.489 737.236 186.491 738.061C183.867 740.039 168.925 752.063 163.326 756.695C161.639 758.036 159.831 759.478 158.101 760.86C155.797 762.777 153.513 764.683 151.251 766.578C145.99 770.916 151.521 766.305 150.397 767.225C148.061 769.117 135.925 779.295 136.656 778.571C134.993 779.958 133.343 781.339 131.706 782.713C130.882 783.441 130.063 784.167 129.246 784.89C126.509 787.077 121.366 791.427 111.547 799.847C110.743 800.57 109.944 801.291 109.149 802.009C106.128 804.585 102.876 807.383 99.8417 810.014C99.2416 810.592 98.6443 811.168 98.0502 811.742C96.7438 812.904 95.4504 814.059 94.1707 815.207C91.6391 817.345 86.5805 822.021 84.2143 824.138C80.7058 827.285 83.2408 824.842 89.9795 818.759C89.2965 819.199 69.808 837.134 65.667 841.292C65.955 841.031 66.244 840.769 66.5341 840.506C70.8085 836.379 75.7791 831.704 80.1226 827.695C84.1035 824.229 71.4262 835.838 66.066 841.098C65.6602 841.501 62.6005 844.483 57.077 850C55.0746 851.946 46.5539 860.67 45.1655 862.234C44.0715 863.411 43.1799 864.387 42.4375 865.207C34.4761 874.289 40.8768 866.689 30.4964 879.36C32.8889 876.506 26.2892 884.402 20.5268 893.347C19.3442 894.824 11.8567 908.103 11.5362 909.226C8.77964 915.145 11.5932 908.575 7.90026 917.262C7.4915 918.327 7.10506 919.384 6.74056 920.432C6.02456 922.379 5.2797 924.619 4.6804 926.672C1.04599 939.426 1.61501 942.76 1.3922 947.438C1.42003 949.329 1.2588 946.854 1.47649 951.853C1.62368 953.685 1.7165 955.823 2.74402 960.695C6.85908 975.796 10.378 980.81 21.0105 990.419C22.707 991.872 24.45 993.207 26.2916 994.474C27.5508 995.287 28.8274 996.05 30.1412 996.778C40.2191 1002.21 36.6726 1000.03 40.4579 1001.69C50.4938 1006.45 73.0094 1007.89 74.9265 1007.39C79.1156 1007.2 83.656 1006.75 87.7084 1006.09C92.7294 1005.28 97.0184 1004.61 99.0292 1004.28C101.175 1003.9 103.355 1003.52 105.515 1003.14C108.065 1002.73 110.609 1002.32 113.148 1001.92C111.876 1001.98 125.099 999.904 126.346 999.694C127.815 999.452 148.06 995.976 155.593 994.688C163.123 993.406 176.245 991.2 177.396 991.002C178.725 990.775 191.528 988.536 201.543 986.814C210.306 985.305 262.232 976.437 258.948 976.939C255.558 977.501 250.706 978.317 246.529 979.025C233.548 981.222 157.393 994.309 137.909 997.572C121.395 1000.36 104.577 1003.18 87.6901 1005.98C64.7074 1009.77 39.4485 1005.38 21.4277 990.621C19.624 989.103 19.3958 988.832 17.9361 987.439C15.6315 985.402 10.7169 979.349 9.27054 976.677C3.0152 967.098 1.19752 953.04 1.55166 947.067C1.96711 933.589 5.14222 924.547 8.97695 915.217C9.99289 912.31 17.2655 897.806 23.7869 888.874C24.9186 887.261 26.0969 885.634 27.3227 883.994C23.8069 888.531 15.7093 901.102 12.7726 907.263C8.07624 916.574 6.50834 921.531 5.29217 925.289C4.06194 928.119 0.754502 944.348 1.75248 951.785C1.90963 954.08 1.92139 954.515 2.18701 956.505C3.31876 967.232 10.2649 980.153 17.0902 986.498C15.7846 985.117 19.103 988.856 23.5949 992.219C28.0413 995.663 33.6089 998.485 34.1686 998.744C36.092 999.682 38.1683 1000.65 42.2584 1002.14C50.1978 1004.7 49.1434 1004.68 59.4401 1006.3C61.9881 1006.67 64.569 1006.93 67.1408 1007.09C67.2251 1007.04 77.2853 1007.69 87.6747 1005.88C96.0659 1004.5 104.71 1003.05 108.791 1002.31C108.906 1002.28 98.5342 1004.01 87.66 1005.8C76.7988 1007.72 65.2813 1006.9 63.5805 1006.69C42.6118 1006.11 12.3238 989.755 5.78319 969.347C2.47864 963.864 1.2276 944.5 1.99041 943.041C2.18411 940.718 1.96764 942.804 2.05459 941.812C3.22182 931.519 4.48239 929.081 4.46568 928.752C4.57062 928.423 4.11857 930.231 4.4745 928.924ZM543.916 1145.45C548.126 1141.24 552.861 1136.38 557.074 1131.93C556.781 1132.28 556.487 1132.62 556.192 1132.97C554.216 1135.03 552.201 1137.11 550.145 1139.21C548.574 1140.84 546.996 1142.47 545.512 1143.99C544.982 1144.48 544.45 1144.96 543.916 1145.45ZM532.901 1156.45C532.528 1156.81 532.187 1157.14 531.874 1157.44C528.807 1160.4 528.589 1160.55 527.764 1161.34C525.19 1163.81 522.654 1166.28 520.145 1168.69C522.753 1166.04 528.259 1160.79 531.855 1157.42C532.23 1157.07 532.581 1156.74 532.901 1156.45ZM606.655 1071.76C605.883 1072.89 601.381 1079.3 595.709 1086.97C591.66 1092.27 586.925 1098.15 582.659 1103.21C590.286 1094.25 600.15 1080.99 603.391 1076.26C604.635 1074.49 604.882 1074.2 605.864 1072.77C611.791 1064.18 616.576 1055.83 617.241 1054.93C612.209 1063.5 607.658 1070.28 606.655 1071.76ZM568.611 1119.56C567.507 1120.75 566.388 1121.94 565.256 1123.14C569.326 1118.68 572.945 1114.61 576.917 1110C575.895 1111.23 574.781 1112.55 573.823 1113.69C572.123 1115.63 570.386 1117.59 568.611 1119.56ZM370.149 958.243C373.746 957.656 377.298 957.078 380.873 956.498C380.673 956.511 376.589 957.174 375.09 957.405C375.097 957.404 375.103 957.403 375.11 957.402C373.436 957.66 374.141 957.519 371.078 958.007C370.768 958.086 370.459 958.165 370.149 958.243ZM662.994 224.808C659.198 220.202 618.905 180.999 622.181 184.467C623.962 186.175 637.753 199.373 641.817 203.428C647.257 208.689 661.686 223.564 662.994 224.808ZM591.6 155.721C590.845 155.095 616.515 179.034 618.97 181.406C618.449 180.899 617.65 180.114 616.948 179.445C613.545 176.171 597.124 160.865 591.6 155.721ZM170.086 991.974C172.879 991.533 175.668 991.091 178.456 990.65C177.716 990.729 176.976 990.809 176.236 990.888C174.187 991.25 172.137 991.612 170.086 991.974ZM28.6742 882.149C32.9998 876.428 37.621 870.893 42.6135 865.366C69.452 836.167 99.9552 809.922 130.109 784.376C127.006 787.012 123.891 789.673 120.668 792.444C93.9641 815.295 65.8708 839.971 42.6566 865.404C38.8817 869.593 35.6789 873.353 32.2568 877.646C31.0229 879.158 29.8289 880.659 28.6742 882.149ZM614.015 1060.8C620.44 1050.26 625.066 1041.78 630.182 1029.5C625.435 1041.04 622.346 1046.63 616.415 1056.97C616.412 1056.98 616.408 1056.98 616.405 1056.99C615.629 1058.25 614.832 1059.52 614.015 1060.8ZM476.871 941.255C480.467 940.678 484.084 940.1 487.722 939.522C483.334 940.18 479.009 940.832 474.652 941.492C475.399 941.412 476.138 941.333 476.871 941.255ZM342.892 619.156C352.961 611.621 379.123 592.662 387.372 586.591C387.905 586.198 382.951 589.746 390.884 583.906C384.868 588.284 380.628 591.389 380.212 591.76C378.413 593.045 376.616 594.331 374.819 595.617C371.863 597.789 368.916 599.958 365.959 602.137C366.248 601.858 366.013 602.031 361.486 605.392C359.403 606.899 357.323 608.407 355.244 609.916C354.38 610.578 353.517 611.241 352.654 611.904C350.843 613.193 349.034 614.483 347.226 615.773C340.28 620.932 344.563 617.857 342.892 619.156ZM307.4 645.478C309.045 644.191 356.029 609.381 334.579 625.106C329.017 629.223 323.49 633.327 317.958 637.447C322.673 634.162 307.42 645.32 306.196 646.239C300.261 650.652 292.788 656.318 288.46 659.576C284.76 662.361 282.553 663.987 279.968 665.942C271.237 672.536 257.2 683.243 255.389 684.729C262.165 679.548 269.274 674.14 276.309 668.81C283.784 663.152 290.605 658.08 304.671 647.431C308.192 644.81 306.974 645.793 307.4 645.478ZM498.633 937.9C498.224 938.031 520.268 934.764 520.443 934.715C520.478 934.691 513.265 935.748 512.248 935.892C512.241 935.893 512.234 935.894 512.228 935.895C511.801 935.955 513.961 935.607 510.593 936.095C506.659 936.686 502.606 937.298 498.633 937.9ZM716.095 293.788C717.06 289.645 674.623 235.058 672.208 234.434C671.834 234.033 672.335 234.609 672.182 234.457C683.186 246.295 697.671 263.895 705.993 276.716C708.316 280.255 707.666 279.238 707.793 279.423C707.798 279.432 707.804 279.441 707.81 279.449C709.298 281.634 714.519 290.661 716.095 293.788ZM405.241 573.619C402.858 575.324 400.475 577.031 398.092 578.739C397.502 579.194 396.913 579.649 396.324 580.105C396.33 580.101 396.335 580.097 396.341 580.093C399.307 577.932 402.274 575.774 405.241 573.619ZM487.98 514.813C487.391 515.206 486.801 515.601 486.211 515.995C480.204 520.214 474.168 524.467 468.109 528.748C468.714 528.308 469.319 527.869 469.923 527.431C460.761 533.876 457.094 536.553 452.229 539.999C452.235 539.995 452.24 539.991 452.246 539.987C451.723 540.357 451.073 540.777 449.13 542.157C444.651 545.334 431.953 554.385 430.435 555.518C427.214 557.9 452.817 539.583 457.606 536.211C459.766 534.681 462.375 532.869 463.686 531.942C465.115 530.931 467.063 529.502 470.597 527.008C471.636 526.271 483.089 518.253 487.98 514.813ZM595.223 440.802C593.325 442.039 589.394 444.743 587.928 445.729C587.579 445.964 590.272 444.101 586.981 446.321C586.062 446.969 585.141 447.62 584.218 448.271C587.917 445.755 591.586 443.265 595.223 440.802ZM535.846 932.756C535.104 932.743 523.36 934.151 522.708 934.32C522.708 934.321 522.707 934.321 522.706 934.321C520.768 934.622 521.176 934.575 522.712 934.359C526.898 933.677 539.044 932.48 535.846 932.756ZM556.655 1133.18C558.789 1131.01 545.855 1144.75 532.223 1157.8C521.624 1168.02 511.299 1177.87 509.343 1179.73C509.48 1179.53 520.737 1168.83 514.86 1174.34C518.443 1170.96 526.082 1163.62 532.167 1157.74C535.611 1154.42 538.414 1151.66 539.707 1150.39C541.896 1148.24 542.466 1147.74 542.794 1147.41C544.007 1146.27 555.371 1134.55 556.655 1133.18ZM469.843 1216.56C474.462 1212.35 479.009 1208.18 483.572 1203.97C478.201 1208.96 472.814 1213.91 467.425 1218.85C468.243 1218.08 469.049 1217.31 469.843 1216.56ZM464.116 1221.83C464.322 1221.73 448.597 1236 444.605 1239.65C449.117 1235.4 456.956 1228.4 464.116 1221.83ZM613.143 945.015C604.733 940.213 600.67 938.755 611.321 944.018C611.624 944.176 613.492 945.223 613.143 945.015ZM345.457 617.586C346.778 616.605 363.428 604.458 364.384 603.732C367.376 601.426 356.471 609.453 352.804 612.107C346.882 616.391 355.511 609.976 341.166 620.586C341.744 620.136 342.323 619.687 342.901 619.237C334.468 625.45 337.308 623.519 335.806 624.649C335.345 624.994 330.086 628.872 329.146 629.58C317.382 638.425 344.205 618.483 345.457 617.586ZM376.473 956.73C357.349 959.796 365.581 958.526 346.003 961.754C345.343 961.896 373.981 957.161 376.473 956.73ZM195.429 731.658C211.189 719.16 224.209 709.081 238.865 697.678C237.799 698.24 191.355 734.737 195.429 731.658ZM559.644 125.171C613.967 179.869 692.076 234.029 723.715 312.114C726.051 320.915 725.722 321.883 726.107 325.019C726.259 327.188 726.306 326.827 726.329 329.697C726.775 347.961 714.14 363.822 699.154 372.822C628.393 417.713 561.34 463.736 494.54 510.432C489.437 513.988 464.668 531.356 459.536 535.155C455.602 538.046 473.261 525.458 476.241 523.368C478.464 521.801 478.581 521.769 480.061 520.727C481.63 519.622 480.318 520.511 482.138 519.229C489.796 513.837 498.359 507.848 505.336 502.972C569.878 457.954 633.449 414.563 699.202 372.897C703.864 369.941 707.63 367.074 711.322 363.552C718.528 356.113 716.613 357.549 717.073 357.198C717.077 357.193 717.081 357.188 717.084 357.183C735.626 334.428 723.107 301.481 707.12 277.768C691.02 253.372 670.318 231.339 650.178 210.965C621.746 182.389 591.558 155.291 562.23 127.583C561.365 126.778 560.503 125.974 559.644 125.171ZM311.038 642.954C315.154 640.043 316.005 639.231 330.517 628.536C331.686 627.644 332.855 626.752 334.026 625.86C326.331 631.557 318.715 637.22 311.013 642.972C311.021 642.966 311.029 642.96 311.038 642.954ZM407.335 572.416C409.891 570.754 442.629 547.112 457.541 536.61C460.23 534.59 438.623 549.996 433.594 553.596C431.074 555.389 417.412 565.064 407.185 572.503C407.235 572.474 407.285 572.445 407.335 572.416ZM600.924 1081.09C602.662 1078.69 604.335 1076.31 605.944 1073.97C601.937 1079.76 597.268 1086.07 592.909 1091.64C599.979 1082.56 607.001 1072.77 613.185 1062.95C612.082 1064.77 610.939 1066.61 609.755 1068.47C606.807 1072.89 603.988 1076.9 600.924 1081.09ZM621.337 1049.08C611.309 1066.68 621.8 1048.53 624.157 1043.63C625.562 1040.91 622.426 1047.14 621.337 1049.08ZM638.75 998.77C638.322 1008.48 631.949 1026.87 633.996 1020.3C637.011 1010.33 639.154 1003.92 639.064 988.728C639.173 990.997 639.168 993.128 639.073 995.321C639.072 995.331 639.071 995.341 639.071 995.351C638.99 996.477 638.883 997.616 638.75 998.77ZM616.802 1057.2C610.027 1068.95 629.175 1034.81 623.265 1045.61C623.015 1046.27 617.174 1056.72 616.802 1057.2ZM622.674 183.948C621.467 182.853 629.009 190.028 631.474 192.417C642.234 202.769 655.909 216.313 666.5 227.639C665.699 226.767 664.894 225.895 664.083 225.021C650.767 210.989 636.779 197.347 622.674 183.948ZM698.002 264.587C704.55 273.342 710.471 282.198 715.429 291.557C715.932 292.47 718.075 296.689 716.502 293.535C711.268 283.314 705.011 273.945 698.002 264.587ZM257.413 683.73C263.882 678.81 245.397 693.098 246.089 692.426C249.931 689.468 253.616 686.638 257.413 683.73ZM197.322 730.473C201.368 727.257 205.439 724.035 209.404 720.908C209.418 720.915 209.432 720.922 209.446 720.929C205.467 724.049 201.382 727.264 197.322 730.473ZM592.049 155.238C596.002 158.975 605.503 167.797 611.413 173.346C607.371 169.492 597.637 160.453 592.049 155.238ZM355.605 610.339C355.04 610.693 381.332 591.497 372.266 598.189C366.718 602.223 361.147 606.285 355.605 610.339ZM409.1 571.503C403.445 575.586 399.055 578.749 400.189 577.865C403.191 575.698 406.193 573.534 409.195 571.374C409.163 571.417 409.132 571.46 409.1 571.503ZM632.08 963.305C626.071 953.011 616.206 945.442 605.438 940.64C605.828 940.801 606.248 940.978 606.656 941.155C616.982 945.976 626.341 953.382 632.137 963.319C632.118 963.315 632.099 963.31 632.08 963.305ZM587.245 150.603C581.329 145.119 575.378 139.599 569.478 134.084C575.371 139.617 581.314 145.156 587.222 150.658C587.235 150.644 587.247 150.63 587.26 150.617C587.255 150.612 587.25 150.608 587.245 150.603ZM580.711 1107.28C603.55 1079.54 574.503 1115.45 567.95 1121.91C567.944 1121.91 567.937 1121.92 567.93 1121.93C567.362 1122.54 568.519 1121.21 567.572 1122.23C570.064 1119.51 572.485 1116.82 574.836 1114.16C577.004 1111.64 579.271 1108.97 581.388 1106.42C582.103 1105.58 582.811 1104.75 583.513 1103.92C582.591 1105.04 581.658 1106.16 580.711 1107.28ZM478.092 1209.86C454.114 1231.81 478.609 1209.34 490.431 1198.38C490.366 1198.48 480.3 1207.84 478.092 1209.86ZM540.067 1150.91C543.775 1147.24 547.085 1143.89 550.853 1140.01C551.329 1139.54 551.802 1139.07 552.274 1138.6C549.462 1141.52 546.726 1144.32 544.008 1147.05C542.709 1148.34 541.395 1149.62 540.067 1150.91ZM636.406 1014.03C637.493 1010.07 638.313 1005.36 638.336 1004.99C638.242 1004.63 638.171 1008.72 634.093 1021.45C634.11 1021.44 634.128 1021.43 634.145 1021.42C634.489 1020.42 635.36 1017.56 635.422 1017.32C635.558 1016.85 635.483 1017.41 636.406 1014.03ZM433.853 1250.74C433.241 1251.3 432.697 1252 425.674 1258.19C423.532 1260.16 421.26 1262.24 419.219 1264.12C418.651 1264.59 418.078 1265.07 417.501 1265.55C425.696 1258.11 426.739 1257.07 427.276 1256.58C429.978 1254.11 427.99 1255.97 429.74 1254.37C434.51 1250.02 444.872 1240.56 440.21 1244.93C438.469 1246.57 434.526 1250.12 433.853 1250.74ZM450.148 1236.01C449.113 1236.94 452.42 1233.87 451.629 1234.57C450.898 1235.22 440.837 1244.32 443.505 1241.79C445.188 1240.26 446.889 1238.72 448.502 1237.26C449.067 1236.77 449.609 1236.3 450.179 1235.81C451.826 1234.29 453.418 1232.81 454.962 1231.38C457.705 1228.95 463.492 1223.76 456.68 1230.02C459.248 1227.68 461.647 1225.48 464.193 1223.15C465.459 1221.97 466.715 1220.79 468.021 1219.56C467.368 1220.21 466.676 1220.89 466.037 1221.52C460.744 1226.36 455.553 1231.09 450.148 1236.01ZM372.739 1306.69C373.037 1306.39 373.333 1306.1 373.628 1305.8C364.528 1314.19 350.037 1327.51 358.21 1319.85C370.578 1308.48 383.126 1296.97 395.456 1285.68C396.309 1284.91 397.153 1284.16 397.989 1283.42C388.378 1292.13 391.866 1289.26 383.548 1296.78C382.224 1297.98 385.874 1294.53 377.614 1302.16C377.927 1301.9 378.239 1301.64 378.55 1301.38C376.65 1303.12 374.713 1304.89 372.739 1306.69ZM294.008 1379.05C309.96 1364.39 292.349 1380.71 289.572 1383.19C289.577 1383.19 289.582 1383.18 289.587 1383.18C281.662 1390.27 298.632 1374.73 299.762 1373.69C301.179 1372.38 304.211 1369.43 311.813 1362.65C305.853 1368.14 300.156 1373.39 294.008 1379.05ZM345.2 1331.97C343.854 1333.21 344.581 1332.5 343.997 1333.04C343.992 1333.05 343.987 1333.05 343.982 1333.05C335.725 1340.65 315.795 1359.02 313.483 1361.03C319.809 1355.19 347.265 1329.91 349.211 1328.22C347.888 1329.45 346.551 1330.7 345.2 1331.97ZM404.205 1277.79C409.441 1273.09 397.929 1283.62 394.752 1286.49C394.173 1287.01 398.934 1282.53 404.205 1277.79ZM511.525 934.737C496.356 937.009 516.297 934.105 509.406 935.176C512.299 934.745 515.205 934.314 518.126 933.882C515.917 934.167 513.717 934.452 511.525 934.737ZM86.1773 824.592C88.8517 822.172 87.5672 823.294 87.7975 823.084C89.5623 821.486 91.2804 819.979 91.9737 819.353C104.251 808.332 96.0361 815.617 95.9178 815.708C95.6389 815.912 98.8201 813.027 94.353 816.953C91.7017 819.335 88.7461 822.011 86.0488 824.481C84.6762 825.704 83.3211 826.917 81.984 828.12C76.7488 832.999 83.6291 826.669 84.4963 825.96C84.8184 825.695 79.7719 830.338 86.1773 824.592ZM484.212 938.685C481.746 939.115 475.733 940.098 481.665 939.263C481.671 939.262 481.678 939.261 481.685 939.26C482.78 939.105 487.265 938.437 488.654 938.245C498.423 936.706 494.737 937.171 484.212 938.685ZM39.5029 871.277C35.736 875.623 31.8622 880.41 28.3963 885.095C28.4289 884.991 28.4618 884.887 28.4948 884.783C30.4217 882.195 32.2718 879.823 34.3234 877.296C35.0127 876.417 35.7633 875.476 36.4324 874.646C33.8408 877.701 31.3438 880.798 29.019 883.842C26.0727 887.816 23.5444 891.473 20.9159 895.624C22.0955 893.802 23.391 891.885 24.5842 890.186C18.1587 899.905 19.5029 897.645 14.7893 906.035C13.3356 908.838 11.833 912.005 10.6144 914.892C8.65535 919.309 7.02322 923.699 5.72373 928.234C3.7457 935.968 3.843 936.659 4.9736 931.45C4.10552 935.293 3.29669 939.55 3.03295 944.27C3.01132 944.665 3.09529 943.924 3.07513 944.273C2.52509 956.534 4.72759 962.154 5.53871 965.176C6.54187 968.248 6.80475 968.828 7.58162 970.607C8.42348 973.3 14.7147 982.303 15.0413 982.268C15.071 982.377 11.6804 977.865 11.1376 976.778C10.9029 975.379 10.8151 979.778 24.6721 991.13C8.93937 980.254 3.50862 958.598 8.17204 971.574C6.84778 969.001 3.95011 961.534 3.30826 954.145C2.5033 946.746 3.50002 939.933 3.60235 939.12C3.95363 936.744 3.87079 937.484 4.40897 934.606C4.87653 932.952 5.08299 927.964 10.6919 914.926C11.378 913.305 12.1164 911.663 12.9085 910.001C13.6918 908.436 14.4749 906.95 15.2773 905.488C13.7468 908.444 12.1294 911.868 10.8491 914.952C16.3291 902.337 23.085 892.654 27.9007 885.852C32.2656 879.94 34.5442 877.281 32.6156 879.753C33.9604 878.043 35.428 876.233 36.8085 874.576C37.6861 873.482 38.5842 872.383 39.5029 871.277ZM439.5 945.611C432.248 946.685 429.7 947.207 430.82 947.038C437.126 946.087 443.284 945.052 439.5 945.611ZM76.4276 833.487C70.3004 839.171 64.7776 844.421 58.8495 850.292C58.8759 850.318 58.9023 850.345 58.9287 850.371C64.8293 844.475 70.3259 839.198 76.4276 833.487ZM513.736 934.327C514.475 934.247 515.215 934.166 515.956 934.086C518.163 933.737 520.376 933.403 522.526 933.089C529.002 932.137 534.61 931.668 537.966 931.374C538.918 931.291 536.994 931.39 535.156 931.554C534.428 931.611 528.26 932.202 522.52 933.048C518.24 933.666 514.404 934.225 513.736 934.327ZM526.078 1165.35C528.368 1163.12 530.586 1160.95 532.996 1158.6C533.061 1158.54 533.126 1158.48 533.191 1158.41C533.137 1158.49 533.082 1158.56 533.027 1158.64C532.967 1158.72 532.908 1158.8 532.849 1158.88C531.635 1160.05 530.448 1161.21 529.288 1162.33C528.197 1163.36 527.21 1164.28 526.078 1165.35ZM552.878 1138.79C557.077 1134.45 560.883 1130.43 564.983 1125.98C549.739 1142.31 562.371 1128.92 552.944 1138.85C552.922 1138.83 552.9 1138.81 552.878 1138.79ZM592.342 1094.05C591.907 1094.64 591.468 1095.22 591.026 1095.81C587.176 1100.66 583.701 1104.86 579.782 1109.46C582.283 1106.63 584.703 1103.83 587.043 1101.07C588.349 1099.47 589.824 1097.64 591.167 1095.95C591.563 1095.31 591.954 1094.68 592.342 1094.05ZM208.395 723.023C211.143 720.858 220.871 713.183 220.451 713.488C216.358 716.647 212.302 719.789 208.284 722.914C208.288 722.958 208.293 723.002 208.298 723.045C207.721 723.475 207.144 723.905 206.569 724.334C204.347 726.099 201.96 727.999 199.673 729.824C198.487 730.719 197.305 731.613 196.126 732.505C194.986 733.456 193.85 734.405 192.717 735.352C203.814 726.637 203.513 726.816 205.778 725.028C206.933 724.119 207.681 723.561 208.099 723.247C208.198 723.172 208.296 723.098 208.395 723.023ZM72.4558 837.547C84.8097 825.92 92.0367 819.376 101.031 811.532C95.155 816.195 57.6366 850.71 46.018 863.864C45.2517 864.722 44.5017 865.571 43.7686 866.409C43.3235 866.916 42.8828 867.423 42.4463 867.928C42.8985 867.418 43.3458 866.917 43.7879 866.426C49.1491 860.477 54.0784 855.529 56.8575 852.729C59.4503 850.126 59.1838 850.364 59.3799 850.166C59.3894 850.157 59.3989 850.147 59.4085 850.137C65.8011 843.814 67.6471 842.113 72.4558 837.547ZM526.209 932.392C525.12 932.524 523.832 932.693 522.495 932.883C518.305 933.478 513.758 934.16 513.699 934.218C516.621 933.802 519.557 933.385 522.508 932.968C523.984 932.759 525.451 932.564 526.91 932.383C526.001 932.484 526.985 932.299 526.209 932.392ZM596.638 1088.79C598.716 1086.14 603.814 1079.08 601.589 1082.04C601.234 1082.55 596.114 1089.48 599.054 1085.37C594.196 1091.84 595.439 1090.33 596.638 1088.79ZM121.664 998.718C124.594 998.222 127.517 997.727 130.458 997.228C131.138 997.086 131.817 996.945 132.496 996.804C128.881 997.444 125.268 998.082 121.664 998.718ZM564.569 930.637C568.616 930.983 575.445 931.392 582.728 932.839C585.516 933.35 588.226 933.944 590.853 934.623C590.859 934.624 590.866 934.626 590.872 934.628C590.952 934.612 591.031 934.596 591.116 934.582C582.473 932.334 573.555 931.132 564.569 930.637ZM9.94008 916.966C9.22063 918.664 8.5594 920.34 7.95469 921.994C6.87645 925.093 5.9915 928.086 5.24301 931.264C5.68188 929.506 6.12768 927.937 6.64876 926.266C7.61116 923.054 8.67499 920.075 9.94008 916.966ZM611.545 942.545C602.79 938.036 599.424 936.785 610.671 942.175C615.239 944.702 620.316 947.93 611.545 942.545ZM354.345 612.458C351.693 614.394 349.044 616.33 346.398 618.266C345.513 618.947 344.631 619.627 343.743 620.31C347.273 617.69 350.805 615.075 354.345 612.458ZM567.41 1123.66C567.656 1123.35 567.9 1123.05 568.145 1122.75C570.136 1120.56 572.082 1118.39 573.983 1116.24C573.524 1116.79 573.061 1117.35 572.596 1117.91C570.902 1119.81 569.174 1121.73 567.41 1123.66ZM336.54 625.556C334.423 627.115 332.309 628.674 330.198 630.233C328.788 631.291 327.38 632.35 325.973 633.408C327.949 631.956 329.927 630.504 331.908 629.051C333.451 627.886 334.995 626.721 336.54 625.556ZM634.066 1023.74C635.436 1020.45 639.299 1005.72 635.592 1018.86C632.999 1026.79 633.831 1024.29 634.066 1023.74ZM626.254 1042.2C632.181 1029.4 628.108 1039.12 619.956 1053.93C628.125 1039.04 625.793 1042.9 626.254 1042.2ZM551.658 1140.64C551.403 1140.9 551.178 1141.08 549.136 1143.16C544.419 1147.96 538.446 1153.86 533.248 1158.86C530.792 1161.23 528.693 1163.25 527.082 1164.8C514.509 1177.1 475.619 1213.65 470.806 1217.7C469.844 1218.55 471.976 1216.5 471.594 1216.84C470.482 1217.85 463.865 1223.94 465.068 1222.77C471.55 1216.86 478.003 1210.94 484.446 1204.97C482.9 1206.46 481.337 1207.95 479.773 1209.44C495.819 1194.57 490.494 1199.46 495.026 1195.13C497.754 1192.61 500.509 1190.05 503.162 1187.58C508.983 1182.02 514.799 1176.42 520.616 1170.79C519.269 1172.12 517.959 1173.4 516.682 1174.66C525.532 1166.23 522.98 1168.64 527.774 1163.95C527.8 1163.95 527.825 1163.96 527.851 1163.97C529.969 1161.91 531.732 1160.2 533.185 1158.8C537.298 1154.82 538.555 1153.62 539.925 1152.28C543.622 1148.58 548.399 1143.71 562.211 1129.4C567.923 1123.05 568.02 1123.3 571.227 1119.53C580.809 1108.95 562.67 1129.46 553.689 1138.51C553.684 1138.52 553.68 1138.52 553.675 1138.53C552.987 1139.24 554.104 1138.12 551.658 1140.64ZM599.655 1084.82C594.738 1092.01 614.594 1063.91 607.879 1073.19C606.872 1074.66 605.993 1075.92 605.018 1077.29C603.296 1079.78 601.505 1082.29 599.643 1084.84C599.647 1084.83 599.651 1084.83 599.655 1084.82ZM452.522 943.239C421.197 948.147 439.031 945.447 449.629 943.738C451.737 943.398 452.897 943.201 452.522 943.239ZM90.2513 821.267C90.5929 820.939 90.9357 820.611 91.2795 820.282C83.2129 827.46 68.2793 841.474 68.6386 841.328C75.6853 834.565 82.8621 827.931 90.2513 821.267ZM31.7669 881.084C33.0958 879.291 39.0798 872.102 38.3197 872.985C35.8329 875.874 33.0797 879.237 30.7127 882.298C29.6442 883.723 28.4797 885.314 27.3944 886.846C28.9674 884.66 31.3884 881.561 31.7669 881.084Z" fill="#87392B" fill-opacity="0.59"/>
</svg>
