<svg width="609" height="1458" viewBox="0 0 609 1458" fill="none" xmlns="http://www.w3.org/2000/svg">
<g filter="url(#filter0_f_1_887)">
<path d="M438.178 44.3023C460.217 82.1195 482.631 109.87 504.809 151.67C535.549 201.842 545.338 285.18 509.845 347.267C485.843 394.272 456.042 435.461 428.558 471.488C380.72 533.608 328.055 593.063 276.561 650.747C273.916 653.706 272.087 655.242 270.889 656.58C259.597 669.2 240.912 690.575 229.738 703.044C206.132 729.307 165.619 775.274 144.821 799.663C135.891 810.038 127.131 820.636 123.059 824.366C119.876 828.225 118.79 830.771 118.02 831.795C118.011 831.806 118.001 831.817 117.991 831.828C115.61 834.98 108.459 843.22 107.148 844.981C106.947 845.252 108.645 843.927 105.134 848.203C104.799 848.617 104.89 847.887 101.916 851.766C101.033 852.87 92.223 865.553 89.5273 869.429C84.5034 876.493 74.9939 889.816 67.3796 902.468C61.8055 911.684 56.9846 920.445 53.7815 926.793C52.5449 929.24 52.0499 930.722 50.8512 933.219C50.2371 934.498 49.1229 936.332 48.9185 936.779C48.0095 938.672 45.6671 946.723 44.9483 943.162C41.6049 951.425 43.3133 949.282 43.6301 949.627C40.2127 958.423 38.0516 962.403 38.2817 965.142C31.7932 985.714 30.6678 1007.8 41.4049 1018.41C51.8029 1029.77 74.8786 1032.07 95.5277 1028.48C97.9154 1028.08 100.31 1027.68 102.712 1027.28C102.699 1027.11 102.686 1026.94 102.673 1026.77C117.289 1024.97 122.061 1022.99 130.521 1022.54C135.573 1021.46 140.665 1020.37 145.722 1019.28C261.635 999.997 377.095 979.078 492.114 960.067C508.772 957.369 525.945 956.557 543.723 960.149C549.974 961.61 551.585 962.015 561.845 966.175C572.994 970.651 588.9 981.639 596.837 996.925C604.568 1010.05 607.266 1031.23 605.906 1045.88C605.671 1049.33 605.635 1051.53 605.593 1051.94C605.337 1054.11 604.964 1054.17 604.661 1056.3C604.272 1058.95 604.077 1061.71 603.493 1064.59C601.398 1075.18 597.942 1086.03 597.526 1087.27C595.46 1093.4 594.593 1094.54 594.432 1095.01C591.973 1101.48 593.15 1099.18 592.511 1100.8C589.037 1109.27 585.734 1114.91 581.127 1125.99C581.012 1125.56 580.895 1125.13 580.778 1124.7C576.412 1133.04 579.895 1127.84 579.153 1129.63C578.915 1130.48 569.207 1148.07 568.405 1149.2C565.706 1153.73 565.256 1153.68 565.022 1154.07C564.422 1155.12 557.871 1166.69 553.741 1172.32C548.853 1179.04 553.545 1170.43 552.287 1172.07C552.045 1172.42 547.484 1179.45 546.64 1180.22C545.735 1181.1 549.75 1175.12 549.577 1175.16C549.52 1175.16 542.311 1184.82 543.289 1182.7C544.061 1181.01 553.577 1167.52 555.24 1164.45C555.521 1163.95 554.555 1164.61 554.812 1164.17C556.003 1162.85 575.214 1129.51 575.657 1127.87C574.902 1129.81 574.183 1131.64 573.456 1133.46C574.67 1131.21 575.952 1128.79 577.186 1126.39C575.576 1129.95 574.026 1133.27 572.391 1136.65C576.577 1132.79 582.607 1116.52 582.005 1115.55C581.724 1115.25 576.491 1123.9 579.988 1115.09C579.24 1116.46 578.585 1117.6 577.865 1118.87C576.743 1121.59 575.561 1124.36 574.317 1127.16C575.34 1125.4 576.336 1123.64 577.308 1121.9C577.093 1122.61 576.875 1123.32 576.652 1124.04C574.248 1129.29 571.898 1134.16 569.328 1139.21C567.836 1141.72 567.819 1141.02 566.766 1142.75C553.758 1163.33 562.613 1150.5 554.196 1163.85C552.819 1165.67 551.417 1167.5 549.991 1169.35C551.079 1169.11 546.801 1174.84 542.271 1182.05C542.642 1181.05 543.008 1180.07 543.369 1179.08C536.459 1189.74 520.538 1208.95 525.668 1204.39C523.853 1206.63 522.134 1208.71 520.324 1210.89C519.068 1212.92 517.789 1214.97 516.487 1217.02C515.119 1218.76 513.734 1220.51 512.329 1222.26C511.598 1223.18 510.883 1224.07 510.183 1224.95C510.076 1224.89 509.969 1224.82 509.862 1224.76C510.564 1223.86 511.281 1222.95 512.015 1222.02C512.968 1220.8 513.913 1219.59 514.85 1218.39C513.687 1219.42 512.516 1220.45 511.337 1221.48C510.955 1221.82 510.577 1222.15 510.201 1222.48C509.017 1224.09 507.881 1225.64 506.787 1227.13C511.945 1221.15 506.018 1229.64 504.718 1232.11C500.724 1237.5 497.532 1240.54 496.074 1242.37C495.485 1243.09 488.556 1253.89 490.646 1249.14C486.801 1254.35 482.944 1259.61 479.12 1264.85C477.501 1266.8 475.875 1268.76 474.256 1270.72C477.144 1265.99 466.836 1278.27 473.828 1268.75C479.028 1261.67 480.805 1260.25 483.317 1256.98C485.601 1254.01 486.523 1252.21 489.015 1248.97C496.605 1239.1 503.813 1229.89 510.788 1221.05C519.352 1210.19 527.357 1199.63 535.582 1188.13C538.717 1183.74 541.259 1179.7 543.221 1176.83C545.425 1173.6 543.092 1177.92 545.752 1173.73C548.594 1169.23 548.941 1167.97 549.696 1166.79C550.172 1166.05 551.964 1163.89 553.305 1161.75C558.947 1152.93 566.24 1139.44 566.989 1138C568.056 1136.66 581.626 1110.18 582.024 1108.59C582.338 1107.92 582.938 1109.81 584.213 1103.33C584.994 1101.38 585.771 1099.38 586.498 1097.44C586.61 1097.84 586.721 1098.25 586.831 1098.66C590.218 1086.96 589.442 1090.85 592.88 1079.66C601.7 1054.12 605.473 1001.83 573.461 980.519C567.263 976.108 564.523 974.848 556.442 971.528C548.954 967.897 528.38 964.32 532.724 966.229C515.25 963.652 512.614 966.425 503.918 965.877C502.867 966.152 501.882 966.431 500.88 966.721C497.842 966.847 495.464 967.112 493.297 967.454C489.156 968.109 485.845 968.962 479.413 970.082C475.287 970.801 479.939 969.253 471.714 971.481C470.101 971.683 468.497 971.884 466.896 972.085C467.237 971.84 467.577 971.595 467.917 971.35C458.685 973.036 458.048 973.046 459.225 973.556C454.719 974.177 450.245 974.795 445.73 975.421C445.208 975.74 444.69 976.059 444.172 976.377C445.216 976.411 468.027 972.548 493.427 968.269C523.527 961.683 559.077 970.932 565.973 976.606C574.025 981.255 585.32 991.019 591.239 1003.64C597.421 1016.11 598.601 1029.3 598.646 1036.57C598.621 1042.31 598.067 1045.1 597.05 1053.22C595.995 1061.55 594.022 1071.66 592.817 1075.92C590.7 1090.93 560.192 1151.73 579.693 1109.79C578.918 1110.91 578.131 1112.04 577.332 1113.17C570.278 1129.88 572.573 1123.98 565.411 1137.15C562.232 1142.97 555.079 1155.94 554.434 1154.75C560.517 1144.43 566.9 1133.77 571.549 1124.54C572.084 1123.56 576.924 1112.54 579.547 1106.71C581.837 1101.6 581.49 1105.67 584.853 1093.61C589.172 1085.45 589.641 1079.85 590.2 1077.55C591.19 1073.33 591.878 1073.04 592.933 1069C594.072 1064.54 594.266 1061.2 594.373 1060.62C594.928 1057.7 596.567 1047.66 596.517 1038.32C596.629 1028.77 594.801 1020.08 594.703 1019.23C595.118 1020.61 595.471 1021.88 595.803 1023.22C594.276 1014.42 593.818 1016.39 593.183 1014.18C592.701 1012.57 592.099 1010.8 591.468 1009.18C591.838 1009.78 592.2 1010.4 592.554 1011.02C588.377 1001.26 592.034 1008.4 584.017 995.565C578.475 987.593 570.398 981.419 569.618 980.975C569.386 980.831 571.699 982.798 568.436 980.635C563.087 976.907 552.741 972.898 551.684 972.222C548.716 971.329 548.827 971.856 548.433 971.741C546.811 970.12 516.379 966.964 511.011 968.318C505.449 968.657 499.687 969.301 493.748 970.272C484.253 971.824 474.359 973.438 464.694 975.088C463.103 975.36 464.075 974.919 462.48 975.193C459.903 975.634 446.846 978.25 444.873 978.613C439.999 979.503 427.065 981.502 425.059 981.968C424.773 982.034 429.08 981.686 424.133 982.636C418.636 983.692 421.525 982.698 421.224 982.743C410.001 984.463 402.978 986.006 395.33 987.373C392.859 987.814 388.225 988.22 384.739 988.926C384.338 989.007 385.194 989.214 384.801 989.299C379.546 990.378 374.498 990.584 372.199 990.934C366.585 991.789 369.712 991.739 369.42 991.792C365.702 992.442 360.644 993.132 354.985 994.124C329.73 998.553 309.112 1002.13 282.249 1006.74C278.874 1007.32 274.814 1007.68 274.298 1007.77C272.704 1008.05 273.227 1008.36 268.615 1009.14C258.887 1010.8 249.882 1012.38 240.253 1014.04C238.314 1014.37 237.427 1014.15 235.949 1014.4C230.996 1015.23 214.252 1019.1 213.773 1017.97C204.124 1020.71 197.435 1020.94 189.515 1022.32C170.77 1025.57 141.433 1030.84 122.726 1033.89C118.799 1034.53 116.877 1034.54 114.689 1034.9C112.438 1035.27 104.008 1036.75 97.0997 1037.96C92.1666 1038.83 87.9499 1039.22 87.4685 1039.25C85.2028 1039.26 86.5 1038.25 75.0559 1039.45C68.3596 1039.32 69.1983 1038.66 67.8419 1038.54C57.193 1037.48 47.4656 1034.55 49.6464 1034.22C38.4482 1030.07 32.9726 1024.19 31.2661 1019.81C30.8978 1020.15 27.3999 1015.85 25.7658 1009.26C27.1399 1012.35 28.0786 1013.64 29.4114 1015.85C30.872 1018.01 32.4425 1021.49 38.3287 1026.73C38.5178 1026.89 37.9132 1026.87 38.103 1027.03C39.7941 1028.55 43.873 1031.11 47.5269 1032.74C51.2142 1034.37 49.0646 1033.71 50.567 1034.31C51.9644 1034.82 52.039 1034.48 54.0983 1035.13C60.8212 1037.17 67.2719 1037.72 71.3898 1037.95C73.9737 1038.11 76.9272 1038.45 78.9653 1038.41C83.1969 1038.35 89.9926 1037.81 96.8674 1036.56C103.095 1035.45 109.522 1034.31 114.383 1033.5C116.572 1033.13 115.706 1033.64 120.51 1032.85C121.069 1032.76 123.032 1032.05 127.207 1031.26C131.391 1030.47 134.664 1030.09 137.343 1029.6C139.585 1029.18 138.588 1029.02 143.204 1028.21C147.032 1027.54 190.595 1020.28 192.973 1019.92C196.383 1019.41 198.07 1019.58 200.136 1019.17C200.499 1019.09 201.043 1018.55 202.304 1018.3C223.082 1014.19 269.361 1006.79 293.206 1002.67C343.044 994.072 388.997 985.916 439.317 977.373C440.202 977.146 441.087 976.92 441.971 976.694C436.89 977.542 431.785 978.396 426.707 979.248C426.641 979.048 426.575 978.848 426.509 978.648C419.621 979.775 420.607 980.108 420.851 980.368C418.289 980.672 415.729 980.977 413.162 981.283C411.072 982.37 394.035 984.766 385.285 986.258C379.594 987.227 372.874 988.653 369.866 989.145C363.528 990.183 363.617 989.714 363.118 989.792C362.268 989.927 353.491 991.829 347.104 992.909C337.67 994.505 336.529 994.003 323.717 996.798C307.113 999.292 288.812 1002.63 270.994 1005.77C274.282 1004.56 258.408 1007.91 251.197 1009.15C207.233 1016.68 153.168 1025.76 108.596 1033.09C103.573 1033.91 99.6012 1034.29 96.5661 1034.74C96.1491 1034.8 95.7504 1034.86 95.3695 1034.93C93.7415 1035.19 93.0885 1035.74 90.8008 1035.97C90.3995 1035.99 90.0705 1035.68 85.8428 1035.98C75.1885 1037.74 49.479 1033.99 45.4013 1029.14C15.2004 1013.22 27.8679 967.105 42.7642 935.029C43.3146 934.234 43.9033 933.369 44.4386 932.628C46.0095 927.548 54.3041 911.575 61.8696 899.202C64.0475 895.583 66.2337 892.122 68.0394 889.284C81.1789 868.496 100.064 843.486 113.712 826.48C116.633 822.83 119.273 819.962 122.149 816.434C123.407 814.891 124.606 812.931 125.877 811.387C140.168 793.951 160.273 771.026 175.184 753.975C209.131 715.128 241.756 679.059 276.557 639.866C358.211 546.311 443.473 454.414 502.893 343.751C528.033 296.663 533.361 237.604 512.776 187.982C511.902 185.729 512.279 185.701 511.578 183.959C507.67 173.552 496.053 151.873 489.517 141.503C484.475 133.06 476.404 119.941 474.031 117.469C492.577 146.368 512.016 178.709 520.22 214.966C520.797 217.521 520.514 217.921 520.579 218.236C521.647 224.11 521.489 220.343 522.927 228.872C523.94 231.707 524.189 258.626 524.909 255.369C525.971 262.149 518.078 306.508 513.922 314.466C513.103 316.932 514.02 315.304 513.864 315.797C513.175 317.942 512.397 318.75 511.66 320.65C509.717 325.965 504.539 338.26 503.217 340.742C502.879 341.427 502.447 342.28 501.935 343.266C498.654 349.71 491.307 362.498 487.967 368.282C484.417 374.485 485.42 373.701 482.301 378.938C479.804 383.061 482.283 378.359 476.424 387.506C473.448 392.234 463.512 407.828 460.786 411.739C458.258 415.451 455.17 419.437 451.538 424.629C446.356 432.111 434.814 448.163 429.394 455.45C429.068 455.891 428.555 457.179 427.73 458.256C426.021 460.489 426.172 459.543 424.848 461.21C423.538 463.025 401.092 491.868 397.108 496.661C394.416 500.01 392.735 502.513 391.242 504.352C390.077 505.785 389.661 505.702 388.467 507.164C388.099 507.617 385.21 511.683 382.026 515.547C379.007 519.241 367.358 532.771 366.002 534.364C365.132 535.401 366.292 534.434 363.712 537.498C361.36 540.29 359.54 541.911 358.21 543.478C355.109 547.134 351.857 551.423 348.54 555.317C338.981 566.519 339.167 565.608 338.579 566.279C336.96 568.103 336.619 569.1 336.102 569.712C333.924 572.295 328.543 578.629 326.576 580.916C324.133 583.761 322.809 584.716 320.189 587.722C318.238 589.964 314.563 594.731 310.101 599.849C300.062 611.372 288.055 625.06 278.09 636.257C275.118 639.598 274.4 639.893 273.484 640.91C268.665 646.26 266.275 649.513 264.909 651.04C255.158 661.94 237.288 681.046 228.25 691.103C224.538 695.23 208.669 713.446 199.566 723.658C198.531 724.819 199.296 723.552 198.18 724.875C195.516 728.035 196.18 728.107 194.783 729.661C194.109 730.409 192.318 731.973 190.328 734.182C180.047 745.596 173.268 753.725 168.669 758.984C129.58 804.095 89.2251 850.429 60.086 898.144C56.3744 904.387 53.1425 910.087 49.8371 916.274C46.6843 922.199 43.0335 930.019 38.5749 939.454C38.295 939.674 38.0158 939.894 37.7373 940.113C37.7497 940.504 37.7635 940.894 37.7788 941.281C33.3241 952.284 32.0399 956.22 28.61 967.608C28.356 968.46 26.7962 971.49 27.3456 973.502C24.4752 984.696 26.2417 978.508 25.293 986.975C24.6268 995.3 24.9068 1003.37 27.2355 1010.58C27.7656 1012.55 26.2689 1009.66 25.2063 1005.64C24.0967 1001.63 23.6912 996.725 23.6855 996.055C23.6271 994.163 24.1248 992.123 24.2469 990.162C24.5683 984.673 25.1642 979.102 25.8214 977.88C26.7941 970.503 25.2434 979.615 25.0432 978.664C26.0539 973.783 27.4115 968.888 28.9373 964.234C27.8393 961.196 39.8065 935.666 38.3027 937.248C39.3928 935.307 40.5586 933.265 41.7053 931.326C44.6813 922.049 48.21 917.123 54.9857 905.887C54.3752 906.621 53.77 907.352 53.1702 908.079C53.1672 907.87 58.7977 897.59 57.3156 901.581C58.0371 900.084 58.698 898.801 59.3061 897.682C62.8601 891.185 64.3587 890.711 68.5252 882.544C71.8952 877.242 70.2525 880.752 76.803 871.271C80.5092 865.948 85.4254 858.586 89.796 852.724C90.8339 851.332 91.5964 850.954 92.5381 849.708C93.482 848.461 93.6469 847.624 94.8029 846.094C97.2341 842.874 100.376 839.255 101.881 837.289C103.202 835.566 104.873 832.893 108.163 828.675C119.346 814.421 116.397 818.917 118.322 816.776C120.471 814.41 121.368 812.323 125.347 807.616C125.748 807.143 125.024 808.626 126.297 807.062C127.331 805.797 127.513 804.908 130.953 800.658C132.313 798.882 153.836 773.385 157.22 769.535C162.431 763.459 173.992 750.729 179.399 744.576C181.439 742.251 183.378 739.534 185.573 737.045C192.905 728.726 204.545 715.634 213.825 705.237C222.192 695.857 237.398 679.945 241.517 674.32C253.157 661.151 256.472 658.295 257.36 657.311C259.784 654.624 260.587 653.151 263.589 649.755C302.532 605.798 353.748 547.807 388.741 504.426C429.589 453.632 470.03 401.064 500.291 342.435C532.425 284.826 527.856 210.27 493.914 155.061C493.596 154.838 493.279 154.619 492.959 154.395C500.473 167.874 507.967 184.564 512.649 199.184C519.629 218.449 523.748 249.279 521.097 264.291C521.439 258.112 521.625 248.255 520.997 248.413C521.372 259.317 520.671 270.143 518.908 281.019C519.23 280.744 519.548 280.482 519.871 280.187C518.262 291.344 515.288 302.779 511.559 313.592C510.918 315.44 511.615 314.214 511.041 315.827C510.386 317.635 510.592 316.323 510.467 316.661C508.781 321.231 508.409 322.735 508.189 323.296C507.6 324.708 507.804 323.632 506.063 327.581C502.815 334.857 500.624 340.536 500.539 338.3C499.987 339.431 499.422 340.565 498.845 341.703C498.234 342.909 497.613 344.118 496.983 345.331C496.936 346.059 496.887 346.789 496.835 347.521C488.157 361.346 486.261 368.43 480.165 375.401C478.896 377.985 477.595 380.585 476.263 383.199C475.142 384.442 474.013 385.686 472.876 386.933C472.916 387.342 472.956 387.751 472.994 388.16C464.388 401.38 455.256 415.311 446.391 427.696C440.339 436.124 438.771 438.091 433.211 445.654C420.963 462.118 432.828 445.477 422.062 458.84C422.851 458.313 423.639 457.786 424.426 457.259C422.797 459.598 421.152 461.943 419.493 464.293C418.089 465.71 416.704 467.095 415.301 468.499C411.003 476.199 406.606 480.059 405.866 481.001C405.248 481.783 403.861 484.85 396.872 492.526C400.406 489.838 391.92 498.713 391.281 499.479C390.66 500.253 383.423 509.549 380.328 513.29C377.914 516.223 372.549 522.359 368.967 526.675C365.787 530.508 366.386 530.355 366.157 530.637C362.236 535.371 364.492 532.234 361.621 535.635C358.743 539.042 356.758 541.874 356.124 542.582C355.802 542.94 356.579 541.493 355.135 543.151C351.263 547.599 344.52 555.982 340.097 561.122C338.534 562.941 336.344 565.048 334.591 567.07C331.904 570.171 330.938 571.875 329.368 573.675C328.822 574.298 324.898 577.932 320.659 582.945C319.853 583.9 318.386 587.499 313.833 590.011C313.773 590.46 313.714 590.908 313.654 591.357C299.582 608.388 293.987 611.616 288.839 620.173C278.067 632.04 284.833 623.335 283.587 624.582C282.782 625.388 279.464 629.423 279.075 629.844C278.385 630.589 278.332 630.309 277.595 631.142C264.064 646.438 270.397 639.945 266.301 644.957C256.568 656.851 247.529 664.849 265.619 645.19C265.525 645.106 265.431 645.022 265.337 644.938C261.06 649.927 249.878 662.377 253.122 657.781C255.693 654.161 282.289 624.752 266.827 641.076C263.317 644.781 261.914 647.068 255.391 653.055C251.456 657.396 251.747 658.792 246.142 664.382C247.305 663.68 248.468 662.977 249.633 662.273C242.863 670.643 233.443 680.141 228.118 686.446C226.32 688.575 220.978 697.432 221.131 694.395C218.034 698.041 203.016 714.39 200.368 717.644C199.733 718.424 199.644 720.038 189.845 730.591C189.083 731.263 188.321 731.933 187.561 732.603C196.054 722.421 180.298 739.711 183.777 734.312C185.511 732.994 192.694 725.26 193.932 724.193C196.105 722.303 190.825 728.995 197.918 720.787C201.247 714.599 188.853 729.715 189.682 726.475C180.668 737.76 179.278 738.331 177.121 740.74C167.852 751.131 162.393 757.64 153.61 767.547C151.775 770.134 167.575 752.582 169.425 750.288C163.131 759.196 175.515 745.069 180.091 738.878C180.776 738.609 181.461 738.339 182.146 738.069C175.371 745.495 168.595 753.098 162.285 760.792C161.764 761.201 161.244 761.609 160.724 762.016C162.044 760.204 163.372 758.386 164.708 756.562C158.999 762.663 163.068 759.458 155.038 767.436C155.097 767.947 155.156 768.458 155.216 768.969C148.161 776.961 141.019 785.137 134.099 793.174C131.071 797.905 117.72 813.639 119.39 810.081C114.058 816.485 121.02 808.797 116.204 815.073C114.1 817.813 109.977 822.976 108.769 824.066C108.451 822.952 114.587 815.163 116.053 812.367C114.443 813.694 86.6627 850.157 88.3097 846.509C85.9803 849.383 87.4145 848.39 83.6223 853.734C75.1908 865.582 63.0184 881.998 55.5254 895.441C53.2079 899.55 51.3307 903.21 49.987 906.26C52.4669 902.27 54.532 898.913 56.334 895.92C60.7916 888.58 63.5718 883.425 68.9208 875.456C73.3049 868.015 105.172 826.13 98.8399 836.123C99.9225 834.531 101.019 832.929 102.128 831.318C103.576 829.957 105.062 828.557 106.509 827.213C103.059 831.613 99.6617 836.009 96.3996 840.3C95.3696 841.152 94.3957 841.935 93.3264 842.847C93.1153 843.467 92.9058 844.087 92.6982 844.704C91.3 846.605 89.9243 848.49 88.5716 850.36C88.7593 849.69 88.9491 849.019 89.1411 848.345C86.9453 851.183 84.8223 853.961 82.7169 856.754C83.5628 856.172 84.3735 855.641 85.2068 855.081C75.2965 868.768 78.5302 864.021 72.7192 871.176C68.6637 876.975 75.8259 867.574 67.7187 879.861C60.0889 891.837 62.3606 886.99 56.6885 896.13C55.5841 897.957 54.2131 900.295 52.5367 903.299C52.5259 903.657 52.516 904.014 52.5069 904.37C50.0616 908.328 47.4294 912.781 45.0913 916.888C45.569 916.427 46.0491 915.964 46.5317 915.5C41.7376 924.199 36.302 937.033 34.3729 939.63C38.7064 930.666 37.5971 929.966 36.1697 932.36C34.9174 934.756 25.1603 954.286 21.0175 976.74C15.5204 999.469 24.8802 1023.11 31.3657 1027.69C45.4082 1041.56 62.1967 1044.06 79.9561 1043.25C73.8766 1043.14 59.764 1042.91 47.5647 1037.81C35.0457 1033.12 27.3396 1022.4 25.94 1018.79C25.6397 1018.03 26.743 1017.81 23.5109 1013.72C17.8328 998.184 20.1713 977.412 26.8003 957.466C26.9634 958.184 27.1406 958.868 27.3068 959.597C22.502 971.681 22.8121 983.84 21.5956 981.903C21.2567 984.358 20.9906 987.043 20.8597 989.455C21.1127 989.468 21.3656 989.481 21.6186 989.494C21.4072 993.355 21.4587 997.055 21.8435 1000.77C21.5916 1000.8 21.3396 1000.83 21.0876 1000.85C21.4147 1003.97 21.9575 1006.97 22.8245 1010.02C23.1559 1010.26 23.4885 1010.49 23.8221 1010.72C24.6866 1015.25 29.5931 1024.22 35.2397 1028.68C40.7098 1033.2 44.7769 1035.12 38.5127 1032.13C42.0464 1034.61 45.9821 1036.56 50.089 1038.04C50.1389 1037.87 50.189 1037.69 50.2392 1037.51C52.0087 1038.12 53.7909 1038.64 55.6142 1039.1C54.9724 1039.1 54.3312 1039.1 53.6905 1039.09C62.0204 1041.23 70.3285 1042.67 76.0995 1042.14C72.2955 1041.98 68.5366 1041.62 64.8194 1041C71.9584 1042.43 85.3913 1041.33 86.5627 1041.1C90.1959 1040.78 92.1637 1040.92 96.0989 1040.33C96.64 1040.25 97.0855 1040.17 97.4545 1040.1C99.5371 1039.69 99.2358 1039.54 99.805 1039.45C119.338 1036.43 112.132 1039.23 120.948 1035.86C121.955 1035.94 122.959 1036.02 123.966 1036.11C125.216 1035.68 126.468 1035.25 127.721 1034.83C133.497 1033.86 139.206 1032.9 144.984 1031.93C143.008 1031.95 141.036 1031.97 139.067 1031.99C147.685 1030.37 151.772 1030.31 152.618 1030.18C154.988 1029.81 156.006 1029.23 156.738 1029.1C191.826 1023.1 170.592 1027.11 188.364 1025.56C194.525 1023.9 188.095 1024.42 187.11 1023.98C195.484 1022.82 198.03 1022.22 206.831 1020.73C209.112 1020.35 211.62 1020.24 213.062 1019.99C214.308 1019.78 218.167 1018.77 221.156 1018.25C226.143 1017.39 232.835 1016.44 239.669 1015.25C245.361 1014.26 262.72 1011.02 274.865 1008.92C280.046 1008.02 278.892 1008.51 280.23 1008.28C280.788 1008.18 284.768 1007.15 288.092 1006.57C315.199 1001.89 343.026 997.317 370.272 992.659C389.47 989.377 408.948 985.791 428.199 982.58C432.292 981.898 430.166 982.51 431.953 982.219C432.564 982.119 433.237 981.561 439.604 980.672C441.902 980.351 439.321 981.094 441.572 980.732C442.673 980.555 443.049 980.102 449.459 978.942C461.049 976.845 467.416 976.31 468.438 976.125C470.385 975.772 469.764 975.553 472.365 975.111C480.127 973.792 487.123 972.606 493.938 971.462C498.476 970.705 502.727 970.154 507.366 969.763C510.038 969.52 520.968 968.733 531.411 969.88C541.882 970.829 551.679 974.12 552.599 974.532C557.037 976.342 552.714 975.292 558.259 977.637C559.87 978.184 561.501 978.81 563.077 979.483C560.753 978.062 558.316 976.774 555.859 975.641C562.749 978.565 570.184 982.99 574.381 986.81C575.269 987.383 581.813 994.452 584.312 998.663C583.066 996.985 581.753 995.408 580.346 993.892C580.73 994.527 581.093 995.159 581.445 995.798C587.46 1003.37 591.361 1013.1 593.033 1022.73C593.601 1026.17 593.178 1025.03 593.595 1028.62C594.495 1049.02 595.452 1044.26 590.394 1063.18C592.509 1057.03 593.694 1032.63 592.658 1029.3C592.622 1026.75 592.385 1017.1 591.377 1020.91C589.132 1011.31 588.544 1010.76 588.691 1010.2C588.596 1009.72 589.2 1009.1 584.513 1001C584.521 1001.43 584.524 1001.85 584.523 1002.28C581.15 996.747 577.889 993.268 575.364 990.244C574.254 989.456 556.699 976.231 544.558 974.364C528.761 970.437 510.3 971.177 494.33 973.908C493.503 974.047 492.681 974.185 491.864 974.321C486.206 975.265 482.906 975.398 482.195 975.517C481.16 975.69 478.302 976.521 476.225 976.867C468.47 978.154 444.772 981.496 439.089 983.452C457.522 980.361 475.958 977.299 494.389 974.279C521.725 969.892 553.297 970.962 574.449 991.117C572.329 988.921 580.841 995.677 585.878 1006.3C591.23 1016.8 592.228 1029.6 592.293 1030.77C592.439 1032.97 591.96 1031.14 591.988 1031.8C592.196 1036.76 592.536 1040.98 592.473 1042.56C592.42 1043.74 592.09 1046.3 591.648 1050.42C591.562 1051.19 591.78 1051.43 591.677 1052.27C590.956 1058 589.949 1063.2 588.635 1068.66C588.555 1068.99 587.882 1070.24 587.525 1071.6C587.171 1072.96 587.136 1074.43 587.038 1074.78C585.848 1079.15 583.266 1086.28 581.785 1090.25C581.29 1091.6 581.882 1090.75 581.314 1092.27C579.514 1096.97 579.648 1095.28 577.375 1101.16C576.622 1103.06 577.058 1103.08 575.403 1106.72C574.211 1109.32 573.689 1108.75 573.481 1109.16C573.176 1109.83 569.585 1118.73 567.662 1121.45C569.775 1114.58 564.056 1128.41 564.852 1127.87C562.968 1131.16 560.994 1134.51 558.928 1137.91C558.36 1139.18 557.839 1140.35 557.305 1141.54C548.985 1154.69 544.008 1163.11 535.349 1175.58C534.982 1176.16 527.179 1186.82 527.437 1186.1C531.643 1179.66 536.105 1173.08 539.219 1169.42C542.826 1161.93 543.728 1162.3 550.478 1151.08C552.771 1147.21 552.646 1146.8 552.909 1146.36C561.751 1131.68 573.812 1106.97 578.612 1096.47C579.625 1093.35 575.103 1104.2 576.654 1099.96C577.164 1098.67 582.934 1084.36 586.153 1071.98C589.474 1059.66 590.664 1049.7 589.77 1059.07C590.079 1057.17 590.36 1055.21 590.599 1053.2C590.038 1051.1 590.931 1041.46 591.754 1042.56C591.6 1041.62 591.432 1040.7 591.252 1039.78C591.112 1038.05 591.024 1035.75 590.794 1032.75C590.536 1027.26 588.21 1005.74 573.928 992.228C560.209 978.389 540.967 975.52 539.485 975.184C539.359 975.388 539.235 975.593 539.11 975.798C569.337 980.022 593.311 1007.93 589.895 1041.5C590.135 1040.55 590.361 1039.61 590.575 1038.67C590.215 1051.87 587.324 1064.9 583.243 1077.52C587.143 1064.15 590.59 1041.91 588.652 1027.57C588.363 1025.01 588.907 1026.84 588.861 1026.25C588.693 1024.69 588.102 1023.18 586.65 1017.83C585.62 1012.36 579.284 1000.13 578.181 999.313C576.796 997.312 572.016 992.806 568.79 990.305C564.549 986.995 567.61 988.919 566.757 988.255C563.133 985.563 559.496 983.789 556.262 982.281C551.623 979.868 541.056 976.369 537.156 976.816C540.927 977.508 544.546 978.407 548.129 979.581C529.593 974.411 513.576 973.948 494.897 977.451C493.806 977.668 492.704 977.894 491.588 978.128C489.015 979.207 493.518 978.696 495.082 978.608C495.664 978.575 495.843 978.6 495.11 978.784C494.388 978.966 492.779 979.304 489.782 979.899C491.572 979.593 493.359 979.289 495.143 978.985C495.943 978.849 496.741 978.719 497.535 978.596C498.103 978.273 498.671 977.953 499.24 977.636C503.605 977.202 508.156 976.931 512.475 976.891C511.231 976.741 509.972 976.609 508.696 976.495C524.32 974.887 540.294 977.406 545.007 980.112C545.386 979.932 545.767 979.755 546.15 979.581C560.477 982.787 576.682 997.291 572.527 995.655C573.037 996.074 573.541 996.503 574.036 996.945C579.079 1003.65 577.251 1000.54 579.137 1003.13C580.166 1003.6 586.082 1019.07 582.959 1012.42C587.535 1027.76 586.854 1022.95 587.866 1027.35C589.011 1037.92 587.398 1057.06 587.238 1048.96C587.039 1050.51 586.805 1052.08 586.538 1053.68C586.683 1058.92 584.628 1064.1 582.966 1069.29C582.477 1071.14 581.948 1073.01 581.377 1074.91C581.281 1076.3 581.224 1077.51 581.121 1078.84C573.989 1095.81 579.35 1091.37 573.248 1098.2C573.583 1096.88 573.902 1095.58 574.205 1094.29C575.269 1091.34 576.212 1088.56 577.144 1085.63C573.038 1097.08 567.788 1108.7 562.16 1119.6C554.173 1133.16 550.475 1141.55 540.529 1156.05C539.723 1157.48 538.902 1158.92 538.066 1160.37C538.363 1158.55 541.997 1153.17 535.136 1163.13C534.15 1163.7 538.574 1156.81 540.8 1153.98C541.349 1153.29 537.714 1159.79 542.177 1152.74C545.16 1147.89 539.213 1156.59 548.374 1141.81C547.943 1142.29 547.511 1142.77 547.076 1143.26C548.035 1141.66 548.973 1140.07 549.891 1138.49C550.964 1137.22 551.981 1136.03 553.094 1134.65C554.861 1130.61 555.517 1128.37 560.064 1119.83C558.989 1122.31 561.233 1119.29 563.324 1115.01C563.135 1114.91 562.946 1114.82 562.757 1114.73C567.5 1104.51 566.568 1107.97 569.868 1099.17C570.39 1098.36 570.884 1097.61 571.426 1096.73C573.069 1091.52 578.516 1073.44 578.374 1077.03C579.074 1071.63 582.076 1060.95 583.452 1057.05C583.298 1056.71 583.142 1056.37 582.985 1056.04C583.289 1053.92 583.563 1051.63 583.75 1049.51C584.007 1048.33 584.242 1047.19 584.46 1046.01C584.456 1044.42 584.414 1042.87 584.335 1041.36C584.574 1040.45 584.8 1039.55 585.013 1038.66C584.771 1036.23 584.423 1033.72 583.978 1031.42C584.032 1030.03 584.025 1028.44 583.984 1026.98C583.842 1026.81 580.463 1012.96 578.548 1009.6C577.919 1008.6 577.265 1007.65 576.585 1006.73C576.487 1006.15 576.382 1005.57 576.253 1004.97C575.65 1004.32 575.034 1003.7 574.407 1003.11C573.415 1001.42 572.309 999.778 571.092 998.207C564.763 993.197 564.803 992.765 563.36 991.593C560.688 989.278 549.658 984.895 547.631 984.477C545.758 983.828 544.917 983.207 543.321 982.746C530.136 979.32 525.774 980.021 524.518 979.981C523.191 980.118 524.652 980.45 521.843 980.44C518.821 980.455 516.756 980.14 514.033 980.276C511.426 980.37 502.916 981.128 495.704 982.495C490.068 983.514 485.23 984.387 484.627 984.466C482.601 984.735 487.076 982.36 480.611 983.848C480.545 984.737 466.367 986.196 473.122 986.304C467.352 987.152 461.536 988.011 455.774 988.864C456.603 989.769 449.352 990.306 441.64 991.657C430.678 993.571 406.063 998.419 406.809 997.224C404.223 997.908 401.633 998.593 399.04 999.279C380.998 1002 363.424 1005.36 345.58 1008.43C292.619 1017.56 235.128 1027.31 182.366 1036.19C179.824 1036.62 180.133 1036.21 178.305 1036.52C168.717 1038.13 143.821 1042.66 130.373 1044.88C126.061 1045.59 123.924 1045.61 122.558 1045.83C117.9 1046.57 119.072 1046.82 116.934 1047.17C114.743 1047.53 106.312 1048.79 99.0756 1049.87C95.0278 1050.49 91.2707 1050.87 89.0084 1051.07C85.7726 1051.36 81.9337 1051.95 78.0849 1051.87C77.7552 1051.87 78.3615 1051.5 78.0828 1051.49C71.0903 1051.41 75.2861 1051.74 72.9165 1051.68C56.3971 1050.94 36.0485 1046.49 23.0438 1030.28C19.8079 1026.42 16.5261 1019.52 15.2698 1015.48C14.7978 1013.97 15.3156 1016.82 13.8063 1011.53C13.3334 1009.67 13.5456 1008.99 13.1795 1006.96C11.855 998.13 10.8403 995.154 12.1286 987.695C12.6349 973.148 19.7518 949.904 24.7848 938.416C25.9663 935.584 26.6603 934.517 27.8111 931.914C28.6008 930.127 29.8735 926.571 31.1464 923.919C32.4206 921.246 35.0466 916.622 37.6963 911.586C40.6093 906.007 44.2896 899.152 44.9876 897.952C45.8365 896.475 46.5783 895.979 47.4473 894.482C47.8857 893.728 48.4424 892.757 49.091 891.626C52.0444 886.383 57.7436 876.994 60.6973 872.589C64.6733 866.604 67.3399 863.188 68.6893 861.268C69.9656 859.455 71.2314 857.125 71.8376 856.281C72.7792 854.969 73.3161 854.888 74.5347 853.212C76.5838 850.399 78.2456 847.735 81.2504 843.729C135.518 772.583 194.843 709.254 252.234 644.853C258.628 637.722 262.067 633.457 271.539 622.97C275.381 618.713 274.078 620.787 276.982 617.394C278.276 615.881 277.707 616.049 279.364 614.153C286.694 605.772 295.465 596.24 298.637 592.612C299.895 591.176 301.067 589.296 303.645 586.34C322.84 564.339 345.432 538.231 365.374 514.018C376.036 501.117 391.604 481.6 403.324 466.459C435.424 425.107 468.146 379.172 489.495 336.975C489.585 336.797 489.674 336.62 489.764 336.442C525.147 273.034 510.803 197.192 469.969 138.872C487.65 167.078 507.98 208.067 509.511 244.206C511.709 275.469 503.64 307.144 488.651 336.548C453.069 405.103 402.437 467.989 352.641 527.853C327.661 557.658 295.426 594.538 266.963 626.255C265.681 627.686 263.213 630.878 260.413 633.981C259.817 634.643 252.126 642.526 249.665 645.279C252.677 643.24 242.388 653.586 239.419 656.944C235.687 661.168 228.112 670.32 219.117 680.022C210.965 688.817 212.881 686.157 212.432 686.627C209.482 689.727 208.906 691.205 206.778 693.678C198.032 703.734 152.402 754.909 140.006 769.607C136.835 773.305 136.426 773.249 135.702 774.096C133.757 776.375 131.273 779.834 128.233 783.435C122.853 789.796 116.085 797.423 113.176 800.962C106.004 809.621 92.7917 826.649 83.99 838.263C81.4446 841.608 81.3211 841.175 80.1874 842.679C75.3198 849.033 62.8955 866.986 57.3575 875.597C54.1665 880.439 50.7033 885.872 47.7321 890.82C41.9532 900.449 36.6795 909.847 31.7889 919.912C31.1599 920.818 30.539 921.718 29.9263 922.614C29.3383 924.228 28.8163 925.731 28.2044 927.459C16.6315 953.561 4.36143 983.634 13.84 1015.67C14.4445 1017.51 16.3957 1022.88 19.5421 1027.65C22.5924 1032.47 26.7198 1036.42 27.9245 1037.44C29.9385 1039.19 32.2307 1040.48 35.4701 1042.54C40.101 1045.22 35.2276 1043.75 43.2624 1047.2C45.4527 1048.01 43.456 1046.95 47.848 1048.4C48.5776 1048.67 55.9749 1050.99 63.4489 1051.84C70.9099 1052.81 78.309 1052.62 79.0469 1052.62C81.5511 1052.61 83.8151 1053.19 84.4641 1053.17C87.8289 1053.03 87.646 1052.48 89.8701 1052.22C92.8934 1051.84 96.3355 1051.41 99.2582 1050.98C102.477 1050.5 105.074 1050.17 105.61 1050.07C117.632 1047.93 140.057 1043.66 152.727 1041.74C154.479 1041.48 154.337 1041.91 154.646 1041.87C156.639 1041.62 157.8 1040.95 159.68 1040.62C169.788 1038.83 185.701 1036.4 195.906 1034.72C197.081 1034.53 199.513 1033.88 201.609 1033.54C213.477 1031.62 209.687 1032.63 210.365 1032.53C211.963 1032.29 214.699 1031.42 218.943 1030.67C229.86 1028.71 250.835 1025.15 262.559 1023.15C271.341 1021.66 271.287 1022.12 271.864 1022.03C273.097 1021.83 276.456 1020.89 282.23 1019.85C293.338 1017.85 292.129 1018.42 296.698 1017.62C297.083 1017.55 296.357 1017.33 301.423 1016.42C311.211 1014.66 333.274 1011.2 343.763 1009.39C347.793 1008.69 348.684 1008.2 352.815 1007.48C359.358 1006.35 374.197 1004.18 375.366 1003.98C375.693 1003.92 376.364 1003.42 378.286 1003.09C380.399 1002.73 382.509 1002.57 384.082 1002.3C393.06 1000.77 408.404 997.491 404.333 999.565C407.156 998.745 409.958 997.929 412.79 997.108C431.598 993.996 449.838 990.798 468.45 987.64C472.614 986.934 476.188 986.604 479.712 986.01C482.104 985.606 490.154 984.074 495.789 983.02C498.347 982.539 500.376 982.226 501.163 982.122C505.668 980.892 530.789 980.701 533.737 981.912C539.695 982.79 545.018 984.906 547.239 985.55C549.023 986.075 547.517 985.16 550.935 986.362C556.981 988.282 565.194 994.566 566.395 995.913C566.913 996.492 566.285 995.041 571.209 1000.41C573.743 1003.41 574.589 1005.4 575.338 1006.61C575.474 1007.04 575.924 1005.96 579.068 1013.23C581.065 1018.42 581.079 1020.81 581.259 1021.39C581.459 1022.28 582.318 1024.21 582.794 1027.79C584.216 1036.07 582.578 1052.06 580.69 1060.19C580.353 1061.74 580.947 1061.51 579.417 1067.68C578.237 1072.17 578.066 1071.32 577.58 1073.03C576.761 1075.8 576.087 1079.63 573.922 1085.68C572.755 1093.5 545.241 1145.37 542.622 1147.59C541.428 1149.39 540.255 1151.26 539.545 1152.03C539.847 1151.21 540.144 1150.39 540.437 1149.57C545.747 1142.15 543.199 1144.87 544.407 1142.79C546.17 1139.82 552.702 1128.52 553.993 1125.66C554.455 1124.66 552.961 1126.68 555.521 1121.4C558.351 1115.5 560.198 1113.22 560.435 1110.56C565.326 1102.79 567.656 1094.31 563.187 1103.79C561.719 1109.45 532.516 1159.68 524.914 1169.07C519.34 1177.24 508.912 1192.1 501.649 1201.36C500.174 1203.26 497.936 1206.13 495.573 1209.08C490.941 1214.86 486.322 1220.54 486.367 1219.94C482.443 1224.85 486.966 1219.89 486.194 1220.99C484.512 1223.35 472.15 1238.66 469.867 1241.67C458.634 1256.37 445.084 1275.03 433.566 1288.69C433.972 1287.95 434.368 1287.22 434.756 1286.51C437.089 1283.13 448.71 1268.72 449.458 1266.68C432.938 1288.1 416.044 1309.54 399.092 1331.03C399.996 1330.78 378.769 1357.63 377.718 1358.55C377.87 1357.93 378.021 1357.31 378.169 1356.69C390.926 1342.2 388.774 1342.76 397.216 1333.22C400.404 1329.19 399.177 1330.04 400.712 1327.96C415.857 1307.4 401.767 1328.08 413.432 1312.63C409.284 1316.88 419.028 1304.12 423.442 1298.35C424.465 1297.03 437.833 1280.18 439.342 1278.2C448.117 1266.88 462.702 1247.13 471.775 1236.01C478.758 1227.08 482.185 1221.96 488.453 1213.8C492.481 1208.56 492.225 1209.27 493.648 1207.56C493.841 1207.33 494.067 1207.05 494.342 1206.7C499.095 1200.64 499.788 1198.11 503.746 1195.14C506.556 1191.14 509.64 1186.69 512.452 1182.52C512.623 1182.64 512.793 1182.77 512.964 1182.89C514.843 1180.29 516.635 1177.78 518.465 1175.18C518.849 1174.27 519.228 1173.36 519.602 1172.46C525.654 1164.21 523.615 1168.02 525.187 1166.79C526.441 1165.01 527.672 1163.25 528.88 1161.5C529.433 1159.84 530.02 1158.11 530.563 1156.43C535.883 1148.31 541.072 1139.91 545.76 1131.72C546.26 1131.27 546.758 1130.81 547.255 1130.36C547.082 1130.24 546.909 1130.12 546.736 1129.99C554.621 1115.86 561.834 1101.01 567.302 1086.13C568.685 1082.06 558.811 1105.66 557.61 1107.43C553.148 1117.37 538.877 1142.76 537.995 1142.44C535.008 1148.66 523.528 1165.94 519.161 1170.88C524.812 1162.81 530.32 1154.54 535.407 1146.41C535.031 1146.54 534.656 1146.67 534.279 1146.8C541.602 1136.81 542.286 1135.59 547.594 1124C547.896 1124.15 548.197 1124.3 548.498 1124.45C551.599 1116.51 559.921 1103.61 558.763 1102.51C560.793 1098.31 562.561 1094.46 564.394 1090.13C567.148 1081.01 563.215 1094.73 572.89 1059.32C573.397 1056.88 573.693 1057.43 574.254 1053.86C574.331 1052.75 575.217 1046.48 575.001 1035.55C574.938 1033.84 575.251 1033.7 575.155 1031.99C575.036 1027.83 572.617 1020.66 574.411 1023.79C572.776 1016.4 571.372 1014.74 570.892 1014.01C570.319 1013.34 570.24 1013.76 569.072 1011.95C567.471 1009.64 568.257 1009.77 566.737 1007.84C564.528 1005.74 566.519 1006.98 557.083 999.248C558.257 999.999 559.376 1000.8 560.45 1001.65C560.034 1001.08 559.591 1000.51 559.133 999.952C553.058 996.161 553.682 996.245 550.143 995.506C545.343 992.929 540.587 991.315 532.432 990.173C516.194 988.942 524.776 989.904 505.302 989.811C502.625 990.266 499.904 990.804 497.134 991.425C496.675 991.526 496.215 991.628 495.755 991.729C489.961 992.272 494.531 991.011 485.928 992.324C492.796 992.199 474.666 994.82 471.745 996.205C471.392 996.05 471.039 995.894 470.686 995.739C468.776 996.056 466.864 996.373 464.948 996.692C464.969 996.86 464.99 997.028 465.011 997.196C462.436 997.496 459.867 997.795 457.305 998.094C455.418 998.578 453.528 999.064 451.635 999.55C448.41 999.73 445.228 999.904 442.015 1000.08C440.033 1000.39 438.043 1000.7 436.061 1001.01C436.724 1001.15 437.396 1001.3 438.064 1001.44C435.5 1001.79 432.96 1002.13 430.402 1002.47C433.425 1002.38 431.652 1003.17 423.724 1004.5C417.2 1005.59 424.417 1003.49 410.426 1006.22C409.454 1006.41 407.818 1007.31 394.566 1009.66C378.659 1012.48 386.329 1010.72 383.488 1011.19C382.933 1011.28 378.12 1012.42 373.573 1013.24C370.997 1013.7 368.468 1013.88 368.126 1013.94C366.534 1014.23 366.128 1014.65 363.92 1015.05C358.32 1016.03 350.757 1017.15 345.273 1018.11C342.778 1018.55 340.463 1019.16 339.349 1019.35C337.62 1019.65 335.375 1019.71 333.628 1020.02C327.177 1021.13 317.558 1023.86 314.315 1022.93C308.337 1025.33 295.068 1025.96 296.17 1026.69C279.535 1029.21 235.49 1037.96 236.538 1036.23C227.359 1039.14 228.041 1038.06 224.115 1038.76C219.72 1039.54 222.038 1039.4 218.538 1039.99C210.373 1041.37 202.549 1042.61 194.419 1044.01C195.661 1043.58 196.908 1043.16 198.147 1042.73C189.593 1044.14 192.617 1044.11 183.933 1045.7C167.943 1048.63 174.643 1047.08 172.18 1046.95C172.893 1047.36 154.001 1050.53 152.068 1050.79C150.911 1050.94 155.836 1049.4 144.298 1051.61C144.966 1051.7 145.634 1051.8 146.303 1051.9C140.981 1052.52 126.722 1055.33 124.3 1055.67C123.171 1055.83 116.916 1055.18 111.691 1057.43C110.994 1057.33 110.299 1057.24 109.603 1057.14C106.591 1057.78 103.589 1058.42 100.598 1059.06C97.2197 1059.76 93.7944 1060.35 90.3357 1060.82C89.1951 1060.55 88.0579 1060.27 86.9249 1059.98C84.7265 1060.14 82.5324 1060.26 80.303 1060.31C81.7867 1060.61 83.2745 1060.88 84.762 1061.13C71.161 1062.19 53.3666 1059.63 50.689 1057.43C47.5713 1056.83 44.3967 1056.03 41.2546 1055C39.3847 1053.84 37.5455 1052.6 35.7915 1051.28C22.1625 1043.51 21.8594 1042.62 14.3299 1034.22C14.8309 1034.4 15.3314 1034.58 15.8313 1034.74C10.0646 1028.67 3.69854 1014.29 2.84853 1003.44C2.1268 998.249 2.7378 989.7 2.82626 988.538C2.69558 987.455 2.45062 975.945 4.14177 975.039C6.55541 958.925 9.76982 952.882 11.7224 946.945C13.1503 942.943 13.396 941.357 15.0848 937.052C17.5425 930.838 20.2835 925.232 21.9006 921.76C22.7677 919.897 22.6493 919.405 23.2688 918.103C26.2555 911.94 24.8044 915.552 28.0526 909.178C28.3433 908.611 30.3872 903.821 33.3887 898.538C34.9277 895.781 39.6186 888.568 40.0395 887.883C40.3586 887.34 40.5477 886.96 40.6853 886.643C41.2879 885.293 40.7327 885.19 46.4652 877.628C46.1418 877.824 45.8189 878.02 45.4966 878.216C52.8671 865.88 54.7397 864.784 56.435 862.342C56.6496 862.034 58.4068 858.987 59.5604 857.421C61.5617 854.697 62.7018 853.795 63.1563 853.189C64.7568 851.036 69.9962 843.55 73.7735 839.185C72.1061 839.449 84.2606 822.891 88.1383 820.132C90.2281 817.074 92.2845 814.086 94.3127 811.154C95.4908 810.022 96.6761 808.886 97.8681 807.746C98.3303 806.84 98.7954 805.932 99.2635 805.022C103.004 801.146 106.652 797.427 110.338 793.697C110.194 793.144 110.05 792.592 109.907 792.039C110.885 790.94 111.869 789.838 112.857 788.733C113.879 788.079 114.904 787.424 115.932 786.768C117.071 785.294 118.225 783.807 119.321 782.392C119.405 781.878 119.491 781.363 119.576 780.848C125.649 773.179 124.351 778.588 134.84 762.874C136.885 760.81 138.944 758.736 141.016 756.654C142.398 753.485 146.974 749.14 150.1 745.371C152.331 742.682 151.897 742.562 155.039 738.946C158.192 735.322 158.378 735.701 158.626 735.422C161.252 732.456 162.897 730.063 164.827 727.969C165.118 727.653 166.168 727.154 168.593 724.443C171.022 721.728 172.107 719.755 175.799 715.715C177.702 713.632 178.488 713.329 180.144 711.509C188.01 702.873 194.462 692.661 202.022 687.681C203.117 686.005 211.949 674.545 216.066 670.023C222.51 662.947 220.398 666.001 222.999 663.212C223.37 662.816 225.221 660.51 230.559 654.572C231.517 653.507 231.103 653.582 231.237 653.426C237.469 646.453 249.701 633.044 256.551 625.389C257.165 624.704 259.82 620.636 265.933 615.203C273.398 605.713 289.557 589.729 299.183 577.05C300.613 575.377 302.561 573.534 303.194 572.794C308.634 566.412 306.043 568.243 319.3 554.633C317.996 555.534 320.622 551.941 324.706 547.222C330.863 540.098 327.084 545.662 331.955 539.86C331.795 539.724 331.635 539.588 331.476 539.452C343.149 526.585 344.742 523.31 355.846 509.955C359.836 505.152 366.109 498.24 367.04 497.098C367.409 496.649 371.326 491.041 371.727 490.536C374.008 487.7 375.538 486.177 377.532 483.702C384.149 475.505 391.309 465.322 390.868 467.815C392.465 465.375 394.049 462.942 395.619 460.515C403.266 452.77 406.829 445.14 409.184 444.082C410.154 442.375 411.116 440.672 412.07 438.973C437.663 404.913 462.198 369.569 481.136 332.747C482.833 329.425 484.408 326.146 485.868 322.909C486.369 321.377 493.325 303.612 493.423 302.738C495.007 298.539 494.585 303.273 496.826 294.538C496.712 293.486 496.586 292.444 496.449 291.413C498.872 280.354 497.99 285.732 499.114 281.443C499.386 279.632 499.002 280.16 499.369 277.74C501.989 264.372 501.268 236.641 497.363 222.242C496.697 219.334 497.053 219.711 496.838 218.808C496.232 216.317 494.588 211.497 492.979 206.597C483.816 175.775 457.051 135.953 436.814 106.665C435.444 104.634 435.548 104.199 434.634 102.832C433.366 100.941 430.315 96.9036 428.973 94.8233C427.727 92.8987 427.134 91.5392 425.84 89.4871C419.823 79.9665 411.377 66.7892 407.061 54.1348C406.522 53.2439 403.33 39.289 403.559 38.7941C403.579 37.7953 404.563 40.3828 405.009 40.6036C405.563 40.7663 404.843 38.9493 403.8 28.2997C405.352 37.7762 407.047 40.3918 406.859 38.2965C406.921 36.1383 404.952 28.949 405.928 16.5651C405.212 29.0197 408.417 40.7019 412.725 51.0342C412.859 50.9968 412.993 50.9594 413.127 50.9218C410.215 41.1793 406.464 31.088 407.966 14.37C408.036 14.9005 408.114 15.4278 408.199 15.9516C407.377 30.7556 413.3 46.7683 418.311 55.3695C412.764 41.7826 408.956 26.2336 412.446 11.0459C412.408 11.8171 412.387 12.5849 412.382 13.3491C411.051 20.6983 413.664 36.2818 416.038 41.6167C420.203 51.9741 418.591 47.2656 416.614 40.8788C414.569 34.407 413.681 25.721 414.406 29.0816C418.156 52.4138 431.491 71.7978 443.941 90.7372C444.499 90.8581 431.801 73.0604 423.032 53.1402C413.074 33.2226 416.369 10.5761 417.447 11.5557C416.203 18.4303 416.569 25.5329 418.059 32.3785C417.762 29.3193 417.663 26.0931 417.854 23.0817C417.993 23.9087 418.152 24.7336 418.329 25.5568C419.646 37.0302 424.397 47.9878 430.052 58.3126C412.451 26.3548 420.061 8.00898 425.283 2.50067C424.964 3.35669 424.676 4.20809 424.418 5.0553C422.366 7.89982 419.004 17.9576 421.224 29.7995C423.14 41.5541 429.553 54.0791 434.455 62.436C432.674 58.7962 425.208 43.8419 424.661 40.2642C424.419 39.3088 425.834 42.4465 425.251 40.2394C424.481 37.4388 422.538 29.859 422.513 23.6448C422.364 17.4021 423.748 12.6773 423.689 14.3508C423.617 15.3862 422.577 25.139 425.989 35.7834C429.103 46.4204 435.288 57.2795 437.263 60.848C428.398 44.0429 421.623 25.3624 426.918 10.1419C425.598 20.1493 426.379 28.7791 434.861 47.7266C436.562 50.5407 432.233 41.6628 430.252 32.4132C427.972 23.0561 429.746 14.2796 430.045 13.9469C429.217 19.872 429.992 26.1787 432.012 32.6581C430.482 27.1295 429.849 21.768 430.321 16.774C430.428 16.7705 430.534 16.7674 430.64 16.7642C429.774 29.6186 436.066 43.2392 445.839 60.149C445.925 59.2943 440.197 49.2106 438.178 44.3023ZM465.535 1242C464.898 1242.07 469.702 1235.96 472.41 1232.5C471.941 1232.96 471.505 1233.39 471.023 1233.87C476.764 1226.6 487.675 1212.97 487.395 1211.88C491.352 1206.66 490.2 1209.39 491.616 1207.73C491.727 1207.6 492.017 1207.21 492.456 1206.62C494.186 1204.3 498.136 1198.89 501.746 1194.85C502.71 1193.58 503.664 1192.3 504.608 1191.04C504.556 1190.62 504.499 1190.2 504.452 1189.78C506.125 1188.13 507.778 1186.49 509.409 1184.87C503.802 1192.56 498.665 1199.35 492.781 1206.88C483.543 1218.69 474.57 1230.21 465.558 1241.97C465.55 1241.98 465.542 1241.99 465.535 1242ZM575.797 1042.82C576.6 1035.29 575.106 1024.51 574.621 1026.85C575.393 1031.17 575.704 1035.74 575.637 1040.37C575.702 1041.17 575.756 1041.99 575.797 1042.82ZM110.263 794.967C115.564 789.802 119.453 784.06 126.877 775.514C126.74 775.417 126.602 775.32 126.465 775.223C123.761 779.027 115.624 788.281 110.263 794.967ZM333.716 1414.79C332.6 1416.09 331.602 1417.25 330.58 1418.44C333.826 1412.9 335.303 1412.06 339.803 1406.25C340.075 1405.9 339.818 1405.89 339.913 1405.77C341.024 1404.35 342.244 1403.21 343.235 1401.95C345.101 1399.59 346.569 1397.34 350.126 1392.87C352.85 1389.44 353.167 1389.68 354.098 1388.49C354.789 1387.6 362.127 1376.6 367.49 1370.58C377.971 1358.8 336.956 1410.86 333.716 1414.79ZM304.17 1450.78C305.158 1449.53 306.14 1448.29 307.115 1447.06C304.637 1451.15 310.557 1443.56 314.727 1438.29C315.089 1438.77 305.866 1449.97 301.694 1455.5C302.527 1453.92 303.353 1452.34 304.17 1450.78ZM427.206 1297.33C423.52 1302.13 423.597 1300.85 423.574 1300.53C424.753 1299.03 425.876 1297.59 427.141 1295.98C427.164 1296.43 427.186 1296.88 427.206 1297.33ZM399.087 1333.48C399.964 1331.57 407.883 1321.18 411.784 1316.16C411.942 1315.96 411.143 1317.41 413.76 1314.04C414.694 1312.85 421.823 1302.18 420.99 1305.05C413.733 1314.5 406.56 1323.8 399.097 1333.46C399.094 1333.47 399.09 1333.47 399.087 1333.48ZM390.566 1343.79C392.043 1341.68 393.519 1339.56 394.933 1337.52C395.911 1336.65 396.878 1335.8 397.834 1334.96C396.175 1337.16 394.464 1339.42 392.699 1341.75C391.994 1342.42 391.262 1343.13 390.566 1343.79ZM500.12 301.374C499.723 301.832 499.324 302.288 498.923 302.743C498.174 304.892 495.806 314.673 497.077 311.747C498.184 308.329 499.179 304.946 500.12 301.374ZM507.67 258.943C507.853 256.823 507.992 254.715 508.087 252.616C507.63 250.151 507.114 247.717 506.542 245.328C507.013 255.945 505.726 267.034 507.103 265.347C506.938 267.723 506.715 270.119 506.434 272.537C506.13 270.455 506.034 270.689 504.832 276.986C505.329 278.519 504.049 284.752 502.36 292.269C503.729 286.833 504.786 281.572 505.592 276.142C505.717 276.159 505.842 276.176 505.966 276.194C503.972 288.277 507.471 273.271 507.355 265.397C507.565 264.785 507.774 264.152 507.977 263.528C507.898 261.986 507.796 260.458 507.67 258.943ZM26.3557 1038.98C24.9261 1037.55 23.5818 1036.04 22.3316 1034.45C15.9933 1029.39 27.1124 1041.53 36.6953 1047.32C35.3205 1045.99 38.3164 1047.46 41.8484 1048.84C45.3657 1050.24 49.4547 1051.47 49.8881 1051.55C48.2408 1050.72 46.5576 1049.8 44.9646 1048.84C38.5044 1046.75 32.0635 1043.57 26.3557 1038.98ZM9.25569 988.89C7.51163 995.022 11.0013 964.72 15.0588 955.851C15.7867 953.654 17.5581 949.871 18.1071 948.206C18.3012 947.174 18.535 946.057 18.7153 945.104C19.4755 944.272 26.2038 926.461 29.2312 919.993C29.7224 919.467 30.2164 918.939 30.7135 918.411C31.8344 915.966 33.0222 913.461 34.1309 911.164C34.164 911.552 34.1981 911.939 34.2332 912.324C34.916 910.467 35.6273 908.588 36.3676 906.685C39.9611 899.515 38.6174 904.329 41.1382 899.095C43.9991 893.258 38.1661 902.158 37.9039 901.768C35.2657 906.67 29.9192 917.507 27.6198 922.454C26.3657 925.212 26.9017 921.747 22.3097 934.463C20.961 937.078 19.5633 939.942 18.308 942.605C16.659 947.811 15.147 953.158 13.8466 958.716C13.2645 959.645 12.6931 960.571 12.1324 961.493C11.8297 961.901 9.5212 974.949 9.99407 974.345C8.48221 979.539 6.48289 990.689 7.89656 1003.18C8.18863 1004.31 8.53005 1005.59 8.89032 1006.75C7.01058 994.762 8.55817 1002.91 8.503 999.319C8.47726 997.118 8.81171 991.166 9.25569 988.89ZM471.139 364.197C479.129 349.022 474.353 358.771 483.241 342.457C482.309 343.406 481.37 344.356 480.425 345.308C476.708 353.749 468.816 366.105 471.13 364.212C471.133 364.207 471.136 364.202 471.139 364.197ZM496.428 199.213C499.667 207.991 498.905 203.29 502.3 214.654C502.301 214.659 502.303 214.664 502.304 214.67C500.788 208.725 498.962 202.872 496.854 197.069C496.716 197.786 496.574 198.501 496.428 199.213ZM223.545 670.681C217.084 677.674 218.563 676.458 212.386 682.499C204.32 692.619 211.521 684.39 212.006 684.821C213.841 682.477 215.634 680.181 217.444 677.867C222.627 672.969 218.367 678.202 218.411 678.24C218.415 678.235 218.419 678.231 218.423 678.226C218.568 678.356 218.444 678.556 220.348 676.6C221.411 674.629 222.477 672.657 223.545 670.681ZM197.063 701.6C198.906 698.88 199.503 697.373 193.547 703.661C193.543 703.665 193.539 703.67 193.535 703.674C193.791 704.835 187.731 710.492 185.308 713.329C184.736 714.132 184.165 714.935 183.595 715.736C188.047 711.055 192.538 706.342 197.063 701.6ZM103.88 811.34C103.032 810.7 107.525 804.983 100.336 812.318C99.1115 813.868 97.8982 815.41 96.6965 816.946C96.0785 818.093 95.4779 819.222 94.8196 820.427C77.7732 839.142 75.6116 846.916 101.024 812.873C101.027 812.867 101.03 812.862 101.034 812.857C101.98 812.353 102.929 811.847 103.88 811.34ZM132.029 777.301C131.811 776.696 131.593 776.09 131.375 775.485C136.069 772.04 139.593 765.925 147.451 758.277C147.968 757.418 148.487 756.559 149.007 755.698C151.872 752.879 178.164 723.048 171.841 728.968C169.078 731.538 164.116 737.971 163.61 738.534C161.991 740.32 159.565 742.366 156.939 745.422C155.411 747.2 152.667 751.213 149.541 754.823C142.503 762.933 128.685 776.737 120.875 788.324C120.088 789.003 119.302 789.681 118.519 790.358C111.901 798.476 114.524 796.142 107.968 803.12C105.642 809.982 132.714 773.168 128.28 781.869C128.284 781.864 128.288 781.86 128.291 781.855C129.53 780.342 130.776 778.824 132.029 777.301ZM319.862 562.865C320.637 562.704 327.885 553.156 326.915 556.031C329.158 552.812 331.387 549.6 333.635 546.355C333.535 546.309 333.435 546.263 333.335 546.217C330.864 549.239 328.414 552.227 325.949 555.223C325.812 555.125 325.675 555.026 325.537 554.928C322.252 559.716 306.202 577.805 306.233 576.844C305.574 577.983 304.915 579.121 304.255 580.26C296.131 588.525 290.12 596.473 281.281 605.477C280.792 606.346 280.302 607.216 279.811 608.086C279.264 608.451 278.717 608.816 278.17 609.181C275.112 612.609 272.052 616.032 268.992 619.451C259.576 631.085 279.512 609.933 281.768 607.209C282.067 606.849 281.694 606.615 283.578 604.377C286.935 600.415 306.451 578.829 312.098 571.854C312.366 571.985 312.635 572.116 312.904 572.247C315.216 569.136 317.549 565.993 319.862 562.865ZM68.6988 855.226C68.0681 855.599 67.4391 855.971 66.8117 856.344C60.5376 865.617 56.0474 871.994 58.5695 869.96C58.5729 869.955 58.5764 869.95 58.5798 869.945C61.9504 864.875 65.2635 860.074 68.6988 855.226ZM572.258 1081.98C572.916 1081.83 574.801 1077.18 576.174 1070.57C575.926 1070.83 575.676 1071.1 575.426 1071.36C574.907 1074.94 573.042 1078.72 569.402 1088.79C569.677 1088.89 569.953 1088.99 570.228 1089.1C570.946 1086.73 571.583 1084.48 572.258 1081.98ZM74.6979 847.225C76.9838 844.695 82.1201 836.167 78.1605 841.323C75.1492 845.257 73.4596 848.591 74.6979 847.225ZM481.504 165.189C482.632 167.383 483.734 169.59 484.806 171.811C485.618 172.842 486.414 173.862 487.208 174.898C487.206 174.893 487.203 174.888 487.201 174.883C485.378 171.636 483.462 168.38 481.504 165.189ZM245.17 646.377C239.386 652.919 233.661 659.387 227.884 665.914C227.947 666.087 228.011 666.261 228.074 666.434C233.451 659.518 236.228 657.369 237.616 655.874C237.61 655.88 237.604 655.887 237.598 655.894C242.026 651.126 246.274 646.506 250.499 642.058C248.725 643.496 246.957 644.926 245.17 646.377ZM265.743 624.811C263.915 625.132 262.538 626.49 254.266 637.001C254.723 636.7 255.181 636.4 255.638 636.1C260.174 630.876 262.662 627.674 262.303 628.984C263.451 627.591 264.601 626.197 265.743 624.811ZM174.889 726.363C176.219 725.403 184.436 715.545 183.812 715.975C183.622 716.072 172.255 728.259 174.889 726.363ZM529.138 1164.98C530.743 1162.73 532.468 1160.27 534.118 1157.88C532.09 1161.24 530.096 1164.47 528.088 1167.67C528.442 1166.77 528.792 1165.87 529.138 1164.98ZM512.189 1191.85C510.848 1193.39 513.959 1187.53 506.437 1197.12C511.75 1190.05 517.13 1182.64 522.184 1175.36C519.818 1179.04 517.687 1182.32 515.321 1185.86C515.993 1185.44 516.664 1185.02 517.333 1184.6C515.656 1187 513.942 1189.41 512.189 1191.85ZM505.827 1199.07C508.085 1196.92 502.665 1204.45 497.74 1210.78C494.901 1214.44 492.728 1217.19 492.111 1217.92C491.74 1218.35 489.666 1220.03 489.003 1220.67C491.459 1217.53 493.751 1214.61 496.243 1211.44C495.26 1212.39 494.298 1213.31 493.356 1214.2C494.411 1212.82 495.503 1211.39 496.635 1209.91C498.359 1207.66 500.052 1205.42 501.715 1203.2C500.683 1204.84 499.636 1206.5 498.573 1208.17C501.05 1205.1 503.467 1202.07 505.827 1199.07ZM560.088 1113.43C558.697 1116.22 557.166 1119.19 555.695 1121.95C556.244 1121.54 556.781 1121.14 557.351 1120.68C558.253 1118.94 559.129 1117.21 559.978 1115.51C560.018 1114.81 560.055 1114.12 560.088 1113.43ZM527.345 1169.55C528.788 1164.94 538.287 1156.18 529.193 1167.77C528.267 1168.93 527.21 1169.99 527.345 1169.55ZM485.977 1225.48C480.553 1234.1 480.246 1230.78 486.606 1223.73C486.942 1223.36 486.387 1224.83 485.977 1225.48ZM439.625 1285.51C439.067 1286.21 437.736 1286.73 433.344 1293.48C432.523 1294.4 431.682 1295.34 430.822 1296.3C432.391 1293.76 448.092 1273.25 446.477 1276.51C444.099 1279.59 442.114 1282.35 439.625 1285.51ZM457.064 1267.44C459.445 1264.31 461.741 1261.28 464.104 1258.16C463.147 1259.03 462.168 1259.93 461.221 1260.79C462.319 1259.25 463.447 1257.68 464.552 1256.13C466.849 1253.79 469.181 1251.4 471.463 1249.09C466.391 1255.79 461.273 1262.6 456.222 1269.26C456.509 1268.65 456.789 1268.04 457.064 1267.44ZM520.448 1185.88C515.866 1191.75 510.756 1199.21 503.275 1208.76C503.271 1208.76 503.267 1208.77 503.262 1208.77C502.884 1209.25 501.971 1209.91 500.737 1211.47C500.635 1211.59 500.355 1211.96 499.929 1212.5C495.972 1217.57 479.809 1238.65 480.836 1236.57C488.365 1226.1 491.699 1223.06 492.71 1219.83C493.299 1219.49 493.905 1219.12 494.494 1218.78C496.539 1216.37 498.245 1214.23 499.7 1212.32C503.442 1207.39 504.967 1204.55 507.75 1200.51C507.886 1200.64 508.021 1200.78 508.156 1200.91C510.863 1197.38 513.601 1193.75 516.343 1190.03C515.861 1190.48 515.378 1190.93 514.893 1191.38C515.857 1190.06 516.811 1188.76 517.753 1187.46C520.506 1184.63 523.436 1180.74 520.448 1185.88ZM446.093 1281.13C445.027 1284.89 422.803 1311.7 413.05 1324.54C417.552 1317.42 426.126 1307.48 431.711 1300.37C442.623 1286.44 434.668 1295.75 436.337 1293.24C437.221 1291.92 443.977 1284.76 446.093 1281.13ZM535.556 1163.52C530.701 1170.66 528.194 1174.89 523.337 1180.86C523.608 1180.3 523.872 1179.74 524.168 1179.13C525.962 1176.91 537.756 1159.85 535.556 1163.52ZM398.284 1342.64C408.989 1329.92 403.107 1335.26 409.259 1329.04C405.717 1333.64 402.122 1338.29 398.58 1342.88C398.482 1342.8 398.383 1342.72 398.284 1342.64ZM90.9005 834.827C95.2412 829.266 100.691 822.824 102.834 819.285C99.8138 822.92 96.5379 826.919 93.4793 830.698C92.6101 832.081 91.7504 833.457 90.9005 834.827ZM25.669 1021.1C24.8369 1019.72 21.8966 1014.03 21.7546 1013.29C21.3468 1012.1 21.6467 1012.37 21.685 1012.34C19.4267 1004.44 20.7474 1011.89 19.2885 1005.98C18.6844 1004.94 17.9689 990.386 18.9764 984.624C19.8549 975.696 22.324 966.684 23.1894 963.633C24.7561 957.898 27.6366 948.086 31.4126 939.213C32.8804 935.752 33.7468 934.666 35.3925 931.058C39.7384 921.515 46.5715 908.154 54.4312 894.792C64.9759 876.787 77.7315 859.204 85.4374 849.124C88.7249 844.827 92.4472 840.739 94.0817 838.564C95.318 836.687 96.5738 834.798 97.8483 832.896C103.392 828.294 103.85 825.543 108.403 819.648C111.334 815.866 113.132 814.379 113.54 813.874C116.288 810.485 117.435 808.75 119.516 806.166C121.852 803.264 125.488 799.208 126.335 798.136C126.817 797.531 124.79 798.971 134.096 787.93C143.768 776.487 153.412 765.376 163.352 753.996C158.689 756.601 156.789 760.677 152.75 765.46C151.674 766.735 152.147 765.747 151.209 766.854C148.537 770.004 143.782 775.989 141.483 778.585C139.034 781.348 139.338 779.961 136.517 783.667C136.375 783.854 137.064 783.466 136.394 784.328C129.737 792.913 126.958 795.455 118.194 806.053C112.038 813.001 78.1266 857.08 77.16 858.823C70.2899 866.067 105.882 819.096 110.458 814.24C112.007 812.375 110.638 814.54 112.079 812.86C112.728 812.097 117.488 805.338 122.733 798.957C129.143 791.113 142.397 776.098 148.51 768.992C201.818 706.941 256.483 648.009 310.083 586.578C311.225 585.268 312.471 583.316 316.184 579.048C380.006 504.648 447.656 427.326 494.013 339.26C497.522 332.304 500.359 325.999 503.155 318.828C511.527 297.308 515.905 274.58 515.657 251.449C515.343 248.548 514.951 245.69 514.486 242.873C515.404 250.191 514.426 263.54 514.234 264.807C514.195 265.291 514.343 267.978 513.84 272.43C513.101 278.72 512.308 281.403 512.244 281.887C511.974 283.442 512.413 282.466 512.145 283.957C510.03 295.238 507.63 303.812 504.141 313.601C499.958 324.922 497.079 329.826 493.605 338.088C493.423 338.317 493.24 338.547 493.057 338.776C492.611 339.323 492.163 339.87 491.713 340.418C489.935 346.689 470.358 380.394 461.351 393.419C458.623 397.545 458.782 396.621 457.859 398.014C457.267 398.876 457.911 398.916 450.499 409.591C446.77 414.921 445.47 416.142 443.578 418.855C442.544 420.332 443.001 420.293 441.495 422.415C432.947 434.428 425.576 444.196 416.72 455.738C414.207 459.006 413.94 458.868 413.382 459.605C411.348 462.278 408.212 467.169 402.891 473.954C394.206 485.112 376.528 506.919 368.897 515.708C367.778 517.004 366.629 517.844 365.837 518.806C364.642 520.259 364.449 521.061 364.239 521.317C360.207 526.167 362.377 523.034 359.729 526.335C358.297 528.115 357.09 530.208 353.693 534.317C349.224 539.715 349.744 538.328 347.894 540.593C347.7 540.833 347.904 541.125 346.054 543.324C339.021 551.686 328.79 563.724 322.01 571.544C320.061 573.794 318.448 575.303 315.733 578.419C310.306 584.735 279.091 620.404 276.385 623.202C276.103 623.499 278.519 620.012 274.077 625.045C272.941 626.643 271.804 628.24 270.668 629.837C268.254 632.048 265.824 634.274 263.403 636.488C264.344 637.187 251.739 651.61 250.965 650.684C249.526 652.225 248.089 653.764 246.652 655.302C244.351 659.118 242.181 661.094 236.932 667.7C235.874 668.506 234.799 669.332 233.73 670.15C233.634 670.511 233.537 670.871 233.441 671.232C229.742 674.007 225.498 680.135 224.906 680.806C222.625 683.393 220.732 685.167 219.665 686.374C215.624 690.94 207.139 700.942 202.361 706.098C202.133 706.343 202.06 705.838 200.677 707.321C198.187 709.994 198.375 710.641 194.659 713.821C194.136 714.664 193.614 715.507 193.092 716.349C192.341 717.066 191.59 717.782 190.84 718.497C186.869 723.05 182.772 727.755 178.768 732.371C181.962 727.748 177.426 732.333 173.847 737.197C172.636 738.843 174.129 737.751 173.727 738.301C173.184 739.014 154.949 759.608 153.561 760.855C152.797 761.932 152.036 763.008 151.277 764.081C150.653 764.416 150.03 764.752 149.408 765.086C149.005 765.69 148.603 766.292 148.202 766.894C143.254 771.932 131.879 786.905 129.738 789.354C128.54 790.718 128.841 788.662 123.292 795.479C123.326 795.901 123.36 796.323 123.394 796.745C122.152 798.302 120.919 799.854 119.696 801.399C117.309 804.24 113.568 807.994 113.17 807.928C112.583 808.978 112 810.025 111.421 811.069C108.834 813.125 98.7338 826.076 94.904 831.732C93.539 833.142 92.1865 834.545 90.8469 835.94C89.4951 838.101 88.0402 840.411 86.6294 842.683C82.9784 847.628 86.5625 842.202 85.745 843.224C83.9423 845.428 76.3445 856.9 76.1171 855.76C74.9681 857.334 73.8372 858.897 72.7244 860.449C72.3579 861.394 71.9969 862.335 71.6415 863.272C69.167 865.292 65.8349 870.424 59.3528 879.753C59.0107 880.645 58.5935 881.657 58.2257 882.601C55.9828 885.573 53.8332 888.493 51.7807 891.36C51.7153 891.946 51.6529 892.529 51.5936 893.11C51.5661 893.323 51.5389 893.535 51.512 893.748C50.7289 895.163 49.9617 896.567 49.2103 897.959C46.9202 900.421 44.9652 905.527 43.2118 908.119C40.7494 911.756 41.9204 908.337 45.6331 901.539C44.8861 901.47 33.7388 922.868 31.7818 927.681C32.0411 927.376 32.277 927.122 32.5231 926.847C34.7256 921.977 37.3336 916.615 39.7623 911.861C43.1492 908.348 35.6814 921.642 33.0692 927.84C32.8247 928.423 31.6188 932.084 28.9299 938.29C27.7322 940.915 23.3047 950.33 22.6125 952.394C17.3083 967.942 21.6367 956.526 16.8151 972.034C18.3049 968.916 15.3457 977.756 14.7925 987.631C14.3792 989.247 15.4248 1003.54 15.9553 1004.47C17.1834 1010.44 14.9985 1004 17.4079 1012.62C17.8776 1013.59 18.3697 1014.52 18.9108 1015.48C19.6486 1017.44 20.4651 1019.26 21.4609 1021.13C26.6206 1032.87 30.9535 1033.62 34.3047 1036.27C35.8182 1037.26 33.6315 1036.33 37.6247 1038.8C39.1547 1039.67 40.9682 1040.45 45.2702 1042.27C58.8261 1047.26 63.9007 1048.88 77.0157 1047.83C79.0066 1048.04 81.0311 1048.19 83.0426 1048.3C84.3815 1047.98 85.7135 1047.64 87.0375 1047.28C97.3559 1046.96 93.5713 1046.52 97.241 1046.02C97.6146 1045.96 98.003 1045.89 98.4044 1045.83C108.15 1044.21 126.126 1041.3 127.827 1041.59C135.772 1038.83 145.753 1038.7 148.952 1038.1C150.828 1037.61 152.708 1037.12 154.591 1036.62C156.866 1036.4 159.143 1036.18 161.406 1035.96C160.081 1034.82 171.947 1034.13 173.049 1033.96C174.331 1033.76 192.14 1030.28 198.79 1029.14C205.434 1028.01 217.063 1026.37 218.087 1026.19C219.265 1025.99 230.506 1023.67 239.337 1022.15C247.071 1020.82 292.974 1013.42 289.984 1013.32C286.959 1013.67 282.67 1014.27 278.967 1014.83C267.479 1016.56 200.21 1027.89 183.03 1030.74C155.227 1035.38 126.497 1040.3 98.2707 1045.02C91.3563 1046.18 84.3747 1046.82 77.4197 1046.82C75.3149 1046.81 74.9889 1046.45 73.1912 1046.38C70.4716 1046.34 63.4529 1046.01 60.7947 1045.47C50.6603 1044 39.1339 1038.53 34.8525 1034.94C24.9459 1027.34 21.0788 1018.94 18.6682 1010.08C17.566 1007.38 15.3579 992.657 17.1904 982.746C17.5046 981.01 17.8594 979.294 18.2661 977.516C17.3302 982.391 16.607 995.915 17.6887 1002.12C18.8925 1011.29 20.8524 1016.03 22.3057 1019.1C23.0608 1022.03 32.6886 1033.72 38.9029 1036.63C40.6763 1037.69 40.8881 1038.22 42.4803 1039.03C51.1161 1043.58 63.8405 1045.79 72.0984 1045.68C68.6975 1045.99 89.813 1045.92 90.8803 1045.33C92.6856 1045.12 94.5969 1044.57 98.0942 1043.96C98.2437 1043.93 98.3963 1043.9 98.552 1043.88C105.764 1042.65 105.009 1043.51 113.919 1041.27C116.191 1041.09 118.469 1040.92 120.752 1040.74C120.718 1039.77 149.256 1036.22 157.116 1033.68C157.288 1033.52 120.457 1039.45 117.409 1039.94C111.622 1040.89 104.918 1042.03 97.9721 1043.22C82.9712 1045.91 65.9189 1045.72 54.0653 1042.19C48.4803 1041.42 33.9571 1032.29 33.4802 1030.89C31.9421 1029.52 33.0939 1031.02 32.4273 1030.43C25.7841 1024.05 25.3238 1021.43 25.1865 1021.22C25.1686 1020.88 26.2012 1022.17 25.669 1021.1ZM509.457 1201.8C512.732 1197.56 516.164 1193.01 519.437 1188.56C519.372 1189.01 519.307 1189.46 519.24 1189.91C517.679 1191.91 516.091 1193.93 514.475 1195.97C513.372 1197.66 512.386 1199.18 511.318 1200.81C510.699 1201.14 510.078 1201.47 509.457 1201.8ZM501.758 1213.21C501.638 1213.37 501.522 1213.52 501.409 1213.67C498.694 1217.22 498.271 1217.1 497.593 1217.93C495.635 1220.31 493.774 1222.98 491.901 1225.36C493.243 1222.01 498.043 1216.53 501.315 1213.59C501.467 1213.46 501.615 1213.33 501.758 1213.21ZM557.45 1131.49C556.873 1132.44 552.421 1138.18 549.148 1145.69C545.609 1150.94 542.237 1155.7 538.575 1160.74C544.667 1152.38 551.61 1139.63 554.023 1135.31C554.999 1133.59 555.484 1133.43 556.245 1132.07C560.558 1124.37 563.702 1116.21 565.118 1115.92C561.07 1123.43 558.191 1130.26 557.45 1131.49ZM528.616 1176.89C527.593 1177.95 526.561 1179 525.521 1180.06C528.567 1175.73 531.486 1171.47 534.28 1167.28C533.728 1168.55 533.165 1169.82 532.593 1171.1C531.293 1173.02 529.967 1174.95 528.616 1176.89ZM388.037 996.301C391.192 995.767 394.342 995.235 397.49 994.703C397.287 994.559 393.688 995.171 392.34 995.279C392.346 995.278 392.351 995.277 392.357 995.276C390.856 995.395 391.452 995.064 388.744 995.423C388.508 995.715 388.273 996.008 388.037 996.301ZM514.912 239.037C516.211 233.4 502.546 186.411 502.37 190.924C502.981 192.927 508.622 208.583 509.648 213.419C511.571 219.78 513.591 237.44 514.912 239.037ZM487.22 157.617C486.543 157.038 500.256 184.391 501.041 187.285C500.884 186.664 500.696 185.682 500.407 184.886C499.191 180.949 490.463 163.364 487.22 157.617ZM211.261 1024.85C213.77 1024.75 216.282 1024.64 218.797 1024.54C218.079 1024.23 217.362 1023.93 216.644 1023.63C214.848 1024.03 213.054 1024.44 211.261 1024.85ZM18.4464 975.427C24.3713 946.175 38.1722 919.603 53.1659 894.042C59.2762 883.76 66.3155 873.262 73.336 863.393C71.3857 866.44 69.4574 869.507 67.4706 872.728C62.7225 879.657 57.8616 887.12 53.5845 894.29C39.1479 918.631 26.1066 944.289 20.1107 970.522C19.517 972.183 18.9766 973.743 18.4464 975.427ZM564.552 1122.14C569.395 1112.6 572.794 1104.6 577.491 1093.96C573.866 1104.43 570.872 1109.18 566.883 1118.91C566.881 1118.91 566.878 1118.92 566.875 1118.93C566.112 1119.99 565.337 1121.06 564.552 1122.14ZM481.803 978.909C484.946 978.092 488.111 977.273 491.248 976.46C487.422 977.088 483.539 977.727 479.725 978.356C480.418 978.54 481.111 978.725 481.803 978.909ZM227.786 681.915C234.747 673.152 254.63 652.627 260.061 645.36C260.413 644.889 256.589 648.694 261.907 641.773C257.629 646.773 254.647 650.316 254.691 651.011C253.265 652.359 251.831 653.714 250.402 655.063C248.334 657.573 246.268 660.079 244.206 662.581C244.073 661.989 243.919 662.201 240.862 666.133C239.257 667.744 237.675 669.329 236.053 670.958C235.565 671.818 235.077 672.679 234.59 673.539C233.057 674.816 231.527 676.091 229.998 677.365C225.131 683.295 228.662 680.189 227.786 681.915ZM201.73 710.986C203.022 709.663 237.134 670.881 220.796 687.719C216.733 692.323 212.675 696.922 208.653 701.489C213.222 698.807 201.11 710.227 200.146 711.266C195.652 716.087 190.475 722.518 187.306 726.077C184.566 729.152 182.738 730.783 180.843 732.945C174.442 740.241 164.208 751.975 163.352 753.996C168.325 748.303 173.519 742.381 178.659 736.51C184.157 730.234 189.528 725.101 199.279 712.795C201.937 709.942 201.397 711.32 201.73 710.986ZM500.882 975.067C500.463 975.515 520.053 974.078 520.103 974.147C520.166 973.956 513.822 974.041 512.87 974.066C512.864 974.066 512.858 974.066 512.852 974.067C512.475 974.06 514.375 973.703 511.396 973.781C507.95 974.079 504.278 974.529 500.882 975.067ZM506.415 314.145C507.018 313.049 512.52 298.178 515.071 282.523C517.869 266.953 517.35 251.372 517.209 250.475C517.145 249.988 516.997 250.674 516.895 250.484C518.045 264.586 514.839 284.563 511.188 297.473C510.227 301.038 510.757 300.048 510.711 300.25C510.709 300.259 510.707 300.267 510.704 300.276C510.205 302.316 506.648 311.367 506.415 314.145ZM272.807 630.564C271.013 632.425 269.205 634.3 267.402 636.168C267.122 636.799 266.841 637.431 266.56 638.062C266.564 638.058 266.568 638.053 266.572 638.049C268.65 635.557 270.74 633.048 272.807 630.564ZM332.481 563.501C331.958 563.883 331.435 564.264 330.912 564.645C326.646 569.567 322.336 574.517 318.056 579.409C318.424 578.858 318.792 578.308 319.159 577.758C312.531 585.047 310.227 588.466 306.709 592.374C306.713 592.369 306.717 592.365 306.721 592.36C306.342 592.78 305.658 593.094 304.265 594.669C301.074 598.28 291.857 608.579 290.983 610.034C289.149 613.126 307.28 592.045 310.708 588.137C312.261 586.38 314.316 584.432 315.257 583.361C316.287 582.188 317.41 580.345 319.909 577.484C320.631 576.663 329.064 567.579 332.481 563.501ZM405.47 474.455C403.967 475.837 401.597 479.368 400.593 480.547C400.354 480.83 401.907 478.415 399.699 481.074C399.244 481.956 398.787 482.839 398.328 483.722C400.68 480.689 403.097 477.555 405.47 474.455ZM533.671 974.502C533.128 974.229 522.672 973.465 522.121 973.614C515.829 973.828 537.488 975.189 533.671 974.502ZM522.85 1192.36C524.784 1190.52 515.3 1203.61 504.969 1216.47C496.693 1226.81 488.529 1237.01 487.088 1238.91C486.745 1238.43 495.649 1227.94 490.669 1233.08C493.675 1229.68 499.662 1222.03 504.393 1216.02C506.813 1212.94 508.772 1210.41 509.733 1209.23C511.453 1207.12 512.241 1206.87 512.502 1206.55C513.516 1205.37 521.592 1193.62 522.85 1192.36ZM457.67 1276.48C461.098 1272.21 464.515 1267.94 467.937 1263.64C464.031 1268.84 460.164 1273.98 456.235 1279.16C456.681 1278.31 457.208 1277.36 457.67 1276.48ZM453.634 1282.11C454.188 1282.29 442.452 1296.71 439.493 1300.68C442.215 1295.71 448.463 1289.11 453.634 1282.11ZM588.017 1012.6C585.208 1004.39 581.912 1001.87 586.837 1011.06C586.979 1011.34 588.124 1012.95 588.017 1012.6ZM231.272 681.475C232.252 680.393 244.812 667.122 245.301 666.177C246.883 663.143 239.222 672.233 236.281 675.05C231.584 679.54 237.596 672.168 227.324 684.143C227.628 683.55 227.931 682.957 228.235 682.364C222.059 689.202 224.94 687.724 223.952 689.056C223.665 689.446 219.716 693.727 219.079 694.554C211.101 704.914 230.374 682.464 231.272 681.475ZM392.971 991.113C376.04 993.491 383.418 992.97 366.131 995.876C365.609 996.339 390.834 991.802 392.971 991.113ZM121.396 806.658C132.569 792.892 142.442 782.021 152.589 769.229C151.111 769.212 118.112 810.015 121.396 806.658ZM470.51 122.205C510.043 177.174 537.639 263.287 501.637 331.169C498.793 337.38 497.729 338.711 496.713 340.625C496.545 340.935 496.375 341.263 496.192 341.635C495.369 343.301 495.806 343.156 494.657 345.366C451.229 425.738 394.621 492.933 338.247 559.299C334.702 563.453 316.682 583.223 313.701 588.18C311.462 591.947 323.591 577.094 325.691 574.663C327.27 572.845 327.616 573.009 328.666 571.796C329.78 570.509 328.67 571.408 329.958 569.911C335.415 563.563 341.408 556.723 346.315 550.926C394.038 494.218 440.057 438.138 478.757 375.199C483.421 367.461 482.696 369.179 482.936 368.796C482.938 368.79 482.941 368.784 482.943 368.779C488.094 360.055 493.301 350.638 498 341.276C516.416 305.702 525.082 261.71 516.695 221.954C509.86 186.424 492.016 154.322 472.429 124.674C471.79 123.847 471.15 123.024 470.51 122.205ZM205.379 708.966C209.181 706.368 208.937 704.943 219.945 693.275C220.673 692.174 221.401 691.071 222.131 689.968C216.493 696.352 210.921 702.668 205.361 708.986C205.367 708.98 205.373 708.973 205.379 708.966ZM275.885 630.461C278.805 629.457 301.701 601.982 312.486 590.026C313.864 587.313 298.703 605.141 294.987 609.216C293.142 611.255 282.784 621.813 275.669 630.473C275.741 630.469 275.813 630.465 275.885 630.461ZM557.933 1142.97C559.155 1140.77 560.446 1138.41 561.696 1136.07C558.234 1141.95 555.033 1147.08 551.35 1152.78C556.952 1143.84 562.218 1134.81 567.023 1125.77C566.399 1127.65 565.814 1129.43 565.172 1131.29C562.884 1135.11 560.281 1139.33 557.933 1142.97ZM573.491 1112.99C565.786 1129.2 573.206 1112.2 575.447 1107.87C576.768 1105.45 574.324 1111.22 573.491 1112.99ZM590.172 1068.29C588.929 1076.82 583.103 1093.33 584.12 1087.08C587.566 1078.37 589.05 1072.74 591.88 1059.45C591.747 1061.4 591.568 1063.39 591.342 1065.41C591.34 1065.42 591.338 1065.43 591.336 1065.44C590.947 1066.43 590.56 1067.38 590.172 1068.29ZM570.504 1120.7C564.718 1131.24 579.867 1099.99 575.571 1110.05C575.366 1110.66 570.792 1120.27 570.504 1120.7ZM508.367 188.552C507.532 187.33 510.829 195.955 511.731 198.925C515.959 211.59 519.788 228.442 520.662 242.406C520.702 241.354 520.731 240.304 520.752 239.255C519.139 221.813 514.713 204.742 508.367 188.552ZM518.204 285.862C516.423 295.382 513.913 304.558 510.759 313.6C510.481 314.423 509.345 318.438 510.471 315.556C513.781 305.978 516.432 296.043 518.204 285.862ZM167.587 755.091C172.446 749.813 159.7 766.031 159.419 764.693C162.198 761.417 164.839 758.311 167.587 755.091ZM124.332 806.568C127.117 803.034 129.976 799.437 132.838 795.861C132.938 795.937 133.039 796.014 133.14 796.091C130.178 799.589 127.218 803.11 124.332 806.568ZM492.4 154.69C494.421 159.087 499.87 169.279 502.833 175.88C501.142 171.167 495.612 160.668 492.4 154.69ZM239.793 674.253C239.186 674.492 258.383 653.09 252.14 660.867C248.011 665.345 243.914 669.785 239.793 674.253ZM278.996 630.901C274.955 635.553 271.692 639.07 272.192 637.81C274.389 635.367 276.569 632.942 278.756 630.508C278.836 630.639 278.916 630.77 278.996 630.901ZM594.833 1035.64C594.51 1024.92 592.341 1013.95 587.283 1004.15C587.582 1004.46 587.878 1004.77 588.173 1005.09C592.882 1014.69 594.9 1025.3 595.212 1035.67C595.086 1035.66 594.96 1035.65 594.833 1035.64ZM490.434 148.963C486.741 142.797 482.86 136.718 478.884 130.737C482.723 136.815 486.462 142.985 490.009 149.234C490.154 149.149 490.3 149.063 490.445 148.978C490.442 148.973 490.438 148.968 490.434 148.963ZM544.872 1169.57C562.72 1142.78 541.298 1177.74 535.474 1184.05C535.469 1184.06 535.465 1184.07 535.46 1184.07C534.965 1184.65 535.574 1183.13 534.733 1184.07C536.775 1181.44 538.77 1178.84 540.717 1176.25C542.212 1173.67 543.568 1171.26 545.11 1168.53C545.727 1167.74 546.339 1166.95 546.946 1166.16C546.264 1167.29 545.572 1168.43 544.872 1169.57ZM467.938 1272.58C450.23 1295.44 467.589 1271.44 476.792 1260.6C476.858 1260.79 469.554 1270.49 467.938 1272.58ZM514.121 1212.74C516.87 1209.03 519.476 1205.46 522.127 1201.75C522.57 1201.34 523.011 1200.92 523.451 1200.5C521.336 1203.53 519.475 1206.19 517.423 1209.06C516.332 1210.28 515.232 1211.51 514.121 1212.74ZM590.578 1082.84C592.776 1075.72 594.718 1066.26 587.613 1089.35C587.737 1089.38 587.861 1089.4 587.984 1089.43C588.301 1088.49 589.106 1085.74 589.158 1085.6C589.324 1085.19 589.582 1085.8 590.578 1082.84ZM437.807 1316.74C437.283 1317.49 438.166 1318.53 431.761 1324.44C430.102 1326.69 428.755 1328.53 427.203 1330.64C426.561 1330.98 425.915 1331.33 425.266 1331.67C431.512 1324.11 431.83 1322.74 432.244 1322.19C434.25 1319.55 432.979 1321.66 434.287 1320.01C437.682 1315.71 445.309 1305.64 442.412 1310.75C441.46 1312.47 438.316 1316.02 437.807 1316.74ZM450.464 1301.81C449.637 1302.69 451.705 1299.4 451.06 1300.05C450.517 1300.59 442.781 1309.84 444.27 1306.86C445.525 1305.31 446.634 1303.93 447.968 1302.27C448.534 1301.84 449.094 1301.42 449.647 1301C450.695 1299.39 451.659 1297.88 452.773 1296.18C455.112 1293.9 459.724 1288.91 455.062 1295.5C456.763 1293.25 458.74 1290.64 460.451 1288.38C461.276 1286.96 462.058 1285.6 462.804 1284.29C462.582 1285.11 462.35 1285.94 462.107 1286.79C458.255 1291.78 454.28 1296.9 450.464 1301.81ZM392.951 1374.62C393.044 1374.23 393.137 1373.84 393.229 1373.46C386.441 1382.54 376.186 1395.67 381.33 1387.48C390.374 1375.92 399.74 1363.95 408.824 1352.31C409.548 1351.59 410.266 1350.89 410.977 1350.19C403.52 1358.85 407.504 1357.15 400.992 1364.43C399.895 1365.65 402.271 1361.48 396.217 1369.88C396.567 1369.71 396.917 1369.54 397.267 1369.37C395.855 1371.09 394.417 1372.84 392.951 1374.62ZM333.89 1448.67C346.118 1433.66 333.188 1450.93 330.907 1452.98C330.911 1452.97 330.915 1452.97 330.918 1452.96C324.015 1459.4 336.999 1444.15 337.949 1442.94C338.981 1441.62 340.7 1437.85 347.307 1431.87C342.996 1437.27 338.478 1442.92 333.89 1448.67ZM372.398 1400.56C371.46 1401.79 371.795 1400.96 371.38 1401.49C371.376 1401.5 371.373 1401.5 371.369 1401.5C365.053 1409.56 350.483 1428.28 348.071 1430C352.864 1423.86 373.444 1397.63 374.945 1396.63C374.106 1397.93 373.257 1399.24 372.398 1400.56ZM415.859 1344.65C420.142 1340.08 411.661 1350.94 409.129 1353.75C408.659 1354.26 411.577 1349.19 415.859 1344.65ZM511.875 962.863C497.521 964.144 516.416 963.188 509.924 964.112C512.582 963.903 515.493 963.757 518.223 963.702C516.144 963.375 514.026 963.096 511.875 962.863ZM56.7664 914.348C58.351 911.593 57.3617 912.762 57.4896 912.519C58.4529 910.798 59.5964 909.282 59.9564 908.596C66.8026 895.758 61.738 904 61.5918 904.116C61.1767 904.232 62.8065 900.723 59.8312 905.164C58.2946 908.044 56.9448 910.655 55.4299 913.637C54.5022 914.98 53.5925 916.31 52.7007 917.627C50.0823 923.346 53.9978 916.138 54.9041 915.503C55.2426 915.273 52.571 920.673 56.7664 914.348ZM486.421 964.95C484.33 965.831 479.086 967.372 484.422 967.034C484.428 967.033 484.434 967.032 484.44 967.031C485.427 966.967 489.378 966.372 490.607 966.309C491.554 966.074 492.353 965.863 493.012 965.675C496.839 964.639 496.325 964.284 492.814 964.442C491.265 964.506 489.088 964.681 486.421 964.95ZM35.3206 966.035C33.8704 970.583 32.6032 975.31 31.6811 979.987C31.3815 979.854 31.0822 979.721 30.7831 979.586C31.3299 976.944 31.9015 974.65 32.6107 972.065C32.683 971.146 32.792 970.125 32.8701 969.26C31.672 972.398 30.6277 975.374 29.687 978.524C29.1147 982.389 28.7636 986.234 28.6907 989.877C28.9494 988.231 29.2649 986.53 29.6406 984.771C29.0177 993.877 28.3547 991.887 28.4352 999.268C28.9378 1001.62 29.6297 1004.09 30.4618 1006.23C30.9878 1009.61 31.8636 1012.74 33.2312 1015.75C36.2132 1020.32 36.8384 1020.34 34.9958 1017.28C36.7633 1019.23 38.1564 1021.81 40.7551 1023.79C40.9666 1023.95 40.8183 1023.35 41.0001 1023.5C47.5424 1028.59 51.9646 1029.81 54.0907 1030.86C56.3284 1031.81 56.7539 1032.16 58.2184 1032.55C60.2135 1033.24 68.9785 1033.8 69.1303 1033.49C69.2215 1033.37 64.8078 1032.51 63.9687 1032C63.164 1031.32 65.3582 1032.4 79.6915 1032.3C64.5931 1032.3 49.9013 1027.65 59.3256 1031.66C57.1422 1031.12 51.3454 1029.56 46.8055 1027.05C42.1907 1024.63 38.9907 1021.36 38.6449 1020.96C37.6156 1019.76 38.2963 1019.88 37.0921 1018.36C36.6026 1017.39 32.9794 1015.91 31.1999 1006.05C30.7293 1004.83 30.327 1003.66 29.9541 1002.35C29.8956 1001.05 29.9006 999.865 29.937 998.593C30.6264 1001.07 31.5112 1003.55 32.5438 1005.68C29.8204 996.588 31.793 987.37 31.9952 980.758C33.0901 974.906 33.9434 972.289 33.7843 974.812C34.1572 973.121 34.612 971.26 35.057 969.583C35.1238 968.425 35.2115 967.242 35.3206 966.035ZM447.119 972.234C440.649 972.816 438.542 974.249 439.541 974.142C445.174 973.534 450.49 971.931 447.119 972.234ZM50.9297 924.158C47.4615 930.351 44.2727 936.45 41.3561 942.581C41.6651 942.712 41.974 942.843 42.2829 942.975C44.8801 936.737 47.7607 930.503 50.9297 924.158ZM514.014 962.017C514.737 962.245 515.454 962.478 516.165 962.716C524.538 961.581 533.067 963.739 537.211 964.136C538.119 964.216 536.378 963.486 534.64 963.173C533.487 962.631 515.51 961.581 514.014 962.017ZM507.522 1230.19C509.184 1227.8 510.757 1225.53 512.53 1223C512.648 1223.31 512.767 1223.61 512.885 1223.92C512 1225.13 511.14 1226.31 510.306 1227.46C509.358 1228.39 508.523 1229.19 507.522 1230.19ZM527.656 1203.3C530.875 1198.99 533.979 1194.73 536.971 1190.54C525.564 1206.88 535.293 1193.62 528.317 1203.79C528.097 1203.62 527.876 1203.46 527.656 1203.3ZM558.236 1159.41C558.047 1160.04 557.855 1160.67 557.66 1161.3C554.917 1165.71 552.015 1170.23 549.019 1174.75C551.392 1172.23 553.762 1169.66 556.059 1167.15C557.107 1165.5 558.137 1163.87 559.149 1162.25C558.848 1161.3 558.544 1160.36 558.236 1159.41ZM138.786 803.303C140.8 800.9 147.356 792.341 146.937 792.552C143.819 795.873 140.8 799.097 137.711 802.427C137.956 802.659 138.2 802.891 138.444 803.123C137.899 803.514 137.355 803.904 136.812 804.293C135.239 806.372 133.683 808.44 132.144 810.495C131.093 811.304 130.046 812.109 129.003 812.912C128.442 814.121 127.885 815.325 127.334 816.526C135.575 807.449 134.942 807.331 136.595 805.347C137.446 804.332 138.146 803.819 138.529 803.525C138.615 803.451 138.7 803.377 138.786 803.303ZM50.6672 929.455C56.8593 917.202 60.1489 909.905 65.7466 901.5C66.0098 901.112 66.28 900.721 66.5582 900.327C66.2924 900.595 65.978 900.966 65.6227 901.426C58.9763 909.515 42.1698 944.856 37.1538 957.97C36.8918 959.511 36.6701 960.99 36.4609 962.493C38.6277 954.936 41.258 949.843 42.8586 946.144C44.1718 943.153 43.7611 943.479 43.8669 943.233C43.8713 943.223 43.8757 943.212 43.88 943.202C46.883 936.56 48.2094 934.422 50.6672 929.455ZM526.096 960.881C521.636 960.18 514.056 960.387 513.963 961.002C518.23 961.026 522.438 961.229 526.719 961.65C525.855 961.45 526.842 960.991 526.096 960.881ZM562.907 1154.88C564.767 1152.18 568.345 1145.66 566.3 1148.19C565.955 1148.63 562.428 1155.29 563.892 1151.03C560.146 1157.35 561.848 1156.41 562.907 1154.88ZM166.569 1019.17C169.163 1018.71 171.728 1018.25 174.315 1017.79C174.878 1017.45 175.441 1017.12 176.005 1016.78C172.853 1017.58 169.724 1018.37 166.569 1019.17ZM563.404 969.27C566.634 972.063 573.513 974.494 578.975 980.456C581.189 982.367 583.279 984.427 585.228 986.63C585.233 986.636 585.237 986.641 585.242 986.647C585.531 986.496 585.82 986.347 586.11 986.199C579.756 978.936 571.783 973.234 563.404 969.27ZM32.4984 1007.24C32.6914 1008.45 32.9345 1009.63 33.2495 1010.81C34.1886 1012.7 35.3057 1014.48 36.5503 1016.06C36.0443 1015.06 35.6214 1014.09 35.225 1013.04C34.1619 1011.28 33.2344 1009.29 32.4984 1007.24ZM598.332 1005.96C594.32 996.461 591.557 993.615 597.164 1005.37C599.173 1010.4 601.761 1016.17 598.332 1005.96ZM244.896 681.522C242.89 683.64 240.888 685.754 238.891 687.864C238.389 688.742 237.888 689.62 237.388 690.497C239.883 687.513 242.386 684.521 244.896 681.522ZM540.332 1189.28C540.363 1188.87 540.394 1188.46 540.424 1188.05C542.001 1185.86 543.547 1183.7 545.062 1181.55C544.863 1182.21 544.661 1182.88 544.457 1183.54C543.106 1185.44 541.731 1187.36 540.332 1189.28ZM231.797 696.005C230.242 697.688 228.636 699.429 227.06 701.136C226.095 702.373 225.131 703.608 224.169 704.841C225.691 703.286 227.216 701.727 228.745 700.166C229.763 698.777 230.795 697.374 231.797 696.005ZM593.015 1093.37C594.521 1090.17 597.932 1076.8 593.921 1088.54C591.162 1096.11 592.814 1093.76 593.015 1093.37ZM586.432 1110.49C591.781 1098.95 586.221 1106.79 580.977 1121.42C587.379 1107.33 586.056 1111.14 586.432 1110.49ZM529.479 1207.1C529.29 1207.35 528.812 1207.41 527.329 1209.36C523.795 1214.03 519.314 1219.75 515.379 1224.66C513.302 1227.26 511.559 1229.45 510.261 1231.09C500.511 1243.25 472.496 1280.87 468.23 1284.7C467.354 1285.49 468.47 1283 468.155 1283.35C467.236 1284.4 462.642 1290.84 463.152 1289.41C467.934 1283.25 472.671 1277.09 477.39 1270.94C476.502 1272.64 475.592 1274.38 474.703 1276.08C486.324 1260.63 482.435 1265.74 485.241 1260.9C487.451 1258.48 489.691 1256.04 491.867 1253.68C495.981 1247.91 500.105 1242.16 504.327 1236.31C503.446 1237.77 502.606 1239.19 501.804 1240.56C508.763 1232.29 506.636 1234.6 509.906 1229.6C510.078 1229.72 510.251 1229.84 510.423 1229.97C512.11 1227.57 513.547 1225.66 514.733 1224.16C517.56 1220.56 518.724 1219.57 519.734 1218.27C522.654 1214.45 524.309 1208.46 536.906 1195.2C540.223 1188.5 542.229 1189.81 543.774 1185.43C552.191 1175.5 537.954 1195.57 530.899 1204.84C530.895 1204.85 530.892 1204.85 530.888 1204.85C530.353 1205.57 531.384 1204.56 529.479 1207.1ZM565.47 1151.15C562.516 1158.58 578 1131.45 571.546 1139.71C570.755 1141.04 569.95 1142.38 569.132 1143.73C567.862 1146.34 566.727 1148.66 565.461 1151.16C565.464 1151.16 565.467 1151.15 565.47 1151.15ZM458.136 967.193C430.577 972.246 446.411 970.24 455.645 968.078C457.489 967.648 458.494 967.311 458.136 967.193ZM61.0389 911.63C61.1151 911.227 61.1925 910.824 61.2711 910.419C56.7608 918.378 48.5099 933.875 49.5346 933.965C53.0368 926.512 56.9192 919.032 61.0389 911.63ZM34.8425 976.309C35.185 974.622 37.2166 967.36 36.6799 968.18C35.6261 971.079 34.568 974.45 33.7534 977.373C33.608 978.853 33.4817 980.403 33.4078 981.842C33.7514 979.853 34.7331 976.723 34.8425 976.309Z" fill="#87392B"/>
</g>
<defs>
<filter id="filter0_f_1_887" x="0" y="0" width="608.744" height="1458" filterUnits="userSpaceOnUse" color-interpolation-filters="sRGB">
<feFlood flood-opacity="0" result="BackgroundImageFix"/>
<feBlend mode="normal" in="SourceGraphic" in2="BackgroundImageFix" result="shape"/>
<feGaussianBlur stdDeviation="1.25" result="effect1_foregroundBlur_1_887"/>
</filter>
</defs>
</svg>
