<svg width="1681" height="831" viewBox="0 0 1681 831" fill="none" xmlns="http://www.w3.org/2000/svg">
<path d="M46.5776 36.89C80.414 81.6168 96.9602 119.983 128.876 165.232C168.278 227.885 249.541 288.301 339.164 289.669C394.387 292.775 448.622 288.388 496.596 283.09C589.877 272.453 683.331 254.572 774.422 236.521C779.088 235.592 781.831 234.852 783.957 234.427C803.945 230.438 837.261 223.906 857.114 219.89C898.608 211.451 971.001 197.151 1009.04 190.361C1025.37 187.38 1041.9 184.617 1048.15 183.157C1054.05 182.185 1057.22 182.112 1058.85 181.879C1058.87 181.876 1058.89 181.873 1058.91 181.869C1064.03 181.129 1076.53 178.984 1079.23 178.629C1079.68 178.57 1077.02 179.242 1083.9 178.181C1084.5 178.091 1083.94 177.956 1089.66 177.172C1091.16 176.936 1110.14 174.816 1115.64 174.261C1129.7 172.673 1159.03 169.726 1181.43 169.63C1187.98 169.57 1193.7 169.627 1198.3 169.731C1201.71 169.81 1203.64 169.987 1207.11 170.122C1208.91 170.192 1211.55 170.188 1212.09 170.216C1214.44 170.301 1225.15 171.622 1221.4 170.208C1232.23 171.106 1229.07 171.297 1229.26 171.542C1241.32 172.692 1246.97 173.075 1249.96 174.091C1278.41 178.556 1308.34 186.604 1326.09 206.332C1344.35 225.879 1338.67 256.832 1323.45 280.169C1323.36 280.133 1323.27 280.097 1323.18 280.062C1320.98 283.734 1318.91 286.67 1317.04 289.14C1311.38 296.617 1307.98 300.697 1303.79 306.884C1299.91 311.796 1296.09 316.632 1292.21 321.541C1207.84 433.07 1122.4 543.56 1039.26 654.543C1026.82 671.238 1016.62 690.242 1012.86 711.647C1011.84 718.86 1011.38 720.701 1011.92 732.883C1012.49 746.302 1018.83 765.451 1030.7 778.768C1040.47 790.884 1059.71 803.332 1074.79 809.53C1078.12 810.976 1080.61 812.076 1081.01 812.231C1083.31 813.119 1083.6 813.013 1085.76 813.797C1088.36 814.73 1091.52 815.962 1094.71 816.942C1106.28 820.573 1119.23 823.228 1120.74 823.514C1128.2 824.952 1129.57 824.906 1130.22 825.028C1138.22 826.298 1135.23 825.971 1137.24 826.272C1147.69 827.692 1155.32 828.13 1169.38 829.502C1169 829.314 1168.62 829.125 1168.24 828.935C1179.31 829.517 1171.98 829.505 1174.24 829.718C1175.15 829.933 1198.93 830.548 1200.52 830.416C1206.76 830.398 1206.97 830.152 1207.51 830.15C1208.94 830.17 1224.66 830.12 1232.89 829.486C1242.7 828.773 1231.12 828.909 1233.56 828.703C1234.05 828.682 1244 828.178 1245.31 827.938C1246.76 827.704 1238.22 828.223 1238.36 828.141C1238.4 828.128 1252.66 826.898 1249.92 826.862C1247.73 826.87 1228.16 828.215 1224.02 828.183C1223.34 828.19 1224.61 827.89 1224.01 827.902C1221.92 828.355 1176.25 828.092 1174.38 827.548C1176.84 827.796 1179.07 828.015 1181.4 828.223C1178.35 828.115 1175.19 827.976 1171.99 827.799C1176.61 828.163 1180.86 828.442 1185.31 828.676C1178.9 829.566 1158.68 827.193 1158.07 826.554C1157.83 826.329 1169.72 826.734 1158.68 825.48C1160.4 825.576 1162.05 825.656 1163.75 825.731C1167.23 826.093 1170.79 826.419 1174.41 826.707C1171.99 826.636 1169.6 826.549 1167.24 826.444C1168.1 826.571 1168.97 826.695 1169.84 826.817C1176.68 827.355 1183.01 827.723 1189.74 827.987C1193.2 828.012 1192.49 827.798 1194.89 827.797C1223.78 827.335 1205.3 828.032 1224.06 827.514C1226.76 827.316 1229.49 827.101 1232.25 826.867C1231.32 827.343 1239.81 826.715 1249.92 826.189C1248.69 826.133 1247.46 826.074 1246.24 826.012C1261.31 825.256 1290.83 821.303 1282.93 822.933C1286.37 822.49 1289.54 822.059 1292.89 821.591C1295.73 821.381 1298.58 821.155 1301.46 820.914C1304.19 820.553 1306.94 820.179 1309.71 819.79C1310.99 819.612 1312.24 819.436 1313.47 819.265C1313.48 819.194 1313.48 819.123 1313.49 819.052C1312.25 819.221 1310.98 819.394 1309.68 819.571C1307.74 819.835 1305.81 820.093 1303.9 820.344C1305.79 819.925 1307.7 819.499 1309.61 819.066C1310.09 818.96 1310.56 818.855 1311.02 818.75C1313.41 818.46 1315.71 818.183 1317.93 817.917C1308.54 819.394 1320.86 818.046 1324.21 817.878C1332.19 816.905 1337.35 815.86 1340.15 815.474C1341.3 815.308 1356.57 813.968 1350.48 814.052C1358.24 813.132 1366.01 812.239 1373.77 811.364C1376.79 810.935 1379.81 810.508 1382.83 810.08C1376.23 810.57 1395.25 807.817 1381.17 809.425C1370.69 810.62 1368.12 811.247 1363.17 811.868C1358.71 812.429 1356.33 812.526 1351.42 813.15C1336.71 815.025 1322.85 816.889 1309.57 818.711C1293.08 820.967 1277.26 822.8 1260.29 824.267C1253.89 824.818 1248.21 825.109 1244.07 825.381C1239.42 825.68 1245.25 825.592 1239.34 825.873C1232.99 826.156 1231.51 825.991 1229.84 826.063C1228.79 826.107 1225.48 826.431 1222.48 826.525C1210 827.005 1191.79 826.619 1189.85 826.525C1187.77 826.793 1152.65 824.777 1150.74 824.237C1149.87 824.145 1151.56 825.089 1144.01 823.411C1141.74 823.107 1139.09 822.729 1136.68 822.356C1137.06 822.553 1137.44 822.749 1137.81 822.945C1123.6 820.158 1128.39 821.342 1114.74 818.437C1082.98 812.095 1030.8 790.465 1019.22 750.894C1016.72 742.713 1016.14 739.388 1015.64 729.371C1014.42 719.859 1020.16 696.226 1019.6 701.541C1025.36 681.932 1028.88 679.831 1033.2 670.742C1033.92 669.743 1034.65 668.748 1035.39 667.756C1038.23 662.949 1040.29 660.088 1042.61 657.033C1044.79 654.197 1047.1 651.277 1050.6 646.647C1053.63 642.632 1049.8 647.026 1056.28 639.179C1057.42 637.604 1058.57 636.019 1059.7 634.446C1059.35 634.744 1059 635.044 1058.64 635.345C1065.48 626.386 1065.89 625.757 1065.42 627.023C1068.65 622.599 1071.85 618.241 1075.08 613.827C1075.59 613.361 1076.11 612.892 1076.61 612.429C1075.99 613.442 1060.59 633.833 1042.97 657.298C1018.4 686.001 1012.83 731.945 1017.26 741.592C1018.83 764.564 1051.43 795.568 1067.21 801.321C1073.23 804.32 1075.93 805.342 1085.12 808.851C1094.09 812.255 1105.75 815.715 1110.91 816.921C1127.21 823.036 1208.04 828.102 1153.26 823.584C1154.86 823.609 1156.47 823.625 1158.1 823.633C1179.52 825.775 1172.01 824.957 1189.9 825.53C1197.76 825.771 1215.48 825.865 1214.63 825.207C1200.34 825.388 1185.48 825.323 1173.24 824.608C1171.88 824.571 1157.69 823.315 1150.06 822.471C1143.35 821.717 1148.08 823.097 1133.41 820.219C1122.79 819.184 1116.31 817.053 1113.71 816.4C1108.9 815.153 1108.15 815.303 1103.36 814.047C1098.27 812.688 1094.54 811.237 1093.87 811.019C1086.34 809.893 1051.44 792.017 1050.54 789.721C1051.77 790.707 1053.04 791.68 1054.34 792.639C1045.84 786.737 1048.04 787.647 1045.87 785.908C1044.31 784.6 1042.81 783.266 1041.37 781.906C1041.89 782.496 1042.42 783.082 1042.97 783.666C1034.41 775.098 1040.42 782.116 1029.86 768.435C1023.44 759.418 1019.85 748.398 1019.64 747.36C1019.56 747.055 1020.68 750.35 1019.49 746.01C1017.3 738.843 1016.92 725.88 1016.9 724.498C1017.08 720.869 1017.36 721.191 1017.39 720.71C1017.46 719.631 1018.3 710.106 1021.38 700.465C1024.29 690.791 1029.1 681.417 1030.63 678.62C1034.37 671.648 1038.77 664.785 1043.87 657.964C1050.06 649.676 1056.46 641.131 1062.78 632.764C1063.94 631.219 1063.08 632.115 1064.25 630.566C1066.13 628.066 1075.94 615.434 1077.41 613.518C1081.02 608.792 1090.41 596.189 1091.96 594.262C1092.18 593.987 1089.23 598.239 1092.92 593.451C1097.03 588.13 1094.63 590.854 1094.85 590.558C1102.99 579.623 1108.36 572.859 1114.02 565.454C1115.85 563.058 1119.06 558.484 1121.68 555.126C1121.98 554.74 1121.55 555.63 1121.85 555.253C1125.82 550.192 1129.19 545.162 1130.85 542.935C1134.92 537.474 1132.89 540.588 1133.11 540.307C1135.86 536.696 1139.49 531.767 1143.68 526.278C1162.37 501.794 1177.62 481.822 1197.46 455.777C1199.95 452.508 1202.77 448.514 1203.15 448.014C1204.33 446.469 1204.17 447.043 1207.57 442.573C1214.75 433.145 1221.43 424.414 1228.54 415.089C1229.97 413.208 1230.42 412.284 1231.51 410.85C1235.16 406.047 1248.08 389.988 1247.76 389.313C1255.49 380.14 1259.91 373.503 1265.77 365.823C1279.64 347.655 1301.4 319.248 1315.1 301.041C1318 297.2 1319.21 295.311 1320.81 293.186C1320.97 292.979 1321.17 292.719 1321.4 292.412C1325.94 287.503 1337.41 266.356 1337.31 264.89C1338.07 262.271 1337.62 263.786 1341.55 250.451C1343.06 242.439 1342.31 243.322 1342.51 241.669C1343.7 228.595 1339.1 216.524 1339.41 218.986C1334.09 204.919 1325.96 198.194 1320.91 194.739C1321.18 194.595 1315.63 189.846 1307.8 185.874C1314.99 190.994 1315.5 189.092 1330.21 204.175C1330.42 204.424 1330.18 203.814 1330.39 204.064C1332.38 206.324 1335.93 211.519 1337.94 216.165C1339.91 220.831 1338.94 218.173 1339.66 220.087C1340.25 221.863 1340.07 221.856 1340.74 224.444C1342.86 232.941 1342.29 240.871 1341.58 245.848C1341.15 248.984 1340.55 252.521 1339.89 254.932C1337.86 264.161 1328.66 282.126 1320.76 291.934C1320.58 292.173 1320.4 292.408 1320.23 292.639C1318.63 294.758 1319.46 293.982 1315.96 298.636C1315.55 299.173 1313.87 301.058 1310.76 305.078C1307.65 309.105 1305.32 312.342 1303.33 314.932C1301.66 317.098 1302.21 316.075 1298.81 320.542C1295.97 324.27 1263.95 366.559 1262.22 368.867C1259.74 372.189 1258.75 373.901 1257.19 375.895C1256.92 376.245 1256.26 376.696 1255.31 377.913C1239.67 397.964 1205.78 442.913 1188.15 466.024C1151.31 514.33 1117.23 558.836 1080.27 607.741C1079.58 608.588 1078.89 609.434 1078.2 610.279C1081.92 605.34 1085.66 600.377 1089.39 595.441C1089.32 595.341 1089.25 595.24 1089.18 595.139C1094.22 588.438 1093.77 589.487 1093.76 589.774C1095.57 587.265 1097.39 584.753 1099.2 582.237C1101.15 580.327 1113.39 563.714 1119.85 555.21C1124.03 549.7 1129.15 543.206 1131.35 540.298C1136 534.136 1135.68 534.144 1136.04 533.659C1136.67 532.83 1143.36 524.388 1148.06 518.192C1155.01 509.038 1155.46 507.818 1165.26 495.493C1177.32 479.334 1190.95 461.628 1204.16 444.37C1201.37 447.447 1213.45 432.163 1218.77 425.18C1250.08 384.1 1288.21 333.886 1320.16 291.483C1321.32 289.949 1322.43 288.399 1323.51 286.84C1327.34 281.265 1329.65 276.721 1331.38 273.408C1332.3 271.615 1332.93 270.927 1334.07 268.358C1334.25 267.897 1334.28 267.535 1336.14 262.677C1338.44 256.674 1341.66 245.725 1341.24 235.333C1341.08 224.901 1336.93 215.852 1334.77 212.666C1310.72 175.451 1257.89 169.971 1213.42 166.767C1212.29 166.802 1211.16 166.841 1210.02 166.883C1205.51 166.42 1194.12 165.974 1181.41 166.086C1170.38 166.15 1157.98 166.865 1149.92 167.427C1120.09 169.385 1082.45 174.405 1056.5 178.486C1050.97 179.348 1046.43 180.215 1041.09 181.088C1038.8 181.463 1035.89 181.766 1033.48 182.171C1006.85 186.586 970.803 193.452 943.959 198.652C882.978 210.438 825.792 222.319 764.089 234.465C623.812 260.969 482.598 290.814 339.422 285.332C269.813 282.654 202.159 249.59 158.256 196.11C156.408 193.953 156.348 194.189 154.936 192.505C146.351 182.655 129.631 158.977 121.941 146.561C115.638 136.801 105.943 121.072 104.236 117.518C125.394 152.68 149.36 189.986 181.345 219.504C183.611 221.595 184.037 221.702 184.319 221.956C189.634 226.578 186.06 223.914 193.855 230.447C196.203 233.082 222.475 250.381 219.162 248.586C225.05 253.83 273.84 274.938 284.322 276.085C287.309 276.879 285.145 276.509 285.737 276.67C288.319 277.364 289.562 277.404 291.92 277.94C298.388 279.54 313.968 282.329 317.302 282.66C321.429 283.216 330.427 284.164 339.464 284.618C345.259 284.924 350.971 285.124 354.78 285.26C363.438 285.541 361.802 285.756 369.104 285.87C374.909 285.913 368.516 285.726 381.608 285.604C388.038 285.605 410.668 285.055 415.985 284.725C421.392 284.463 427.447 283.976 435.082 283.48C445.731 282.847 469.394 280.9 480.332 279.783C480.991 279.719 482.617 279.755 484.245 279.581C487.618 279.217 486.586 279.075 489.127 278.776C491.541 278.628 535.205 273.336 542.67 272.167C547.793 271.459 551.264 271.116 554.082 270.713C556.285 270.396 556.491 270.156 558.742 269.827C559.439 269.727 565.402 269.044 571.372 268.14C576.955 267.321 598.131 263.819 600.634 263.393C602.238 263.133 600.526 263.562 605.228 262.794C609.518 262.09 612.312 261.432 614.765 261.022C620.452 260.071 626.881 259.151 632.926 258.113C650.232 255.126 649.326 255.012 650.36 254.828C653.245 254.297 654.443 254.305 655.392 254.141C659.424 253.446 669.19 251.727 672.755 251.084C677.19 250.286 679.032 249.738 683.748 248.868C687.269 248.219 694.393 247.105 702.392 245.61C720.449 242.24 741.879 238.134 759.577 234.645C764.853 233.605 765.624 233.259 767.235 232.936C775.701 231.239 780.461 230.507 782.893 230.021C800.164 226.576 830.799 220.078 846.801 216.829C853.308 215.509 881.905 209.914 897.881 206.715C899.735 206.344 897.97 206.543 900.037 206.156C904.976 205.232 904.574 205.62 907.065 205.117C908.266 204.874 910.973 204.165 914.453 203.461C932.417 199.829 945.11 197.517 953.239 195.951C1029.99 181.547 1108.5 166.333 1181.4 164.965C1184.06 164.947 1186.68 164.946 1189.25 164.961C1197.49 165.017 1207.9 165.397 1220.58 166.073C1220.98 166.006 1221.37 165.939 1221.76 165.873C1222.2 165.996 1222.63 166.12 1223.06 166.244C1237.2 167.437 1242.72 168.133 1256.94 170.376C1258.21 170.583 1262.09 170.864 1264.23 171.855C1278.42 174.613 1270.48 173.137 1280.84 175.964C1290.93 178.932 1300.63 182.519 1309.5 187.442C1314.71 189.741 1293.67 178.85 1292.13 178.875C1289.83 178.031 1287.11 177.392 1284.96 176.73C1278.18 174.623 1271.58 172.872 1269.93 172.734C1260.8 170.453 1272.22 173.104 1271.1 172.647C1264.87 171.28 1259.06 170.262 1252.89 169.365C1249.99 167.672 1215.92 165.441 1218.25 165.289C1215.45 165.231 1212.73 165.204 1210.08 165.201C1199.84 164.145 1193.43 164.298 1181.4 164.577C1179.53 164.628 1177.5 164.691 1175.26 164.77C1176.39 164.652 1177.52 164.539 1178.63 164.431C1178.42 164.342 1164.27 164.627 1169.35 164.865C1154.73 164.946 1155.71 165.813 1142.54 166.16C1134.98 166.723 1139.72 166.617 1125.79 167.97C1117.82 168.771 1107.55 169.762 1098.56 170.905C1096.51 171.166 1095.64 171.494 1093.79 171.736C1091.95 171.98 1091.02 171.894 1088.76 172.195C1084.09 172.815 1077.97 173.833 1075.18 174.226C1072.61 174.588 1068.92 174.939 1062.61 175.874C1040.7 179.18 1047.45 178.434 1043.99 179.066C1040.32 179.762 1037.54 179.862 1030.13 181.151C1029.4 181.278 1031.33 181.172 1028.96 181.564C1027.04 181.884 1026.05 181.808 1019.65 182.87C1017.06 183.234 977.283 190.366 971.395 191.524C962.163 193.238 941.631 197.377 932.05 199.252C928.352 199.973 924.323 200.57 920.467 201.329C907.566 203.864 886.828 208.009 870.342 211.327C855.617 214.288 829.674 219.934 821.523 221.187C800.676 225.323 795.773 226.621 794.188 226.943C789.955 227.8 787.951 227.983 782.598 229.037C713.435 242.748 622.133 260.071 555.882 269.391C484.48 279.411 411.968 287.527 339.518 283.714C254.628 281.667 176.717 229.809 132.451 159.461C132.294 159.063 132.138 158.665 131.982 158.268C142.301 173.507 155.638 190.641 168.136 203.915C184.265 222.109 213.096 244.676 229.351 252.314C222.905 248.747 213.033 242.55 213.361 242.327C224.086 249.508 235.429 255.801 247.31 261.108C246.898 261.091 246.488 261.073 246.077 261.053C258.277 266.669 271.526 271.289 284.616 274.714C286.884 275.303 285.239 275.026 287.225 275.527C289.455 276.079 287.977 275.569 288.395 275.671C294.055 277.037 295.818 277.505 296.518 277.661C298.336 278.028 296.984 277.643 302.048 278.583C311.476 280.291 318.617 281.467 316.36 280.584C319.574 281.018 322.485 281.363 325.611 281.688C326.395 281.933 327.184 282.175 327.976 282.415C332.247 282.674 336.072 282.894 339.555 283.086C351.082 283.702 358.733 284.413 366.817 283.812C370.276 283.994 373.771 284.151 377.3 284.281C379.289 284.113 381.286 283.936 383.293 283.751C383.685 283.887 384.079 284.023 384.473 284.158C403.157 283.84 423.394 283.017 441.402 281.69C453.809 280.758 457.112 280.409 468.027 279.42C492.656 277.031 468.094 279.22 488.676 276.784C487.616 277.071 486.557 277.357 485.499 277.641C488.969 277.338 492.272 277.041 495.657 276.725C497.985 276.324 500.319 275.916 502.659 275.502C513.224 275.003 519.964 273.541 521.344 273.369C522.492 273.218 526.429 273.189 538.781 271.145C533.714 272.441 548.259 269.852 549.36 269.68C550.446 269.534 564.568 267.638 570.351 266.752C574.9 266.068 584.382 264.484 591.115 263.422C597.046 262.487 596.481 262.779 596.914 262.712C604.228 261.553 599.647 262.132 604.882 261.274C610.116 260.413 614.221 259.905 615.353 259.701C615.923 259.598 613.983 259.729 616.593 259.276C623.609 258.06 636.344 256.052 644.34 254.642C647.182 254.143 650.74 253.353 653.912 252.785C658.773 251.914 661.094 251.713 663.897 251.202C664.875 251.023 671.057 249.577 678.844 248.199C680.324 247.938 684.798 247.825 690.399 245.78C690.87 245.833 691.339 245.888 691.809 245.941C717.899 241.415 724.945 238.87 736.697 237.625C755.56 233.845 742.521 235.982 744.583 235.521C745.914 235.223 752.089 234.126 752.768 233.987C753.964 233.74 753.734 233.658 755.048 233.401C779.123 228.689 768.477 231.02 776.122 229.663C794.32 226.413 808.309 222.816 776.822 229.323C776.808 229.254 776.795 229.186 776.781 229.117C784.559 227.647 804.251 223.68 797.605 224.646C792.37 225.427 745.683 234.839 772.065 229.227C778.045 227.953 781.216 227.593 791.533 225.035C798.406 223.636 799.526 224.063 808.762 221.952C807.28 222.476 805.797 223 804.312 223.523C817.077 221.265 832.657 217.734 842.434 215.895C845.779 215.265 857.928 213.904 854.934 213.425C860.463 212.378 886.771 206.905 891.601 206.045C892.77 205.838 894.394 206.078 911.384 202.516C912.549 202.214 913.713 201.912 914.876 201.611C899.335 204.468 926.653 198.868 919.121 199.808C916.664 200.534 904.376 203.111 902.395 203.63C899.033 204.51 909.225 202.759 896.287 205.255C888.011 205.987 911.317 201.778 907.599 201.652C924.526 198.711 926.083 198.034 929.95 197.26C946.31 194.007 956.589 192.125 971.981 189.135C975.842 188.573 947.764 194.146 944.435 194.732C957.18 192.909 935.482 197.108 926.042 198.592C925.296 198.928 924.544 199.266 923.818 199.599C935.968 197.114 947.443 194.838 959.527 192.697C960.294 192.48 961.061 192.263 961.826 192.047C959.124 192.452 956.412 192.862 953.69 193.275C963.643 191.203 957.799 192.861 970.895 189.909C971.341 190.039 971.787 190.17 972.232 190.3C984.785 187.878 997.557 185.471 1010.2 183.17C1017 182.366 1041.23 178.128 1036.74 178.337C1046.67 176.662 1034.47 178.961 1043.77 177.572C1047.84 176.964 1055.51 175.767 1057.52 175.309C1056.51 174.932 1044.95 176.701 1041.27 176.952C1043.27 176.298 1098.39 168.559 1093.41 168.815C1097.78 168.173 1095.75 168.737 1103.66 167.829C1125.92 165.162 1160.4 161.64 1178.57 162.395C1157.4 163.287 1151 163.473 1135.08 164.782C1124.63 165.198 1061.9 173.674 1076.05 172.35C1073.78 172.608 1071.5 172.873 1069.2 173.145C1066.9 173.651 1064.6 174.165 1062.28 174.685C1068.92 173.694 1075.27 172.782 1081.86 171.879C1083.43 171.493 1084.99 171.111 1086.55 170.733C1087.29 170.748 1088.03 170.765 1088.77 170.782C1091.55 170.429 1094.3 170.088 1097.03 169.759C1096.24 169.719 1095.46 169.68 1094.67 169.642C1098.89 169.065 1103.01 168.52 1107.41 167.968C1106.27 168.294 1105.12 168.622 1103.97 168.952C1124.33 166.583 1117.04 167.343 1128.39 165.809C1136.77 164.984 1122.77 166.609 1140.3 165.143C1160.93 163.766 1147.18 163.824 1173.97 162.905C1174.35 162.989 1174.73 163.074 1175.11 163.159C1177.23 163.079 1179.33 163.014 1181.39 162.967C1185.21 162.883 1188.96 162.834 1192.62 162.819C1191.86 162.926 1191.09 163.035 1190.31 163.145C1202.18 163.119 1218.96 164.235 1222.98 164.132C1210.6 163.516 1210.93 162.861 1213.99 162.843C1217.49 162.961 1243.43 163.841 1270.22 169.991C1297.29 175.341 1322.75 190.668 1328.64 197.976C1345.75 214.947 1348.47 236.09 1342.19 256.704C1344.16 249.746 1347.46 232.524 1341.3 217.516C1335.58 202.355 1322.48 192.766 1318.45 190.125C1317.6 189.611 1317.65 190.324 1312.64 186.327C1295.2 176.156 1271.37 169.484 1246.24 166.111C1246.99 166.426 1247.74 166.743 1248.48 167.062C1264.01 168.744 1277.74 173.494 1275.92 172.174C1278.77 172.906 1282.02 173.824 1284.88 174.716C1284.84 174.85 1284.8 174.985 1284.76 175.119C1289.05 176.452 1293.63 178.071 1297.85 179.819C1297.91 179.689 1297.96 179.559 1298.01 179.429C1301.68 180.946 1305.01 182.491 1308.51 184.338C1308.79 184.649 1309.08 184.96 1309.35 185.272C1314.52 187.754 1325.08 194.941 1330.8 201.879C1336.55 208.727 1338.92 213.631 1334.75 206.243C1337.83 210.563 1340.3 215.389 1341.93 220.447C1341.83 220.462 1341.73 220.477 1341.62 220.492C1342.31 222.664 1342.86 224.871 1343.26 227.117C1343.21 226.363 1343.15 225.607 1343.07 224.85C1345.3 235.108 1344.59 245.35 1342.73 252.043C1343.66 247.551 1344.19 242.998 1344.22 238.455C1344.66 247.305 1339.42 262.818 1338.69 264.052C1337.07 268.171 1336.31 270.383 1334.14 274.673C1332.12 278.519 1332.22 277.898 1331.84 278.607C1326.06 288.675 1323.73 291.579 1322.64 293.344C1321.44 295.104 1321.14 295.451 1317.35 299.59C1316.75 300.615 1316.15 301.64 1315.54 302.667C1314.5 303.855 1313.46 305.029 1312.42 306.205C1308.2 311.783 1303.97 317.375 1299.74 322.959C1301.02 320.99 1302.29 319.025 1303.56 317.064C1297.15 325.373 1294.46 329.487 1293.86 330.298C1292.13 332.599 1291.16 333.517 1290.62 334.226C1264.72 368.284 1280.61 347.729 1268.32 365.23C1263.44 371.101 1267.86 364.765 1268.25 363.707C1262.22 371.873 1260.25 374.315 1253.76 382.85C1252.08 385.063 1250.41 387.55 1249.34 388.949C1248.42 390.159 1245.38 393.838 1243.17 396.734C1239.48 401.572 1234.65 408.084 1229.59 414.712C1225.39 420.218 1212.4 437.014 1203.42 448.776C1199.59 453.802 1200.61 452.729 1199.62 454.026C1199.21 454.566 1196.07 458.363 1193.61 461.586C1173.57 487.858 1153.14 514.86 1133.04 541.308C1118.89 559.931 1104.4 578.794 1090.29 597.511C1087.29 601.491 1088.99 599.469 1087.68 601.207C1087.24 601.801 1086.49 602.379 1081.92 608.6C1080.27 610.845 1082.34 608.389 1080.7 610.58C1079.9 611.65 1079.4 611.957 1074.66 618.172C1066.07 629.419 1061.72 635.7 1060.96 636.695C1059.51 638.599 1059.79 637.935 1057.88 640.463C1053.08 646.837 1048.66 652.712 1044.41 658.368C1040.34 663.802 1036.72 669.218 1033.38 675.015C1031.71 677.877 1025.43 689.136 1021.91 701.128C1018.13 713.015 1017.84 725.231 1017.92 726.412C1018.08 731.997 1018.2 726.818 1018.65 733.927C1018.74 735.908 1018.91 737.931 1019.17 739.921C1018.54 736.783 1018.13 733.624 1017.92 730.431C1018.31 739.211 1020.7 749.058 1023.32 755.029C1023.62 756.207 1028.82 766.14 1032.35 770.47C1030.96 768.495 1029.72 766.532 1028.51 764.408C1029 765.105 1029.51 765.802 1030.03 766.479C1036.1 775.973 1044.83 784.308 1054.22 790.773C1057.73 793.151 1056.56 792.209 1060.08 794.404C1081.3 805.987 1075.91 803.891 1098.19 810.384C1090.35 808.765 1064.29 797.098 1060.93 794.272C1058.45 792.994 1048.6 787.076 1052.57 788.732C1034.73 773.854 1049.08 788.145 1034.3 772.034C1034.67 772.308 1035.04 772.578 1035.42 772.846C1030.61 766.845 1027.93 761.931 1025.73 757.875C1024.74 756.637 1016.55 731.646 1019.7 717.355C1022.09 696.875 1032.92 675.992 1045 659.886C1045.17 659.649 1045.35 659.416 1045.52 659.187C1049.31 654.097 1051.33 651.061 1051.83 650.396C1052.59 649.377 1054.88 646.65 1056.39 644.634C1062.07 637.066 1079.06 613.927 1083.8 608.566C1071.06 625.46 1058.34 642.374 1045.68 659.308C1024.88 686.657 1010.4 724.725 1026.34 757.524C1024.79 754.274 1029.37 766.215 1038.93 776.291C1048.19 786.604 1061.36 794.246 1062.58 794.928C1064.93 796.277 1063.05 794.971 1063.75 795.364C1069 798.276 1073.33 800.584 1075.14 801.418C1076.55 802.053 1079.01 803.063 1083.83 804.966C1084.72 805.311 1084.91 805.533 1085.88 805.899C1091.96 808.203 1098.55 810.292 1104.76 811.977C1105.15 812.082 1106.82 812.328 1108.47 812.748C1110.12 813.171 1111.75 813.766 1112.18 813.868C1117.14 815.094 1126.54 816.836 1131.29 817.596C1133.01 817.881 1131.79 817.829 1133.72 818.141C1139.68 819.055 1137.92 818.531 1145.25 819.566C1147.7 819.89 1147.49 820.101 1152.28 820.595C1155.7 820.932 1155.38 820.501 1155.93 820.542C1156.84 820.65 1168.19 821.902 1172.18 821.839C1163.73 820.669 1181.54 822.33 1180.53 822.504C1185.09 822.622 1189.76 822.68 1194.53 822.677C1196.2 822.773 1197.69 822.859 1199.26 822.939C1217.95 822.656 1229.65 822.389 1247.85 821.115C1248.67 821.095 1264.47 819.681 1263.58 819.626C1254.35 820.268 1244.85 820.895 1239.13 821.53C1229.21 821.421 1229.02 822.014 1213.3 822.294C1207.9 822.355 1207.55 822.173 1206.93 822.179C1186.36 822.528 1153.33 820.238 1139.64 818.465C1137.69 818.117 1140.22 818.445 1142.62 818.721C1144.89 818.982 1146.96 819.197 1144.33 818.817C1142.85 818.633 1124.28 816.125 1109.48 812.298C1094.73 808.626 1083.24 804.138 1093.87 808.21C1091.61 807.45 1089.44 806.676 1087.27 805.855C1084.99 804.568 1074.46 800.168 1075.35 801.074C1074.35 800.499 1073.37 799.918 1072.41 799.332C1070.43 798.263 1068.27 797.132 1065.03 795.289C1059.21 792.04 1037.15 778.984 1027.13 757.687C1016.4 736.647 1021.25 713.681 1021.62 711.822C1021.76 711.746 1021.9 711.669 1022.04 711.593C1013.49 748.181 1038.03 784.46 1074.67 799.597C1073.55 799.202 1072.44 798.798 1071.35 798.387C1085.74 805.329 1101.1 809.963 1116.75 813.278C1100.28 809.705 1074.64 800.795 1059.89 791.155C1057.3 789.528 1059.1 790.876 1058.49 790.512C1056.95 789.528 1055.17 788.171 1050.03 784.084C1044.36 780.142 1033.29 767.386 1032.77 765.873C1031.02 763.434 1027.35 756.272 1025.68 751.524C1023.48 745.281 1024.76 749.527 1024.33 748.271C1022.63 743.017 1021.88 738.099 1021.46 733.807C1020.52 727.412 1021.49 714.002 1023.19 709.709C1022.25 714.23 1021.65 718.733 1021.45 723.352C1023.37 698.633 1032.32 680.017 1047.17 660.413C1047.21 660.361 1047.25 660.309 1047.29 660.257C1048.44 659.032 1048.17 659.599 1047.49 660.652C1045.99 662.983 1042.66 667.66 1047.79 660.872C1048.26 660.264 1048.8 659.563 1049.42 658.758C1048.89 659.47 1048.35 660.182 1047.82 660.893C1046.44 662.718 1045.12 664.546 1043.85 666.377C1043.33 666.902 1042.82 667.429 1042.31 667.958C1039.36 672.534 1036.73 677.102 1034.29 681.972C1034.89 680.562 1035.53 679.147 1036.19 677.729C1026.31 694.278 1022.13 713.354 1022.47 719.923C1022.28 720.299 1022.1 720.675 1021.92 721.054C1019.2 738.96 1030.93 763.515 1029.63 758.442C1029.96 759.186 1030.31 759.927 1030.68 760.665C1036.36 769.571 1033.76 765.828 1036.04 769.115C1036.3 770.479 1051.15 784.618 1044.78 778.171C1060.03 791.069 1055.4 787.327 1059.79 790.596C1070.71 797.661 1092.65 806.309 1083.62 802.17C1085.42 802.866 1087.37 803.581 1089.15 804.201C1094.8 806.769 1101.24 808.187 1107.85 809.724C1110.11 810.303 1112.56 810.893 1114.77 811.39C1116.22 811.894 1117.69 812.388 1119.19 812.874C1141.14 816.341 1133.81 816.922 1144.23 816.663C1142.77 816.367 1141.08 816.029 1139.53 815.699C1135.78 815.109 1132.13 814.47 1128.58 813.782C1143.22 816.358 1158.42 817.911 1173.37 818.712C1192.38 819.178 1203.44 819.806 1224.63 818.755C1226.61 818.732 1228.61 818.7 1230.62 818.658C1228.57 818.333 1220.74 818.76 1235.31 817.907C1236.53 817.567 1226.65 818.009 1222.32 818.345C1221.26 818.434 1230.26 818.357 1220.17 818.691C1213.28 818.839 1226.01 818.343 1204.98 818.733C1205.74 818.66 1206.51 818.586 1207.29 818.51C1205.02 818.53 1202.79 818.537 1200.57 818.531C1198.57 818.686 1196.74 818.832 1194.61 818.964C1189.33 818.627 1186.5 818.323 1174.82 817.809C1178.09 818.074 1173.58 818.204 1167.79 817.798C1167.8 817.681 1167.8 817.565 1167.81 817.448C1154.12 816.303 1158.47 817.029 1147.06 815.481C1145.91 815.434 1144.77 815.383 1143.63 815.327C1137.07 814.338 1114.4 809.589 1118.45 810.919C1112.27 809.113 1098.96 805.718 1093.95 804.389C1093.62 804.154 1093.29 803.92 1092.96 803.685C1090.45 802.801 1087.96 801.866 1085.39 800.831C1083.94 800.34 1082.52 799.837 1081.13 799.323C1079.42 798.521 1077.78 797.716 1076.01 796.812C1074.9 796.421 1073.8 796.022 1072.72 795.614C1070.05 794.13 1067.49 792.599 1064.87 790.901C1063.2 790.032 1061.58 789.143 1060.01 788.233C1059.71 788.13 1045.21 777.087 1042 773.034C1041.02 771.871 1040.12 770.718 1039.22 769.513C1038.66 769.007 1038.1 768.496 1037.56 767.978C1036.95 767.026 1036.36 766.07 1035.8 765.11C1034.29 763.109 1032.81 760.893 1031.52 758.702C1027.31 749.117 1027.36 748.779 1026.52 746.531C1024.75 742.38 1023.61 727.268 1024.07 724.756C1024.14 722.246 1024.04 720.981 1024.23 718.943C1026.34 702.15 1029.43 697.591 1029.85 696.05C1030.54 694.557 1030.02 696.286 1031.32 693.153C1032.76 689.791 1033.75 687.222 1035.22 684.359C1036.79 681.016 1043.56 669.53 1049.42 662.081C1052.5 658.015 1054.89 654.87 1055.24 654.394C1056.68 652.404 1052.49 656.503 1057.47 650.243C1058 650.334 1067.86 636.381 1063.61 643.17C1067.79 637.504 1071.95 631.865 1076.13 626.217C1076.1 627.204 1081.03 620.036 1086.72 612.542C1094.81 601.89 1113.28 578.099 1112.14 578.636C1114.18 576.166 1116.23 573.687 1118.27 571.216C1131.36 553.643 1144.52 536.645 1157.7 519.339C1196.81 467.976 1239.26 412.252 1278.11 361.056C1279.98 358.591 1279.55 358.83 1280.9 357.057C1287.96 347.749 1306.46 323.65 1316.32 310.58C1319.47 306.416 1320.88 304.24 1321.87 302.914C1325.26 298.398 1324.65 299.61 1326.21 297.539C1326.4 297.294 1326.64 296.968 1326.93 296.575C1330.97 291.774 1340.96 274.747 1343.25 267.869C1344.68 264.312 1346.37 260.062 1347.43 255.632C1347.52 255.252 1347.15 255.902 1347.23 255.581C1349.06 247.54 1348.11 252.398 1348.66 249.65C1352.78 230.09 1345.79 206.018 1328.75 192.014C1324.73 188.361 1317.92 183.901 1313.83 181.657C1312.33 180.835 1315.16 182.159 1309.87 179.351C1308.03 178.415 1307.2 178.226 1305.2 177.302C1296.08 173.266 1293.05 171.62 1284.91 169.598C1269.24 164.46 1241.22 160.174 1226.42 159.208C1222.99 158.937 1221.28 158.935 1217.9 158.724C1215.41 158.569 1211.42 158.176 1207.75 158.031C1204.11 157.883 1198.06 157.864 1191.16 157.795C1188.04 157.763 1184.54 157.738 1181.36 157.737C1177.27 157.732 1173.74 157.791 1172.76 157.818C1170.73 157.873 1169.78 158.122 1167.71 158.195C1161.5 158.357 1144.89 159.2 1137.29 159.89C1128.96 160.592 1123.49 161.286 1120.83 161.564C1118.22 161.837 1115.11 161.998 1113.89 162.135C1112 162.348 1111.58 162.612 1109.16 162.895C1105.19 163.36 1101.01 163.734 1095.27 164.476C989.501 178.776 887.43 201.629 785.937 221.723C774.585 223.998 768.215 225.113 751.519 228.457C744.754 229.808 747.651 229.469 742.377 230.454C740.026 230.892 740.586 230.605 737.616 231.173C724.491 233.687 709.212 236.759 703.521 237.826C701.264 238.251 698.647 238.542 694.022 239.403C659.511 245.839 618.632 253.13 581.316 258.854C561.586 261.92 531.564 266.092 508.844 268.775C452.986 275.466 392.659 280.079 339.918 277.002C333.223 276.613 326.837 276.027 320.749 275.279C232.892 267.409 163.564 203.711 121.08 129.248C142.139 163.668 175.071 208.64 212.073 233.842C248.425 259.925 293.423 273.987 339.949 276.48C427.497 280.911 517.213 268.524 603.608 254.793C649.676 247.335 707.678 236.518 757.876 226.507C760.155 226.054 764.908 225.274 769.825 224.285C770.866 224.077 783.779 221.232 788.159 220.354C784.113 221.666 801.153 217.818 806.42 216.772C813.115 215.448 827.069 212.898 842.659 209.619C856.839 206.638 852.87 207.243 853.655 207.072C858.647 205.99 860.449 205.942 864.277 205.205C880.037 202.109 960.755 185.959 983.411 181.938C989.301 180.852 989.418 180.636 990.739 180.393C994.233 179.755 999.211 179.05 1004.73 178.067C1015.02 176.23 1026.43 174.091 1032.01 173.159C1045.53 170.867 1070.6 167.127 1088.16 164.792C1093.07 164.132 1092.73 163.978 1094.93 163.69C1104.51 162.374 1130.42 159.693 1142.37 158.845C1155.35 157.813 1168.53 157.057 1181.36 156.953C1188.91 156.896 1195.65 156.965 1203.11 157.214C1204.42 157.164 1205.72 157.117 1207 157.076C1209.02 157.248 1211.02 157.431 1212.99 157.625C1247.27 159.562 1282.73 163.821 1313.95 180.826C1317.86 182.348 1333.96 194.743 1335.81 197.992C1337.63 200.11 1339.31 202.546 1341.57 206.098C1344.57 211.336 1342.52 205.943 1346.48 215.03C1347.37 217.512 1346.43 215.142 1347.98 220.224C1348.26 221.013 1350.65 229.795 1350.29 238.664C1350.14 247.541 1347.77 255.983 1347.55 256.833C1346.81 259.699 1346.34 262.298 1346.09 263.033C1344.81 266.788 1344.56 266.498 1343.54 268.947C1340.56 276.164 1335.55 284.959 1334.85 286.006C1332.87 289.179 1330.32 292.94 1327.31 296.859C1318.41 308.479 1307.17 323.087 1300.23 332.393C1298.96 334.096 1299.3 334.029 1299.08 334.331C1297.65 336.277 1296.54 337.317 1295.15 339.144C1287.66 348.942 1276.08 364.43 1268.59 374.334C1267.72 375.476 1265.8 377.793 1264.26 379.83C1255.56 391.36 1258.57 387.74 1258.07 388.402C1256.91 389.958 1254.67 392.541 1251.52 396.653C1243.41 407.222 1227.93 427.56 1219.28 438.925C1212.79 447.449 1213.09 447.463 1212.67 448.026C1211.77 449.223 1209.08 452.421 1204.79 458.008C1196.53 468.758 1197.62 467.651 1194.24 472.075C1193.95 472.448 1194.29 471.684 1190.53 476.589C1183.26 486.063 1167.14 507.518 1159.39 517.685C1156.41 521.598 1155.57 522.4 1152.52 526.404C1147.68 532.755 1136.94 547.22 1136.08 548.346C1135.84 548.662 1135.13 549.246 1133.72 551.113C1132.16 553.166 1130.71 555.25 1129.55 556.778C1122.94 565.484 1111.27 580.277 1115.03 576.561C1112.77 579.244 1110.51 581.914 1108.24 584.599C1094.45 602.886 1080.99 620.602 1067.34 638.71C1064.27 642.78 1061.82 646.291 1059.24 649.719C1057.8 651.639 1053.46 657.297 1049.66 662.264C1046.7 666.122 1044.34 669.609 1043.6 670.731C1039.69 674.942 1026.72 703.296 1026.92 707.323C1025.09 714.534 1024.83 721.769 1024.71 724.735C1024.62 727.126 1024.4 724.877 1024.44 729.482C1024.23 737.493 1028.36 750.377 1029.53 752.442C1030.03 753.328 1028.7 751.87 1033.3 760.3C1035.99 764.838 1037.84 766.839 1039.02 768.375C1039.51 768.791 1038.27 768.503 1045.66 775.998C1050.81 780.886 1053.65 782.567 1054.17 783.013C1055.05 783.672 1057.18 785.57 1061.06 788.055C1070.02 794.184 1088.66 801.828 1098.62 804.645C1100.61 805.23 1099.83 805.359 1107.55 807.439C1113.17 808.884 1112.31 808.428 1114.42 808.932C1117.63 809.666 1122.64 811.047 1130.16 812.358C1139.33 815.712 1210.67 818.792 1214.55 817.532C1217.15 817.438 1219.85 817.36 1221.09 817.216C1220.05 817.147 1219.01 817.075 1217.98 817C1206.95 817.591 1211.37 817.072 1208.45 817.093C1204.24 817.158 1188.4 817.033 1184.57 816.75C1183.23 816.665 1186.28 816.584 1179.11 816.176C1171.21 815.691 1167.64 815.788 1164.63 815.037C1153.56 814.769 1142.88 812.801 1155.77 814.056C1162.75 815.985 1233.55 816.379 1248 814.262C1259.94 813.48 1281.91 811.521 1296.01 809.667C1298.97 809.291 1303.47 808.704 1308.11 808.05C1316.81 806.824 1325.27 805.613 1324.67 805.51C1332.08 804.481 1324.24 805.813 1325.82 805.64C1329.26 805.247 1352.62 801.977 1357.12 801.432C1379.1 798.696 1406.73 795.64 1427.95 792.423C1426.95 792.48 1425.97 792.535 1425.01 792.587C1420.1 793.111 1398.03 796.164 1395.5 796.108C1427.82 792.018 1460.34 787.55 1492.89 783.065C1492.08 783.492 1532.74 777.842 1534.39 777.465C1533.68 777.415 1532.97 777.365 1532.27 777.314C1509.39 781.068 1511.38 780.039 1496.32 782.523C1490.17 783.378 1491.86 782.898 1488.78 783.276C1458.32 786.998 1488.2 783.868 1465.1 786.812C1472.16 785.49 1452.9 787.992 1444.31 789.1C1442.28 789.374 1416.7 792.87 1413.71 793.241C1396.61 795.481 1367.28 798.804 1350.27 801.217C1336.83 802.981 1329.47 803.715 1317.24 805.308C1309.73 806.29 1310.14 806.356 1307.93 806.698C1307.5 806.764 1306.98 806.841 1306.26 806.937C1297.03 808.175 1294.03 807.98 1288.39 809.406C1282.5 809.999 1275.95 810.605 1269.87 811.092C1269.88 811.208 1269.89 811.325 1269.9 811.441C1266.03 811.812 1262.32 812.143 1258.44 812.461C1257.26 812.441 1256.09 812.417 1254.92 812.391C1242.55 813.467 1247.77 813.345 1245.49 813.841C1242.85 814.036 1240.25 814.215 1237.66 814.379C1235.58 814.238 1233.44 814.091 1231.35 813.932C1219.55 814.495 1207.49 814.753 1195.97 814.634C1195.18 814.741 1194.39 814.847 1193.61 814.95C1193.59 814.833 1193.56 814.716 1193.54 814.599C1173.67 814.247 1153.49 812.795 1134 809.586C1128.75 808.794 1160.32 812.881 1162.81 812.72C1176.3 814.149 1211.85 814.511 1212.07 813.894C1220.47 814.202 1245.71 812.878 1253.61 811.789C1241.67 812.721 1229.57 813.383 1217.85 813.702C1218.23 813.553 1218.6 813.404 1218.97 813.254C1203.89 814.132 1202.22 814.135 1186.62 813.247C1186.6 813.434 1186.58 813.62 1186.56 813.807C1176.22 812.969 1157.39 812.552 1156.81 811.611C1151.01 811.109 1145.86 810.564 1140.03 809.792C1128.22 807.295 1146.06 812.076 1100.72 800.746C1097.6 799.785 1098.14 800.201 1093.63 798.645C1092.46 798.124 1084.76 795.673 1071.53 788.773C1069.53 787.692 1069.21 787.721 1067.12 786.53C1062.3 783.945 1053.81 777.004 1057.41 780.431C1040.85 766.892 1048.23 771.845 1043.84 767.157C1041.21 763.736 1041.46 764.592 1039.41 761.541C1037.4 757.487 1037.65 760.914 1031.48 743.978C1032.01 745.93 1032.65 747.869 1033.37 749.747C1032.91 748.835 1032.47 747.92 1032.05 746.973C1029.29 737.008 1029.67 737.864 1029.52 732.978C1028.69 725.453 1028.9 718.736 1031.46 708.317C1038.06 688.339 1034.13 698.449 1045.22 676.604C1047.45 673.189 1049.73 670.003 1052.22 666.76C1052.72 666.032 1053.1 665.472 1053.39 665.03C1055.39 662.018 1053.37 664.358 1058.76 657.068C1054.31 663.934 1067.34 646.202 1069.99 643.503C1070.13 643.119 1070.27 642.739 1070.41 642.358C1071.8 640.5 1073.2 638.639 1074.6 636.775C1074.68 636.826 1074.76 636.876 1074.84 636.927C1076.65 634.404 1078.47 631.863 1080.27 629.353C1081.75 627.547 1083.23 625.738 1084.71 623.927C1086.87 620.73 1089.01 617.562 1091.17 614.378C1092.61 612.446 1094.05 610.507 1095.5 608.574C1095.15 609.264 1094.8 609.962 1094.45 610.655C1096.29 608.145 1098.1 605.662 1099.94 603.159C1097.95 606.172 1099.52 604.528 1105.34 596.823C1110.13 590.48 1104.34 597.337 1114.83 583.809C1115.56 582.872 1117.11 581.377 1126.92 568.53C1138.69 553.111 1132.8 560.474 1134.88 557.714C1135.29 557.175 1139.02 552.547 1142.39 548.152C1144.3 545.654 1146.03 543.154 1146.28 542.823C1147.46 541.279 1147.97 540.943 1149.6 538.807C1153.74 533.381 1159.23 526.015 1163.29 520.694C1165.14 518.274 1166.96 516.066 1167.79 514.987C1169.06 513.312 1170.54 511.078 1171.83 509.384C1176.6 503.126 1184.31 493.986 1185.87 490.586C1191.06 485.026 1199.94 471.876 1199.64 473.104C1211.74 456.919 1244.94 414.434 1243.31 415.176C1250.83 406.515 1249.8 407.003 1252.71 403.202C1255.97 398.952 1254.4 401.241 1256.98 397.845C1263 389.922 1268.72 382.324 1274.72 374.44C1273.69 375.608 1272.65 376.78 1271.61 377.946C1277.9 369.638 1275.93 372.663 1282.41 364.252C1294.3 348.792 1289.15 355.198 1290.65 352.721C1290.42 353.511 1304.32 335.163 1305.69 333.29C1306.52 332.163 1302.51 336.815 1311.14 325.656C1310.77 326.339 1310.4 327.023 1310.02 327.707C1313.77 322.513 1324.47 308.748 1326.24 306.347C1326.76 305.641 1328.46 302.747 1330.82 299.496C1332.22 297.583 1333.78 295.507 1335.42 293.564C1335.81 292.789 1336.18 292.011 1336.56 291.231C1340.99 284.708 1344.93 277.771 1348.13 270.369C1348.43 269.095 1348.7 267.82 1348.95 266.547C1349.83 264.161 1350.64 261.695 1351.34 259.235C1351.06 260.922 1350.73 262.609 1350.35 264.293C1356.18 249.387 1355.45 228.32 1353.62 225.136C1353.08 221.567 1352.23 218.044 1351.06 214.577C1350.04 212.458 1348.88 210.347 1347.63 208.371C1339.32 194.053 1338.32 194.288 1330.4 186.615C1330.62 187.013 1330.86 187.43 1331.08 187.838C1325.25 182.214 1312.85 174.375 1302.55 170.244C1297.71 168.126 1288.96 165.462 1287.91 165.155C1286.79 164.683 1275.21 160.631 1273.74 161.163C1256.44 156.9 1248.58 156.549 1241.49 155.609C1236.98 155.079 1234.86 154.669 1229.53 154.176C1222.39 153.517 1214.39 153.165 1210.36 152.982C1207.94 152.868 1207.48 152.674 1205.79 152.606C1197.74 152.331 1202.21 152.624 1194 152.461C1193.28 152.449 1187.93 152.176 1181.33 152.219C1180.91 152.222 1180.48 152.226 1180.04 152.232C1176.32 152.249 1166.14 152.823 1165.19 152.885C1161.05 153.085 1164.47 152.332 1151.07 153.727C1151.45 153.608 1151.84 153.489 1152.22 153.37C1135.3 154.299 1133.21 155.072 1129.73 155.397C1129.31 155.438 1125.21 155.675 1122.75 155.955C1118.81 156.403 1117.21 156.806 1116.33 156.912C1113.34 157.263 1102.24 158.465 1095.66 159.547C1097.13 158.678 1072.65 161.79 1067.59 163.321C1063.31 163.817 1058.98 164.336 1054.61 164.878C1052.71 165.294 1050.85 165.705 1048.96 166.125C1047.78 166.195 1046.6 166.266 1045.42 166.338C1039.32 167.58 1032.97 168.892 1026.89 170.183C1026.45 169.996 1026.02 169.808 1025.59 169.621C1023.88 169.94 1022.17 170.263 1020.45 170.588C1019.14 171.021 1017.82 171.456 1016.51 171.891C1014.33 172.229 1012.15 172.57 1009.97 172.915C1009.4 172.865 1008.83 172.814 1008.27 172.764C996.477 174.692 1002.98 174.923 980.473 177.788C976.969 178.554 973.665 179.288 970.254 180.045C966.296 180.208 959.089 181.918 953.152 182.988C948.947 183.746 949.196 183.468 943.591 184.542C937.988 185.617 938.221 185.794 937.785 185.879C933.204 186.78 929.692 187.271 926.309 187.971C925.813 188.073 924.52 188.586 920.286 189.433C916.033 190.285 913.414 190.522 907.039 191.834C903.77 192.508 902.863 192.907 899.952 193.504C886.132 196.341 872.031 198.053 861.917 201.406C859.579 201.707 842.531 204.548 835.263 206.043C824.049 208.352 828.421 207.732 823.96 208.676C823.316 208.813 819.881 209.417 810.407 211.332C808.711 211.675 809.076 211.456 808.833 211.503C797.856 213.709 776.436 218.097 764.37 220.494C763.289 220.709 757.555 221.436 748.056 223.842C733.781 226.236 707.124 232.239 688.273 235.121C685.663 235.593 682.525 236.319 681.37 236.526C671.419 238.302 675.012 237.242 652.664 241.888C654.448 241.344 649.142 242.091 641.728 243.405C630.59 245.369 638.57 244.404 629.624 245.911C629.604 245.796 629.585 245.681 629.565 245.566C608.871 249.401 604.826 249.57 583.997 252.854C576.559 254.022 565.58 255.929 563.771 256.193C563.074 256.299 554.855 257.215 554.081 257.32C549.695 257.941 547.246 258.417 543.482 258.942C530.817 260.719 515.907 262.218 518.684 262.537C515.271 262.827 511.738 263.122 508.252 263.4C495.2 265.687 485.537 265.711 482.761 266.696C480.391 266.8 478.029 266.898 475.676 266.99C430.569 271.494 384.847 274.231 340.229 271.778C329.313 271.149 319.236 270.05 308.654 268.266C306.607 267.986 283.227 262.717 282.294 262.187C276.82 260.713 282.3 263.003 271.462 259.365C270.34 258.761 269.231 258.151 268.133 257.534C254.748 252.451 261.11 255.02 255.832 253.037C253.687 252.088 254.439 252.245 251.567 250.949C235.472 244.403 205.705 224.755 192.11 211.362C189.292 208.764 189.622 209.259 188.754 208.445C186.391 206.216 181.87 201.528 177.388 196.724C148.81 167.435 119.328 116.365 97.8386 79.4712C96.3592 76.9823 96.0196 76.7719 95.0218 75.1089C93.6636 72.837 90.5856 67.4368 89.0921 65.0474C87.6814 62.7802 86.6483 61.3794 85.065 58.9008C77.9705 47.754 67.8994 32.6126 57.4704 22.006C56.7132 20.9002 44.9008 10.6728 44.3955 10.6388C42.4736 9.69397 53.5058 18.2483 34.7444 4.957C43.3141 10.9434 45.3207 13.6444 43.478 12.2763C41.4912 11.1051 35.3308 5.55168 23.0298 0.0717959C35.3061 5.62541 45.6223 14.3795 54.2707 23.7949C54.227 23.8609 54.1833 23.927 54.1396 23.993C45.7934 15.9211 37.2174 7.21453 20.2573 2.54258e-05C20.7609 0.280467 21.2591 0.566083 21.753 0.857136C36.7046 7.41897 50.4949 21.1046 57.6187 30.4163C46.2143 17.5432 32.3031 5.75473 15.3429 0.530402C16.159 0.861003 16.9664 1.20666 17.7652 1.56688C25.8955 4.15948 40.8022 14.7883 45.487 19.9357C54.5402 29.304 50.4631 25.2035 44.7413 19.8256C38.8564 14.2479 30.2547 8.71909 33.5032 11.0974C56.1791 27.1706 70.9875 51.2617 85.1606 74.3108C85.128 74.8814 72.4248 52.1154 55.3725 32.2528C38.9596 11.3945 13.5711 1.87941 14.0103 3.02257C22.0994 5.69186 29.5367 9.94919 36.2863 15.2196C33.1576 13.0322 29.9096 11.0549 26.5789 9.35785C27.4674 9.93103 28.2966 10.4944 29.142 11.0907C41.1239 18.7874 50.8912 29.5294 59.5226 40.9421C33.0513 5.54007 9.46114 2.42978 -5.23795e-06 2.77114C1.15349 2.92099 2.29091 3.10069 3.413 3.30944C7.87319 3.42295 21.0678 6.27813 33.1368 15.3489C45.3853 24.1541 56.0269 37.5532 62.8532 47.1799C59.9715 43.1569 46.9357 27.2083 43.4154 24.5725C42.5148 23.7572 45.4212 26.8425 43.3439 24.9419C40.675 22.4476 33.2356 15.9757 26.1925 12.1038C19.1268 8.0551 12.8134 6.39226 14.8705 7.21099C16.1754 7.66646 28.3806 12.5793 38.806 22.2756C49.4176 31.6823 58.3944 44.1057 61.3979 48.2258C47.4837 29.4921 30.1356 11.3135 8.29188 6.53461C21.4477 10.7597 32.5908 16.9889 49.8954 36.9685C52.3273 40.2594 44.7992 30.6092 34.8766 22.5536C25.0876 14.1426 12.4148 9.75718 11.808 9.79881C20.2486 12.7089 28.0388 17.6902 34.9838 23.8392C29.0712 18.7409 22.5058 14.4269 15.5529 11.5744C15.5103 11.6204 15.4678 11.6664 15.4253 11.7124C33.393 19.4744 46.3826 34.4698 60.4861 54.4133C59.86 53.9444 51.284 42.028 46.5776 36.89ZM1360.35 799.215C1360.88 798.887 1351.6 800.107 1346.4 800.792C1347.17 800.645 1347.92 800.5 1348.66 800.356C1337.71 801.813 1316.89 804.722 1316.06 804.335C1308.24 805.334 1311.71 805.301 1309.12 805.704C1308.94 805.731 1308.49 805.788 1307.81 805.872C1304.56 806.281 1296.16 807.254 1289.46 808.293C1287.53 808.519 1285.61 808.738 1283.7 808.949C1283.32 808.828 1282.94 808.706 1282.52 808.587C1279.75 809.092 1277 809.582 1274.27 810.057C1285.86 808.895 1296.28 807.656 1307.85 806.096C1325.55 803.702 1342.84 801.405 1360.3 799.22C1360.32 799.218 1360.33 799.217 1360.35 799.215ZM1080.12 793.516C1070.67 789.683 1058.34 781.537 1061.07 782.775C1066.07 786.201 1071.54 789.297 1077.16 791.998C1078.13 792.51 1079.13 793.021 1080.12 793.516ZM1028.15 170.393C1019.7 172.27 1011.4 173.313 998.087 175.784C998.088 175.69 998.089 175.595 998.09 175.5C1003.4 174.765 1018.31 171.979 1028.15 170.393ZM1619.37 765.789C1621.4 765.467 1623.23 765.175 1625.08 764.878C1617.44 765.452 1615.62 766.064 1606.87 767.248C1606.34 767.32 1606.51 767.181 1606.33 767.206C1604.18 767.501 1602.24 767.914 1600.34 768.179C1596.76 768.679 1593.53 768.992 1586.75 769.952C1581.55 770.687 1581.57 770.906 1579.77 771.154C1578.44 771.335 1562.65 772.943 1553.13 774.538C1534.47 777.661 1613.33 766.701 1619.37 765.789ZM1674.7 757.546C1672.8 757.812 1670.92 758.077 1669.05 758.34C1674.74 757.874 1663.28 759.446 1655.29 760.57C1655.51 760.865 1672.75 758.284 1681 757.212C1678.88 757.326 1676.78 757.437 1674.7 757.546ZM1440.74 790.89C1448 789.946 1446.65 789.719 1446.36 789.637C1444.11 789.941 1441.88 790.241 1439.46 790.566C1439.88 790.674 1440.31 790.782 1440.74 790.89ZM1495.31 783.577C1492.81 783.646 1477.25 785.67 1469.7 786.679C1469.4 786.721 1471.36 786.604 1466.29 787.283C1464.45 787.533 1449.15 789.059 1452.53 789.226C1466.73 787.371 1480.74 785.518 1495.29 783.579C1495.3 783.579 1495.3 783.578 1495.31 783.577ZM1511.21 781.21C1508.09 781.557 1505.04 781.892 1502.08 782.216C1500.57 782.555 1499.08 782.89 1497.62 783.223C1500.89 782.803 1504.26 782.369 1507.74 781.92C1508.88 781.685 1510.04 781.448 1511.21 781.21ZM277.403 264.214C278.1 264.282 278.798 264.348 279.498 264.41C282.072 265.179 294.143 268.821 290.238 267.96C285.884 266.817 281.792 265.625 277.403 264.214ZM228.073 242.827C225.748 241.527 223.459 240.193 221.205 238.826C218.808 237.007 216.336 235.063 213.987 233.127C224.876 240.705 237.452 247.149 235.091 246.66C237.725 248.098 240.407 249.492 243.139 250.841C240.992 249.426 241.262 249.58 248.596 252.825C249.958 253.891 257.461 257.126 266.332 260.398C259.887 258.1 253.511 255.492 247.379 252.647C247.35 252.71 247.32 252.774 247.29 252.837C261.167 258.994 243.527 251.946 235.059 246.804C234.331 246.513 233.626 246.23 232.882 245.921C231.257 244.905 229.655 243.874 228.073 242.827ZM1336.62 197.065C1335.18 195.525 1333.6 193.99 1332.09 192.639C1326.58 186.569 1339.09 197.647 1345.18 208.402C1343.96 206.795 1345.7 209.937 1347.26 213.917C1348.86 217.84 1350.03 222.591 1350.11 223.11C1349.45 221.086 1348.69 219.125 1347.82 217.189C1345.46 209.822 1341.54 202.965 1336.62 197.065ZM1286.86 168.573C1293.74 169.84 1260.87 160.829 1249.61 160.035C1246.88 159.655 1241.87 159.275 1240.02 159.038C1238.86 158.81 1237.69 158.588 1236.51 158.369C1235 158.398 1213.06 156.3 1204.59 156.005C1203.76 156.094 1202.93 156.185 1202.1 156.278C1198.82 156.138 1195.83 156.033 1192.71 155.949C1193.1 156.07 1193.49 156.191 1193.88 156.313C1191.54 156.14 1189.17 155.981 1186.76 155.837C1183.67 155.78 1182.17 155.827 1181.35 155.892C1179.76 156.034 1180.82 156.251 1176.18 156.195C1168.45 156.14 1181.1 155.497 1180.81 155.29C1180.98 155.291 1181.16 155.291 1181.35 155.292C1188.23 155.276 1201.68 155.619 1208.07 155.923C1211.83 156.127 1207.29 155.299 1223.48 156.857C1226.96 156.993 1230.33 157.16 1233.96 157.399C1240.36 158.22 1246.74 159.198 1253.06 160.373C1254.25 160.394 1255.44 160.421 1256.62 160.453C1257.52 160.477 1271.86 163.719 1271.19 163.789C1277.21 164.837 1289.42 167.756 1301.79 172.963C1302.97 173.554 1304.12 174.154 1305.24 174.762C1293.28 169.438 1301.36 173.197 1297.77 171.906C1295.81 171.205 1289.09 169.071 1286.86 168.573ZM361.093 276.212C343.98 275.407 349.621 275.704 340.019 275.294C337.84 275.181 334.924 275.007 330.948 274.659C332.509 274.585 334.078 274.499 335.655 274.402C337.017 274.549 338.499 274.684 340.048 274.805C350.447 275.667 364.256 275.775 361.115 276.212C361.108 276.212 361.1 276.212 361.093 276.212ZM170.107 193.416C177.883 202.094 173.525 198.129 183.904 208.656C183.909 208.661 183.914 208.666 183.919 208.671C178.412 203.352 173.185 197.856 168.095 192.094C168.764 192.537 169.435 192.978 170.107 193.416ZM830.653 210.381C841.775 208.051 839.68 208.639 849.781 206.275C864.985 203.623 852.173 206.141 852.243 206.495C848.763 207.086 845.275 207.68 841.782 208.275C833.422 210.3 841.448 208.859 841.453 208.89C841.446 208.892 841.439 208.893 841.432 208.895C841.454 209.001 841.732 208.968 838.512 209.682C835.875 209.919 833.276 210.148 830.653 210.381ZM878.713 201.183C874.814 201.72 873.034 201.761 883.107 199.591C883.114 199.589 883.121 199.588 883.128 199.587C884.065 199.944 893.56 197.609 898.045 196.756C899.223 196.581 900.4 196.407 901.576 196.233C893.845 197.898 886.368 199.52 878.713 201.183ZM1048.41 170.114C1048.36 169.525 1039.87 170.824 1051.72 168.383C1054 168.033 1056.38 167.671 1058.77 167.314C1060.34 167.201 1061.92 167.092 1063.49 166.985C1093.01 161.635 1102.02 161.967 1051.79 168.868C1051.79 168.869 1051.78 168.87 1051.77 168.87C1050.66 169.283 1049.54 169.698 1048.41 170.114ZM996.289 178.979C995.861 178.741 995.433 178.504 995.004 178.266C988.69 180.169 979.891 181.049 967.391 183.936C966.221 184.06 965.05 184.185 963.877 184.311C959.035 185.384 912.281 194.541 922.325 192.107C926.732 191.028 936.483 189.42 937.299 189.256C940.106 188.689 943.715 187.719 948.425 186.831C951.091 186.328 957.088 185.499 962.682 184.441C975.153 182.071 997.86 177.02 1014.66 174.915C1015.84 174.614 1017.02 174.315 1018.19 174.017C1030.45 171.971 1026.26 172.981 1037.8 170.702C1045.88 170.754 991.741 178.541 1003.2 177.791C1003.19 177.792 1003.18 177.793 1003.17 177.794C1000.89 178.185 998.593 178.58 996.289 178.979ZM660.19 243.818C659.501 244.217 645.218 246.336 648.668 246.367C643.996 246.968 639.333 247.559 634.679 248.139C634.705 248.074 634.73 248.01 634.755 247.946C639.351 247.199 643.955 246.442 648.567 245.675C648.569 245.579 648.57 245.484 648.572 245.389C655.534 244.532 684.03 239.187 683.12 239.001C684.674 238.856 686.229 238.71 687.784 238.564C701.361 235.654 713.204 233.822 728 230.594C729.174 230.486 730.347 230.377 731.521 230.269C732.253 230.032 732.986 229.795 733.718 229.558C739.132 228.498 744.541 227.433 749.955 226.362C767.683 223.274 733.48 230.468 729.311 231.197C728.757 231.296 728.797 231.042 725.337 231.669C719.188 232.808 684.902 239.53 674.215 241.287C674.153 241.461 674.09 241.636 674.027 241.81C669.409 242.488 664.796 243.158 660.19 243.818ZM1114.84 160.259C1115.61 160.009 1116.37 159.76 1117.14 159.511C1130.66 158.191 1139.48 157.369 1135.97 158.202C1135.96 158.202 1135.96 158.203 1135.95 158.204C1128.95 158.797 1121.69 159.514 1114.84 160.259ZM1126.95 810.202C1126.51 810.44 1120.14 809.435 1112.27 807.264C1112.69 807.269 1113.11 807.273 1113.52 807.276C1117.49 808.476 1123.06 809.402 1135.92 811.525C1135.89 811.686 1135.87 811.848 1135.84 812.009C1132.81 811.439 1130.02 810.869 1126.95 810.202ZM1103.01 161.726C1098.87 162.416 1087.35 163.35 1094.91 162.328C1100.63 161.561 1105.26 161.347 1103.01 161.726ZM141.625 157.357C143.384 159.843 145.155 162.297 146.948 164.726C147.756 166.084 148.572 167.44 149.398 168.794C149.394 168.788 149.389 168.782 149.385 168.777C146.732 165.004 144.173 161.231 141.625 157.357ZM792.362 218.029C802.596 216.008 812.845 213.973 823.1 211.934C823.22 212.002 823.34 212.07 823.46 212.139C813.139 213.875 809.045 215.058 806.669 215.557C806.679 215.554 806.69 215.552 806.7 215.55C799.057 217.155 791.752 218.668 784.494 220.223C787.119 219.492 789.742 218.761 792.362 218.029ZM757.358 225.549C758.959 224.58 761.211 224.07 777.012 221.398C776.406 221.598 775.799 221.799 775.192 221.999C767.041 223.567 762.252 224.358 763.749 224.404C761.62 224.786 759.489 225.168 757.358 225.549ZM917.746 193.326C915.924 193.889 900.869 196.657 901.653 196.399C901.998 196.284 921.353 192.206 917.746 193.326ZM1241.07 815.378C1237.73 815.623 1234.09 815.861 1230.57 816.063C1235.32 815.922 1239.94 815.738 1244.5 815.516C1243.35 815.473 1242.21 815.427 1241.07 815.378ZM1279.41 813.085C1281.86 812.728 1273.89 813.058 1288.55 811.256C1277.88 812.487 1266.92 813.564 1256.18 814.399C1261.48 814.072 1266.19 813.747 1271.33 813.342C1270.46 813.593 1269.6 813.842 1268.73 814.089C1272.25 813.78 1275.81 813.446 1279.41 813.085ZM1290.9 811.366C1287.2 812.087 1298.67 810.876 1308.32 809.571C1313.67 808.857 1317.73 808.299 1318.78 808.139C1319.46 808.034 1322.52 807.286 1323.6 807.069C1318.82 807.711 1314.46 808.302 1309.63 808.96C1311.23 808.637 1312.79 808.319 1314.31 808.007C1312.34 808.261 1310.31 808.525 1308.21 808.798C1304.7 809.255 1301.22 809.688 1297.78 810.099C1300.12 809.911 1302.46 809.712 1304.83 809.503C1300.12 810.165 1295.48 810.786 1290.9 811.366ZM1167.93 815.801C1171.73 816.055 1175.86 816.274 1179.6 816.426C1178.83 816.556 1178.09 816.685 1177.31 816.811C1174.92 816.695 1172.56 816.562 1170.24 816.413C1169.46 816.211 1168.69 816.007 1167.93 815.801ZM1246.9 815.604C1241.26 815.212 1226.14 817.743 1243.89 816.097C1245.68 815.919 1247.44 815.644 1246.9 815.604ZM1330.35 806.487C1342.45 805.458 1339.48 804.571 1328.21 806.45C1327.61 806.549 1329.44 806.567 1330.35 806.487ZM1420.71 794.961C1421.77 794.817 1423.21 794.218 1432.82 793.332C1434.3 793.087 1435.76 792.844 1437.29 792.592C1433.7 792.9 1402.97 796.812 1407.21 796.658C1411.89 796.061 1415.95 795.601 1420.71 794.961ZM1391.15 800.291C1386.44 800.869 1381.92 801.418 1377.25 801.984C1378.75 801.668 1380.29 801.348 1381.78 801.035C1379.51 801.28 1377.21 801.53 1374.94 801.775C1371.09 802.475 1367.16 803.187 1363.36 803.888C1373.37 802.664 1383.54 801.463 1393.51 800.244C1392.71 800.261 1391.93 800.277 1391.15 800.291ZM1267.96 815.99C1276.86 814.995 1287.75 814.037 1302.23 812.128C1302.24 812.127 1302.24 812.126 1302.25 812.124C1302.98 812.027 1304.25 811.685 1306.61 811.359C1306.84 811.329 1307.51 811.241 1308.53 811.105C1316.7 809.994 1347.46 806.031 1344.72 806.139C1329.4 807.877 1324.13 809.017 1320.26 808.865C1319.53 809.104 1318.71 809.357 1318.05 809.588C1314.44 810.141 1311.29 810.584 1308.51 810.945C1300.89 811.928 1297.02 812.109 1291.04 812.694C1291.08 812.795 1291.13 812.896 1291.17 812.997C1285.85 813.641 1280.36 814.259 1274.84 814.828C1275.6 814.681 1276.37 814.532 1277.14 814.383C1275.19 814.585 1273.25 814.78 1271.32 814.967C1266.66 815.735 1260.82 816.322 1267.96 815.99ZM1412.04 797.45C1416.45 797.716 1457.88 791.624 1477.05 789.136C1467.06 790.022 1451.45 792.485 1440.68 793.936C1419.61 796.763 1434.14 794.522 1430.54 794.872C1428.66 795.06 1417.08 797.11 1412.04 797.45ZM1235.45 818.216C1245.88 817.597 1251.76 817.355 1261 816.293C1260.26 816.297 1259.49 816.302 1258.69 816.309C1255.3 816.752 1230.28 818.415 1235.45 818.216ZM1504.83 785.092C1485.07 788.117 1494.32 786.104 1484.06 788.068C1490.94 787.156 1497.99 786.217 1504.86 785.299C1504.85 785.23 1504.84 785.161 1504.83 785.092ZM1080.07 167.811C1071.63 169.019 1062.12 170.61 1056.85 171.128C1062.75 170.162 1068.57 169.237 1074.31 168.357C1076.24 168.17 1078.08 168 1080.07 167.811ZM1320.81 190.88C1319.14 189.616 1312.83 185.384 1312.01 184.997C1310.73 184.266 1311.02 184.559 1310.99 184.572C1302.22 179.925 1310.51 183.806 1303.92 180.495C1302.95 179.755 1286.63 173.519 1279.75 171.892C1269.38 168.965 1258.64 167.099 1254.56 166.433C1248 165.302 1235.2 163.41 1224.05 162.602C1219.48 162.262 1217.7 162.348 1213.05 162.098C1204.58 161.654 1193.62 161.319 1181.38 161.369C1151.98 161.4 1116.69 165.307 1097.85 167.833C1091.44 168.685 1085.2 169.804 1081.69 170.278C1078.84 170.583 1076.28 170.856 1073.56 171.158C1065.45 173.205 1062.41 172.906 1053.41 174.236C1047.79 175.073 1045.16 175.759 1044.4 175.881C1039.33 176.7 1036.78 177.002 1032.74 177.658C1028.23 178.39 1021.97 179.577 1020.35 179.837C1019.35 180.006 1022.53 179.078 1005.04 182.178C987.582 185.292 970.176 188.572 952.155 192.037C958.002 189.896 963.303 189.587 970.585 188.258C972.537 187.902 971.271 187.977 972.968 187.666C977.679 186.802 987.108 185.22 991.076 184.461C995.38 183.637 993.849 183.538 999.308 182.692C999.584 182.65 998.744 182.956 1000.02 182.752C1012.93 180.706 1017.3 179.651 1033.56 176.906C1044.51 174.734 1110.39 165.468 1113.01 165.48C1124.78 163.249 1054.86 172.51 1046.82 174.274C1043.98 174.746 1046.98 174.432 1044.4 174.882C1043.4 175.056 1033.09 176.41 1023.57 178.018C1011.75 179.986 988.189 184.453 976.857 186.573C880.559 204.514 785.99 225.157 689.745 243.029C687.688 243.41 684.942 243.727 678.248 244.956C568.339 264.452 453.304 284.947 339.75 279.813C324.221 278.902 309.325 276.921 294.559 273.64C267.317 267.604 241.422 256.887 217.879 241.698C215.038 239.681 212.209 237.576 209.475 235.441C216.6 240.903 230.743 248.887 232.141 249.53C232.608 249.778 235.417 251.552 240.294 253.987C247.221 257.41 250.321 258.512 250.889 258.781C252.66 259.549 251.438 259.182 253.14 259.908C266.018 265.302 276.308 268.618 288.479 271.689C302.729 275.119 309.597 275.85 320.172 277.543C321.337 277.569 322.507 277.589 323.682 277.603C326.001 278.013 331.863 278.757 339.782 279.283C357.05 280.572 384.316 280.52 397.185 280.048C403.18 279.863 402.133 279.68 404.159 279.612C405.409 279.545 405.119 279.925 420.584 279.093C428.455 278.639 430.555 278.293 434.559 278.04C436.727 277.898 436.356 278.119 439.412 277.905C457.185 276.63 471.66 275.222 489.212 273.3C494.052 272.764 494.095 272.59 495.181 272.472C499.184 272.029 506.216 271.51 516.536 270.225C533.23 268.217 566.889 263.405 580.525 261.108C582.532 260.778 584.169 260.327 585.651 260.098C587.895 259.752 588.808 259.812 589.203 259.751C596.723 258.564 592.168 259.097 597.219 258.335C599.954 257.92 602.806 257.697 609.078 256.692C617.373 255.356 615.701 255.351 619.175 254.798C619.543 254.74 619.683 254.912 623.101 254.341C636.069 252.18 654.781 248.933 666.986 246.716C670.488 246.082 673.07 245.482 677.96 244.584C687.852 242.846 743.768 232.241 748.328 231.221C748.811 231.118 743.785 231.815 751.71 230.274C754.035 229.938 756.359 229.601 758.682 229.264C762.494 228.324 766.303 227.382 770.109 226.438C770.086 227.108 792.743 222.707 792.385 222.099C794.855 221.579 797.323 221.059 799.789 220.539C805.024 219.958 808.404 219.11 818.446 217.368C819.972 216.919 821.498 216.469 823.022 216.02C823.431 216.033 823.84 216.046 824.249 216.059C829.47 214.494 838.232 213.251 839.309 213.037C843.402 212.225 846.442 211.483 848.355 211.102C855.509 209.677 870.911 206.763 879.282 205.006C879.672 204.924 879.245 204.788 881.611 204.288C885.873 203.387 886.354 203.614 891.953 202.118C893.117 201.981 894.278 201.845 895.439 201.71C896.65 201.42 897.881 201.126 899.1 200.834C906.366 199.416 913.585 198.014 920.753 196.632C914.189 197.549 921.535 195.893 928.843 194.76C931.294 194.381 929.179 195.021 929.996 194.896C931.163 194.695 963.48 188.362 965.65 187.832C967.198 187.611 968.742 187.392 970.283 187.175C971.03 186.891 971.776 186.609 972.521 186.326C973.372 186.217 974.221 186.109 975.069 186C983.531 184.151 1005.42 180.77 1009.5 180.023C1011.64 179.626 1009.65 179.354 1019.87 177.644C1020.25 177.745 1020.63 177.846 1021.01 177.948C1023.34 177.57 1025.66 177.198 1027.97 176.83C1032.26 176.086 1038.79 174.716 1038.93 174.497C1040.33 174.385 1041.73 174.275 1043.12 174.167C1046.66 173.182 1066.52 170.199 1074.37 169.335C1076.66 168.886 1078.84 168.458 1081.25 168.004C1084.45 167.695 1087.62 167.401 1090.75 167.122C1097.97 166.208 1090.33 166.985 1091.86 166.763C1095.04 166.267 1111.79 164.609 1110.65 164.275C1112.94 164.007 1115.21 163.748 1117.45 163.5C1118.63 163.512 1119.79 163.526 1120.95 163.543C1124.61 162.684 1131.86 162.032 1145.45 160.806C1146.66 160.825 1147.86 160.849 1149.06 160.876C1153.42 160.411 1157.7 159.997 1161.88 159.636C1162.75 159.777 1163.61 159.921 1164.55 160.064C1166.49 160.006 1168.41 159.959 1170.31 159.925C1173.25 159.512 1177.91 159.597 1181.37 159.608C1182.51 159.61 1183.54 159.6 1184.38 159.559C1188.41 159.37 1186.9 159.128 1181.37 159.04C1179.92 159.017 1178.17 159.012 1176.14 159.039C1176.32 158.957 1178.39 158.864 1181.37 158.816C1190.3 158.614 1206.71 159.107 1211.43 159.406C1211.01 159.444 1210.59 159.484 1210.16 159.523C1203.62 159.184 1196.78 158.971 1190.29 158.874C1184.73 159.576 1202.72 159.505 1210.95 160.069C1211.62 160.12 1216.01 160.557 1224.3 161.147C1227.3 161.304 1240.24 162.176 1242.41 162.481C1261.9 165.057 1247.44 163.283 1266.34 166.276C1262.37 165.916 1273.22 167.523 1284.21 170.925C1286.02 171.259 1301.5 177.284 1302.46 177.982C1308.68 180.948 1302.02 177.228 1311.06 181.969C1312.08 182.635 1313 183.26 1314.06 183.987C1316.14 185.217 1318.12 186.483 1320 187.784C1332.19 195.649 1333.5 199.414 1336.65 203.376C1337.83 205.096 1336.56 202.728 1339.47 207.25C1340.52 209.043 1341.62 210.971 1343.71 216.059C1349.18 232.152 1349.28 238.849 1345.55 253.867C1345.11 256.216 1344.56 258.547 1343.93 260.852C1343.29 262.347 1342.62 263.815 1341.92 265.257C1337.58 276.735 1338.76 272.443 1336.86 276.413C1334.23 281.569 1329.63 289.058 1325.04 295.152C1320.49 301.269 1316.6 306.566 1316.12 307.475C1309.52 314.914 1303.03 324.884 1300.62 327.998C1299.14 329.791 1297.67 331.579 1296.18 333.374C1294.61 335.605 1293.02 337.849 1291.44 340.08C1291.65 338.562 1283.66 350.278 1282.84 351.37C1281.91 352.612 1268.53 369.812 1263.62 376.26C1258.72 382.703 1250.33 394.037 1249.57 395.032C1248.71 396.166 1240.18 407.002 1233.65 415.563C1227.94 423.059 1194.29 467.631 1196.16 464.633C1198.3 461.671 1201.39 457.487 1204.08 453.889C1212.44 442.706 1262.01 377.471 1274.64 360.787C1291.04 339.146 1307.92 316.924 1324.62 294.837C1333.82 282.635 1341.27 268.929 1344.89 254.204C1345.47 251.758 1345.35 251.344 1345.74 249.217C1346.43 246.039 1347.25 237.691 1346.96 234.45C1346.86 222.133 1339.97 208.427 1335.78 203.51C1326.79 192.071 1317.94 186.851 1308.42 181.772C1305.47 179.986 1289.69 173.004 1278.14 170.309C1276.14 169.831 1274.08 169.372 1271.98 168.933C1277.7 170.184 1293.16 174.998 1299.78 178.052C1309.78 182.353 1314.83 185.478 1318.17 187.666C1321.27 189.248 1334.53 200.722 1338.25 207.941C1339.55 210.065 1339.96 210.411 1340.92 212.275C1346.52 222.495 1347.69 238.17 1345.61 247.83C1345.92 245.832 1345.34 251.116 1343.72 256.88C1342.19 262.637 1339.56 268.775 1339.29 269.361C1338.37 271.424 1337.19 273.599 1335.01 277.659C1330.62 285.352 1331.62 284.711 1324.85 293.504C1324.62 293.835 1324.4 294.166 1324.17 294.496C1322.85 296.405 1321.52 298.318 1320.19 300.236C1319.66 300.07 1299.38 327.983 1292.93 335.389C1292.72 335.553 1319.66 299.74 1321.88 296.766C1322.51 295.935 1323.15 295.086 1323.8 294.221C1337.54 277.137 1350.26 246.646 1344.95 225.95C1344.36 222.75 1342.38 216.248 1339.3 210.963C1336.3 205.605 1332.58 201.547 1332.1 200.986C1330.46 199.129 1332.09 200.677 1331.37 199.873C1323.82 191.881 1321.09 190.828 1320.82 190.562C1320.47 190.411 1322.02 191.713 1320.81 190.88ZM1291.18 813.876C1284.77 814.661 1277.92 815.428 1271.31 816.089C1271.81 816.159 1272.3 816.229 1272.79 816.298C1275.83 815.952 1278.9 815.588 1282 815.205C1284.45 815.007 1286.61 814.834 1288.94 814.633C1289.69 814.382 1290.43 814.13 1291.18 813.876ZM1307.64 812.276C1308 812.23 1308.35 812.185 1308.67 812.143C1313.66 811.484 1313.85 811.239 1315.1 811.058C1318.8 810.519 1322.61 810.104 1326.25 809.612C1322.12 809.613 1313.82 810.937 1308.66 812.047C1308.3 812.125 1307.96 812.201 1307.64 812.276ZM1188.69 820.107C1190.04 820.115 1198.7 819.701 1208.54 820.178C1216.16 819.912 1223.19 819.523 1230.68 819.005C1218.25 819.907 1200.71 819.721 1194.75 819.595C1192.36 819.563 1191.9 819.747 1190.02 819.709C1179.32 819.504 1168.88 818.36 1167.75 818.917C1178.1 819.453 1186.94 820.094 1188.69 820.107ZM1253.53 818.033C1255.26 817.768 1257 817.497 1258.75 817.219C1252.39 817.74 1246.18 818.174 1240.11 818.524C1241.76 818.565 1243.42 818.6 1245.09 818.628C1247.88 818.447 1250.69 818.249 1253.53 818.033ZM1123.67 559.693C1121.35 562.759 1119.03 565.821 1116.72 568.878C1116.76 568.652 1119.42 565.154 1120.34 563.824C1120.34 563.829 1120.33 563.835 1120.33 563.841C1121.36 562.359 1120.79 562.898 1122.73 560.25C1123.04 560.064 1123.36 559.879 1123.67 559.693ZM205.511 233.059C199.156 230.573 157.611 188.433 161.987 191.27C163.65 193.187 177.18 208.19 181.623 212.189C187.209 217.964 204.22 231.413 205.511 233.059ZM135.004 156.209C134.475 155.367 156.281 185.186 158.931 187.741C158.4 187.18 157.559 186.336 156.892 185.556C153.485 181.868 139.435 162.904 135.004 156.209ZM1253.21 387.982C1251.54 390.47 1249.87 392.963 1248.19 395.458C1248.48 394.689 1248.77 393.92 1249.07 393.151C1250.45 391.426 1251.83 389.703 1253.21 387.982ZM1269.61 168.276C1240.71 161.906 1211.12 160.367 1181.38 160.498C1160.93 160.657 1140.56 162.259 1120 164.457C1124.17 164.105 1128.88 163.729 1133.23 163.425C1148.62 161.99 1165.52 160.866 1181.38 160.755C1209.62 160.578 1237.4 162.112 1263.52 167.34C1265.56 167.628 1267.45 167.909 1269.61 168.276ZM1174.69 820.61C1161.8 819.887 1151.32 818.795 1137.49 817.051C1150.57 819.194 1157.3 819.419 1169.94 820.681C1169.94 820.681 1169.95 820.682 1169.96 820.682C1171.52 820.666 1173.1 820.641 1174.69 820.61ZM1053.96 650.587C1051.49 653.611 1049.03 656.624 1046.58 659.626C1049.37 655.899 1052.18 652.149 1054.99 648.398C1054.65 649.122 1054.3 649.858 1053.96 650.587ZM838.332 214.87C825.197 217.152 791.679 224.532 780.894 226.228C780.201 226.337 786.511 224.9 776.181 226.593C783.942 225.127 789.453 224.102 790.081 224.258C792.367 223.707 794.651 223.156 796.933 222.605C800.764 221.912 804.59 221.218 808.41 220.525C807.944 220.338 808.243 220.294 814.166 219.297C816.835 218.691 819.5 218.085 822.162 217.48C823.319 217.366 824.475 217.252 825.63 217.138C827.913 216.514 830.192 215.89 832.469 215.266C841.498 213.631 836.082 215.041 838.332 214.87ZM884.347 205.566C882.204 206.041 821.232 218.1 848.842 211.99C856.065 210.556 863.182 209.143 870.412 207.711C864.606 209.799 884.135 205.059 885.714 204.727C893.346 203.112 903.274 201.359 908.87 200.242C913.681 199.281 916.495 198.562 919.859 197.905C931.4 195.644 949.648 192.13 952.155 192.037C943.28 193.744 934.184 195.512 924.767 197.347C915.017 199.248 906.302 201.323 887.766 204.525C883.214 205.487 884.894 205.441 884.347 205.566ZM1039.92 669.222C1040.08 668.909 1028.78 689.343 1028.99 689.725C1028.84 689.714 1032.1 682.745 1032.62 681.806C1032.62 681.8 1032.62 681.794 1032.63 681.787C1032.83 681.375 1031.62 683.367 1033.26 680.148C1035.37 676.331 1037.51 672.84 1039.92 669.222ZM287.863 272.867C286.331 272.611 267.84 268.078 250.421 260.332C232.971 252.885 217.272 242.434 216.472 241.823C215.995 241.476 216.733 241.85 216.568 241.678C230.473 251.479 252.515 261.745 267.882 266.739C272.124 268.168 270.822 267.871 271.058 267.958C271.068 267.961 271.078 267.964 271.089 267.968C273.514 268.838 284.721 271.71 287.863 272.867ZM757.87 230.602C760.914 229.944 763.957 229.285 766.998 228.625C767.795 228.586 768.592 228.548 769.389 228.509C769.382 228.51 769.375 228.512 769.368 228.513C765.538 229.211 761.705 229.908 757.87 230.602ZM651.957 250.915C652.69 250.702 653.423 250.489 654.156 250.275C661.916 248.884 669.56 247.491 677.28 246.066C676.494 246.162 675.709 246.259 674.924 246.355C686.558 244.1 691.453 243.475 697.635 242.276C697.628 242.278 697.621 242.279 697.614 242.28C698.28 242.15 699.056 241.831 701.537 241.359C707.223 240.282 723.534 237.105 725.531 236.891C729.779 236.463 696.9 242.554 690.796 243.679C688.029 244.202 684.716 244.967 683.031 245.281C681.184 245.625 678.63 245.89 674.136 246.717C672.815 246.966 658.311 249.833 651.957 250.915ZM515.275 271.691C517.654 271.212 522.621 270.763 524.456 270.495C524.892 270.431 521.471 270.716 525.588 270.138C526.769 270.092 527.951 270.044 529.135 269.996C524.493 270.581 519.9 271.143 515.275 271.691ZM1023.31 705.003C1023.27 704.242 1027.37 692.248 1027.77 691.811C1029.39 688.438 1027.6 692.575 1025.9 697.397C1024.23 702.079 1022.88 707.323 1023.31 705.003ZM1272.86 818.726C1269.72 819.302 1289.31 817.444 1309.01 814.633C1324.65 812.434 1339.97 810.316 1342.82 809.957C1342.57 809.673 1326.24 812.157 1334.67 810.609C1329.32 811.471 1318.03 812.99 1308.96 814.231C1304.15 814.888 1300.19 815.392 1298.34 815.649C1295.1 816.097 1294.33 816.455 1293.84 816.523C1292 816.816 1274.93 818.391 1272.86 818.726ZM1399.66 802.577C1393.13 803.465 1386.62 804.335 1380.09 805.202C1387.83 804.28 1395.53 803.355 1403.28 802.398C1402.08 802.457 1400.83 802.522 1399.66 802.577ZM1407.91 801.661C1407.75 801.993 1429.81 798.875 1435.74 798.141C1429 798.529 1418.28 800.436 1407.91 801.661ZM1044.73 781.663C1037.1 774.692 1034.89 770.646 1043.34 779.949C1043.6 780.218 1045.05 781.943 1044.73 781.663ZM835.473 216.753C833.775 217.101 812.361 221.704 811.068 221.812C807.035 222.145 821.206 219.494 825.879 218.374C833.429 216.565 822.197 218.584 840.791 215.021C840.008 215.082 839.225 215.145 838.443 215.207C849.366 212.978 845.91 214.334 847.887 214.021C848.493 213.925 855.287 212.504 856.518 212.298C871.943 209.73 837.068 216.426 835.473 216.753ZM1117.62 563.737C1129.8 547.224 1124.79 554.493 1137.5 537.719C1138.08 537.285 1119.38 561.707 1117.62 563.737ZM1031.91 178.791C1011.13 182.208 993.87 185.603 974.284 188.887C975.421 187.973 1037.43 177.572 1031.91 178.791ZM108.076 117.945C147.425 188.876 217.743 267.436 308.308 278.223C317.853 279.748 318.914 279.538 322.25 279.981C324.475 280.247 324.06 280.386 327.052 280.69C331.178 281.099 335.373 281.429 339.639 281.679C444.377 286.443 544.861 270.064 643.88 253.261C650.397 252.147 681.871 246.072 688.739 245.352C693.923 244.84 671.163 248.696 667.4 249.365C664.565 249.88 664.481 250.103 662.592 250.444C660.586 250.805 662.225 250.368 659.887 250.785C649.959 252.555 639.188 254.496 630.26 256.01C542.36 270.618 456.442 283.472 367.498 283.092C356.962 282.941 358.93 283.092 358.444 283.095C358.437 283.094 358.43 283.093 358.422 283.093C352.115 282.935 345.83 282.679 339.602 282.311C286.728 280.051 228.886 259.149 188.52 222.312C156.092 193.923 131.7 157.885 109.86 121.2C109.263 120.113 108.668 119.028 108.076 117.945ZM879.895 207.242C874.786 208.896 873.381 208.537 854.703 212.548C853.152 212.752 851.6 212.956 850.046 213.16C860.013 211.18 869.915 209.215 879.926 207.235C879.916 207.237 879.905 207.239 879.895 207.242ZM755.603 232.312C752.582 233.777 710.314 241.386 691.355 245.034C687.794 245.282 715.434 240.285 721.94 238.974C725.188 238.334 742.496 234.558 755.766 232.193C755.712 232.232 755.657 232.272 755.603 232.312ZM1200.37 823.644C1197.34 823.608 1194.16 823.547 1190.97 823.456C1199.09 823.529 1206.4 823.427 1214.51 823.178C1201.87 823.488 1189.32 823.412 1177.1 822.881C1179.36 823.163 1181.63 823.431 1183.93 823.684C1189.28 823.754 1195.18 823.743 1200.37 823.644ZM1159.96 821.812C1181.42 823.479 1159.25 821.49 1153.48 821.003C1150.17 820.785 1157.71 821.629 1159.96 821.812ZM1103.71 812.501C1113.67 815.793 1133.91 819.354 1126.82 817.454C1115.69 815.595 1108.91 814.07 1093.52 809.347C1095.69 810.186 1098.03 811.036 1100.2 811.792C1100.21 811.795 1100.22 811.798 1100.23 811.801C1101.38 812.041 1102.54 812.274 1103.71 812.501ZM1169.79 822.922C1184.15 823.647 1142.72 820.485 1155.75 821.794C1156.53 821.929 1169.14 822.938 1169.79 822.922ZM159.252 193.586C158.26 192.154 165.483 200.512 168.026 203.151C178.812 214.858 193.91 228.689 207.476 238.244C206.425 237.57 205.38 236.89 204.343 236.202C187.652 223.848 172.67 209.331 159.252 193.586ZM252.649 263.503C263.281 267.956 274.067 271.543 285.035 274.391C286.044 274.664 290.842 276.017 287.237 275.171C275.593 272.191 263.967 268.323 252.649 263.503ZM950.268 194.613C941.756 196.355 966.503 192.204 965.277 191.827C960.307 192.742 955.215 193.688 950.268 194.613ZM1029.81 180.388C1024.51 181.224 1019.16 182.087 1013.75 182.976C1013.76 183.046 1013.76 183.117 1013.77 183.187C1019.17 182.228 1024.52 181.295 1029.81 180.388ZM132.261 158.054C135.671 162.734 143.605 174 148.928 180.767C145.089 176.247 136.864 164.769 132.261 158.054ZM822.666 220.203C823.315 219.911 789.433 226.737 801.22 224.672C808.337 223.192 815.52 221.695 822.666 220.203ZM753.831 234.142C761.122 232.75 766.744 231.582 765.198 231.625C761.343 232.396 757.485 233.166 753.625 233.933C753.694 234.003 753.763 234.073 753.831 234.142ZM1067.17 798.928C1055.98 792.995 1045.49 785.525 1037 776.004C1037.26 776.401 1037.53 776.797 1037.8 777.193C1046.15 786.255 1056.29 793.402 1067.11 799.133C1067.13 799.065 1067.15 798.997 1067.17 798.928ZM127.816 152.532C123.111 145.299 118.604 138.009 114.2 130.661C118.688 137.967 123.278 145.212 128.062 152.397C127.983 152.448 127.905 152.5 127.827 152.551C127.823 152.545 127.819 152.538 127.816 152.532ZM1235.68 824.382C1197.29 826.221 1246.23 824.857 1256.29 823.236C1256.3 823.235 1256.31 823.235 1256.32 823.234C1257.22 823.122 1255.3 823.065 1256.79 822.865C1252.84 823.271 1248.94 823.643 1245.09 823.982C1241.54 824.093 1238.21 824.167 1234.48 824.237C1233.29 824.341 1232.1 824.443 1230.92 824.541C1232.5 824.494 1234.09 824.441 1235.68 824.382ZM1388.9 807.152C1423.3 802.766 1388.03 806.735 1371.14 809.208C1371.27 809.283 1385.76 807.551 1388.9 807.152ZM1298.85 818.731C1293.36 819.375 1288.12 819.946 1282.66 820.495C1281.96 820.631 1281.25 820.766 1280.55 820.9C1284.93 820.491 1288.84 820.105 1293.02 819.662C1294.95 819.359 1296.89 819.049 1298.85 818.731ZM1119.21 818.683C1110.71 816.802 1099.6 814.012 1127.54 819.867C1127.51 819.934 1127.49 820.001 1127.46 820.067C1126.4 819.872 1122.99 819.159 1122.83 819.128C1122.31 819.041 1122.85 819.405 1119.21 818.683ZM1452.64 800.677C1453.71 800.559 1454.19 801.245 1464.29 799.095C1467.59 798.692 1470.37 798.359 1473.47 797.982C1474.23 797.712 1475.01 797.441 1475.79 797.169C1464.18 798.888 1462.56 798.771 1461.76 798.873C1457.82 799.379 1460.75 799.152 1458.24 799.495C1451.69 800.394 1436.67 802.298 1443.64 801.851C1446.03 801.704 1451.58 800.794 1452.64 800.677ZM1429.44 804.217C1430.85 803.967 1426.25 804.359 1427.31 804.156C1428.19 803.989 1442.52 801.851 1438.58 802.007C1436.23 802.338 1434.07 802.642 1431.57 802.991C1430.76 803.199 1429.97 803.405 1429.19 803.61C1426.93 803.817 1424.74 804.014 1422.34 804.236C1418.57 804.983 1410.47 806.363 1420.14 805.303C1416.8 805.719 1412.9 806.206 1409.48 806.627C1407.55 806.757 1405.69 806.876 1403.9 806.985C1404.86 807.045 1405.83 807.103 1406.82 807.158C1414.35 806.196 1422 805.198 1429.44 804.217ZM1539.81 789.006C1539.36 788.974 1538.92 788.941 1538.48 788.909C1551.96 787.203 1571.81 784.485 1560.29 785.508C1542.81 787.908 1524.75 790.379 1507.16 792.769C1505.98 793.004 1504.8 793.238 1503.64 793.47C1517.14 791.324 1512.83 793.086 1524.36 791.149C1526.3 790.821 1520.58 791.212 1532.95 789.749C1532.54 789.9 1532.14 790.051 1531.74 790.202C1534.38 789.811 1537.06 789.412 1539.81 789.006ZM1652.44 773.016C1629.44 776.406 1655.13 773.117 1658.68 772.327C1658.68 772.328 1658.67 772.329 1658.66 772.33C1669.66 769.989 1645.9 773.732 1644.07 773.984C1642.08 774.259 1637.22 774.386 1626.88 776.663C1635.09 775.492 1643.69 774.265 1652.44 773.016ZM1579.17 783.49C1581.02 783.249 1579.98 783.253 1580.77 783.143C1580.78 783.142 1580.79 783.141 1580.8 783.14C1592.96 781.462 1621.2 777.609 1624.53 776.678C1615.25 777.953 1575.59 783.435 1573.6 784.024C1575.44 783.849 1577.29 783.671 1579.17 783.49ZM1494.88 794.905C1487.5 796.222 1503.92 793.994 1508.37 793.237C1509.18 793.096 1502.28 793.575 1494.88 794.905ZM1027.34 678.426C1035.7 663.598 1025.06 683.263 1029.02 676.605C1027.44 679.481 1026.04 682.222 1024.63 685.25C1025.5 682.889 1026.37 680.691 1027.34 678.426ZM1183.15 167.831C1182.36 167.841 1181.8 167.842 1181.42 167.838C1180.03 167.821 1181.06 167.705 1180.81 167.705C1178.44 167.728 1176.15 167.911 1175.21 167.917C1157.54 168.187 1169.29 167.677 1169.49 167.624C1169.86 167.445 1165.18 167.404 1171.65 167C1174.98 166.952 1178.23 166.942 1181.41 166.973C1182 166.978 1182.58 166.983 1183.17 166.99C1185.15 166.89 1187.11 166.799 1189.05 166.718C1196.76 166.984 1186.68 166.944 1185.48 167.226C1185.03 167.33 1192.41 167.458 1183.15 167.831ZM1043.28 652.781C1045.1 650.843 1049.29 645.863 1045.71 651.145C1045.7 651.151 1045.7 651.156 1045.69 651.162C1045.13 651.989 1043 654.878 1041.87 656.482C1041.66 656.788 1041.48 657.049 1041.34 657.245C1035.52 664.789 1036.31 662.97 1041.1 655.907C1041.75 654.961 1042.48 653.916 1043.28 652.781ZM1252.26 172.995C1258.45 173.92 1264.24 174.961 1270.47 176.362C1270.41 176.166 1270.35 175.97 1270.29 175.774C1266.97 175.044 1263.82 174.427 1260.58 173.854C1259.46 173.557 1258.32 173.265 1257.17 172.978C1261.41 173.531 1265.1 174.067 1269.38 174.842C1274.21 176.026 1278.94 177.356 1283.6 178.878C1281.45 178.307 1279.23 177.761 1276.95 177.239C1288.55 180.699 1286.22 179.541 1295.38 182.834C1298.6 184.311 1301.38 185.736 1304.38 187.428C1308.77 189.452 1313 191.763 1316.92 194.379C1323.23 199.227 1323.46 199.901 1319.33 196.678C1322.23 199.237 1325.65 201.892 1328.56 205.499C1328.8 205.791 1328.19 205.378 1328.4 205.634C1335.85 214.921 1337.03 220.572 1338.14 223.431C1339.06 226.372 1339.28 226.998 1339.62 228.855C1340.38 231.463 1339.93 242.277 1339.58 242.418C1339.54 242.51 1339.62 236.968 1339.32 235.819C1338.68 234.645 1340.66 237.802 1336.34 255.032C1341.9 236.955 1335.57 217.439 1339.16 230.022C1338.81 227.239 1337.23 219.753 1333.68 213.59C1330.3 207.36 1325.44 202.543 1324.86 201.984C1323.17 200.385 1323.63 201.125 1321.38 199.143C1319.96 198.13 1317.24 194.039 1304.19 187.804C1302.51 186.854 1300.99 186.033 1299.33 185.193C1297.73 184.564 1296.03 183.933 1294.37 183.359C1297.73 184.987 1300.7 186.611 1303.81 188.474C1291.3 181.92 1279.62 179.347 1271.31 176.812C1263.7 175.063 1260.32 174.573 1263.38 175.406C1261.19 174.958 1258.94 174.531 1256.63 174.123C1255.13 173.727 1253.67 173.352 1252.26 172.995ZM1072.43 614.664C1076.89 608.279 1079.03 606.425 1078.34 607.405C1074.4 612.935 1070.1 617.989 1072.43 614.664ZM1197.12 167.629C1205.83 167.655 1214.01 167.856 1222.65 168.331C1222.63 168.517 1222.62 168.703 1222.61 168.889C1213.99 168.229 1205.83 167.842 1197.12 167.629ZM1025.84 680.442C1025.6 681.234 1025.37 682.024 1025.15 682.813C1020.35 691.522 1018.17 701.096 1016.92 705.888C1016.64 706.913 1016.88 704.772 1017.37 702.779C1017.22 701.376 1024.64 681.765 1025.84 680.442ZM1320.41 818.965C1316.99 819.332 1313.63 819.694 1309.94 820.103C1310.17 820.231 1310.39 820.36 1310.61 820.488C1312.41 820.272 1314.16 820.064 1315.85 819.863C1317.41 819.558 1318.81 819.275 1320.41 818.965ZM1280.54 823.718C1274.17 824.408 1267.93 825.018 1261.82 825.549C1285.47 823.522 1265.98 825.437 1280.59 824.173C1280.57 824.021 1280.56 823.87 1280.54 823.718ZM1217.06 828.314C1217.81 828.39 1218.57 828.464 1219.33 828.538C1225.5 828.371 1231.86 828.11 1238.3 827.758C1234.26 828.305 1230.21 828.818 1226.24 829.293C1223.93 829.38 1221.65 829.454 1219.38 829.517C1218.6 829.117 1217.83 828.716 1217.06 828.314ZM1016.87 187.698C1013.12 188.349 1000.13 190.378 1000.7 190.173C1005.93 189.102 1011.4 188 1016.76 186.936C1016.82 187.116 1016.87 187.295 1016.93 187.475C1017.67 187.251 1018.42 187.027 1019.16 186.804C1022.23 186.343 1025.27 185.891 1028.3 185.447C1029.8 185.026 1031.25 184.616 1032.8 184.191C1034.4 184.11 1036 184.032 1037.59 183.957C1022.8 186.765 1023.42 186.358 1020.32 186.89C1018.77 187.16 1017.8 187.446 1017.26 187.6C1017.13 187.633 1017 187.666 1016.87 187.698ZM1203.02 168.97C1194.26 168.728 1187.89 168.601 1181.42 168.569C1175.15 168.541 1169.11 168.691 1162.45 169.224C1164.96 168.823 1172.64 168.357 1181.42 168.276C1201.06 167.898 1229.55 169.858 1241.97 171.141C1243.93 171.529 1245.85 171.931 1247.74 172.345C1237.64 170.779 1230.68 170.482 1225.8 170.116C1221.96 169.845 1222.35 169.739 1222.06 169.717C1222.04 169.716 1222.03 169.715 1222.02 169.714C1212.68 169.139 1210.06 169.198 1203.02 168.97ZM1019.64 692.956C1021.1 688.104 1025 680.04 1025.34 680.171C1023.25 684.574 1021.36 689.138 1019.75 693.828C1020.03 692.838 1019.37 693.792 1019.64 692.956ZM1209.61 829.351C1205.74 829.522 1196.93 829.389 1200.74 829.123C1201.4 829.09 1210.32 829.24 1205.08 828.762C1213.8 828.705 1211.81 829.255 1209.61 829.351ZM1278.76 342.353C1276.84 344.865 1274.93 347.359 1273.01 349.86C1272.47 350.365 1271.92 350.87 1271.37 351.375C1273.84 348.364 1276.29 345.376 1278.76 342.353ZM1013.39 735.75C1014.49 740.212 1015.24 748.155 1019.01 755.961C1020.21 758.894 1021.61 761.779 1023.15 764.511C1023.15 764.518 1023.15 764.525 1023.16 764.531C1023.05 764.691 1022.94 764.852 1022.83 765.013C1017.73 756.067 1014.49 745.996 1013.39 735.75ZM1305.89 189.275C1307.55 190.064 1309.06 190.823 1310.73 191.738C1313.48 193.51 1316.02 195.357 1318.46 197.392C1317.11 196.415 1315.58 195.392 1314.17 194.517C1311.61 192.678 1308.69 190.851 1305.89 189.275ZM1038.1 784.592C1030.28 776.759 1028.08 773.257 1037.68 783.523C1041.83 787.509 1046.62 792.152 1038.1 784.592ZM825.98 224.439C829.391 223.705 832.796 222.972 836.195 222.24C837.379 222.121 838.562 222.002 839.745 221.884C835.167 222.734 830.579 223.586 825.98 224.439ZM1258.38 826.96C1257.95 826.877 1257.52 826.794 1257.09 826.71C1253.91 826.985 1250.75 827.239 1247.64 827.472C1248.43 827.535 1249.22 827.597 1250.02 827.658C1252.78 827.442 1255.57 827.209 1258.38 826.96ZM848.984 219.74C851.719 219.167 854.451 218.595 857.177 218.025C859.023 217.712 860.867 217.399 862.708 217.087C860.17 217.655 857.628 218.223 855.082 218.793C853.052 219.108 851.019 219.424 848.984 219.74ZM1129.16 823.784C1125.32 823.353 1109.42 819.612 1123.75 822.39C1132.81 823.975 1129.72 823.84 1129.16 823.784ZM1150.43 826.886C1135.51 825.29 1146.7 825.694 1164.71 827.984C1146.65 826.351 1151.29 826.903 1150.43 826.886ZM1283.09 825.528C1283.45 825.487 1283.85 825.25 1286.75 824.917C1293.78 824.111 1302.51 822.982 1310 821.927C1313.82 821.391 1317.04 820.943 1319.47 820.61C1337.96 817.947 1394.11 811.363 1400.66 809.947C1402.01 809.655 1398.82 809.701 1399.38 809.612C1401 809.358 1410.45 808.319 1408.69 808.28C1399.41 809.48 1390.2 810.636 1380.94 811.781C1383.24 811.683 1385.52 811.586 1387.82 811.486C1364.78 814.241 1372.4 813.308 1365.75 813.734C1361.86 814.379 1357.92 815.036 1354.15 815.677C1345.67 816.611 1337.24 817.566 1328.61 818.566C1330.61 818.415 1332.61 818.265 1334.5 818.131C1321.68 820.062 1325.31 819.436 1318.24 820.106C1318.24 820.223 1318.25 820.341 1318.25 820.458C1314.92 820.829 1312.17 821.174 1309.94 821.476C1304.28 822.24 1302.5 822.644 1300.52 822.901C1294.86 823.586 1287.82 823.246 1266.5 826.616C1257.68 826.73 1257.69 828.054 1252.34 827.773C1237.05 829.58 1266.19 827.373 1279.93 825.752C1279.94 825.751 1279.95 825.751 1279.96 825.75C1281.01 825.635 1279.34 825.942 1283.09 825.528ZM1204.26 829.555C1213.59 830.285 1176.73 829.867 1188.96 829.182C1190.79 829.198 1192.64 829.205 1194.5 829.203C1197.88 829.35 1200.97 829.465 1204.28 829.555C1204.27 829.555 1204.27 829.555 1204.26 829.555ZM1062.58 624.826C1083.01 598.101 1071.77 613.608 1064.67 622.482C1063.24 624.263 1062.42 625.203 1062.58 624.826ZM1177.8 169.222C1177.32 169.157 1176.85 169.092 1176.37 169.028C1177.91 169.009 1179.62 168.988 1181.42 168.975C1193.27 168.827 1208.95 169.266 1208.69 169.705C1199.55 169.302 1190.8 169.15 1181.42 169.189C1180.23 169.195 1179.02 169.206 1177.8 169.222ZM1264.79 176.465C1262.66 175.989 1252.99 174.333 1254.17 174.374C1258.46 174.963 1262.5 175.606 1266.53 176.355C1268.47 176.862 1270.35 177.384 1272.19 177.921C1269.63 177.305 1265.31 176.559 1264.79 176.465Z" fill="#87392B" fill-opacity="0.36"/>
</svg>
