<svg width="1764" height="714" viewBox="0 0 1764 714" fill="none" xmlns="http://www.w3.org/2000/svg">
<path d="M1709.83 413.914C1665.34 378.976 1639.57 345.49 1595.51 310.631C1543.46 264.26 1451.93 236.53 1372.78 264.524C1312.78 282.846 1257.67 309.511 1209.12 334.454C1125.27 378.001 1043.2 427.925 963.422 476.92C959.329 479.438 956.99 481.099 955.138 482.24C937.675 492.991 908.307 510.895 891.03 521.547C854.635 544.058 791.096 582.676 757.331 602.182C742.958 610.575 728.359 618.773 722.752 622.38C717.431 625.345 714.38 626.533 712.999 627.261C712.983 627.27 712.968 627.279 712.952 627.288C708.7 629.542 697.109 636.057 694.721 637.273C694.354 637.461 696.477 636.02 690.533 639.227C689.959 639.531 690.744 639.364 685.44 642.104C683.928 642.925 666.932 651.137 661.673 653.58C652.08 658.16 633.895 666.704 616.712 673.189C604.322 677.898 592.608 681.812 584.168 684.338C580.914 685.313 579.036 685.735 575.72 686.658C574.021 687.131 571.491 687.94 570.899 688.093C568.393 688.796 558.144 690.618 562.039 690.882C551.182 693.263 554.268 692.104 553.982 691.94C542.361 694.267 536.806 695.392 533.52 695.227C506.597 698.489 476.289 696.199 461.801 676.193C447.396 656.272 451.154 625.982 460.159 600.679C461.147 597.917 462.139 595.146 463.135 592.367C463.23 592.381 463.324 592.396 463.419 592.41C469.1 575.503 471.769 569.98 474.716 560.199C476.952 554.355 479.206 548.465 481.447 542.615C529.521 408.573 578.731 275.206 625.803 142.121C632.278 123.656 636.59 104.377 636.121 84.1057C635.747 76.9634 635.805 75.0637 633.289 63.1609C630.568 50.2007 621.804 31.5982 607.24 20.3836C594.939 9.79257 572.644 2.46742 555.933 1.01337C552.034 0.581518 549.542 0.312813 549.075 0.277238C546.593 0.125484 546.456 0.320103 544.004 0.228823C540.932 0.125529 537.761 -0.053856 534.382 0.0155347C521.941 0.207201 508.748 2.00199 507.246 2.22467C499.765 3.32113 498.224 3.87462 497.646 3.96039C489.646 5.43929 492.588 4.74887 490.579 5.14153C480.049 7.3514 472.667 9.53901 458.914 13.0675C459.34 13.1135 459.765 13.1604 460.188 13.2082C449.502 16.4692 456.451 13.9588 454.233 14.5375C453.211 14.667 430.569 22.2935 429.066 22.9928C423.168 25.1777 423.049 25.4854 422.54 25.6738C421.179 26.1509 406.31 31.6817 398.734 35.1593C389.694 39.2627 400.616 35.0786 398.379 36.1255C397.91 36.3218 388.689 40.2679 387.529 40.9546C386.24 41.6807 394.136 38.2063 394.025 38.3354C394 38.3564 380.932 44.5052 383.538 43.5797C385.606 42.8032 403.657 34.6928 407.592 33.2778C408.232 33.034 407.132 33.7592 407.698 33.5386C409.512 32.3664 452.828 16.7444 454.843 16.6256C452.445 17.2343 450.184 17.8216 447.936 18.4215C450.829 17.4789 453.95 16.4955 457.027 15.5643C452.539 16.8084 448.351 18.0343 444.076 19.3478C449.832 16.2885 469.784 11.5751 470.676 11.9525C470.916 12.0968 459.475 15.7973 470.468 13.1697C468.685 13.6986 467.182 14.165 465.526 14.6831C462.111 15.5335 458.638 16.4467 455.109 17.4241C457.424 16.6572 459.716 15.9182 461.985 15.2067C461.126 15.3836 460.263 15.5645 459.396 15.7492C452.749 17.5894 446.57 19.4487 440.122 21.5275C436.838 22.7032 437.586 22.6567 435.311 23.4918C408.103 33.9768 425.351 26.8949 407.783 33.92C405.296 35.0492 402.787 36.2055 400.257 37.3892C400.965 36.6209 393.161 40.1727 383.774 44.2101C384.958 43.8308 386.138 43.4568 387.313 43.0882C373.289 49.0851 346.768 63.1443 353.67 58.8452C350.601 60.4525 347.733 61.9788 344.726 63.5941C342.121 64.7856 339.496 66.001 336.853 67.2405C334.497 68.4839 332.127 69.7468 329.741 71.0295C328.49 71.7019 327.266 72.3596 326.068 73.0033C326.084 73.0729 326.101 73.1424 326.117 73.2121C327.333 72.5646 328.576 71.9028 329.846 71.226C331.487 70.3517 333.12 69.4867 334.746 68.631C333.194 69.628 331.636 70.634 330.071 71.6488C329.56 71.9793 329.053 72.3072 328.551 72.6325C326.401 73.7383 324.33 74.8011 322.333 75.8239C330.688 71.1522 319.471 76.7547 316.395 78.0705C309.158 81.7951 304.649 84.5817 302.151 85.9172C301.159 86.4569 287.129 93.0972 292.862 90.8803C285.868 94.4511 278.803 98.0275 271.782 101.563C269.076 103.023 266.359 104.488 263.657 105.946C269.733 103.169 252.686 112.431 265.447 105.981C274.949 101.183 277.186 99.6805 281.625 97.376C285.659 95.2798 287.892 94.3466 292.291 92.0537C305.685 85.0666 318.212 78.4202 330.254 71.9917C344.972 64.1406 359.21 56.9151 374.615 49.6541C380.489 46.8882 385.765 44.6236 389.583 42.9209C393.882 41.0117 388.395 43.1352 393.887 40.8043C399.788 38.3212 401.261 37.9522 402.812 37.3027C403.792 36.8941 406.812 35.433 409.619 34.2972C421.257 29.4873 438.655 23.5185 440.519 22.9391C442.346 21.9592 476.467 11.729 478.404 11.636C479.264 11.426 477.352 11.1051 485.042 10.1362C487.486 9.61217 489.996 9.10354 492.423 8.64258C492.002 8.58285 491.58 8.52426 491.157 8.46673C505.451 6.35323 500.806 6.77818 514.581 5.05221C546.57 -0.0584395 606.383 6.92402 623.336 46.4139C627.021 54.1824 628.055 57.4316 630.185 67.2222C632.794 76.3915 632.15 100.65 631.604 95.3367C630.325 115.886 627.696 118.643 625.824 128.685C625.387 129.878 624.959 130.995 624.514 132.133C623.592 135.602 622.734 138.298 621.877 140.752C620.2 145.544 618.667 149.377 615.997 156.82C614.284 161.595 616.645 156.211 612.766 165.73C612.142 167.596 611.521 169.452 610.901 171.304C611.151 170.91 611.4 170.516 611.65 170.122C607.767 180.805 607.559 181.542 607.633 180.18C605.854 185.394 604.086 190.57 602.299 195.793C601.948 196.398 601.6 196.997 601.251 197.596C601.559 196.389 611.004 170.001 621.444 140.601C635.332 106.637 631.691 64.1164 626.663 55.3793C623.181 45.32 614.523 30.7833 601.551 21.667C588.797 12.2776 574.016 8.29238 565.684 6.7185C559.1 5.5422 555.819 5.289 546.186 4.74609C536.305 4.20492 524.097 4.69229 518.863 5.22061C501.003 4.55808 422.752 27.669 476.249 13.1034C474.727 13.6247 473.194 14.1593 471.65 14.7074C450.559 20.0492 457.935 18.251 440.818 23.8894C433.245 26.3985 416.491 32.4658 417.504 32.7951C430.983 27.6368 445.042 22.5514 456.935 18.9929C458.206 18.5657 472.18 14.8438 479.652 13.065C486.196 11.5184 481.451 11.7554 496.235 9.55983C506.89 6.94186 513.451 6.8861 516.279 6.63649C521.437 6.23132 521.961 5.86031 526.915 5.51261C532.381 5.15978 536.322 5.38253 537.026 5.37763C540.568 5.33569 552.656 5.51181 563.472 7.5164C574.582 9.37929 584.173 13.2961 585.097 13.6466C583.572 12.946 582.164 12.341 580.676 11.7458C590.408 15.3907 588.194 15.1727 590.623 16.3159C592.37 17.1986 594.27 18.2501 595.994 19.3027C595.339 18.8216 594.672 18.3483 593.993 17.8828C604.267 24.607 597.034 18.7833 610.007 30.52C617.947 38.4524 623.069 49.019 623.433 49.984C623.556 50.2769 621.961 47.1566 623.787 51.308C626.989 58.1415 629.477 70.8765 629.769 72.2709C630.224 75.8603 629.904 75.5991 629.96 76.0764C631.528 78.2159 628.975 114.308 626.278 120.37C624.732 126.82 622.77 133.451 620.38 140.229C616.504 151.22 612.46 162.672 608.461 173.856C607.802 175.696 608.364 174.572 607.703 176.417C606.637 179.4 601.003 194.508 600.169 196.79C598.116 202.429 592.87 217.392 591.964 219.712C591.835 220.043 593.398 215.062 591.282 220.784C588.93 227.144 590.422 223.8 590.301 224.148C585.754 237.13 582.631 245.253 579.414 254.097C578.374 256.955 576.67 262.313 575.154 266.345C574.98 266.808 575.13 265.819 574.956 266.274C572.662 272.351 570.941 278.187 570.008 280.845C567.73 287.335 568.75 283.721 568.627 284.059C567.068 288.359 565.061 294.206 562.686 300.749C552.086 329.949 543.439 353.783 532.203 384.836C530.79 388.737 529.289 393.428 529.073 394.024C528.403 395.867 528.388 395.264 526.46 400.596C522.394 411.841 518.608 422.25 514.575 433.38C513.763 435.621 513.609 436.644 512.994 438.353C510.93 444.079 503.343 463.438 503.85 463.986C499.18 475.146 496.917 482.873 493.594 492.03C485.729 513.699 473.334 547.619 465.622 569.254C464.003 573.796 463.384 576.017 462.483 578.547C461.556 581.151 458.018 590.901 455.127 598.893C453.011 604.708 451.629 609.761 451.48 610.338C450.92 613.074 451.531 611.503 448.344 625.414C447.105 633.658 447.717 632.749 447.544 634.445C446.34 647.844 448.691 660.609 448.802 658.097C451.749 673.186 458.366 681.293 463.08 685.071C462.836 685.201 467.723 690.498 475.631 694.179C471.877 692.018 470.274 690.736 467.602 688.628C465.04 686.374 460.734 683.505 455.309 674.538C455.144 674.252 455.278 674.902 455.112 674.616C453.549 672.06 451.054 666.246 449.821 661.208C448.605 656.139 449.142 658.989 448.72 656.95C448.39 655.071 448.572 655.092 448.22 652.346C447.146 643.407 447.839 635.284 448.451 630.132C448.829 626.896 449.272 623.215 449.77 620.721C450.771 615.529 452.88 607.307 455.87 599.157C458.488 591.953 461.188 584.519 463.204 578.896C464.11 576.364 463.541 577.367 465.525 571.811C465.756 571.165 466.791 568.893 468.577 564.064C470.366 559.226 471.624 555.441 472.765 552.344C473.719 549.75 473.496 550.902 475.435 545.564C477.037 541.136 495.124 490.77 496.094 488.024C497.478 484.081 497.913 482.134 498.812 479.745C498.971 479.325 499.461 478.694 500.008 477.236C509.022 453.212 528.076 399.723 538.063 372.159C558.939 314.548 578.296 261.423 599.141 203.213C599.552 202.189 599.962 201.166 600.372 200.143C598.277 206.021 596.169 211.926 594.07 217.799C594.166 217.875 594.261 217.951 594.357 218.027C591.526 225.994 591.642 224.855 591.568 224.573C590.581 227.536 589.595 230.497 588.606 233.465C587.312 235.884 580.527 255.586 576.884 265.704C574.516 272.285 571.554 280.056 570.313 283.533C567.698 290.861 567.999 290.757 567.796 291.334C567.447 292.316 563.553 302.466 560.895 309.85C556.968 320.757 556.899 322.072 551.196 336.886C544.463 356.079 536.692 377.234 529.189 397.831C530.944 394.027 523.934 412.379 520.916 420.714C502.522 471.532 480.005 534.028 461.611 585.585C459.538 591.395 458.058 595.988 456.835 599.499C456.662 599.998 456.496 600.475 456.336 600.931C455.658 602.884 455.13 603.663 454.307 606.419C454.181 606.907 454.222 607.294 452.866 612.448C448.237 625.152 447.541 658.341 452.359 665.302C467.98 710.212 529.07 702.562 570.608 691.8C571.717 691.416 572.921 691 573.964 690.621C580.348 689.388 601.432 682.912 617.961 676.522C622.816 674.686 627.472 672.806 631.282 671.233C659.168 659.816 693.071 642.389 716.327 629.679C721.316 626.96 725.39 624.556 730.222 621.867C732.336 620.69 734.834 619.493 736.951 618.303C760.844 604.925 792.627 585.986 816.163 571.815C869.778 539.562 919.773 508.357 973.912 475.203C1102.76 397.77 1230.58 315.587 1374.03 268.671C1434.64 249.076 1504.06 255.141 1557.85 289.573C1560.3 291.068 1560.29 290.829 1562.18 292.015C1573.53 298.762 1596.69 316.815 1607.57 326.742C1616.47 334.482 1630.06 347.086 1632.75 350.17C1602.75 321.612 1568.7 291.998 1528.11 274.715C1525.24 273.497 1524.8 273.542 1524.45 273.397C1517.83 270.848 1522.09 272.1 1512.42 268.654C1509.34 266.89 1478.08 260.297 1481.91 260.818C1474.3 257.892 1420.73 257.709 1410.5 261.008C1407.44 261.48 1409.58 260.95 1408.97 261.04C1406.32 261.443 1405.16 261.906 1402.77 262.365C1396.12 263.515 1380.64 267.244 1377.44 268.275C1376.57 268.529 1375.47 268.854 1374.2 269.242C1365.88 271.716 1349.12 277.547 1341.57 280.329C1333.48 283.271 1334.73 282.533 1327.87 285.148C1322.45 287.256 1328.47 285.072 1316.34 290.014C1310.08 292.508 1289.53 301.169 1284.3 303.578C1279.36 305.794 1273.89 308.451 1266.95 311.679C1256.96 316.268 1235.47 326.676 1225.67 331.628C1225.08 331.924 1223.54 332.474 1222.09 333.221C1219.06 334.771 1220.08 334.531 1217.81 335.725C1215.36 336.871 1176.27 357.486 1169.71 361.208C1165.15 363.7 1161.9 365.322 1159.39 366.708C1157.43 367.789 1157.33 368.087 1155.33 369.196C1154.71 369.538 1149.36 372.299 1144.08 375.264C1139.04 378.07 1120.34 388.889 1118.15 390.164C1116.73 390.98 1118.22 389.955 1114.02 392.372C1110.19 394.577 1107.76 396.204 1105.6 397.452C1100.58 400.362 1094.88 403.49 1089.53 406.615C1074.15 415.622 1075.13 415.353 1074.2 415.903C1071.67 417.422 1070.54 417.838 1069.71 418.327C1066.18 420.392 1057.51 425.497 1054.37 427.363C1050.46 429.679 1048.92 430.845 1044.78 433.326C1041.69 435.175 1035.35 438.745 1028.3 442.983C1012.44 452.519 993.591 463.956 978.113 473.445C973.495 476.275 972.874 476.879 971.463 477.749C964.041 482.33 959.783 484.699 957.669 486C942.583 495.287 915.781 512.196 901.842 520.806C896.12 524.343 871.101 539.546 856.958 548.205C855.35 549.19 856.933 548.398 855.131 549.47C850.826 552.032 851.068 551.529 848.91 552.855C847.871 553.494 845.518 555.127 842.446 557.014C826.578 566.762 815.51 573.254 808.246 577.613C745.977 614.586 682.09 652.809 618.365 677.602C610.073 680.714 602.53 683.369 594.378 686.012C586.576 688.527 576.433 691.449 564.027 694.593C563.675 694.774 563.324 694.953 562.974 695.131C562.53 695.141 562.088 695.148 561.648 695.155C547.404 698.221 542.379 699.072 527.74 700.629C526.641 700.741 522.583 701.457 520.269 701.003C505.9 701.59 513.907 701.266 503.222 700.613C492.745 699.637 482.657 697.353 473.925 692.665C471.566 691.415 475.075 693.83 479.99 695.916C484.875 698.061 490.909 699.51 491.738 699.668C494.07 700.161 496.651 700.326 499.106 700.627C505.973 701.495 512.926 701.721 514.564 701.476C523.795 701.59 512.316 701.65 513.437 701.824C519.621 701.77 525.883 701.294 531.882 700.564C535.245 701.624 568.843 693.867 566.451 694.657C569.057 693.898 571.801 693.069 574.42 692.241C585.992 689.808 592.818 687.223 607.857 681.74C606.808 682.21 605.764 682.675 604.727 683.133C604.964 683.137 618.44 678.419 613.498 679.787C615.419 679.162 617.081 678.593 618.542 678.073C627.045 675.006 628.202 673.942 638.647 670.093C645.689 667.098 641.306 668.715 654.076 662.884C661.25 659.577 671.018 655.059 678.96 651.069C680.846 650.122 681.575 649.515 683.267 648.654C684.961 647.791 685.885 647.553 687.96 646.492C692.325 644.26 697.404 641.429 700.069 640.034C702.405 638.81 705.856 637.191 711.584 634.13C730.949 623.702 725.095 626.538 728.115 624.787C731.456 622.821 733.942 621.838 740.437 618.131C741.09 617.757 739.288 618.527 741.424 617.331C743.152 616.36 744.117 616.091 749.901 612.844C752.305 611.579 787.309 591.268 792.622 588.047C800.982 583.115 818.761 572.232 827.256 567.089C830.466 565.151 834.007 563.226 837.446 561.139C848.938 554.168 867.049 543.086 881.436 534.239C894.416 526.266 916.892 511.934 924.247 507.844C942.405 496.718 946.715 493.695 948.08 492.85C951.808 490.543 953.605 489.686 958.288 486.82C1018.93 449.618 1099.06 401.056 1158.17 368.585C1227.35 330.713 1298.57 293.707 1374.49 270.223C1449.34 244.499 1535.5 265.365 1593.74 317.196C1594 317.535 1594.27 317.873 1594.54 318.215C1580.2 306.405 1562.16 293.865 1545.9 285.213C1524.61 272.846 1489.13 261.97 1470.98 261.196C1478.36 262.031 1489.96 264.168 1489.73 264.501C1476.94 261.731 1464 260.248 1450.78 260.007C1451.17 259.862 1451.54 259.718 1451.95 259.576C1438.46 259.174 1424.34 260.233 1410.79 262.381C1408.47 262.752 1410.09 262.346 1408.06 262.685C1405.79 263.076 1407.36 262.949 1406.93 263.024C1401.18 264.05 1399.35 264.334 1398.64 264.473C1396.85 264.865 1398.13 264.696 1393.09 265.879C1383.78 268.102 1376.71 269.897 1379.14 269.798C1377.69 270.214 1376.22 270.642 1374.75 271.085C1373.19 271.556 1371.62 272.037 1370.05 272.528C1369.23 272.611 1368.41 272.698 1367.59 272.787C1349.08 279.428 1340.71 281.454 1330.76 286.212C1327.47 287.326 1324.16 288.474 1320.83 289.655C1319.05 290.546 1317.25 291.447 1315.46 292.357C1315.04 292.375 1314.63 292.394 1314.21 292.413C1296.61 299.728 1278.17 307.815 1261.53 315.717C1250.21 321.117 1247.5 322.507 1237.32 327.53C1215.12 338.639 1237.32 327.755 1218.95 337.422C1219.83 336.774 1220.72 336.127 1221.61 335.482C1218.51 336.991 1215.4 338.517 1212.28 340.059C1210.22 341.284 1208.2 342.492 1206.15 343.718C1196.46 347.958 1190.61 351.763 1189.33 352.444C1188.26 353.016 1184.56 354.468 1173.72 360.778C1178.01 357.759 1165.3 365.364 1164.24 365.959C1163.19 366.532 1150.65 373.315 1145.53 376.201C1141.52 378.448 1132.99 383.404 1127.08 386.761C1121.84 389.74 1122.27 389.267 1121.89 389.482C1115.42 393.164 1119.55 390.982 1114.88 393.671C1110.2 396.369 1106.5 398.308 1105.51 398.898C1105.01 399.196 1106.79 398.386 1104.5 399.736C1098.34 403.353 1087.01 409.774 1079.94 413.947C1077.44 415.421 1074.36 417.42 1071.58 419.074C1067.3 421.61 1065.19 422.615 1062.71 424.097C1061.85 424.612 1056.48 428.183 1049.63 432.22C1048.33 432.989 1044.15 434.676 1039.58 438.571C1039.12 438.687 1038.66 438.803 1038.2 438.919C1015.1 452.416 1009.37 457.262 998.684 462.588C982.169 472.792 993.75 466.185 991.961 467.346C990.806 468.095 985.353 471.301 984.764 471.669C983.721 472.321 983.967 472.318 982.816 473.02C961.706 485.921 970.945 479.99 964.188 483.957C948.15 493.389 936.195 501.67 963.643 484.523C963.68 484.583 963.716 484.642 963.753 484.702C956.933 488.807 939.683 499.459 945.635 496.213C950.328 493.637 991.183 468.366 968.177 482.935C962.956 486.243 960.092 487.693 951.256 493.703C945.225 497.444 944.015 497.44 935.995 502.677C937.218 501.663 938.442 500.649 939.668 499.633C928.422 506.215 914.845 515.036 906.266 520.17C903.371 521.903 892.323 527.454 895.323 526.853C890.354 529.837 867.531 544.071 863.143 546.633C862.09 547.246 860.495 547.577 845.693 556.82C844.686 557.516 843.68 558.21 842.676 558.903C856.508 550.734 832.393 565.635 839.248 562.096C841.337 560.55 852.185 553.777 853.796 552.65C856.642 550.669 847.698 555.813 858.958 549.027C866.497 545.473 846.077 557.452 849.597 556.297C834.459 565.044 833.248 566.2 829.906 568.243C815.497 577.02 806.623 582.236 792.874 590.502C789.501 592.317 813.959 577.465 817.045 575.67C805.453 581.907 824.965 570.17 833.1 565.659C833.682 565.089 834.264 564.518 834.847 563.946C824.481 570.345 813.934 576.756 803.501 582.8C802.86 583.264 802.22 583.727 801.581 584.189C803.961 582.894 806.35 581.59 808.747 580.279C800.146 585.615 805.167 581.997 793.648 589.392C793.178 589.426 792.707 589.46 792.238 589.493C781.154 596.138 769.833 602.846 758.724 609.321C752.682 612.358 730.956 624.781 735.245 622.982C726.443 627.94 737.271 621.57 728.829 626.118C725.143 628.104 718.108 631.943 716.466 633C717.434 633.076 728.001 627.347 731.443 625.826C729.454 627.343 680.227 653.108 684.604 651.28C680.64 653.369 682.298 652.2 675.155 655.671C659.305 663.392 636.96 674.062 619.398 680.361C614.023 682.316 609.295 683.893 605.432 685.045C610.775 683.066 615.249 681.372 619.215 679.871C628.963 676.143 635.607 673.652 646.259 668.95C656.083 665.284 712.829 636.102 699.855 642.105C701.949 641.079 704.056 640.038 706.177 638.985C708.201 637.717 710.282 636.413 712.288 635.142C706.31 638.347 700.349 641.491 694.54 644.497C693.213 645.374 691.981 646.198 690.575 647.109C689.853 647.351 689.132 647.592 688.413 647.831C685.857 649.12 683.324 650.385 680.813 651.627C681.579 651.397 682.346 651.166 683.116 650.933C679.246 652.924 675.464 654.841 671.666 656.734C672.639 656.047 673.546 655.391 674.49 654.713C656.041 663.686 662.341 660.711 652.375 665.751C644.56 669.322 657.51 663.154 641.124 670.325C625.2 676.995 631.307 674.881 619.135 679.657C616.711 680.576 613.624 681.718 609.682 683.103C609.289 683.143 608.897 683.184 608.505 683.223C603.21 685.198 597.285 687.29 591.838 689.104C592.534 688.763 593.232 688.418 593.933 688.071C582.483 691.898 565.991 695.924 562.341 697.151C574.076 694.13 574.428 694.695 571.22 695.721C568.041 696.534 542.655 704.015 514.904 704.215C486.564 705.998 459.996 689.746 455.84 680.908C442.089 660.907 443.036 640.303 447.343 619.108C445.98 626.386 443.195 643.404 446.716 659.278C449.688 675.459 461.066 687.206 465.087 689.802C465.916 690.343 465.939 689.807 470.784 693.795C488.418 704.233 513.973 705.552 539.258 701.915C538.467 701.813 537.717 701.703 536.908 701.596C521.335 704.244 506.701 702.435 508.808 703.336C505.774 703.216 502.475 702.958 499.531 702.595C499.548 702.456 499.566 702.316 499.584 702.176C494.847 701.595 490.349 700.728 485.886 699.445C485.846 699.58 485.807 699.715 485.767 699.85C482.053 698.777 478.512 697.463 474.976 695.738C474.679 695.437 474.388 695.134 474.103 694.829C468.807 692.613 458.699 684.689 454.344 676.713C449.877 668.943 448.454 663.546 451.223 671.689C448.959 666.813 447.434 661.576 446.522 656.253C446.627 656.253 446.732 656.253 446.836 656.252C446.455 653.955 446.188 651.664 446.016 649.341C445.984 650.114 445.963 650.885 445.953 651.655C444.955 641.042 445.597 630.744 447.096 623.849C446.387 628.463 445.931 633.08 445.783 637.722C445.762 628.761 449.663 612.72 450.191 611.344C451.366 607.02 451.855 604.687 453.424 600.076C453.643 599.442 453.831 598.921 453.991 598.49C454.888 596.081 454.884 596.428 455.115 595.77C463.064 573.179 459.146 581.52 463.909 571.317C464.18 570.153 464.449 568.993 464.719 567.83C465.365 566.383 466.011 564.935 466.658 563.484C469.054 556.806 471.425 550.204 473.826 543.523C473.188 545.806 472.551 548.085 471.916 550.361C475.597 540.395 476.931 535.673 477.276 534.694C478.244 531.955 478.905 530.776 479.211 529.929C493.866 489.362 484.778 513.913 491.334 493.375C494.26 486.249 491.915 493.68 491.855 494.816C495.196 485.136 496.36 482.192 500.029 472.018C500.979 469.382 501.84 466.485 502.442 464.818C502.962 463.377 504.781 458.915 506.035 455.459C508.127 449.695 510.812 441.96 513.68 434.061C516.069 427.481 523.49 407.414 528.582 393.376C530.753 387.386 530.1 388.722 530.661 387.175C530.895 386.53 532.765 381.927 534.158 378.086C545.519 346.751 557.033 314.583 568.391 283.078C576.393 260.879 584.65 238.352 592.598 216.083C594.288 211.348 593.26 213.808 593.994 211.741C594.245 211.033 594.783 210.255 597.309 202.888C598.22 200.23 596.974 203.217 597.894 200.613C598.344 199.338 598.727 198.903 601.422 191.486C606.294 178.076 608.605 170.708 609.034 169.525C609.851 167.271 609.783 167.991 610.858 164.98C614.064 155.996 616.948 147.898 619.747 140.009C621.587 134.811 623.123 129.912 624.552 124.53C625.397 121.434 628.608 108.728 629.44 96.2579C630.511 83.7884 628.712 71.7119 628.443 70.5558C627.338 65.0046 628.069 70.1747 626.476 63.2197C626.071 61.2528 625.58 59.2545 625.027 57.3213C626.119 60.3366 627.031 63.451 627.758 66.5524C625.92 57.9124 622.162 48.4759 618.641 42.8704C618.169 41.734 611.527 32.6381 607.168 28.8972C608.899 30.6239 610.504 32.4117 612.024 34.3015C611.42 33.6837 610.813 33.0885 610.193 32.5033C602.59 24.033 592.128 17.4924 581.24 13.5156C577.339 12.1289 578.641 12.7072 574.526 11.4624C550.735 6.09523 556.579 6.64441 533.151 7.33504C540.896 6.24967 570.008 9.84122 573.709 11.8074C576.725 12.4273 587.579 15.7264 583.323 15.0833C594.153 19.7482 594.577 20.6809 595.2 20.7438C595.67 21.0706 596.456 20.5974 604.95 27.6886C604.543 27.4898 604.135 27.2952 603.724 27.1048C609.552 32.1451 613.018 36.6743 615.831 40.397C617.066 41.4836 628.633 65.1527 628.312 79.8577C629.682 99.342 625.051 121.135 618.447 139.556C618.108 140.513 617.77 141.464 617.435 142.411C615.113 148.96 614 152.781 613.708 153.603C613.282 154.801 611.902 158.11 611.048 160.514C607.868 169.492 598.461 196.913 595.526 203.49C603.14 182.163 610.721 160.826 618.25 139.487C629.292 107.884 634.677 70.1303 615.281 40.8364C617.297 43.8896 611.041 32.4621 599.547 24.3232C588.27 15.8338 573.351 11.9513 571.981 11.6204C569.4 10.9662 571.524 11.7079 570.754 11.5227C564.93 10.1312 559.935 9.14783 558.057 8.88914C556.649 8.70261 553.55 8.40037 548.572 8.05693C547.636 7.99482 547.383 7.84308 546.364 7.78763C539.419 7.43037 533.029 7.51966 526.257 7.92155C525.856 7.94662 524.204 8.24821 522.511 8.38275C520.815 8.51471 519.089 8.47839 518.652 8.52031C513.209 9.00565 504.151 10.4094 499.107 11.3269C497.396 11.6294 498.561 11.2725 496.632 11.6244C490.67 12.7639 492.636 12.6354 485.168 14.1745C482.751 14.6958 482.882 14.4227 478.186 15.5842C474.842 16.4279 475.286 16.7276 474.757 16.8738C473.878 17.0746 462.608 19.8048 458.885 21.2315C467.305 19.4182 449.796 24.0093 450.723 23.4922C446.371 24.9546 441.935 26.5146 437.413 28.1744C435.808 28.6611 434.329 29.1117 432.833 29.5749C415.254 36.332 404.244 40.6873 387.49 48.2452C386.715 48.5532 372.261 55.4157 373.125 55.155C381.612 51.3254 390.415 47.3946 395.589 44.8059C405.009 41.4396 404.988 40.8115 419.774 35.0637C424.867 33.1234 425.255 33.1761 425.838 32.9542C445.201 25.4445 477.28 16.2262 490.938 13.3001C494.841 12.6036 480.927 15.6275 486.289 14.5688C487.93 14.2056 506.226 10.307 521.705 9.13427C537.139 7.82602 549.261 8.64842 537.898 8.04683C540.223 8.06477 542.618 8.12931 545.064 8.25348C547.473 8.74851 559.197 9.883 557.959 9.27846C559.064 9.53755 560.152 9.80933 561.223 10.0935C563.285 10.5258 566.025 11.0644 569.561 11.9461C576.081 13.362 601.357 20.7729 614.472 40.7938C628.089 60.2084 627.365 83.8158 627.497 85.6599C627.374 85.7634 627.251 85.8667 627.127 85.9697C628.709 48.7043 599.943 13.9317 559.018 10.493C560.185 10.5456 561.34 10.6128 562.483 10.6944C546.635 8.10943 530.388 8.58631 514.375 10.5833C531.173 8.52156 558.729 8.92487 575.627 14.5739C578.662 15.5148 576.497 14.6479 577.197 14.8537C579.017 15.4511 580.825 16.1652 587.027 19.0601C593.468 21.47 606.83 32.0361 607.572 33.5408C609.705 35.6376 614.48 42.2096 616.836 46.7128C619.949 52.6206 618.044 48.5706 618.664 49.7585C621.128 54.7601 622.608 59.5241 623.721 63.7854C625.621 69.9778 627.137 83.4914 626.382 88.1008C626.388 83.39 626.112 78.8079 625.492 74.1984C627.954 97.862 624.357 117.092 616.565 138.899C616.097 140.162 615.62 141.439 615.134 142.731C613.7 145.71 615.409 140.496 615.95 138.685C616.154 138.003 616.196 137.794 615.856 138.652C615.524 139.489 614.824 141.351 613.538 144.823C614.277 142.749 615.014 140.68 615.749 138.615C616.084 137.676 616.409 136.739 616.727 135.805C617.09 135.139 617.448 134.473 617.802 133.807C619.373 128.672 620.791 123.264 621.885 118.069C621.659 119.575 621.41 121.093 621.136 122.623C626.341 104.079 626.615 84.2337 625.111 77.7836C625.226 77.376 625.338 76.9678 625.448 76.559C624.883 58.3112 609.926 35.5411 611.881 40.4111C611.429 39.7179 610.962 39.0329 610.481 38.3562C603.447 30.4729 606.573 33.7303 603.765 30.8715C603.406 29.5132 585.764 18.6279 593.443 23.6739C575.582 14.4083 581.052 17.2523 575.883 15.0919C563.353 10.935 539.768 9.46114 549.597 10.6589C547.679 10.5369 545.723 10.4508 543.729 10.4011C537.405 9.68181 530.721 10.3808 524.064 11.0472C521.728 11.2267 519.348 11.4487 516.926 11.7142C515.249 11.7265 513.801 11.73 512.209 11.764C490.086 15.7786 497.076 12.7852 487.135 16.5569C488.763 16.3116 490.374 16.0825 491.968 15.8695C495.734 15.1616 499.281 14.5638 503.007 14.0094C488.289 16.4411 473.169 20.2106 458.83 24.579C440.637 30.7011 429.971 33.9537 410.275 42.3379C408.408 43.0513 406.528 43.7801 404.635 44.5243C406.688 44.1123 413.96 40.9694 400.454 46.8706C399.415 47.6171 408.626 43.7405 412.6 41.917C413.568 41.4649 405.085 44.6773 414.515 40.8416C420.974 38.3048 409.102 43.202 428.88 35.5075C428.179 35.8429 427.477 36.1807 426.772 36.5209C428.905 35.715 431.019 34.9306 433.115 34.1675C434.941 33.3326 436.657 32.5476 438.618 31.6885C443.754 30.1677 446.471 29.4879 457.768 25.9256C454.582 26.8037 458.813 25.1232 464.423 23.5206C464.455 23.6332 464.487 23.7458 464.519 23.8583C477.855 20.2506 473.576 21.0319 484.845 18.6295C485.959 18.2821 486.994 17.9575 488.2 17.6024C494.728 16.2921 517.855 13.2759 513.547 13.3679C520.175 13.0118 533.944 11.9813 539 11.7031C539.384 11.8223 539.765 11.9428 540.145 12.0647C542.805 12.1257 545.684 12.2631 548.334 12.4681C549.84 12.4999 551.295 12.5506 552.785 12.6286C554.751 12.8957 556.669 13.2021 558.54 13.5463C559.693 13.5966 560.832 13.6613 561.96 13.7404C564.942 14.4035 568.026 15.2189 570.847 16.115C572.575 16.4761 574.526 16.954 576.307 17.446C576.544 17.3437 593.393 24.7032 597.178 28.1198C598.363 29.0751 599.499 30.0608 600.587 31.0752C601.218 31.4573 601.833 31.8424 602.467 32.261C603.24 33.0901 603.985 33.9345 604.701 34.7934C606.564 36.5519 608.325 38.4377 609.963 40.4355C615.59 49.2953 615.59 49.7151 616.753 51.8063C619.109 55.7459 622.621 70.6183 622.666 73.2675C623.038 75.7796 623.365 77.0027 623.561 79.1037C624.689 96.3356 622.926 101.461 622.835 103.058C622.507 104.682 622.618 102.831 622.065 106.311C621.438 110.049 621.137 112.619 620.398 115.938C619.735 119.128 617.047 129.426 613.885 137.964C611.525 144.492 609.499 150.095 609.264 150.794C608.471 153.14 611.258 147.957 608.363 155.443C607.826 155.52 602.52 171.935 604.58 164.116C602.273 170.796 599.943 177.528 597.631 184.198C597.365 183.24 594.769 191.632 591.549 200.558C586.98 213.245 576.368 241.726 577.3 240.859C576.082 243.851 574.863 246.848 573.642 249.849C566.34 270.719 558.807 291.044 551.345 311.678C529.199 372.919 505.178 439.365 483.217 500.355C482.159 503.293 482.492 502.935 481.732 505.047C477.741 516.13 467.189 544.912 461.631 560.46C459.848 565.446 459.157 567.915 458.597 569.494C456.689 574.88 456.915 573.526 456.033 575.999C455.128 578.531 451.727 588.28 448.802 596.648C447.203 601.202 445.954 605.47 445.247 608.047C444.226 611.734 442.964 616.1 442.195 620.537C442.128 620.917 442.458 620.253 442.401 620.575C441.028 628.655 441.7 623.774 441.28 626.516C438.629 645.72 439.771 669.515 454.958 686.88C458.542 691.187 465.396 696.275 469.644 698.495C471.234 699.326 468.237 698.043 473.817 700.786C475.8 701.689 476.515 701.778 478.723 702.611C488.416 705.941 491.708 707.031 500.43 707.635C517.202 710.014 545.858 706.4 560.428 702.885C564.003 702.09 565.437 701.63 568.742 700.82C571.013 700.264 575.417 699.311 578.81 698.366C582.227 697.425 588.292 695.494 594.8 693.419C602.005 691.148 610.853 688.129 612.421 687.558C614.349 686.866 615.179 686.332 617.135 685.616C618.119 685.255 619.385 684.794 620.856 684.253C627.636 681.818 639.869 676.901 645.698 674.316C653.611 670.849 658.277 668.524 660.838 667.328C663.257 666.196 666.196 664.994 667.324 664.452C669.078 663.611 669.397 663.218 671.643 662.125C675.414 660.286 678.859 658.737 684.25 656.015C780.255 606.579 868.539 549.428 957.68 494.851C967.56 488.76 973.288 485.414 987.863 476.418C993.779 472.769 991.164 474.106 995.805 471.321C997.875 470.08 997.445 470.548 1000.06 468.966C1011.6 461.969 1024.94 453.697 1029.95 450.682C1031.93 449.486 1034.3 448.286 1038.38 445.837C1068.72 427.594 1104.74 406.245 1137.9 387.554C1155.58 377.553 1182.17 363.01 1202.77 352.217C1259.05 322.631 1321.03 293.322 1376.43 276.663C1376.66 276.592 1376.9 276.522 1377.13 276.452C1461.55 247.001 1552.37 281.398 1613.24 343.25C1583.58 315.575 1538.1 281.827 1494.06 271.936C1456.17 262.317 1415.52 265.319 1376.58 277.166C1286.32 305.337 1200.54 352.58 1118.36 399.286C1077.42 422.763 1026.52 453.392 982.542 480.482C980.559 481.702 976.318 484.121 972.009 486.783C971.089 487.35 959.872 494.565 956.062 496.912C959.443 494.251 944.634 503.877 940.002 506.716C934.178 510.282 921.801 517.617 908.228 526.136C895.923 533.857 899.386 531.948 898.722 532.371C894.35 535.15 892.654 535.832 889.272 537.873C875.487 546.288 804.668 589.598 784.532 601.215C779.452 604.2 779.316 604.501 778.153 605.183C775.024 607.013 770.492 609.43 765.559 612.282C756.84 617.331 746.22 623.573 741.393 626.281C729.567 632.971 706.639 645.284 690.99 653.274C686.48 655.587 686.86 655.613 684.836 656.641C676.266 661.074 652.482 672.246 641.15 676.969C634.758 679.718 627.614 682.641 621.164 685.076C608.544 689.84 596.325 694.039 583.46 697.727C582.233 698.177 581.015 698.618 579.805 699.05C577.813 699.507 575.966 699.911 573.833 700.373C540.771 708.534 502.869 716.232 469.543 699.339C467.638 698.312 462.179 695.088 457.652 690.726C453.052 686.458 449.615 681.206 448.737 679.698C447.234 677.176 446.073 674.529 444.473 670.548C442.475 664.901 443.554 670.442 441.209 660.934C440.716 658.353 441.314 660.829 440.506 655.649C440.344 654.786 439.189 646.046 439.723 637.365C440.114 628.685 441.832 620.208 441.992 619.362C442.532 616.486 442.757 613.859 442.926 613.123C443.827 609.299 444.099 609.537 444.829 607.017C445.84 603.596 447.074 599.715 448.218 596.44C449.511 592.718 450.528 589.716 450.754 589.095C455.807 575.194 465.412 549.265 470.555 534.62C471.266 532.594 470.968 532.76 471.089 532.403C471.872 530.099 472.63 528.755 473.422 526.582C477.676 514.897 484.152 496.504 488.381 484.707C488.868 483.349 490.017 480.537 490.883 478.114C495.781 464.396 493.983 468.779 494.258 467.996C494.905 466.148 496.284 462.984 498.077 458.079C502.691 445.458 511.452 421.214 516.349 407.661C520.016 397.51 519.727 397.574 519.964 396.907C520.471 395.482 522.091 391.598 524.535 384.922C529.237 372.081 528.521 373.481 530.445 368.198C530.606 367.754 530.506 368.591 532.649 362.734C536.79 351.418 545.821 325.911 550.212 313.782C551.9 309.121 552.469 308.09 554.197 303.313C556.937 295.746 562.912 278.587 563.398 277.234C563.534 276.856 564.04 276.079 564.841 273.856C565.722 271.411 566.484 268.972 567.139 267.153C570.882 256.769 577.649 239.015 575.151 243.729C576.523 240.462 577.885 237.22 579.26 233.941C587.023 212.182 594.642 191.073 602.334 169.524C604.055 164.704 605.369 160.566 606.822 156.486C607.809 153.716 611.227 144.393 613.605 137.867C614.714 134.827 615.512 132.4 615.811 131.457C618.287 126.249 624.042 95.272 623.223 91.2523C623.499 83.6324 622.442 76.3737 622.044 73.3998C621.717 71.0175 622.307 73.1817 621.489 68.572C620.327 60.4971 614.381 48.259 612.881 46.3494C612.243 45.5384 613.83 46.7984 607.952 39.1263C604.624 35.1246 602.37 33.4023 600.964 32.1404C600.434 31.8656 601.689 31.7679 593.05 25.9912C586.834 22.1963 583.903 21.4109 583.197 21.0445C582.111 20.5839 579.726 19.2946 575.318 17.878C565.147 14.1884 544.948 12.4087 534.535 12.9202C532.561 12.9911 532.965 12.6152 525.083 13.1133C519.323 13.5546 520.31 13.71 518.109 13.922C514.544 14.3033 509.748 14.5823 501.919 15.8896C492.08 15.6293 423.453 37.3778 420.233 39.9697C417.786 40.9716 415.281 41.9782 414.15 42.5484C415.162 42.2496 416.169 41.9553 417.172 41.6654C427.409 37.2632 423.406 39.2919 426.165 38.2545C430.114 36.7287 445.177 31.3385 448.881 30.2907C450.175 29.9097 447.327 31.0335 454.233 28.9486C461.949 26.6582 465.24 25.3624 468.35 25.0343C479.02 21.4701 489.682 19.7388 477.113 22.9207C469.802 23.3981 402.641 47.6415 389.724 54.727C378.663 59.6576 358.616 69.1799 345.91 75.877C343.308 77.2337 339.378 79.2987 335.318 81.4853C327.421 85.7374 319.63 89.9533 320.245 89.8353C313.542 93.428 320.575 89.3856 319.121 90.1123C315.988 91.6974 295.021 102.961 290.964 105.046C271.125 115.318 246.061 127.876 227.104 138.342C228.031 137.936 228.943 137.539 229.839 137.151C234.289 134.942 254.093 124.34 256.505 123.505C227.367 138.677 198.184 154.265 168.924 169.911C169.583 169.204 133.028 188.803 131.63 189.718C132.321 189.515 133.009 189.313 133.693 189.113C154.021 177.568 152.474 179.242 165.882 171.615C171.365 168.674 169.961 169.703 172.743 168.267C200.243 154.096 173.095 167.504 193.897 156.649C187.755 160.326 204.988 151.282 212.79 147.195C214.577 146.247 237.598 133.97 240.28 132.583C255.679 124.478 282.279 111.065 297.509 102.849C309.642 96.4626 316.321 93.2064 327.347 87.415C334.429 83.6923 333.598 83.9819 335.959 82.6859C336.281 82.5088 336.667 82.3 337.147 82.0447C345.463 77.634 348.365 76.7648 353.21 73.4448C358.577 70.82 364.547 67.9601 370.136 65.3668C370.085 65.2614 370.034 65.1559 369.984 65.0506C373.516 63.3451 376.929 61.7254 380.462 60.0788C381.583 59.6848 382.701 59.2957 383.814 58.9114C395.16 53.5597 390.253 55.5091 392.244 54.2426C394.668 53.1377 397.071 52.0575 399.454 51.0018C401.458 50.4115 403.553 49.7929 405.578 49.2147C416.553 44.559 427.865 40.1157 438.828 36.2235C439.538 35.849 440.245 35.4772 440.951 35.1079C441.013 35.2098 441.076 35.3116 441.138 35.4133C460.006 28.8764 479.672 23.2753 499.225 19.7819C504.477 18.7442 473.246 25.5317 470.852 26.5939C457.663 29.8201 423.816 41.8599 423.838 42.5199C415.778 45.1542 392.374 55.2162 385.268 59.0144C396.249 53.9519 407.461 49.0991 418.428 44.7173C418.127 44.987 417.826 45.2572 417.524 45.5278C431.498 39.4441 433.084 38.8544 448.147 34.2884C448.102 34.1065 448.056 33.9245 448.011 33.7426C458.111 30.9338 476.102 24.8778 476.958 25.5749C482.576 24.0818 487.712 22.8314 493.475 21.6036C505.434 20.0916 487.018 21.1791 533.781 17.2818C537 17.214 536.37 16.9842 541.053 17.0641C542.509 17.2237 550.619 17.0766 565.103 19.9947C567.36 20.4917 567.571 20.3586 569.831 20.928C575.314 22.1357 584.905 26.7695 580.658 24.3182C590.403 28.5071 592.585 30.862 593.593 31.5724C594.535 32.4138 594.052 32.1929 596.482 34.2472C599.589 37.0437 599.227 36.2798 601.744 38.9213C604.341 42.5727 603.599 39.105 612.219 55.0712C611.399 53.1929 610.492 51.3701 609.485 49.5899C610.081 50.4292 610.659 51.2954 611.212 52.1715C615.445 61.7553 614.952 60.9312 615.9 65.8849C617.96 73.3402 618.928 80.1899 618.574 91.2344C616.525 112.714 617.96 101.636 612.675 126.248C611.61 129.568 610.432 132.919 609.139 136.31C608.936 136.842 608.733 137.375 608.53 137.908C606.396 144.62 608.564 139.326 605.1 149.292C607.33 141.337 600.111 162.338 598.384 165.72C598.363 166.129 598.343 166.538 598.322 166.947C597.537 169.158 596.75 171.373 595.961 173.592C595.87 173.568 595.779 173.543 595.688 173.519C594.703 176.501 593.719 179.475 592.738 182.442C591.861 184.627 590.983 186.815 590.103 189.007C588.981 192.74 587.876 196.423 586.757 200.142C585.952 202.436 585.144 204.74 584.338 207.034C584.463 206.267 584.592 205.49 584.72 204.717C583.709 207.685 582.708 210.624 581.699 213.586C582.705 210.088 581.686 212.142 578.409 221.317C575.71 228.867 579.215 220.513 573.197 236.704C572.777 237.829 571.737 239.725 566.17 255.057C559.483 273.461 562.938 264.586 561.765 267.872C561.535 268.515 559.347 274.083 557.425 279.344C556.336 282.323 555.429 285.248 555.287 285.643C554.616 287.484 554.237 287.956 553.308 290.51C550.953 296.987 547.898 305.733 545.596 312.076C544.549 314.961 543.457 317.638 542.99 318.927C542.265 320.927 541.516 323.522 540.785 325.541C538.084 333.001 533.428 344.129 532.946 347.87C529.639 354.79 525.053 370.122 524.975 368.853C518.211 388.084 499.081 439.002 500.427 437.783C495.804 448.4 496.652 447.606 494.994 452.146C493.14 457.225 493.961 454.547 492.5 458.593C489.094 468.031 485.881 477.073 482.48 486.47C483.124 485.034 483.77 483.591 484.414 482.158C480.871 492.045 481.848 488.552 478.158 498.59C471.365 517.073 474.4 509.327 473.695 512.171C473.678 511.35 465.83 533.186 465.065 535.42C464.608 536.757 467.068 531.061 462.121 544.4C462.275 543.629 462.43 542.857 462.584 542.085C460.532 548.234 454.372 564.72 453.406 567.519C452.956 568.824 451.355 576.048 448.388 582.094C448.223 582.898 448.058 583.702 447.893 584.505C446.566 587.989 445.244 591.46 443.928 594.917C442.532 598.597 441.252 602.341 440.108 606.131C439.968 607.399 439.843 608.671 439.733 609.944C439.108 612.372 438.543 614.8 438.035 617.273C438.188 615.599 438.37 613.929 438.577 612.267C434.612 627.278 434.278 647.003 435.508 650.279C435.668 653.725 436.029 657.228 436.623 660.691C437.294 662.906 438.066 665.107 438.936 667.239C444.511 682.802 445.448 683.08 452.704 692.088C452.508 691.645 452.32 691.201 452.139 690.758C457.406 697.561 470.883 706.515 482.26 709.485C487.598 711.217 496.953 712.438 498.259 712.549C499.414 712.881 512.07 714.521 513.425 713.613C531.885 713.783 539.56 711.734 546.743 710.7C551.622 709.877 553.457 709.721 558.755 708.642C566.411 707.061 573.498 705.142 577.86 703.971C580.201 703.343 580.694 703.388 582.332 702.933C590.108 700.711 585.661 701.847 593.759 699.377C594.481 699.153 600.413 697.534 607.225 695.159C610.77 693.954 620.295 690.233 621.188 689.881C621.892 689.62 622.37 689.46 622.761 689.339C624.416 688.804 624.296 689.228 634.5 684.607C634.164 684.845 633.828 685.083 633.493 685.32C649.315 679.045 651.216 677.503 654.445 676.057C654.853 675.872 658.722 674.28 660.815 673.276C664.455 671.536 665.867 670.612 666.681 670.215C669.567 668.819 679.443 664.121 685.507 660.801C684.514 662.066 706.512 650.977 710.997 647.695C714.983 645.723 718.88 643.776 722.703 641.85C724.359 640.814 726.022 639.769 727.692 638.717C728.798 638.242 729.907 637.764 731.019 637.283C736.551 633.932 741.883 630.654 747.242 627.331C747.719 627.357 748.197 627.382 748.674 627.408C750.202 626.509 751.736 625.606 753.274 624.697C754.385 623.829 755.499 622.959 756.616 622.086C758.585 621.005 760.574 619.911 762.464 618.869C763.006 618.728 763.55 618.586 764.093 618.444C774.392 612.684 768.52 614.508 788.695 604.12C791.652 602.245 794.625 600.355 797.612 598.45C801.335 596.907 807.682 592.734 812.794 589.751C816.441 587.622 816.355 587.937 821.323 584.961C826.303 581.974 826.022 581.889 826.409 581.655C830.505 579.173 833.589 577.532 836.515 575.718C836.957 575.444 837.93 574.557 841.685 572.263C845.444 569.964 847.858 568.818 853.487 565.333C856.389 563.535 857.05 562.88 859.582 561.313C871.602 553.874 884.471 547.261 892.819 540.611C894.948 539.498 910.137 530.832 916.427 526.919C926.271 520.795 922.337 522.919 926.245 520.457C926.802 520.106 929.892 518.303 938.124 513.217C939.601 512.304 939.333 512.637 939.546 512.508C949.195 506.563 967.874 494.94 978.485 488.415C979.435 487.831 984.61 485.125 992.733 479.529C1005.41 472.239 1028.47 457.215 1045.31 447.812C1047.6 446.447 1050.31 444.658 1051.33 444.055C1060.09 438.872 1057.08 441.136 1076.57 428.843C1075.08 429.983 1079.81 427.408 1086.34 423.55C1096.19 417.735 1088.97 421.487 1096.93 416.869C1096.99 416.969 1097.05 417.07 1097.11 417.17C1115.18 406.279 1119.14 404.562 1137.5 394.123C1144.1 390.373 1153.87 384.608 1155.44 383.739C1156.05 383.392 1163.45 379.609 1164.14 379.234C1168.02 377.099 1170.24 375.727 1173.64 373.869C1184.87 367.699 1198.41 360.91 1195.7 361.603C1198.89 360.063 1202.07 358.537 1205.24 357.027C1216.56 350.263 1225.94 346.585 1228.1 344.717C1230.27 343.768 1232.45 342.827 1234.62 341.894C1281.07 318.536 1328.88 296.65 1377.92 281.649C1382.42 280.289 1386.84 279.067 1391.19 277.978C1393.11 277.426 1416.89 272.797 1418.03 272.91C1423.67 272.065 1417.72 272.156 1429.14 271.16C1430.41 271.266 1431.67 271.384 1432.93 271.513C1447.41 270.861 1440.44 271.035 1446.1 270.772C1448.45 270.803 1447.7 270.953 1450.84 271.02C1468.32 270.631 1503.44 277.846 1520.71 286.004C1524.23 287.496 1523.75 287.145 1524.84 287.619C1527.84 288.941 1533.64 291.866 1539.43 294.981C1576.09 313.479 1618.74 355.14 1649.01 385.404C1651.12 387.468 1651.51 387.589 1652.92 388.967C1654.88 390.878 1659.12 395.204 1661.27 397.228C1663.26 399.107 1664.62 400.203 1666.74 402.16C1676.57 411.271 1690.21 423.484 1703.18 431.137C1704.08 431.958 1718.45 438.867 1718.99 438.745C1720.02 439.049 1717.31 437.639 1717.07 437.287C1716.9 436.825 1718.73 438.194 1730.02 441.587C1719.99 438.244 1717.22 436.055 1719.42 436.917C1721.71 437.512 1729.25 441.339 1742.89 442.831C1729.22 441.281 1716.78 435.536 1705.79 428.569C1705.82 428.494 1705.84 428.419 1705.87 428.344C1716.19 434.036 1726.88 440.387 1745.6 442.046C1745.02 441.936 1744.45 441.818 1743.88 441.692C1727.31 440.075 1710.08 430.189 1700.78 422.98C1715.24 432.614 1732.1 440.483 1750.14 439.991C1749.25 439.939 1748.37 439.868 1747.49 439.777C1738.81 439.969 1721.24 433.828 1715.39 430.057C1703.97 423.257 1709.08 426.224 1716.15 429.97C1723.3 433.807 1733.27 436.714 1729.43 435.333C1702.8 426.032 1682.55 406.086 1662.66 387.211C1662.54 386.622 1680.85 405.709 1702.48 420.629C1723.81 436.956 1751.48 438.291 1750.61 437.203C1742.05 437.281 1733.54 435.362 1725.6 432.146C1729.14 433.362 1732.96 434.389 1736.62 435.026C1735.63 434.744 1734.64 434.438 1733.65 434.109C1719.87 430.156 1707.53 422.152 1696.21 413.25C1731.02 441.249 1755.35 436.427 1764 432.774C1762.85 433.031 1761.71 433.251 1760.58 433.434C1756.37 434.841 1742.79 436.571 1728.56 431.139C1714.37 426.107 1700.49 415.681 1691.38 408.041C1695.17 411.205 1711.91 423.367 1716.14 425.022C1717.24 425.581 1713.56 423.336 1716.11 424.645C1719.33 426.343 1728.26 430.633 1736.2 432.288C1744.12 434.103 1750.67 433.622 1748.46 433.507C1747.1 433.509 1733.9 432.648 1721.18 426.003C1708.37 419.741 1696.44 409.847 1692.52 406.66C1710.77 421.316 1732.62 434.782 1754.91 432.022C1741.13 432.358 1728.52 429.648 1706.56 414.666C1703.33 412.064 1713.19 419.624 1724.91 424.69C1736.63 430.195 1749.98 430.331 1750.52 430.078C1741.68 430.039 1732.77 427.521 1724.46 423.478C1731.55 426.802 1739 429.043 1746.45 429.58C1746.48 429.523 1746.51 429.466 1746.53 429.409C1727.2 427.653 1710.54 416.182 1691.79 400.399C1692.59 400.761 1703.91 410.133 1709.83 413.914ZM288.672 108.261C288.317 108.737 296.623 104.364 301.327 101.885C300.647 102.295 300.023 102.674 299.32 103.096C309.22 97.8652 327.828 87.871 328.793 87.9182C335.818 84.25 332.561 85.4921 334.864 84.2095C335.045 84.1086 335.565 83.839 336.356 83.43C339.497 81.7998 346.804 78.082 352.586 74.8638C354.332 73.9746 356.069 73.0968 357.797 72.2302C358.207 72.2073 358.606 72.1898 359.024 72.1633C361.478 70.7125 363.913 69.2855 366.331 67.882C355.847 73.0028 346.569 77.747 336.247 83.2273C320.221 91.7443 304.605 99.9979 288.712 108.241C288.699 108.248 288.686 108.254 288.672 108.261ZM555.611 17.8978C565.516 18.702 579.682 23.502 576.63 22.9826C570.905 20.9074 564.88 19.45 558.793 18.4856C557.75 18.2773 556.689 18.0813 555.611 17.8978ZM745.958 627.576C753.471 622.825 760.897 619.035 772.68 612.106C772.711 612.195 772.742 612.285 772.773 612.375C767.809 615.007 754.995 622.563 745.958 627.576ZM55.3094 230.489C53.4958 231.506 51.8828 232.415 50.2291 233.345C57.2441 230.133 58.7589 228.916 66.6212 224.736C67.0975 224.482 66.9868 224.672 67.1528 224.584C69.0809 223.554 70.7765 222.484 72.4824 221.568C75.6988 219.84 78.6217 218.425 84.7155 215.139C89.3796 212.624 89.2883 212.423 90.9046 211.56C92.1057 210.919 106.459 203.883 114.924 199.038C131.488 189.562 60.7129 227.51 55.3094 230.489ZM5.84484 257.634C7.54522 256.719 9.23383 255.81 10.9106 254.907C5.68887 257.342 15.9819 251.846 23.1507 247.987C22.8361 247.789 7.42643 256.259 1.25537e-05 260.158C1.96232 259.309 3.91059 258.468 5.84484 257.634ZM215.528 144.274C209.031 147.684 210.35 147.443 210.661 147.414C212.707 146.327 214.656 145.292 216.855 144.126C216.415 144.174 215.973 144.224 215.528 144.274ZM166.475 170.27C168.784 169.344 182.8 161.985 189.614 158.377C189.889 158.231 188.067 159.031 192.634 156.611C194.258 155.748 208.209 148.943 204.95 149.973C192.166 156.694 179.569 163.342 166.494 170.26C166.488 170.264 166.481 170.267 166.475 170.27ZM152.259 178.069C155.054 176.668 157.848 175.269 160.537 173.927C161.848 173.078 163.14 172.24 164.415 171.412C161.459 172.957 158.416 174.55 155.28 176.194C154.283 176.813 153.24 177.457 152.259 178.069ZM1421.73 269.091C1421.06 269.308 1420.39 269.528 1419.72 269.751C1416.87 270.099 1404.44 271.601 1408.34 270.823C1412.77 270.125 1417.13 269.554 1421.73 269.091ZM1475.79 269.496C1478.44 269.825 1481.07 270.206 1483.66 270.637C1486.66 271.456 1489.63 272.346 1492.54 273.297C1479.52 270.164 1465.46 269.067 1467.77 268.604C1464.79 268.283 1461.78 268.028 1458.72 267.843C1461.26 268.32 1460.96 268.269 1452.89 268.135C1451.09 267.681 1443.09 267.634 1433.44 268.171C1440.45 267.708 1447.19 267.592 1454.09 267.824C1454.09 267.754 1454.1 267.684 1454.1 267.614C1438.74 267.38 1458.01 266.926 1467.74 268.459C1468.53 268.45 1469.35 268.449 1470.15 268.452C1472.05 268.773 1473.93 269.122 1475.79 269.496ZM447.788 680.481C448.98 682.307 450.274 684.059 451.669 685.729C456.496 692.851 445.119 679.321 441.351 667.642C442.261 669.454 441.133 666.006 440.258 661.908C439.343 657.825 438.795 653.074 438.769 652.581C439.176 654.584 439.667 656.648 440.23 658.629C441.449 666.13 443.843 673.637 447.788 680.481ZM498.683 708.996C491.426 709.239 526.443 711.409 537.706 708.669C540.401 708.309 545.207 707.315 547.256 706.987C548.48 706.872 549.81 706.729 550.938 706.615C552.116 706.262 574.256 701.717 582.432 699.33C583.188 698.992 583.948 698.651 584.71 698.307C587.802 697.452 590.981 696.531 593.898 695.659C593.489 695.666 593.082 695.672 592.675 695.678C594.956 695.111 597.269 694.516 599.613 693.892C608.751 691 603.036 692.261 609.662 690.176C617.06 687.793 605.197 692.383 605.516 692.504C599.216 694.647 585.416 698.808 579.144 700.472C575.655 701.368 579.685 700.983 564.011 704.25C560.647 705.149 556.992 706.051 553.613 706.826C547.263 707.869 540.784 708.721 534.12 709.283C532.907 709.583 531.704 709.872 530.512 710.148C529.967 710.384 514.585 710.762 515.379 710.478C509.144 710.817 496.101 710.713 482.728 706.698C481.519 706.242 480.164 705.704 478.935 705.168C491.758 709.389 483.047 706.373 486.951 707.306C489.349 707.866 496.034 708.88 498.683 708.996ZM1339.07 291.078C1358.91 284.269 1346.26 288.299 1367.87 281.089C1366.44 281.768 1365.01 282.455 1363.58 283.151C1352.72 286.264 1336.03 292.822 1339.05 291.085C1339.06 291.083 1339.06 291.08 1339.07 291.078ZM1547.41 295.82C1537.23 290.041 1542.66 292.376 1529.36 285.816C1529.35 285.813 1529.35 285.81 1529.34 285.807C1536.32 289.009 1543.1 292.566 1549.73 296.446C1548.96 296.233 1548.18 296.025 1547.41 295.82ZM919.307 521.218C909.534 527.342 911.401 526.001 902.679 531.752C889.139 539.613 900.45 532.723 900.263 532.415C903.384 530.62 906.438 528.865 909.517 527.093C916.671 522.294 909.628 526.43 909.612 526.402C909.619 526.398 909.625 526.395 909.631 526.391C909.574 526.299 909.324 526.426 912.102 524.639C914.5 523.501 916.902 522.361 919.307 521.218ZM877.073 546.656C880.562 544.798 882.294 544.099 873.437 549.705C873.43 549.709 873.424 549.712 873.418 549.716C872.418 549.702 864.119 555.286 860.245 557.607C859.201 558.176 858.159 558.743 857.118 559.31C863.724 555.131 870.378 550.911 877.073 546.656ZM726.876 634.768C727.124 635.304 734.834 631.124 724.29 637.548C722.195 638.684 720.112 639.808 718.041 640.92C716.62 641.543 715.225 642.15 713.727 642.81C687.331 657.96 678.618 660.772 724.053 637.117C724.06 637.114 724.066 637.111 724.073 637.108C725.005 636.331 725.939 635.551 726.876 634.768ZM773.318 608.466C773.809 608.54 774.299 608.613 774.79 608.686C780.331 604.592 787.932 600.975 799.027 593.779C800.102 593.251 801.18 592.721 802.259 592.189C806.345 589.589 847.519 564.674 838.829 570.467C835.051 573.002 826.504 577.829 825.722 578.306C823.235 579.831 820.121 582.016 815.932 584.509C813.495 585.959 808.322 588.69 803.357 591.645C792.2 598.3 772.338 610.955 757.367 618.589C756.337 619.286 755.309 619.981 754.284 620.674C743.261 626.875 746.762 624.556 736.874 630.505C729.061 633.323 777.704 607.368 767.114 612.008C767.12 612.004 767.127 612.001 767.133 611.997C769.187 610.828 771.249 609.651 773.318 608.466ZM1068.8 429.698C1069.32 429.077 1082.02 422.041 1078.76 423.232C1082.95 421.015 1087.13 418.813 1091.36 416.594C1091.36 416.663 1091.35 416.732 1091.35 416.801C1087.24 419.156 1083.18 421.493 1079.1 423.845C1079.13 423.935 1079.16 424.025 1079.2 424.114C1072.98 427.363 1047.86 442.521 1048.81 442.354C1047.4 443.039 1045.98 443.725 1044.57 444.412C1032.73 451.965 1022.21 457.856 1009.35 466.111C1008.28 466.627 1007.2 467.143 1006.13 467.66C1005.52 468.141 1004.91 468.622 1004.3 469.103C999.552 472.011 994.806 474.921 990.066 477.833C974.405 486.969 1004.2 468.177 1007.9 466.009C1008.39 465.72 1008.44 465.972 1011.49 464.162C1016.89 460.933 1046.97 442.48 1056.41 437.063C1056.41 436.877 1056.41 436.691 1056.41 436.505C1060.52 434.241 1064.67 431.96 1068.8 429.698ZM667.023 666.547C666.367 667.043 665.712 667.537 665.058 668.028C652.855 673.656 644.335 677.451 647.515 675.478C647.521 675.475 647.528 675.472 647.535 675.469C654.213 672.536 660.575 669.61 667.023 666.547ZM505.775 16.8415C506.168 16.4662 512.272 15.3252 520.696 14.8006C520.303 14.9303 519.909 15.0614 519.515 15.1937C515.031 15.3888 509.889 16.2598 496.775 18.5928C496.745 18.4321 496.715 18.2714 496.685 18.1108C499.715 17.6382 502.59 17.2375 505.775 16.8415ZM677.797 661.212C681.377 659.241 692.264 654.351 685.301 657.922C679.994 660.633 675.865 662.281 677.797 661.212ZM1585.53 321.817C1583.14 319.937 1580.71 318.083 1578.27 316.26C1577.08 315.182 1575.91 314.126 1574.72 313.071C1574.73 313.075 1574.73 313.079 1574.74 313.083C1578.37 315.905 1582 318.843 1585.53 321.817ZM952.89 500.574C943.865 506.102 934.941 511.573 925.939 517.094C925.801 517.072 925.664 517.05 925.527 517.028C934.717 511.757 938.093 509.26 940.186 507.945C940.177 507.951 940.168 507.956 940.159 507.962C946.834 503.768 953.285 499.737 959.559 495.754C957.338 497.359 955.129 498.957 952.89 500.574ZM983.363 481.199C982.195 482.666 980.234 483.947 966.207 492.029C966.711 491.627 967.216 491.225 967.72 490.822C974.891 486.476 979.152 484.04 977.718 484.526C979.602 483.415 981.488 482.303 983.363 481.199ZM842.773 567.707C844.325 566.532 857.697 558.631 856.988 559.181C856.807 559.346 839.708 570.04 842.773 567.707ZM395.885 51.2566C398.96 49.8578 402.32 48.3619 405.579 46.9417C401.126 48.7384 396.838 50.5196 392.596 52.3263C393.697 51.9648 394.793 51.6083 395.885 51.2566ZM360.41 66.8495C358.222 68.0412 365.625 64.9448 352.416 71.7658C362.036 66.8869 372.095 61.9986 381.927 57.4687C377.043 59.6253 372.695 61.5846 367.975 63.7674C368.71 63.2276 369.442 62.6902 370.174 62.155C366.952 63.6793 363.698 65.244 360.41 66.8495ZM350.152 72.4893C353.362 70.5376 343.228 75.5499 334.597 80.133C329.64 82.7559 325.9 84.7524 324.887 85.3128C324.282 85.6489 321.658 87.4179 320.716 87.9986C324.976 85.7385 328.944 83.6282 333.254 81.3325C331.858 82.1943 330.499 83.0365 329.174 83.8599C331.04 82.8826 332.969 81.8709 334.965 80.8226C338.03 79.2135 341.069 77.6375 344.081 76.0945C341.939 77.091 339.784 78.1039 337.615 79.1332C341.844 76.8547 346.023 74.6404 350.152 72.4893ZM464.972 25.4459C461.281 26.5134 457.35 27.7119 453.688 28.8817C454.366 28.496 455.017 28.1208 455.757 27.7199C458.057 27.0059 460.332 26.3199 462.582 25.6618C463.382 25.5865 464.179 25.5145 464.972 25.4459ZM390.295 53.0837C395.771 51.4742 409.17 43.8221 392.972 51.5676C391.341 52.3599 389.772 53.2348 390.295 53.0837ZM314.522 90.9166C303.409 96.1402 306.597 95.893 316.558 90.2027C317.083 89.9024 315.359 90.5218 314.522 90.9166ZM233.062 133.425C232.101 133.937 230.975 134.988 222.186 139.197C220.894 139.933 219.57 140.688 218.21 141.461C221.462 139.931 249.244 125.439 245.237 127.098C241.046 129.286 237.37 131.14 233.062 133.425ZM259.185 118.046C263.422 115.859 267.521 113.753 271.737 111.586C270.426 112.409 269.077 113.25 267.784 114.063C269.832 113.044 271.932 111.998 273.991 110.972C277.392 108.964 280.852 106.924 284.212 104.929C275.175 109.584 265.98 114.274 256.965 118.921C257.716 118.624 258.455 118.332 259.185 118.046ZM370.247 60.1008C362.159 64.163 352.217 68.8703 339.169 75.7542C339.162 75.7579 339.156 75.7617 339.15 75.7655C338.493 76.1134 337.411 76.8808 335.283 78.0185C335.108 78.1121 334.615 78.3721 333.868 78.7673C326.992 82.4305 298.498 97.3444 301.057 96.282C314.98 89.2584 319.541 86.3559 323.242 85.1472C323.854 84.6635 324.494 84.1645 325.104 83.6814C328.452 81.8264 331.369 80.2592 333.945 78.9101C340.616 75.425 344.192 73.899 349.563 71.2911C349.486 71.2116 349.409 71.1322 349.333 71.0528C354.149 68.5773 359.097 66.0849 364.141 63.6048C363.466 64.0125 362.789 64.422 362.112 64.8334C363.89 63.9576 365.658 63.0938 367.416 62.242C371.564 59.8839 376.887 57.2846 370.247 60.1008ZM240.411 128.043C236.125 129.351 199.096 149.582 181.799 158.657C190.978 154.3 204.845 146.535 214.533 141.393C233.479 131.348 220.514 138.549 223.796 136.958C225.518 136.117 235.787 130.116 240.411 128.043ZM400.218 46.6284C390.579 50.8503 385.074 53.1506 376.724 57.3761C377.43 57.1094 378.127 56.8482 378.884 56.56C381.957 54.9429 405.032 44.6348 400.218 46.6284ZM156.935 172.195C174.553 162.435 166.522 167.559 175.554 162.111C169.34 165.394 163.039 168.727 156.836 172.01C156.869 172.072 156.902 172.133 156.935 172.195ZM697.556 647.748C705.104 643.785 714.013 638.819 718.511 636.708C713.516 639.482 708.035 642.482 702.865 645.269C701.085 646.105 699.316 646.931 697.556 647.748ZM462.825 688.92C464.248 690.283 470.587 694.814 471.432 695.136C472.762 695.876 472.444 695.57 472.478 695.56C481.459 699.932 473.002 696.411 479.753 699.326C480.857 700.248 497.978 704.38 505.072 704.393C515.9 705.222 527.168 704.223 530.989 703.835C538.163 703.177 550.421 701.548 561.786 698.925C566.219 697.907 567.752 697.331 572.404 696.132C584.701 692.967 602.065 687.603 619.646 681.023C643.319 672.213 666.962 660.691 680.66 653.726C686.499 650.755 692.307 647.456 695.238 645.948C697.688 644.775 700.157 643.582 702.645 642.37C709.782 637.618 712.745 636.875 720.698 632.621C725.804 629.88 728.104 628.312 728.793 627.932C733.418 625.371 735.662 624.25 739.176 622.299C743.121 620.108 748.799 616.753 750.246 615.95C751.061 615.489 748.719 617.259 763.87 608.521C779.58 599.432 794.906 590.334 810.606 580.919C805.896 584.909 801.048 587.001 794.505 590.837C792.762 591.858 793.945 591.343 792.43 592.232C788.116 594.766 780.06 599.321 776.452 601.47C772.611 603.761 774.11 603.317 769.172 606.03C768.923 606.166 769.623 605.583 768.467 606.225C756.962 612.591 753.182 615.092 738.677 623.275C729.079 629.129 669.404 660.32 667.075 660.993C656.712 667.067 720.22 634.67 727.014 630.289C729.574 628.856 726.799 630.199 729.126 628.873C730.182 628.276 739.067 623.711 747.772 618.792C758.466 612.789 779.317 600.411 789.087 594.628C874.383 544.219 956.448 491.766 1041.16 440.918C1042.97 439.834 1045.44 438.569 1051.33 435.049C1153.72 374.76 1260.42 310.658 1375.62 273.968C1384.71 271.247 1392.87 269.189 1402.08 267.363C1429.67 261.907 1457.97 261.302 1485.72 266.743C1489.17 267.578 1492.56 268.5 1495.9 269.504C1487.26 266.953 1471.01 264.878 1469.43 264.83C1468.84 264.772 1465.61 264.204 1460.13 263.841C1452.39 263.364 1448.99 263.577 1448.39 263.55C1446.46 263.539 1447.73 263.397 1445.87 263.399C1431.82 263.51 1420.98 264.607 1408.46 266.702C1393.95 269.301 1387.34 271.396 1376.77 274.141C1376.44 274.273 1376.12 274.405 1375.79 274.538C1375.01 274.86 1374.23 275.184 1373.45 275.512C1365.71 276.879 1321.21 293.027 1303.71 300.981C1298.19 303.351 1299.23 303.136 1297.37 303.942C1296.21 304.466 1296.43 303.979 1282.06 310.5C1274.89 313.789 1273.05 314.871 1269.41 316.56C1267.43 317.484 1267.67 317.155 1264.81 318.501C1248.64 326.148 1235.37 332.801 1219.67 340.877C1215.23 343.17 1215.25 343.348 1214.25 343.86C1210.63 345.727 1204.27 348.715 1195.03 353.619C1179.86 361.609 1150.06 378.058 1137.86 385.156C1136.07 386.194 1134.71 387.188 1133.39 387.931C1131.4 389.052 1130.52 389.32 1130.17 389.517C1123.53 393.298 1127.62 391.183 1123.14 393.688C1120.73 395.042 1118.11 396.273 1112.49 399.478C1105.12 403.695 1106.72 403.09 1103.64 404.844C1103.32 405.028 1103.12 404.918 1100.11 406.663C1088.65 413.296 1072.13 422.983 1061.35 429.405C1058.25 431.251 1056.03 432.724 1051.73 435.297C1043.03 440.423 993.874 470.144 989.915 472.701C989.496 472.967 993.998 470.544 987.051 474.78C984.975 475.913 982.899 477.046 980.825 478.179C977.557 480.399 974.267 482.635 970.995 484.862C970.761 484.242 950.933 496.306 951.462 496.761C949.301 498.122 947.142 499.481 944.984 500.84C940.226 503.232 937.301 505.23 928.47 510.353C927.196 511.302 925.896 512.268 924.605 513.227C924.212 513.36 923.819 513.492 923.427 513.624C919.015 516.936 911.116 521.202 910.192 521.768C906.627 523.949 904.029 525.699 902.364 526.719C896.066 530.579 882.439 538.745 875.222 543.263C874.878 543.478 875.331 543.455 873.251 544.761C869.504 547.112 868.967 547.069 864.154 550.449C863.095 550.987 862.036 551.524 860.979 552.061C859.934 552.755 858.89 553.449 857.848 554.142C851.589 557.933 845.12 561.841 838.779 565.657C844.747 562.464 838.188 566.689 831.804 570.211C829.643 571.403 831.399 570.081 830.678 570.477C829.741 571.019 801.234 588.258 799.366 589.5C797.962 590.253 796.56 591.003 795.162 591.75C794.544 592.279 793.928 592.808 793.312 593.336C792.536 593.738 791.762 594.138 790.989 594.538C783.782 599.111 763.855 610.058 760.453 612.042C758.558 613.155 760.72 612.622 751.454 617.845C751.054 617.883 750.655 617.921 750.256 617.959C748.149 619.131 746.051 620.294 743.964 621.447C740.062 623.672 734.629 627.036 734.511 627.324C733.203 627.92 731.899 628.511 730.599 629.099C727.38 631.352 709.89 640.762 702.474 644.369C700.441 645.575 698.421 646.767 696.413 647.944C693.631 649.24 690.648 650.626 687.718 651.968C681.079 655.306 688.175 651.951 686.774 652.686C683.748 654.32 668.688 661.335 669.745 661.331C667.629 662.362 665.53 663.373 663.448 664.365C662.318 664.748 661.193 665.126 660.073 665.498C656.906 667.498 650.178 670.551 637.652 676.077C636.573 676.413 635.333 676.813 634.185 677.17C630.111 679.031 626.126 680.79 622.233 682.442C621.582 682.544 620.934 682.643 620.289 682.739C620.05 682.779 619.811 682.818 619.572 682.857C617.734 683.516 615.914 684.158 614.112 684.785C610.538 686.529 604.234 688.258 600.719 689.602C595.79 691.479 599.988 690.486 608.813 687.461C608.614 688.033 580.961 696.86 574.87 698.18C575.303 698.004 575.671 697.844 576.066 697.677C582.28 696.048 589.166 694.042 595.295 692.12C600.449 689.685 583.023 695.502 575.159 697.393C574.42 697.57 569.907 698.547 561.976 700.389C558.602 701.242 546.442 704.013 543.866 704.366C524.409 707.125 538.801 705.114 519.532 706.926C523.523 706.291 512.489 707.525 500.875 706.2C498.9 706.358 482.45 702.536 481.485 701.739C474.823 699.144 481.925 702.617 472.48 698.176C471.427 697.531 470.409 696.865 469.359 696.133C467.258 694.883 465.336 693.572 463.4 692.049C451.668 683.106 451.288 678.564 448.827 674.174C447.978 672.253 448.804 674.846 446.751 669.794C446.052 667.872 445.336 665.698 444.11 660.352C441.093 643.579 441.115 637.435 444.183 622.173C444.486 619.815 444.857 617.434 445.282 615.083C445.782 613.545 446.307 612.015 446.857 610.492C449.845 598.548 449.114 602.959 450.481 598.741C450.63 598.313 450.787 597.869 450.951 597.41C454.977 586.139 462.374 565.354 462.742 563.389C466.871 554.197 470.116 542.664 471.484 538.965C472.367 536.795 473.252 534.621 474.138 532.443C474.988 529.814 475.84 527.182 476.687 524.567C476.936 526.092 481.108 512.381 481.557 511.107C482.081 509.625 489.773 489.035 492.555 481.348C495.333 473.669 499.989 460.228 500.418 459.045C500.912 457.683 505.842 444.687 509.543 434.479C512.784 425.539 531.714 372.48 530.818 375.933C529.65 379.429 527.939 384.386 526.433 388.667C521.764 401.946 493.737 479.701 486.61 499.562C475.062 531.701 463.063 564.918 451.378 597.562C448.544 605.487 446.302 613.597 444.821 621.797C444.383 624.28 444.518 624.706 444.21 626.842C443.678 630.068 442.816 638.426 442.885 641.655C442.47 653.881 446.429 668.479 449.705 674.198C456.471 687.283 465.308 693.606 475.169 698.306C478.092 700.164 494.937 705.572 507.004 705.62C509.115 705.679 511.214 705.685 513.403 705.644C507.44 705.796 491.283 703.985 484.194 701.424C473.619 698.1 468.572 694.65 465.288 692.316C462.03 690.832 450.205 677.269 448.075 669.334C447.194 667.024 446.843 666.589 446.22 664.553C442.696 653.478 442.747 638.02 444.386 628.227C443.376 632.196 448.077 607.235 448.999 606.096C449.633 604.002 450.49 601.791 451.943 597.763C452.006 597.59 452.07 597.413 452.135 597.233C455.131 588.892 454.39 589.767 458.524 579.461C459.346 576.835 460.17 574.202 460.996 571.562C461.548 571.596 472.676 538.605 476.658 529.513C476.803 529.312 461.652 571.896 460.402 575.423C458.014 582.114 455.225 589.868 452.334 597.901C445.96 615.196 442.614 635.514 444.208 650.342C443.908 657.117 451.313 676.477 452.908 677.374C454.221 679.496 452.865 677.685 453.438 678.601C459.667 687.801 462.627 688.943 462.785 689.235C463.119 689.41 461.701 688.006 462.825 688.92ZM349.02 70.2307C354.816 67.2415 361.005 64.1295 367.036 61.1851C366.547 61.292 366.057 61.3999 365.566 61.5085C362.81 62.8993 360.03 64.3196 357.227 65.7695C355.003 66.8019 353.005 67.7304 350.875 68.7351C350.258 69.232 349.64 69.7306 349.02 70.2307ZM333.997 77.5186C333.782 77.6306 333.575 77.7388 333.376 77.8433C328.582 80.3597 328.512 80.6536 327.373 81.2734C324.09 83.0614 320.573 84.8169 317.332 86.5393C321.301 85.0697 328.974 80.742 333.407 77.9024C333.613 77.7702 333.81 77.6421 333.997 77.5186ZM443.832 28.5618C442.565 29.0168 434.466 32.42 425.011 35.3907C417.878 38.2986 411.37 41.1138 404.459 44.2186C415.913 39.0231 432.556 33.1002 438.274 31.1424C440.546 30.3431 440.913 30.0136 442.711 29.3962C452.877 25.8904 463.221 23.3593 464.075 22.4561C454.123 25.4947 445.47 27.9756 443.832 28.5618ZM383.175 53.1305C381.631 53.985 380.079 54.8494 378.519 55.7239C384.359 53.0033 390.088 50.4188 395.706 47.9674C394.133 48.5059 392.55 49.0545 390.959 49.6133C388.387 50.7581 385.792 51.9304 383.175 53.1305ZM571.895 262.559C573.207 258.909 574.514 255.267 575.821 251.626C575.841 251.86 574.344 256.022 573.854 257.581C573.857 257.574 573.859 257.568 573.862 257.561C573.317 259.297 573.699 258.606 572.632 261.738C572.386 262.012 572.141 262.285 571.895 262.559ZM1500.48 270.302C1507.55 269.967 1561.04 296.458 1555.81 295.337C1553.65 293.991 1535.93 283.999 1530.33 281.723C1523.11 278.042 1502.37 271.353 1500.48 270.302ZM1592.22 321.046C1593.05 321.665 1563.21 299.293 1559.86 297.784C1560.54 298.157 1561.6 298.708 1562.48 299.25C1566.86 301.677 1586.11 315.848 1592.22 321.046ZM499.03 466.922C499.89 464.023 500.75 461.121 501.613 458.216C501.561 459.043 501.51 459.871 501.46 460.698C500.649 462.774 499.839 464.849 499.03 466.922ZM515.91 705.746C551.758 704.935 586.325 694.193 619.933 681.788C633.453 676.712 647.446 670.57 660.693 664.313C656.699 666.091 652.685 667.839 648.472 669.624C639.206 673.796 629.282 677.983 619.838 681.535C587.764 693.511 554.459 703.527 522.082 705.212C519.98 705.431 518.014 705.608 515.91 705.746ZM456.934 23.2485C469.369 19.4987 479.637 16.9407 493.445 13.9097C480.21 16.3171 473.763 18.4111 461.406 21.5481C461.399 21.5502 461.392 21.5522 461.385 21.5543C459.911 22.1071 458.427 22.6718 456.934 23.2485ZM611.611 154.06C613.072 150.421 614.541 146.757 615.998 143.124C614.434 147.553 612.844 152.049 611.28 156.464C611.391 155.662 611.501 154.861 611.611 154.06ZM910.476 519.708C922.19 512.915 951.309 494.222 960.868 488.86C961.488 488.512 956.022 492.081 965.194 486.86C958.363 490.97 953.547 493.846 952.897 493.922C950.929 495.242 948.949 496.57 946.977 497.892C943.586 499.895 940.201 501.896 936.821 503.894C937.329 503.904 937.052 504.056 931.827 507.053C929.521 508.555 927.25 510.035 924.918 511.553C923.86 512.068 922.802 512.583 921.744 513.098C919.794 514.49 917.845 515.881 915.9 517.269C907.899 521.989 912.551 518.755 910.476 519.708ZM870.209 544.525C872.1 543.327 925.503 510.705 901.599 526.054C895.254 529.937 888.914 533.814 882.622 537.656C887.354 533.689 870.651 544.887 869.195 545.796C862.433 550.04 853.793 555.061 848.867 558.071C844.61 560.674 842.175 562.342 839.196 564.145C829.14 570.239 812.97 579.949 810.606 580.919C818.459 576.209 826.631 571.281 834.722 566.392C843.372 561.162 850.857 556.206 867.313 546.71C871.314 544.2 869.731 544.836 870.209 544.525ZM619.762 131.922C619.562 132.47 625.384 109.233 625.135 109.134C625.275 109.084 623.818 116.666 623.546 117.792C623.544 117.799 623.543 117.806 623.541 117.814C623.452 118.261 624.118 116.029 623.341 119.564C622.318 123.636 621.063 127.952 619.762 131.922ZM1408.55 265.377C1410.01 265.013 1428.96 261.653 1448.21 261.941C1467.42 261.914 1485.95 265.81 1487 266.112C1487.58 266.26 1486.75 266.183 1486.97 266.283C1470.28 262.24 1445.75 261.391 1429.48 262.973C1425.01 263.354 1426.33 263.108 1426.07 263.122C1426.06 263.123 1426.05 263.124 1426.04 263.125C1423.5 263.286 1411.84 265.179 1408.55 265.377ZM981.126 476.637C978.489 478.321 975.83 480.019 973.182 481.712C972.441 482.029 971.7 482.347 970.959 482.665C970.965 482.661 970.971 482.657 970.977 482.653C974.357 480.648 977.759 478.631 981.126 476.637ZM1074.07 420.135C1073.46 420.594 1072.84 421.053 1072.22 421.512C1065.44 425.541 1058.61 429.617 1051.85 433.667C1052.56 433.299 1053.27 432.93 1053.97 432.562C1043.79 438.791 1039.4 441.103 1033.96 444.424C1033.97 444.42 1033.97 444.416 1033.98 444.413C1033.39 444.771 1032.77 445.346 1030.59 446.667C1025.59 449.69 1011.31 458.426 1009.49 459.333C1005.64 461.231 1034.54 443.921 1039.94 440.681C1042.37 439.211 1045.22 437.326 1046.7 436.436C1048.33 435.461 1050.64 434.309 1054.59 431.944C1055.72 431.26 1068.5 423.378 1074.07 420.135ZM1195.71 351.792C1193.63 353.097 1189.02 355.359 1187.38 356.273C1186.99 356.491 1190.11 354.991 1186.44 357.011C1185.35 357.476 1184.26 357.943 1183.17 358.411C1187.27 356.227 1191.52 353.986 1195.71 351.792ZM627.24 92.7629C627.403 93.4697 626.1 106.141 625.834 106.773C625.039 110.6 625.824 105.818 626.367 100.848C626.944 95.8578 627.179 90.3859 627.24 92.7629ZM364.663 59.2528C367.407 57.6259 349.769 66.1184 332.191 75.6223C318.059 83.2287 304.1 90.6974 301.545 92.0252C301.863 92.2129 316.451 84.1532 309.026 88.5562C313.809 85.857 324.207 80.3429 332.383 75.9818C336.569 73.7498 340.008 71.9537 341.632 71.083C344.544 69.524 345.15 68.9167 345.588 68.6812C347.233 67.7566 362.803 60.3015 364.663 59.2528ZM250.342 118.889C256.196 115.77 262.058 112.668 267.938 109.562C260.922 113.149 253.99 116.703 246.991 120.321C248.05 119.873 249.253 119.351 250.342 118.889ZM242.842 122.649C242.913 122.263 223.09 132.95 217.763 135.706C223.983 132.987 233.452 127.441 242.842 122.649ZM592.706 20.2217C601.692 25.4675 604.657 29.0781 594.474 21.6301C594.163 21.4137 592.324 20.0108 592.706 20.2217ZM912.539 516.932C914.042 516.001 932.73 504.144 933.871 503.614C937.537 501.905 925.179 509.295 921.082 512.025C914.55 516.383 924.478 510.547 908.113 520.42C908.827 520.091 909.54 519.761 910.254 519.431C900.764 525.31 903.542 522.839 901.794 523.817C901.283 524.102 895.302 527.845 894.205 528.47C880.47 536.304 911.166 517.788 912.539 516.932ZM576.485 256.837C569.735 276.416 572.377 267.886 565.2 287.876C564.766 288.481 575.408 259.31 576.485 256.837ZM739.557 620.959C758.316 610.48 773.552 601.29 790.758 591.545C790.13 592.746 734.774 624.012 739.557 620.959ZM1628.9 350.749C1572.64 291.126 1475.81 240.287 1387.5 268.723C1379.51 270.789 1377.64 271.59 1375.13 272.357C1374.73 272.485 1374.3 272.616 1373.82 272.759C1371.66 273.402 1371.99 273.112 1369.11 274.012C1264.13 308.677 1172.07 362.1 1080.86 415.078C1075.15 418.413 1047.5 435.305 1041.3 438.385C1036.6 440.694 1056.68 429.051 1060.03 427.069C1062.54 425.575 1062.54 425.336 1064.21 424.343C1065.98 423.29 1064.59 424.279 1066.65 423.06C1075.38 417.895 1084.84 412.262 1092.79 407.634C1170.5 362.695 1247.2 319.806 1330.39 287.133C1340.6 283.227 1338.46 283.906 1338.97 283.703C1338.98 283.701 1338.99 283.699 1338.99 283.697C1350.47 279.424 1362.78 275.215 1374.9 271.589C1421 257.179 1475.01 255.992 1520.35 274.482C1560.98 290.237 1595.23 318.317 1626.27 348.043C1627.15 348.945 1628.03 349.847 1628.9 350.749ZM873.872 541.378C878.163 538.019 879.426 537.986 895.845 527.596C897.248 526.856 898.653 526.116 900.059 525.375C891.258 530.763 882.55 536.086 873.844 541.395C873.853 541.389 873.862 541.383 873.872 541.378ZM982.671 474.237C985.006 471.81 1022.29 449.762 1038.94 439.609C1042.21 438.119 1017.84 452.592 1012.16 456.111C1009.32 457.855 994.255 467.524 982.558 474.406C982.596 474.35 982.634 474.293 982.671 474.237ZM431.543 29.297C434.407 28.2839 437.482 27.2225 440.523 26.2063C432.756 28.9718 425.931 31.5884 418.315 34.6587C430.185 29.9563 442.072 25.6748 453.867 21.948C451.554 22.4849 449.38 22.9963 447.102 23.5586C442.031 25.3356 436.412 27.4042 431.543 29.297ZM470.467 17.066C449.572 22.8561 471.224 17.1202 476.911 15.6088C480.101 14.6926 472.746 16.444 470.467 17.066ZM527.075 7.09056C516.747 7.1099 495.993 10.5385 503.493 9.95616C514.603 8.04421 521.56 7.20349 537.881 6.85493C535.55 6.73604 533.168 6.66352 530.735 6.63861C530.724 6.63906 530.713 6.63946 530.701 6.63986C529.442 6.78087 528.239 6.9319 527.075 7.09056ZM460.779 19.3919C446.913 23.6372 487.3 12.4052 474.501 15.6356C473.744 15.7624 461.359 19.1571 460.779 19.3919ZM1557.7 292.288C1559.09 293.339 1549.57 287.614 1546.26 285.907C1532.19 278.164 1513.05 270.175 1496.75 266.168C1497.98 266.416 1499.21 266.676 1500.43 266.946C1520.67 272.529 1539.89 281.356 1557.7 292.288ZM1444.9 259.9C1433.28 259.996 1421.9 261.024 1410.53 262.845C1409.5 263 1404.54 263.691 1408.2 263.016C1420.21 261.045 1432.5 259.927 1444.9 259.9ZM811.522 577.835C818.925 573.275 797.199 585.607 798.366 585.607C802.854 582.966 807.108 580.453 811.522 577.835ZM741.002 618.737C745.783 616.106 750.653 613.4 755.498 610.686C755.469 610.622 755.44 610.558 755.412 610.493C750.596 613.27 745.754 616.041 741.002 618.737ZM1594.33 318.499C1589.72 314.952 1578.76 306.362 1571.57 301.453C1576.65 304.649 1587.99 313.327 1594.33 318.499ZM923.501 509.172C922.986 509.68 952.628 491.385 942.201 497.464C935.946 501.379 929.743 505.263 923.501 509.172ZM983.707 471.897C977.32 475.761 972.397 478.847 973.846 478.26C977.234 476.171 980.598 474.099 983.974 472.021C983.885 471.98 983.796 471.938 983.707 471.897ZM566.442 9.02041C578.916 11.6127 591.226 16.4021 601.516 24.2505C601.176 23.9041 600.831 23.5601 600.481 23.2184C590.372 15.8347 578.482 11.3061 566.441 8.80583C566.441 8.87736 566.442 8.94886 566.442 9.02041ZM1600.22 322.607C1606.78 328.246 1613.21 334.098 1619.5 340.051C1613.14 334.161 1606.65 328.375 1600.02 322.805C1600.09 322.734 1600.15 322.663 1600.21 322.591C1600.21 322.597 1600.22 322.602 1600.22 322.607ZM397.86 40.9246C433.564 25.7811 387.73 44.1517 378.763 49.216C378.753 49.2202 378.742 49.2245 378.732 49.2288C377.923 49.6491 379.757 49.0291 378.417 49.7398C382.021 47.9713 385.584 46.2549 389.106 44.5896C392.435 43.2389 395.53 42.016 399.05 40.6403C400.142 40.1251 401.23 39.6149 402.314 39.1099C400.837 39.7055 399.353 40.3104 397.86 40.9246ZM258.925 110.824C227.891 127.02 259.894 110.908 275.017 102.663C274.857 102.643 261.761 109.347 258.925 110.824ZM340.084 68.3692C345.046 65.8399 349.828 63.4535 354.766 61.0397C355.387 60.6641 356.006 60.2899 356.624 59.9174C352.604 61.8481 349.09 63.5581 345.276 65.4481C343.553 66.4109 341.823 67.3845 340.084 68.3692ZM510.286 6.28264C519.083 5.27481 530.54 4.22727 501.964 7.92517C501.967 7.85325 501.971 7.78144 501.975 7.70956C503.151 7.52335 506.54 7.08073 506.717 7.05451C507.236 6.96655 506.603 6.79999 510.286 6.28264ZM200.888 139.263C199.903 139.757 199.262 139.255 190.422 144.834C187.418 146.382 184.953 147.643 182.138 149.093C181.504 149.616 180.865 150.143 180.219 150.673C190.638 144.968 192.158 144.537 192.892 144.153C196.452 142.292 193.759 143.533 196.014 142.33C201.868 139.204 215.434 132.137 208.989 135.007C206.829 135.956 201.846 138.784 200.888 139.263ZM221.614 127.796C220.358 128.53 224.592 126.538 223.65 127.105C222.858 127.58 210.069 134.603 213.729 133.079C215.863 131.931 217.744 130.918 220.018 129.698C220.707 129.22 221.386 128.747 222.054 128.281C224.149 127.279 226.098 126.355 228.312 125.292C231.66 123.247 238.765 119.15 230.037 123.513C233.064 121.943 236.579 120.12 239.635 118.543C241.428 117.737 243.149 116.97 244.809 116.237C243.884 116.516 242.942 116.805 241.982 117.103C235.219 120.635 228.27 124.286 221.614 127.796ZM122.513 180.788C122.945 180.662 123.375 180.537 123.804 180.413C111.625 186.754 93.8187 196.256 104.353 191.257C120.034 182.882 136.282 174.213 152.073 165.809C153.116 165.17 154.148 164.538 155.169 163.911C143.111 170.679 146.625 167.488 136.378 173.359C134.652 174.348 139.908 171.985 128.745 177.683C129.075 177.399 129.405 177.116 129.733 176.833C127.373 178.126 124.966 179.445 122.513 180.788ZM21.5411 235.306C42.114 224.058 18.9623 236.155 15.8729 238.144C15.879 238.141 15.8854 238.138 15.8916 238.134C6.30189 244.189 27.4727 232.343 29.1162 231.463C30.9057 230.506 35.4578 228.682 44.4486 222.916C37.0872 226.897 29.3733 231.069 21.5411 235.306ZM87.2014 199.772C85.5372 200.647 86.5205 200.278 85.8025 200.662C85.7964 200.666 85.7899 200.669 85.7837 200.672C74.8489 206.52 49.4866 220.04 46.6681 222.077C54.9939 217.63 90.6018 198.57 92.2869 197.316C90.6089 198.125 88.9138 198.944 87.2014 199.772ZM162.938 159.5C169.465 155.674 154.729 163.514 150.767 165.793C150.044 166.214 156.443 163.322 162.938 159.5ZM629.506 119.745C625.27 136.054 630.449 114.533 628.348 121.894C629.112 118.862 629.853 115.532 630.451 112.399C630.197 114.82 629.881 117.272 629.506 119.745ZM599.28 681.363C602.968 680.078 601.274 680.829 601.595 680.724C603.885 679.936 606.02 679.038 606.921 678.735C623.793 672.919 612.682 677.098 612.5 677.21C612.203 677.496 616.703 676.066 610.63 678.48C606.851 679.78 603.432 680.913 599.527 682.167C597.668 682.891 595.83 683.596 594.012 684.283C586.609 686.442 596.185 683.329 597.25 682.675C597.643 682.435 590.575 684.645 599.28 681.363ZM621.18 148.709C620.013 151.128 617.472 157.197 619.341 151.022C619.344 151.015 619.346 151.009 619.349 151.002C619.695 149.86 621.28 145.287 621.701 143.865C622.134 142.768 622.507 141.844 622.823 141.081C624.565 136.771 624.614 137.366 623.478 141.31C622.955 143.103 622.172 145.622 621.18 148.709ZM531.543 696.893C525.555 697.599 519.348 698.043 513.219 698.063C513.322 698.24 513.425 698.417 513.529 698.594C516.978 698.562 519.98 698.42 523.367 698.173C524.524 698.184 525.811 698.173 526.895 698.166C522.713 698.703 518.765 699.085 514.619 699.299C509.664 699.241 504.734 698.913 500.054 698.269C502.2 698.437 504.424 698.545 506.731 698.59C494.972 697.444 497.428 698.185 487.938 696.15C484.929 695.165 481.737 693.887 478.936 692.461C474.583 690.709 470.61 688.52 466.937 685.686C461.27 680.511 461.199 679.71 464.84 683.29C462.276 680.533 459.387 677.549 457.165 673.518C456.983 673.187 457.512 673.702 457.348 673.412C451.764 662.99 451.429 656.837 450.682 653.749C450.124 650.552 449.963 649.911 449.803 647.915C449.396 645.153 450.211 633.797 450.481 633.663C450.539 633.555 450.362 639.397 450.574 640.614C451.01 641.856 449.921 638.556 453.302 620.334C449.248 639.33 452.486 660.313 450.363 646.735C450.515 649.711 451.211 657.72 453.588 664.579C455.814 671.503 459.697 676.908 460.174 677.503C461.587 679.305 461.268 678.551 463.144 680.69C464.407 681.671 466.337 686.563 479.108 692.075C480.72 692.89 482.253 693.587 483.96 694.271C485.646 694.764 487.195 695.145 488.86 695.503C485.65 694.382 482.361 692.973 479.46 691.385C491.608 696.977 503.798 697.158 512.307 697.81C519.981 697.819 523.439 697.404 520.245 697.35C522.462 697.26 524.903 697.107 527.102 696.924C528.554 696.934 530.034 696.924 531.543 696.893ZM604.592 194.181C602.216 201.664 600.717 204.103 601.094 202.948C603.224 196.433 605.83 190.281 604.592 194.181ZM586.019 685.947C577.708 688.633 569.561 691.004 561.42 693.04C561.379 692.858 561.337 692.677 561.295 692.495C569.463 690.644 577.654 688.455 586.019 685.947ZM630.464 117.367C630.501 116.524 630.531 115.685 630.555 114.85C633.016 105.395 633.073 95.3714 633.303 90.5738C633.36 89.5291 633.57 91.6409 633.517 93.6669C633.864 95.056 631.221 115.711 630.464 117.367ZM319.596 75.7257C322.755 74.1531 325.754 72.6634 329.097 70.9875C328.843 70.9452 328.588 70.9025 328.334 70.8595C326.716 71.6888 325.142 72.4938 323.61 73.2758C322.238 74.1112 321.062 74.8414 319.596 75.7257ZM355.658 57.2693C361.449 54.383 367.143 51.6212 372.738 48.9809C351.073 59.1765 368.851 50.5402 355.455 56.8597C355.523 56.9963 355.59 57.1328 355.658 57.2693ZM414.128 30.7283C413.387 30.9204 412.644 31.1147 411.898 31.3115C406.126 33.6175 400.187 36.0894 394.217 38.6721C397.843 36.7482 401.517 34.8429 405.102 33.0139C407.256 32.1259 409.394 31.2576 411.515 30.4091C412.389 30.5127 413.26 30.6191 414.128 30.7283ZM750.933 607.321C754.244 605.43 765.714 599.123 765.31 599.473C760.594 602.36 756.016 605.15 751.297 608.001C751.182 607.851 751.067 607.702 750.951 607.552C750.313 608.025 749.675 608.497 749.038 608.968C746.255 610.477 743.489 611.97 740.74 613.445C739.453 614.361 738.169 615.273 736.889 616.181C735.432 616.787 733.979 617.389 732.531 617.986C745.356 610.402 745.167 610.845 747.898 609.294C749.295 608.494 750.126 607.885 750.595 607.55C750.707 607.474 750.82 607.397 750.933 607.321ZM579.938 686.51C596.223 681.686 605.578 678.775 617.082 674.177C617.62 673.958 618.163 673.734 618.713 673.504C618.306 673.712 617.767 673.964 617.111 674.252C605.686 679.785 559.411 693.437 541.871 695.924C539.941 696.082 538.088 696.204 536.2 696.308C546.02 695.138 552.901 693.381 557.807 692.278C561.772 691.363 561.239 691.617 561.565 691.544C561.578 691.541 561.592 691.537 561.605 691.534C570.405 689.385 573.344 688.402 579.938 686.51ZM633.481 103.722C633.137 108.874 631.39 117.445 631.011 117.506C631.954 112.654 632.678 107.841 633.169 102.911C633.131 103.921 633.548 102.86 633.481 103.722ZM420.827 27.1552C424.433 25.646 432.812 22.7115 429.304 24.2826C428.693 24.5409 420.198 27.5048 425.317 26.1318C417.083 29.221 418.777 28.0127 420.827 27.1552ZM488.135 518.524C489.23 515.525 490.313 512.559 491.406 509.569C491.781 508.916 492.157 508.264 492.533 507.611C491.063 511.257 489.604 514.875 488.135 518.524ZM631.386 60.577C629.576 56.3125 627.692 48.5886 622.77 41.3198C621.137 38.5579 619.322 35.9064 617.326 33.3799C617.321 33.3736 617.316 33.3674 617.311 33.3611C617.395 33.1842 617.478 33.0069 617.561 32.8291C624.105 41.018 628.703 50.6645 631.386 60.577ZM477.433 690.713C475.844 690.026 474.307 689.274 472.777 688.417C470.252 686.735 467.862 684.783 465.764 682.657C467.008 683.743 468.253 684.708 469.614 685.652C471.998 687.561 474.688 689.283 477.433 690.713ZM598.65 16.0001C608.047 22.2017 610.954 25.328 599.312 16.9821C594.226 13.817 588.291 10.2393 598.65 16.0001ZM918.897 506.364C915.913 508.257 912.935 510.147 909.964 512.032C908.882 512.561 907.801 513.089 906.72 513.617C910.768 511.207 914.827 508.788 918.897 506.364ZM375.492 46.4563C375.928 46.3829 376.364 46.3102 376.799 46.2382C379.722 44.8609 382.619 43.5173 385.489 42.207C384.717 42.4249 383.944 42.6453 383.168 42.8677C380.63 44.038 378.072 45.2341 375.492 46.4563ZM898.784 518.831C896.43 520.306 893.997 521.828 891.611 523.322C889.965 524.267 888.32 525.211 886.679 526.153C888.894 524.726 891.114 523.295 893.338 521.861C895.155 520.85 896.993 519.826 898.784 518.831ZM499.054 4.78324C503.1 3.85534 519.204 2.18832 504.765 4.28012C495.398 5.83365 498.553 4.91135 499.054 4.78324ZM477.805 9.03599C492.423 5.50313 481.813 8.84399 463.849 12.8939C481.625 8.22149 476.967 9.32288 477.805 9.03599ZM352.62 56.4657C352.285 56.635 352.014 56.9846 349.384 58.3168C343.115 61.4902 335.387 65.5393 328.726 69.1267C325.173 71.0373 322.187 72.6401 319.948 73.835C303.333 82.8485 252.57 108.683 246.844 112.324C245.66 113.076 248.67 111.907 248.173 112.187C246.704 113.007 238.151 117.286 239.818 116.71C248.177 112.329 256.509 108.002 264.851 103.688C262.728 104.578 260.57 105.487 258.452 106.376C279.288 95.7095 272.392 99.2638 278.547 96.5256C281.989 94.5634 285.475 92.5714 288.839 90.6364C296.536 86.7874 304.2 82.9226 312 78.9662C310.126 79.8271 308.322 80.6502 306.581 81.4386C318.063 75.1163 314.77 77.0167 321.275 73.8815C321.233 73.772 321.19 73.6625 321.148 73.553C324.317 71.962 326.89 70.624 328.941 69.5295C333.791 66.9456 335.312 65.9607 337.06 65.0425C342.184 62.4083 348.925 60.2704 367.948 49.6179C376.242 46.4221 375.764 45.1887 380.934 43.5721C394.768 36.5223 367.981 48.7926 355.528 55.1475C355.521 55.1508 355.514 55.1541 355.508 55.1574C354.549 55.6358 356.022 54.7613 352.62 56.4657ZM425.821 25.1018C416.722 27.6587 451.806 15.2451 440.448 20.1361C438.709 20.7546 436.959 21.388 435.196 22.036C431.899 23.0876 428.971 24.0405 425.8 25.1093C425.807 25.1068 425.814 25.1043 425.821 25.1018ZM610.995 181.431C599.379 213.309 605.532 194.996 609.697 184.313C610.527 182.181 611.039 181.018 610.995 181.431ZM604.025 678.317C604.501 678.229 604.978 678.139 605.457 678.048C594.87 681.866 574.103 688.215 574.364 687.531C584.229 684.855 594.162 681.733 604.025 678.317ZM518.621 696.657C520.861 696.642 530.481 695.807 529.299 696.061C525.408 696.566 520.907 696.972 517.007 697.172C515.096 697.128 513.088 697.045 511.219 696.919C513.854 696.971 518.068 696.692 518.621 696.657Z" fill="#87392B" fill-opacity="0.36"/>
</svg>
