<svg width="1770" height="713" viewBox="0 0 1770 713" fill="none" xmlns="http://www.w3.org/2000/svg">
<path d="M1713.68 470.774C1664.62 498.899 1634.28 528.297 1585.65 556.405C1527.45 594.747 1432.89 608.936 1358.65 569.793C1301.94 542.986 1251.28 508.634 1206.87 476.936C1130.22 421.725 1056.25 360.465 984.42 300.453C980.735 297.371 978.662 295.389 976.995 293.993C961.276 280.831 934.814 258.87 919.264 245.833C886.518 218.298 829.249 170.903 798.67 146.722C785.665 136.34 772.41 126.118 767.385 121.738C762.55 118.034 759.704 116.418 758.442 115.498C758.428 115.487 758.414 115.476 758.401 115.465C754.521 112.62 743.996 104.498 741.81 102.949C741.474 102.711 743.366 104.443 737.95 100.411C737.426 100.026 738.179 100.305 733.328 96.8276C731.951 95.7969 716.325 85.2135 711.477 82.0361C702.649 76.1174 685.897 65.0344 669.837 56.1332C658.262 49.6821 647.239 44.1156 639.255 40.3956C636.177 38.9601 634.381 38.2714 631.234 36.8786C629.622 36.1647 627.236 34.9982 626.673 34.7607C624.296 33.7036 614.421 30.4179 618.311 30.7201C607.916 26.7939 610.801 28.3875 610.494 28.5079C599.334 24.5249 594.003 22.6082 590.728 22.296C564.566 15.1737 534.253 13.0543 517.027 30.7483C499.894 48.3711 499.229 78.879 504.476 105.212C505.055 108.088 505.635 110.973 506.218 113.866C506.314 113.866 506.41 113.865 506.505 113.865C509.679 131.411 511.52 137.261 513.02 147.364C514.386 153.468 515.764 159.621 517.134 165.732C545.298 305.288 574.683 444.34 601.994 582.804C605.728 602.008 607.204 621.703 603.807 641.688C602.403 648.699 602.186 650.587 597.975 661.998C593.408 674.425 582.047 691.559 566.017 700.546C552.316 709.244 529.201 713.264 512.459 712.285C508.54 712.148 506.036 712.053 505.568 712.021C503.092 711.812 502.984 711.6 500.545 711.335C497.491 710.993 494.328 710.711 490.996 710.154C478.716 708.164 465.925 704.48 464.472 704.043C457.23 701.875 455.785 701.105 455.226 700.937C447.526 698.316 450.337 699.425 448.405 698.746C438.309 695.036 431.323 691.804 418.228 686.323C418.656 686.34 419.083 686.355 419.509 686.369C409.41 681.597 415.92 685.085 413.81 684.192C412.818 683.916 391.523 673.096 390.138 672.187C384.619 669.172 384.545 668.85 384.069 668.59C382.792 667.921 368.883 660.299 361.892 655.762C353.542 650.395 363.742 656.114 361.681 654.755C361.245 654.493 352.694 649.255 351.645 648.408C350.476 647.503 357.784 652.083 357.692 651.939C357.672 651.915 345.633 643.941 348.077 645.234C350.01 646.301 366.694 656.936 370.382 658.905C370.98 659.239 369.997 658.362 370.525 658.662C372.149 660.084 412.74 681.806 414.716 682.215C412.431 681.266 410.28 680.357 408.143 679.439C410.868 680.79 413.813 682.214 416.722 683.58C412.463 681.701 408.497 679.882 404.458 677.964C409.71 681.823 428.765 689.372 429.702 689.128C429.96 689.02 419.178 683.704 429.672 687.894C427.986 687.113 426.566 686.434 425.003 685.682C421.747 684.347 418.444 682.941 415.094 681.463C417.274 682.557 419.434 683.62 421.575 684.652C420.751 684.352 419.923 684.049 419.093 683.74C412.784 680.958 406.941 678.225 400.862 675.236C397.783 673.597 398.517 673.752 396.387 672.596C370.988 658.288 387.026 667.789 370.664 658.298C368.367 656.821 366.052 655.314 363.72 653.777C364.31 654.639 357.104 649.997 348.402 644.644C349.519 645.191 350.632 645.732 351.74 646.266C338.735 638.305 314.534 620.56 320.74 625.811C317.936 623.777 315.319 621.852 312.579 619.819C310.174 618.264 307.754 616.682 305.317 615.073C303.168 613.502 301.005 611.91 298.831 610.296C297.691 609.45 296.575 608.622 295.483 607.812C295.509 607.745 295.535 607.679 295.562 607.613C296.671 608.429 297.804 609.263 298.963 610.117C300.459 611.219 301.95 612.311 303.435 613.393C302.044 612.182 300.648 610.961 299.247 609.731C298.789 609.33 298.335 608.932 297.885 608.538C295.919 607.133 294.024 605.782 292.196 604.481C299.785 610.312 289.499 603.146 286.646 601.4C280.027 596.668 275.969 593.259 273.692 591.577C272.788 590.899 259.87 582.3 265.221 585.323C258.819 580.779 252.347 576.218 245.913 571.705C243.447 569.869 240.971 568.027 238.509 566.194C244.118 569.82 228.594 558.192 240.285 566.418C248.991 572.54 250.986 574.349 255.044 577.271C258.731 579.929 260.805 581.175 264.825 584.079C277.064 592.929 288.495 601.317 299.478 609.418C312.902 619.314 325.941 628.522 340.129 637.934C345.54 641.52 350.431 644.523 353.962 646.76C357.939 649.271 352.818 646.376 357.913 649.477C363.392 652.787 364.796 653.365 366.236 654.232C367.147 654.778 369.923 656.66 372.535 658.19C383.352 664.632 399.699 673.054 401.459 673.897C403.125 675.13 435.399 690.187 437.301 690.56C438.121 690.892 436.184 690.933 443.651 693.003C445.993 693.876 448.402 694.742 450.737 695.549C450.312 695.547 449.886 695.544 449.458 695.54C463.293 699.699 458.759 698.606 472.137 702.307C503.042 711.991 563.222 713.737 585.706 677.125C590.475 669.973 591.968 666.908 595.492 657.531C599.399 648.838 602.272 624.747 600.964 629.924C602.671 609.411 600.469 606.304 600.07 596.099C599.81 594.855 599.549 593.688 599.274 592.498C598.863 588.933 598.405 586.142 597.912 583.591C596.946 578.607 595.984 574.594 594.42 566.845C593.416 561.873 594.973 567.541 592.513 557.563C592.166 555.627 591.82 553.701 591.474 551.779C591.664 552.205 591.854 552.631 592.044 553.056C589.749 541.926 589.65 541.168 589.526 542.525C588.52 537.111 587.52 531.734 586.507 526.309C586.248 525.66 585.99 525.017 585.732 524.373C585.862 525.612 591.387 553.083 597.462 583.677C606.286 619.285 596.532 660.821 590.294 668.737C585.394 678.184 574.727 691.312 560.575 698.453C546.6 705.897 531.401 707.701 522.931 708.052C516.247 708.263 512.965 708.039 503.358 707.182C493.504 706.288 481.498 704.039 476.396 702.759C458.633 700.831 384.568 666.647 435.382 688.796C433.951 688.06 432.512 687.309 431.064 686.544C410.973 678.208 418.01 681.054 401.893 673C394.764 669.422 379.068 660.996 380.118 660.817C392.705 667.87 405.877 674.935 417.128 680.176C418.323 680.782 431.609 686.486 438.743 689.326C444.993 691.803 440.333 690.882 454.64 695.193C464.802 699.325 471.284 700.329 474.046 700.985C479.089 702.132 479.554 702.575 484.405 703.636C489.761 704.776 493.692 705.125 494.387 705.232C497.885 705.786 509.868 707.361 520.858 706.943C532.119 706.707 542.173 704.22 543.137 704.007C541.528 704.48 540.048 704.874 538.489 705.248C548.644 703.05 546.422 702.945 548.99 702.166C550.846 701.546 552.877 700.78 554.735 699.988C554.018 700.37 553.29 700.741 552.55 701.103C563.687 695.938 555.69 700.653 570.221 690.919C579.223 684.221 585.819 674.509 586.319 673.607C586.483 673.335 584.454 676.191 586.86 672.349C591.017 666.052 595.321 653.814 595.811 652.477C596.781 648.992 596.426 649.204 596.551 648.74C598.412 646.85 601.107 610.777 599.316 604.389C598.72 597.785 597.739 590.942 596.355 583.891C594.111 572.458 591.767 560.543 589.429 548.901C589.044 546.985 589.438 548.179 589.051 546.258C588.427 543.153 585.04 527.392 584.545 525.014C583.33 519.138 580.305 503.578 579.745 501.151C579.665 500.806 580.49 505.959 579.225 499.993C577.819 493.361 578.811 496.884 578.742 496.523C576.121 483.023 574.208 474.536 572.305 465.32C571.69 462.344 570.779 456.796 569.862 452.589C569.757 452.105 569.763 453.105 569.656 452.63C568.266 446.286 567.408 440.265 566.87 437.5C565.555 430.75 566.042 434.472 565.968 434.121C565.048 429.641 563.909 423.567 562.507 416.751C556.245 386.331 551.139 361.502 544.517 329.158C543.684 325.094 542.877 320.236 542.75 319.615C542.354 317.696 542.252 318.289 541.116 312.736C538.721 301.024 536.481 290.179 534.102 278.586C533.623 276.251 533.619 275.216 533.257 273.437C532.045 267.474 527.34 247.225 527.921 246.756C524.915 235.041 523.795 227.069 521.832 217.531C517.187 194.957 509.833 159.608 505.334 137.091C504.39 132.363 504.099 130.076 503.573 127.443C503.033 124.733 500.944 114.576 499.24 106.252C497.989 100.193 497.352 94.9947 497.288 94.4019C497.131 91.6141 497.508 93.2568 496.367 79.0341C496.335 70.6999 496.808 71.6872 496.883 69.9844C497.63 56.5555 501.803 44.2687 501.549 46.7697C506.647 32.2687 514.367 25.2061 519.577 22.1507C519.353 21.9875 524.954 17.4539 533.31 14.9574C529.283 16.5511 527.512 17.5876 524.564 19.2866C521.703 21.1456 517.029 23.361 510.365 31.4468C510.16 31.7052 510.387 31.082 510.181 31.3406C508.265 33.6433 504.956 39.0336 503.007 43.8387C501.071 48.6776 502.014 45.9363 501.302 47.8923C500.703 49.7028 500.887 49.7082 500.141 52.374C497.786 61.062 497.296 69.198 497.155 74.383C497.062 77.6382 496.967 81.3439 497.099 83.8837C497.338 89.1645 498.234 97.6033 500.014 106.098C501.561 113.603 503.157 121.348 504.337 127.202C504.868 129.838 504.449 128.763 505.608 134.546C505.743 135.219 506.438 137.616 507.506 142.651C508.577 147.697 509.274 151.623 509.953 154.852C510.523 157.556 510.468 156.384 511.615 161.945C512.558 166.557 523.164 218.998 523.726 221.855C524.525 225.956 524.673 227.945 525.216 230.438C525.313 230.877 525.707 231.572 526.037 233.094C531.479 258.163 542.588 313.834 548.48 342.546C560.796 402.558 572.259 457.912 584.457 518.512C584.715 519.584 584.973 520.656 585.231 521.727C584.009 515.609 582.778 509.463 581.551 503.349C581.657 503.288 581.762 503.226 581.868 503.165C580.22 494.874 580.17 496.018 580.056 496.286C579.509 493.212 578.962 490.14 578.412 487.06C577.483 484.48 573.621 464.009 571.481 453.473C570.091 446.62 568.285 438.504 567.56 434.885C566.034 427.257 566.317 427.404 566.199 426.804C565.996 425.781 563.612 415.177 562.051 407.488C559.744 396.131 559.867 394.82 556.368 379.34C552.485 359.379 547.858 337.327 543.416 315.866C544.601 319.884 540.322 300.714 538.543 292.032C527.698 239.099 514.466 174.018 503.73 120.355C502.519 114.307 501.719 109.549 501.018 105.899C500.918 105.381 500.823 104.885 500.731 104.41C500.344 102.38 499.934 101.534 499.518 98.6876C499.464 98.1865 499.56 97.8104 498.965 92.5148C496.224 79.2782 500.337 46.3453 506.11 40.156C528.061 -2.01067 587.387 14.3962 626.921 31.0515C627.963 31.5925 629.094 32.1782 630.07 32.7033C636.207 34.8468 656.128 44.3044 671.554 53.0162C676.092 55.5357 680.425 58.0692 683.967 60.1758C709.901 75.5045 740.918 97.6497 762.085 113.588C766.627 117 770.309 119.967 774.7 123.326C776.621 124.796 778.919 126.342 780.841 127.825C802.542 144.516 831.243 167.85 852.475 185.274C900.847 224.937 945.79 263.04 994.549 303.67C1110.81 398.913 1225.37 498.705 1360.48 565.87C1417.6 594.023 1487.16 598.069 1545.35 571.789C1547.99 570.665 1547.95 570.9 1549.99 570C1562.19 564.967 1587.71 550.459 1599.91 542.213C1609.84 535.844 1625.1 525.342 1628.21 522.68C1594.4 546.591 1556.44 570.96 1513.77 582.184C1510.77 582.974 1510.34 582.865 1509.96 582.958C1503.05 584.521 1507.44 583.899 1497.38 585.91C1494.08 587.21 1462.2 589.209 1466.07 589.248C1458.12 591.041 1405.09 583.472 1395.45 578.728C1392.49 577.818 1394.53 578.651 1393.94 578.475C1391.38 577.692 1390.3 577.066 1388 576.267C1381.59 574.167 1366.81 568.238 1363.8 566.755C1362.97 566.377 1361.93 565.898 1360.73 565.33C1352.86 561.679 1337.12 553.486 1330.05 549.641C1322.48 545.56 1323.61 546.471 1317.2 542.892C1312.15 540.023 1317.78 543.053 1306.5 536.41C1300.67 533.038 1281.59 521.496 1276.77 518.357C1272.2 515.449 1267.17 512.029 1260.78 507.833C1251.56 501.848 1231.8 488.441 1222.83 482.126C1222.28 481.747 1220.85 480.981 1219.51 480.031C1216.74 478.06 1217.72 478.446 1215.64 476.935C1213.38 475.447 1177.7 449.399 1171.75 444.768C1167.6 441.642 1164.62 439.567 1162.33 437.833C1160.56 436.481 1160.49 436.17 1158.68 434.785C1158.12 434.357 1153.22 430.851 1148.43 427.154C1143.84 423.649 1126.91 410.241 1124.93 408.663C1123.65 407.651 1124.97 408.879 1121.16 405.881C1117.69 403.146 1115.52 401.184 1113.57 399.638C1109.03 396.033 1103.84 392.113 1099 388.249C1085.09 377.113 1086.02 377.521 1085.18 376.842C1082.9 374.974 1081.84 374.399 1081.08 373.794C1077.89 371.24 1070.05 364.936 1067.22 362.636C1063.69 359.779 1062.33 358.403 1058.59 355.349C1055.81 353.073 1050.05 348.625 1043.69 343.412C1029.38 331.685 1012.39 317.643 998.45 306.017C994.292 302.549 993.765 301.862 992.495 300.797C985.816 295.191 981.946 292.232 980.043 290.639C966.463 279.269 942.396 258.664 929.852 248.13C924.704 243.803 902.154 225.144 889.415 214.532C887.967 213.325 889.419 214.338 887.792 213.016C883.903 209.859 884.07 210.391 882.127 208.768C881.191 207.985 879.1 206.029 876.334 203.718C862.047 191.78 852.037 183.755 845.482 178.392C789.232 132.808 731.562 85.7528 672.11 52.0073C664.357 47.7288 657.28 44.0105 649.598 40.2168C642.243 36.6003 632.633 32.2416 620.815 27.3365C620.493 27.1073 620.172 26.8791 619.851 26.6518C619.413 26.5786 618.977 26.5069 618.543 26.4367C604.895 21.3428 600.048 19.7736 585.791 16.1159C584.72 15.8456 580.81 14.5508 578.455 14.6649C564.326 12.0047 572.2 13.4838 561.535 12.5841C551.03 12.0338 540.719 12.8336 531.403 16.2074C528.889 17.1034 532.71 15.2222 537.873 13.8692C543.016 12.4546 549.195 11.8937 550.038 11.8578C552.416 11.7069 554.994 11.917 557.465 11.9749C564.384 12.1095 571.295 12.8924 572.88 13.3709C582.028 14.5944 570.681 12.8743 571.815 12.8637C577.925 13.8126 584.051 15.1887 589.879 16.7793C593.36 16.2177 625.474 28.7516 623.222 27.6239C625.69 28.7517 628.285 29.9687 630.756 31.1672C641.851 35.2482 648.23 38.7933 662.314 46.3932C661.344 45.7761 660.379 45.1657 659.419 44.562C659.654 44.5927 672.302 51.2097 667.611 49.1407C669.422 50.0376 670.983 50.8407 672.353 51.5661C680.321 55.8305 681.312 57.0509 691.088 62.3699C697.621 66.3511 693.519 64.1173 705.308 71.7328C711.926 76.0426 720.935 81.925 728.214 87.0215C729.944 88.2313 730.576 88.9371 732.126 90.0333C733.677 91.1322 734.557 91.5017 736.455 92.8517C740.451 95.6912 745.066 99.226 747.5 100.992C749.634 102.541 752.814 104.642 758.037 108.499C775.685 121.616 770.304 117.963 773.038 120.133C776.059 122.56 778.376 123.893 784.264 128.5C784.857 128.964 783.186 127.941 785.125 129.434C786.695 130.644 787.61 131.05 792.862 135.099C795.057 136.698 826.746 161.855 831.536 165.81C839.093 171.899 855.105 185.237 862.765 191.554C865.66 193.936 868.885 196.352 871.984 198.914C882.345 207.473 898.657 221.056 911.61 231.889C923.296 241.655 943.457 259.084 950.141 264.195C966.494 277.828 970.32 281.442 971.548 282.476C974.902 285.297 976.556 286.405 980.774 289.917C1035.38 335.493 1107.62 395.126 1161.4 435.8C1224.36 483.273 1289.45 530.186 1361.17 564.402C1431.49 600.679 1519.74 592.503 1584.85 549.655C1585.16 549.358 1585.47 549.063 1585.78 548.763C1569.89 558.372 1550.23 568.166 1532.9 574.373C1510.04 583.526 1473.38 589.153 1455.31 587.292C1462.73 587.533 1474.52 587.099 1474.33 586.735C1461.28 587.624 1448.27 587.22 1435.15 585.545C1435.51 585.745 1435.86 585.941 1436.25 586.141C1422.84 584.587 1409.03 581.496 1395.93 577.411C1393.69 576.708 1395.24 577.345 1393.28 576.716C1391.09 576 1392.62 576.352 1392.21 576.217C1386.67 574.369 1384.9 573.824 1384.22 573.584C1382.5 572.937 1383.75 573.29 1378.93 571.39C1370.04 567.843 1363.31 565.045 1365.7 565.495C1364.32 564.874 1362.94 564.238 1361.55 563.587C1360.07 562.895 1358.59 562.193 1357.1 561.479C1356.3 561.278 1355.5 561.074 1354.7 560.867C1337.36 551.62 1329.37 548.405 1320.21 542.257C1317.12 540.68 1314.02 539.066 1310.89 537.415C1309.26 536.276 1307.61 535.125 1305.97 533.965C1305.56 533.887 1305.15 533.808 1304.74 533.729C1288.39 523.946 1271.31 513.278 1256 503.055C1245.58 496.073 1243.11 494.307 1233.76 487.865C1213.4 473.663 1233.79 487.643 1217.01 475.421C1217.8 476.191 1218.58 476.959 1219.37 477.726C1216.52 475.784 1213.67 473.825 1210.8 471.849C1208.94 470.339 1207.12 468.851 1205.27 467.342C1196.3 461.745 1191.06 457.135 1189.89 456.275C1188.92 455.556 1185.46 453.583 1175.65 445.773C1179.46 449.38 1167.98 440.017 1167.03 439.276C1166.07 438.557 1154.64 430.033 1150 426.437C1146.35 423.633 1138.63 417.497 1133.28 413.322C1128.52 409.616 1128.88 410.147 1128.53 409.878C1122.66 405.3 1126.43 408.056 1122.2 404.72C1117.96 401.374 1114.59 398.921 1113.7 398.195C1113.24 397.827 1114.89 398.887 1112.81 397.219C1107.25 392.75 1096.97 384.759 1090.57 379.607C1088.31 377.787 1085.56 375.365 1083.04 373.325C1079.18 370.198 1077.24 368.899 1075 367.074C1074.22 366.44 1069.43 362.131 1063.24 357.146C1062.06 356.197 1058.17 353.923 1054.21 349.41C1053.77 349.228 1053.33 349.046 1052.89 348.865C1032 332.172 1027.03 326.548 1017.23 319.734C1002.37 307.249 1012.87 315.461 1011.27 314.054C1010.23 313.146 1005.3 309.185 1004.77 308.736C1003.84 307.94 1004.08 307.979 1003.04 307.117C984.025 291.301 992.306 298.506 986.196 293.603C971.696 281.952 961.068 272.031 985.739 292.964C985.784 292.911 985.829 292.857 985.874 292.803C979.722 287.756 964.198 274.723 969.617 278.795C973.886 282.022 1010.65 312.932 989.995 295.191C985.308 291.163 982.685 289.315 974.814 282.091C969.388 277.518 968.192 277.347 961.015 271.005C962.078 272.185 963.143 273.366 964.208 274.548C954.035 266.41 941.881 255.719 934.137 249.4C931.524 247.266 921.398 240.177 924.278 241.205C919.795 237.534 899.276 220.151 895.306 216.982C894.354 216.223 892.823 215.665 879.518 204.38C878.623 203.546 877.728 202.714 876.834 201.882C889.336 211.965 867.637 193.735 873.906 198.229C875.748 200.059 885.5 208.329 886.931 209.678C889.459 212.049 881.355 205.666 891.513 214.009C898.457 218.615 879.99 203.811 883.304 205.462C869.594 194.619 868.564 193.3 865.553 190.796C852.569 180.028 844.546 173.585 832.14 163.418C829.067 161.134 851.113 179.366 853.905 181.588C843.34 173.741 860.944 188.174 868.34 193.814C868.833 194.462 869.326 195.112 869.819 195.761C860.491 187.932 850.985 180.063 841.539 172.575C840.972 172.023 840.406 171.473 839.84 170.923C842.007 172.549 844.182 174.184 846.363 175.828C838.627 169.305 843.07 173.611 832.746 164.628C832.285 164.527 831.825 164.425 831.365 164.324C821.362 156.147 811.133 147.873 801.08 139.861C795.543 135.982 775.848 120.55 779.831 122.95C771.84 116.772 781.631 124.64 773.937 118.92C770.578 116.421 764.174 111.606 762.703 110.323C763.671 110.387 773.296 117.583 776.481 119.586C774.733 117.798 729.763 85.1878 733.828 87.6292C730.21 84.989 731.68 86.3859 725.117 81.9186C710.554 71.9873 689.993 58.1987 673.532 49.4273C668.497 46.7157 664.048 44.4717 660.393 42.7731C665.392 45.5035 669.573 47.8265 673.28 49.8848C682.384 54.9835 688.595 58.4093 698.452 64.6019C707.64 69.649 759.554 106.727 747.588 98.9126C749.511 100.23 751.445 101.564 753.39 102.914C755.21 104.461 757.079 106.052 758.88 107.599C753.43 103.564 747.988 99.5909 742.676 95.7771C741.49 94.7174 740.391 93.7236 739.132 92.6192C738.452 92.275 737.774 91.9328 737.097 91.5924C734.756 89.9475 732.433 88.329 730.129 86.7377C730.853 87.0754 731.579 87.4153 732.306 87.7578C728.766 85.2279 725.302 82.7838 721.819 80.3618C722.682 81.1822 723.484 81.9626 724.32 82.7697C707.368 71.2245 713.17 75.0786 704.04 68.651C696.826 63.9875 708.744 71.9633 693.571 62.498C678.783 53.5964 684.52 56.5715 673.169 50.0853C670.904 48.8251 668.016 47.2488 664.317 45.3091C663.934 45.2118 663.551 45.1154 663.17 45.0199C658.217 42.2999 652.659 39.3728 647.533 36.7908C648.171 37.229 648.812 37.6704 649.456 38.1151C638.683 32.6734 622.95 26.304 619.517 24.562C630.689 29.2484 631.119 28.7408 628.094 27.2613C625.067 25.9973 601.036 14.9243 573.613 10.7108C545.835 4.84739 517.202 17.0804 511.812 25.2222C495.315 43.0181 493.271 63.5374 494.465 85.1281C494.169 77.731 493.877 60.4934 499.657 45.2988C504.937 29.7222 517.893 19.7476 522.246 17.7613C523.145 17.3458 523.09 17.8801 528.459 14.6355C547.414 6.86118 572.885 9.25409 597.372 16.5103C596.575 16.496 595.817 16.497 595.001 16.4855C579.979 11.6125 565.24 11.285 567.455 10.6988C564.437 10.3788 561.136 10.1563 558.171 10.0892C558.168 10.2299 558.165 10.3705 558.162 10.5113C553.392 10.4009 548.817 10.6078 544.216 11.2314C544.197 11.092 544.177 10.9525 544.158 10.8131C540.328 11.3378 536.635 12.1253 532.888 13.3196C532.55 13.5751 532.218 13.8329 531.893 14.0929C526.333 15.5189 515.187 21.8955 509.725 29.1548C504.182 36.1952 501.993 41.3286 505.911 33.6733C502.965 38.1702 500.699 43.1298 499.027 48.2636C499.131 48.2789 499.234 48.2943 499.338 48.3098C498.628 50.5273 498.032 52.7546 497.526 55.0277C497.607 54.2585 497.697 53.4924 497.798 52.7296C495.276 63.0846 494.421 73.3646 494.906 80.4022C494.873 75.7355 495.089 71.1019 495.615 66.4886C494.297 75.3498 495.835 91.7829 496.159 93.2205C496.695 97.6673 496.842 100.047 497.726 104.835C497.851 105.494 497.962 106.036 498.058 106.486C498.597 108.999 498.643 108.654 498.777 109.339C503.371 132.837 500.703 124.019 503.938 134.802C504.037 135.992 504.136 137.178 504.235 138.368C504.664 139.893 505.094 141.419 505.524 142.948C506.929 149.901 508.319 156.775 509.727 163.731C509.426 161.38 509.126 159.034 508.827 156.691C511.026 167.082 511.663 171.946 511.862 172.964C512.424 175.814 512.907 177.077 513.088 177.958C521.715 220.209 516.277 194.607 519.791 215.873C521.655 223.345 520.41 215.655 520.515 214.523C522.42 224.582 523.146 227.663 525.303 238.258C525.861 241.003 526.294 243.994 526.648 245.73C526.954 247.231 528.108 251.908 528.849 255.508C530.084 261.513 531.621 269.553 533.315 277.782C534.727 284.637 539.165 305.562 542.17 320.186C543.452 326.425 542.999 325.009 543.33 326.62C543.468 327.292 544.652 332.116 545.474 336.118C552.179 368.759 558.916 402.247 565.593 435.057C570.298 458.174 575.206 481.654 579.847 504.834C580.833 509.762 580.173 507.18 580.599 509.331C580.746 510.067 581.165 510.915 582.598 518.568C583.115 521.329 582.314 518.194 582.848 520.904C583.109 522.229 583.424 522.715 585.017 530.442C587.897 544.414 589.116 552.036 589.37 553.268C589.852 555.616 589.889 554.895 590.517 558.029C592.388 567.38 594.07 575.808 595.697 584.017C596.765 589.426 597.576 594.494 598.212 600.025C598.599 603.209 599.937 616.244 598.956 628.7C598.212 641.19 594.684 652.877 594.251 653.981C592.354 659.313 593.826 654.304 591.244 660.954C590.558 662.841 589.784 664.747 588.957 666.579C590.473 663.754 591.826 660.805 592.995 657.843C589.926 666.124 584.843 674.915 580.549 679.951C579.917 681.007 572.031 689.044 567.178 692.114C569.14 690.656 570.986 689.12 572.764 687.47C572.077 687.994 571.39 688.495 570.692 688.984C561.945 696.263 550.649 701.22 539.303 703.579C535.244 704.386 536.615 704.002 532.364 704.638C508.053 706.506 513.913 706.808 490.837 702.735C498.342 704.929 527.661 705.588 531.606 704.179C534.68 704.002 545.894 702.309 541.591 702.329C552.978 699.281 553.534 698.42 554.159 698.448C554.671 698.193 555.38 698.774 564.809 692.989C564.378 693.126 563.945 693.26 563.512 693.389C570.006 689.246 574.09 685.267 577.412 681.991C578.79 681.095 593.657 659.354 595.468 644.761C599.642 625.684 598.214 603.456 594.346 584.278C594.148 583.282 593.952 582.291 593.757 581.307C592.409 574.492 591.859 570.551 591.69 569.695C591.442 568.449 590.555 564.976 590.059 562.474C588.211 553.133 582.873 524.645 580.922 517.715C585.368 539.914 589.78 562.118 594.141 584.317C600.491 617.177 600.357 655.304 576.931 681.477C579.367 678.748 571.525 689.148 558.977 695.536C546.593 702.302 531.273 703.985 529.869 704.114C527.222 704.388 529.43 703.961 528.641 704.033C522.679 704.567 517.596 704.817 515.7 704.801C514.28 704.782 511.171 704.633 506.196 704.252C505.261 704.178 504.99 704.292 503.973 704.199C497.051 703.548 490.743 702.535 484.102 701.157C483.709 701.075 482.119 700.537 480.463 700.159C478.804 699.783 477.092 699.57 476.665 699.465C471.351 698.197 462.594 695.498 457.737 693.861C456.088 693.314 457.189 693.835 455.332 693.208C449.598 691.218 451.525 691.63 444.36 689.027C442.044 688.161 442.135 688.451 437.657 686.622C434.471 685.304 434.953 685.071 434.451 684.85C433.611 684.524 422.858 680.193 419.38 678.243C427.447 681.255 410.791 674.18 411.634 674.826C407.54 672.749 403.377 670.564 399.144 668.268C397.627 667.555 396.229 666.895 394.816 666.22C378.404 656.992 368.142 651.091 352.661 641.19C351.94 640.774 338.634 631.894 339.452 632.277C347.293 637.293 355.433 642.455 360.176 645.764C369.008 650.457 368.896 651.076 382.692 658.901C387.449 661.557 387.84 661.561 388.385 661.865C406.453 672.096 436.854 685.856 449.941 690.727C453.701 691.98 440.374 686.976 445.526 688.799C447.097 689.396 464.632 695.9 479.774 699.299C494.853 702.826 506.964 703.767 495.636 702.718C497.938 703.036 500.317 703.319 502.755 703.55C505.21 703.409 516.971 703.983 515.659 704.402C516.79 704.305 517.906 704.194 519.007 704.068C521.109 703.938 523.897 703.802 527.523 703.442C534.177 702.984 560.254 699.31 576.125 681.402C592.403 664.166 595.103 640.708 595.501 638.903C595.394 638.783 595.287 638.663 595.179 638.543C591.352 675.636 557.865 705.873 516.883 703.354C518.045 703.47 519.197 703.571 520.34 703.656C504.288 703.92 488.285 701.098 472.733 696.805C489.052 701.275 516.37 704.863 533.904 701.72C537.042 701.228 534.775 701.772 535.497 701.67C537.384 701.342 539.276 700.897 545.83 698.931C552.551 697.479 567.298 688.96 568.249 687.579C570.663 685.813 576.337 680.003 579.319 675.889C583.254 670.495 580.783 674.226 581.568 673.14C584.73 668.549 586.883 664.05 588.6 659.996C591.376 654.145 594.831 640.996 594.751 636.327C594.076 640.988 593.139 645.481 591.859 649.951C597.718 626.898 596.942 607.354 592.389 584.655C592.108 583.337 591.822 582.006 591.528 580.657C590.54 577.503 591.476 582.907 591.75 584.778C591.852 585.482 591.864 585.695 591.652 584.797C591.444 583.921 591.021 581.977 590.251 578.357C590.682 580.515 591.112 582.669 591.541 584.818C591.736 585.795 591.923 586.769 592.101 587.739C592.364 588.45 592.622 589.161 592.876 589.871C593.687 595.178 594.308 600.733 594.638 606.031C594.633 604.508 594.605 602.97 594.556 601.417C597.022 620.515 594.422 640.186 592 646.349C592.055 646.769 592.107 647.189 592.157 647.61C588.957 665.579 570.867 685.94 573.506 681.406C572.958 682.026 572.397 682.636 571.823 683.236C563.725 690.017 567.288 687.247 564.097 689.668C563.545 690.96 544.518 699.176 552.844 695.295C533.835 701.877 539.658 699.855 534.232 701.244C521.235 703.543 497.69 701.589 507.588 701.827C505.672 701.67 503.725 701.472 501.745 701.232C495.385 701.029 488.874 699.371 482.385 697.748C480.1 697.233 477.778 696.669 475.42 696.056C473.763 695.801 472.331 695.588 470.761 695.324C449.457 688.152 455.939 692.124 446.651 686.955C448.225 687.433 449.786 687.893 451.332 688.334C454.955 689.579 458.378 690.684 461.983 691.771C447.775 687.236 433.363 681.32 419.81 674.924C402.699 666.235 392.619 661.474 374.348 650.331C372.604 649.355 370.849 648.362 369.084 647.352C371.055 648.056 377.794 652.218 365.288 644.426C364.367 643.537 372.919 648.705 376.586 651.083C377.478 651.671 369.551 647.266 378.325 652.424C384.348 655.868 373.312 649.306 391.764 659.78C391.119 659.346 390.473 658.911 389.825 658.472C391.819 659.578 393.796 660.66 395.759 661.718C397.445 662.808 399.028 663.833 400.844 664.966C405.705 667.214 408.295 668.279 418.955 673.438C415.93 672.108 419.872 674.383 425.19 676.78C425.238 676.673 425.286 676.566 425.334 676.46C438.005 681.958 433.885 680.566 444.685 684.573C445.736 685.078 446.714 685.549 447.856 686.075C454.124 688.315 476.565 694.645 472.317 693.931C478.822 695.242 492.294 698.254 497.255 699.26C497.652 699.198 498.047 699.134 498.44 699.068C501.08 699.393 503.948 699.673 506.6 699.854C508.093 700.04 509.54 700.201 511.025 700.339C513.009 700.359 514.951 700.334 516.852 700.264C517.999 700.381 519.136 700.482 520.263 700.567C523.309 700.342 526.478 699.982 529.398 699.503C531.16 699.396 533.159 699.206 534.992 698.977C535.211 699.112 552.944 694.27 557.182 691.437C558.493 690.664 559.759 689.853 560.982 689.007C561.662 688.72 562.327 688.428 563.014 688.106C563.899 687.398 564.758 686.67 565.59 685.924C567.688 684.454 569.703 682.843 571.612 681.104C578.46 673.154 578.521 672.738 579.974 670.838C582.875 667.282 588.501 653.077 588.929 650.463C589.66 648.032 590.161 646.869 590.658 644.819C594.267 627.936 593.265 622.61 593.406 621.018C593.317 619.364 593.159 621.21 593.115 617.688C593.035 613.899 593.11 611.314 592.859 607.923C592.664 604.672 591.495 594.095 589.602 585.191C588.213 578.392 587.019 572.557 586.887 571.832C586.442 569.396 588.45 574.927 586.669 567.102C586.148 566.948 583.275 549.942 584.181 557.975C582.866 551.033 581.535 544.037 580.213 537.104C579.811 538.013 578.457 529.336 576.563 520.04C573.878 506.828 567.502 477.118 568.298 478.111C567.527 474.974 566.754 471.833 565.98 468.688C561.776 446.986 557.265 425.79 552.868 404.298C539.821 340.512 525.672 271.305 512.771 207.794C512.15 204.735 512.428 205.137 511.982 202.937C509.636 191.396 503.363 161.397 500.114 145.212C499.071 140.022 498.745 137.479 498.42 135.836C497.312 130.232 497.339 131.604 496.824 129.031C496.296 126.394 494.341 116.259 492.659 107.558C491.736 102.821 491.118 98.4183 490.791 95.7666C490.314 91.971 489.697 87.47 489.579 82.9695C489.568 82.5836 489.798 83.2881 489.789 82.9617C489.599 74.77 489.558 79.695 489.539 76.9224C489.694 57.5411 494.267 34.1672 511.804 19.1862C515.972 15.4443 523.488 11.403 528.012 9.82098C529.705 9.22907 526.555 10.065 532.472 8.15867C534.564 7.55262 535.284 7.56809 537.589 7.06333C547.659 5.17106 551.074 4.56956 559.789 5.23419C576.725 5.30723 604.55 13.028 618.454 18.613C621.876 19.9166 623.228 20.5797 626.381 21.8593C628.546 22.7374 632.765 24.318 635.985 25.743C639.229 27.1683 644.949 29.9563 651.087 32.9508C657.886 36.2399 666.202 40.5058 667.67 41.298C669.477 42.2614 670.222 42.9099 672.053 43.9005C672.974 44.4 674.159 45.0395 675.537 45.7874C681.892 49.1779 693.281 55.8114 698.674 59.2125C706 63.7862 710.28 66.7622 712.64 68.3152C714.869 69.7853 717.603 71.3993 718.64 72.0984C720.253 73.1849 720.512 73.6199 722.576 75.0258C726.04 77.3906 729.224 79.4217 734.163 82.8941C821.984 145.689 901.049 214.998 981.335 281.885C990.227 289.34 995.41 293.478 1008.53 304.487C1013.85 308.952 1011.46 307.251 1015.65 310.677C1017.51 312.205 1017.16 311.68 1019.51 313.623C1029.91 322.214 1041.92 332.328 1046.43 336.035C1048.22 337.504 1050.4 339.035 1054.07 342.048C1081.45 364.484 1114 390.815 1144.09 414.103C1160.13 426.554 1184.33 444.786 1203.15 458.445C1254.55 495.856 1311.61 533.815 1364.01 558.312C1364.23 558.415 1364.45 558.519 1364.67 558.622C1443.93 599.97 1538.75 579.083 1607.9 526.702C1574.56 549.789 1524.69 576.594 1479.69 580.007C1440.82 584.04 1401.04 575.19 1364.23 557.835C1279.03 516.909 1200.99 457.762 1126.46 399.669C1089.36 370.522 1043.44 332.858 1003.85 299.696C1002.06 298.202 998.219 295.196 994.342 291.939C993.515 291.245 983.461 282.485 980.032 279.612C982.992 282.734 969.734 271.069 965.564 267.59C960.318 263.219 949.136 254.173 936.941 243.781C925.885 234.364 929.035 236.753 928.439 236.238C924.516 232.857 922.937 231.937 919.887 229.428C907.468 219.109 843.676 166.019 825.438 151.614C820.844 147.925 820.753 147.608 819.701 146.765C816.871 144.503 812.738 141.456 808.27 137.92C800.375 131.665 790.773 123.952 786.389 120.575C775.659 112.247 754.759 96.7485 740.434 86.5809C736.307 83.64 736.687 83.6688 734.834 82.36C726.997 76.7343 705.086 62.2413 694.559 55.9292C688.633 52.285 681.989 48.3607 675.961 45.0187C664.166 38.48 652.686 32.5581 640.493 27.0481C639.344 26.4255 638.202 25.8132 637.068 25.2109C635.164 24.4701 633.395 23.8035 631.352 23.0379C599.826 10.1806 563.446 -2.91792 528.034 8.97185C526.001 9.71175 520.135 12.1111 515.024 15.7715C509.856 19.3285 505.697 24.0261 504.61 25.3916C502.758 27.6685 501.227 30.1195 499.068 33.8262C496.275 39.1229 498.144 33.7977 494.448 42.8642C493.588 45.3461 494.536 42.9833 492.988 47.9906C492.703 48.8209 490.296 57.2995 489.568 65.9646C488.699 74.6074 489.172 83.2424 489.209 84.1019C489.326 87.0254 489.168 89.6563 489.23 90.4093C489.567 94.3227 489.87 94.1267 490.229 96.7245C490.734 100.256 491.393 104.273 492.05 107.678C492.791 111.547 493.363 114.665 493.497 115.311C496.485 129.795 502.235 156.834 505.204 172.066C505.614 174.172 505.342 173.965 505.411 174.336C505.852 176.728 506.407 178.168 506.876 180.432C509.394 192.607 513.14 211.739 515.616 224.021C515.901 225.434 516.631 228.383 517.137 230.905C519.998 245.184 518.853 240.588 519.012 241.402C519.385 243.324 520.291 246.653 521.355 251.765C524.093 264.917 529.252 290.168 532.136 304.284C534.295 314.857 534.019 314.751 534.156 315.446C534.452 316.929 535.492 321.005 536.944 327.963C539.738 341.346 539.232 339.858 540.37 345.362C540.465 345.825 540.488 344.983 541.76 351.086C544.22 362.879 549.463 389.419 552.052 402.053C553.047 406.908 553.461 408.01 554.48 412.986C556.096 420.868 559.523 438.707 559.809 440.115C559.889 440.509 560.277 441.351 560.747 443.666C561.265 446.212 561.665 448.735 562.051 450.63C564.251 461.444 568.377 479.985 566.587 474.96C567.472 478.391 568.35 481.795 569.236 485.237C573.767 507.886 578.25 529.87 582.742 552.3C583.747 557.318 584.449 561.601 585.295 565.848C585.871 568.731 587.903 578.448 589.312 585.247C589.969 588.415 590.407 590.932 590.566 591.907C592.262 597.418 593.474 628.894 592.082 632.752C591.252 640.33 589.157 647.358 588.332 650.242C587.664 652.551 588.561 650.496 587.085 654.938C584.767 662.758 577.115 674.004 575.354 675.676C574.606 676.386 576.358 675.369 569.433 682.108C565.562 685.585 563.083 686.963 561.51 688.008C560.945 688.203 562.173 688.481 552.791 692.946C546.092 695.801 543.08 696.153 542.328 696.414C541.187 696.712 538.642 697.643 534.076 698.406C523.481 700.585 503.241 699.423 493.014 697.41C491.072 697.054 491.418 697.485 483.692 695.852C478.057 694.582 479.056 694.571 476.91 694.043C473.438 693.15 468.735 692.18 461.179 689.754C451.407 688.588 386.665 657.144 383.855 654.114C381.58 652.769 379.247 651.411 378.211 650.683C379.169 651.125 380.122 651.562 381.073 651.994C390.562 657.83 386.896 655.244 389.475 656.669C393.161 658.75 407.282 666.261 410.795 667.834C412.019 668.398 409.365 666.874 415.895 669.936C423.197 673.318 426.265 675.076 429.294 675.851C439.333 680.92 449.63 684.175 437.657 679.209C430.494 677.679 367.562 643.98 355.809 635.101C345.582 628.624 327.127 616.303 315.527 607.84C313.15 606.121 309.56 603.51 305.861 600.76C298.664 595.411 291.567 590.113 292.158 590.318C286.047 585.795 292.419 590.811 291.086 589.882C288.216 587.86 269.104 573.685 265.392 571.035C247.253 558.003 224.276 541.953 207.037 528.858C207.895 529.393 208.739 529.918 209.569 530.431C213.652 533.26 231.71 546.614 233.975 547.789C207.345 528.565 180.731 508.921 154.05 489.211C154.599 490.005 121.273 465.328 120.023 464.221C120.677 464.522 121.328 464.821 121.977 465.118C140.415 479.48 139.127 477.6 151.287 487.085C156.286 490.787 155.045 489.566 157.59 491.389C182.744 509.387 157.827 492.196 176.836 505.943C171.292 501.417 187.031 512.857 194.158 518.029C195.788 519.226 216.785 534.701 219.238 536.462C233.299 546.707 257.672 563.824 271.549 574.156C282.627 582.228 288.764 586.416 298.833 593.74C305.3 598.448 304.52 598.041 306.668 599.664C306.961 599.886 307.313 600.149 307.751 600.471C315.339 606.037 318.084 607.317 322.397 611.302C327.326 614.675 332.818 618.368 337.972 621.742C337.906 621.839 337.841 621.936 337.775 622.033C341.023 624.231 344.164 626.327 347.421 628.467C348.474 629.019 349.523 629.566 350.569 630.107C361.019 637.043 356.447 634.404 358.233 635.945C360.47 637.389 362.692 638.805 364.896 640.194C366.793 641.068 368.776 641.983 370.696 642.848C380.879 649.042 391.427 655.074 401.708 660.51C402.356 660.984 403.002 661.454 403.647 661.921C403.724 661.83 403.8 661.738 403.877 661.646C421.596 670.843 440.239 679.229 459.077 685.514C464.122 687.3 434.209 676.067 431.994 674.67C419.414 669.57 387.673 652.763 387.79 652.113C380.198 648.341 358.502 635.001 352.022 630.216C362.153 636.812 372.542 643.235 382.757 649.157C382.498 648.846 382.239 648.535 381.98 648.224C394.923 656.264 396.407 657.077 410.647 663.773C410.576 663.946 410.505 664.12 410.434 664.293C420.019 668.533 436.94 677.127 437.887 676.561C443.229 678.851 448.129 680.831 453.652 682.88C465.264 686.106 447.204 682.365 492.9 692.986C496.074 693.519 495.417 693.655 500.062 694.254C501.525 694.307 509.526 695.626 524.277 694.834C526.582 694.669 526.771 694.832 529.089 694.595C534.688 694.194 544.846 690.998 540.29 692.808C550.537 690.074 553.036 688.06 554.136 687.503C555.19 686.807 554.68 686.956 557.38 685.275C560.859 682.958 560.39 683.662 563.263 681.413C566.36 678.176 565.124 681.499 575.961 666.952C574.878 668.692 573.718 670.364 572.464 671.979C573.174 671.235 573.872 670.462 574.546 669.675C580.12 660.807 579.513 661.551 581.167 656.787C584.283 649.71 586.232 643.074 587.48 632.097C588.561 610.553 588.377 621.719 586.711 596.607C586.137 593.169 585.457 589.683 584.668 586.142C584.544 585.586 584.42 585.03 584.297 584.473C583.157 577.524 584.536 583.074 582.551 572.715C583.606 580.907 579.503 559.088 578.284 555.491C578.323 555.084 578.361 554.677 578.4 554.269C577.943 551.968 577.485 549.663 577.026 547.354C576.933 547.365 576.839 547.376 576.745 547.387C576.202 544.294 575.66 541.21 575.118 538.133C574.567 535.845 574.014 533.553 573.461 531.257C572.891 527.402 572.331 523.598 571.762 519.757C571.298 517.372 570.831 514.976 570.367 512.59C570.38 513.367 570.395 514.155 570.409 514.937C569.839 511.855 569.274 508.802 568.703 505.727C569.193 509.333 568.482 507.154 566.567 497.603C564.99 489.743 567.249 498.515 563.638 481.627C563.386 480.454 562.631 478.427 559.342 462.455C555.39 443.281 557.523 452.561 556.838 449.14C556.704 448.471 555.345 442.646 554.205 437.164C553.559 434.059 553.085 431.035 553.001 430.624C552.604 428.705 552.297 428.183 551.748 425.523C550.356 418.775 548.598 409.681 547.238 403.073C546.62 400.067 545.928 397.261 545.652 395.918C545.225 393.835 544.859 391.16 544.428 389.056C542.835 381.286 539.84 369.604 539.903 365.833C537.633 358.509 535.315 342.678 535.054 343.923C531.146 323.92 519.588 270.782 520.744 272.182C517.706 261.011 518.43 261.919 517.447 257.189C516.347 251.896 516.772 254.664 515.913 250.45C513.909 240.621 512.038 231.211 510.033 221.423C510.463 222.937 510.894 224.457 511.323 225.969C509.249 215.675 509.71 219.272 507.511 208.808C503.466 189.541 505.347 197.642 505.062 194.728C504.926 195.537 500.321 172.8 499.889 170.48C499.629 169.091 501.239 175.082 498.275 161.17C498.316 161.956 498.357 162.741 498.398 163.527C497.258 157.147 493.549 139.948 492.999 137.04C492.742 135.683 492.203 128.305 490.143 121.895C490.096 121.075 490.049 120.256 490.003 119.438C489.194 115.8 488.388 112.175 487.587 108.564C486.738 104.722 486.014 100.833 485.43 96.9188C485.476 95.6436 485.535 94.3678 485.611 93.0924C485.344 90.6001 485.137 88.1159 484.991 85.5965C484.901 87.2748 484.839 88.9532 484.803 90.6269C483.053 75.2036 485.576 55.643 487.267 52.5796C487.924 49.194 488.787 45.781 489.877 42.441C490.86 40.3472 491.943 38.281 493.112 36.2984C500.879 21.7095 501.846 21.5699 510.327 13.7088C510.069 14.1188 509.819 14.53 509.576 14.9423C515.77 8.97497 530.398 2.06717 542.082 0.774746C547.613 -0.166163 557.044 -0.020409 558.352 0.0586875C559.543 -0.10333 572.3 0.105931 573.509 1.20004C591.795 3.70268 599.091 6.83979 606.047 8.90232C610.755 10.4228 612.547 10.842 617.633 12.6761C624.977 15.3479 631.71 18.2712 635.857 20.0607C638.081 21.0211 638.576 21.0475 640.13 21.7351C647.501 25.0577 643.266 23.2907 650.92 26.9064C651.601 27.2317 657.236 29.6924 663.63 33.0268C666.962 34.7317 675.847 39.7907 676.68 40.2679C677.338 40.628 677.787 40.8562 678.157 41.0323C679.717 41.8004 679.66 41.364 689.085 47.412C688.787 47.1274 688.49 46.8437 688.192 46.5607C702.936 55.0572 704.593 56.8579 707.579 58.7552C707.955 58.997 711.553 61.1316 713.478 62.4277C716.827 64.6763 718.09 65.7938 718.838 66.3046C721.491 68.1029 730.581 74.1794 736.099 78.3411C735.3 76.9463 755.457 91.0991 759.419 94.9948C763.077 97.5216 766.65 100.011 770.153 102.47C771.641 103.735 773.135 105.008 774.635 106.291C775.661 106.921 776.689 107.555 777.719 108.192C782.707 112.307 787.507 116.321 792.328 120.384C792.803 120.427 793.279 120.471 793.755 120.515C795.137 121.624 796.523 122.74 797.914 123.862C798.887 124.881 799.864 125.903 800.842 126.928C802.634 128.282 804.442 129.653 806.161 130.956C806.678 131.175 807.195 131.393 807.712 131.613C817.066 138.801 811.522 136.147 829.976 149.342C832.631 151.625 835.298 153.925 837.978 156.241C841.437 158.306 847.112 163.353 851.737 167.043C855.037 169.677 854.997 169.353 859.482 173.016C863.976 176.691 863.686 176.735 864.034 177.022C867.728 180.07 870.541 182.139 873.173 184.357C873.57 184.692 874.405 185.71 877.787 188.523C881.174 191.341 883.396 192.824 888.46 197.087C891.07 199.284 891.629 200.029 893.907 201.944C904.722 211.043 916.496 219.446 923.792 227.232C925.737 228.642 939.508 239.412 945.165 244.194C954.017 251.675 950.433 249.006 953.943 252.006C954.443 252.434 957.239 254.664 964.646 260.887C965.975 262.004 965.759 261.635 965.951 261.794C974.635 269.071 991.432 283.272 1000.98 291.262C1001.84 291.977 1006.57 295.402 1013.79 302.113C1025.28 311.159 1045.92 329.358 1061.21 341.096C1063.29 342.778 1065.71 344.94 1066.62 345.683C1074.54 352.078 1071.9 349.404 1089.39 364.383C1088.08 363.04 1092.4 366.273 1098.29 371.034C1107.19 378.21 1100.6 373.455 1107.81 379.176C1107.88 379.085 1107.95 378.994 1108.03 378.903C1124.33 392.292 1128 394.563 1144.65 407.547C1150.64 412.211 1159.47 419.327 1160.89 420.414C1161.45 420.846 1168.21 425.658 1168.84 426.129C1172.37 428.803 1174.38 430.482 1177.46 432.811C1187.69 440.54 1200.1 449.215 1197.52 448.137C1200.45 450.122 1203.37 452.091 1206.29 454.044C1216.51 462.372 1225.26 467.369 1227.12 469.528C1229.14 470.782 1231.15 472.028 1233.16 473.264C1275.73 503.092 1319.86 531.66 1366.21 553.595C1370.46 555.591 1374.66 557.439 1378.8 559.146C1380.63 559.97 1403.48 567.99 1404.62 568.042C1410.08 569.695 1404.2 568.744 1415.36 571.382C1416.63 571.461 1417.9 571.527 1419.15 571.58C1433.39 574.321 1426.52 573.14 1432.08 574.219C1434.41 574.528 1433.69 574.271 1436.81 574.659C1454.04 577.573 1489.83 575.517 1508.09 569.946C1511.79 568.979 1511.26 569.257 1512.41 568.945C1515.57 568.072 1521.73 566.018 1527.9 563.773C1566.85 550.778 1615.07 515.737 1649.4 490.178C1651.78 488.441 1652.18 488.377 1653.78 487.22C1656 485.612 1660.82 481.946 1663.23 480.255C1665.47 478.684 1666.98 477.796 1669.35 476.167C1680.4 468.577 1695.66 458.467 1709.6 452.775C1710.6 452.092 1725.82 447.335 1726.33 447.534C1727.4 447.383 1724.52 448.387 1724.23 448.7C1723.99 449.131 1726 448.042 1737.66 446.32C1727.25 448.176 1724.19 449.94 1726.5 449.406C1728.85 449.149 1736.87 446.454 1750.57 446.95C1736.82 446.506 1723.68 450.39 1711.81 455.693C1711.83 455.771 1711.84 455.849 1711.85 455.926C1722.89 451.789 1734.38 447.052 1753.14 448.12C1752.55 448.145 1751.96 448.179 1751.38 448.22C1734.77 447.424 1716.29 454.71 1706.04 460.496C1721.75 453.059 1739.56 447.713 1757.34 450.81C1756.45 450.733 1755.56 450.676 1754.68 450.638C1746.12 449.192 1727.86 452.726 1721.52 455.61C1709.24 460.683 1714.73 458.488 1722.26 455.805C1729.88 453.043 1740.17 451.61 1736.17 452.421C1708.48 457.769 1685.56 474.571 1663.16 490.365C1662.95 490.93 1683.83 474.697 1707.38 463.067C1730.85 450.002 1758.42 452.686 1757.4 453.636C1748.94 452.321 1740.24 452.987 1731.92 455.019C1735.6 454.328 1739.52 453.866 1743.24 453.766C1742.22 453.9 1741.19 454.06 1740.17 454.243C1725.96 456.159 1712.6 462.292 1700.11 469.46C1738.6 446.798 1761.97 455.089 1770 459.954C1768.9 459.534 1767.8 459.151 1766.71 458.806C1762.75 456.804 1749.57 453.129 1734.71 456.444C1719.94 459.369 1704.7 467.675 1694.58 473.915C1698.79 471.333 1717.11 461.724 1721.53 460.698C1722.7 460.304 1718.74 461.994 1721.45 461.066C1724.88 459.852 1734.34 456.901 1742.42 456.412C1750.53 455.764 1756.94 457.187 1754.73 456.98C1753.39 456.782 1740.2 455.724 1726.66 460.456C1713.08 464.799 1699.85 472.86 1695.51 475.446C1715.69 463.588 1739.25 453.428 1760.89 459.383C1747.32 457.057 1734.45 457.913 1710.56 469.558C1706.99 471.664 1717.83 465.612 1730.16 462.296C1742.56 458.546 1755.78 460.343 1756.28 460.671C1747.53 459.43 1738.35 460.633 1729.54 463.429C1737.03 461.166 1744.73 460.029 1752.18 460.575C1752.2 460.635 1752.21 460.695 1752.23 460.755C1732.86 459.696 1714.72 468.633 1693.88 481.534C1694.73 481.292 1707.28 473.659 1713.68 470.774ZM263.59 567.523C263.308 567 270.892 572.529 275.187 575.662C274.573 575.158 274.011 574.692 273.376 574.173C282.413 580.78 299.375 593.359 300.336 593.452C306.755 598.097 303.712 596.397 305.806 597.999C305.97 598.125 306.445 598.467 307.168 598.986C310.04 601.053 316.73 605.788 321.985 609.808C323.584 610.94 325.175 612.06 326.759 613.167C327.161 613.249 327.553 613.324 327.962 613.411C330.18 615.201 332.383 616.965 334.571 618.703C324.941 612.121 316.449 606.085 307.032 599.171C292.411 588.427 278.156 578.002 263.627 567.549C263.615 567.54 263.603 567.531 263.59 567.523ZM514.584 695.536C524.499 696.173 539.207 693.474 536.113 693.547C530.149 694.771 523.978 695.341 517.817 695.414C516.754 695.469 515.677 695.51 514.584 695.536ZM791.093 119.956C797.837 125.742 804.636 130.565 815.289 139.125C815.333 139.041 815.377 138.957 815.42 138.873C810.89 135.55 799.308 126.222 791.093 119.956ZM50.4219 412.846C48.7749 411.578 47.3107 410.446 45.8094 409.286C52.2841 413.479 53.6066 414.902 60.7796 420.174C61.2141 420.494 61.132 420.29 61.2834 420.402C63.0418 421.7 64.5644 423.003 66.1194 424.156C69.0513 426.331 71.7379 428.154 77.2908 432.286C81.5408 435.449 81.4215 435.634 82.8955 436.722C83.991 437.529 97.1722 446.567 104.845 452.584C119.859 464.355 55.3363 416.575 50.4219 412.846ZM5.41679 378.837C6.96646 379.988 8.5054 381.131 10.0336 382.267C5.22018 379.103 14.6073 386.029 21.1407 390.884C20.8008 391.034 6.78241 380.426 -4.40501e-06 375.494C1.81837 376.618 3.62396 377.732 5.41679 378.837ZM196.443 521.315C190.51 517.001 191.78 517.43 192.083 517.504C193.949 518.875 195.728 520.181 197.735 521.653C197.306 521.542 196.876 521.429 196.443 521.315ZM151.68 488.501C153.829 489.751 166.63 499.059 172.849 503.614C173.099 503.799 171.413 502.743 175.581 505.798C177.062 506.887 189.879 515.637 186.804 514.146C175.129 505.648 163.63 497.249 151.696 488.514C151.691 488.509 151.685 488.505 151.68 488.501ZM138.744 478.73C141.306 480.519 143.868 482.308 146.334 484.025C147.508 485.054 148.665 486.07 149.806 487.074C147.106 485.117 144.326 483.101 141.461 481.022C140.565 480.265 139.627 479.477 138.744 478.73ZM1407.73 572.356C1407.1 572.044 1406.46 571.73 1405.83 571.412C1403.07 570.656 1390.99 567.371 1394.74 568.706C1399.01 570.037 1403.25 571.233 1407.73 572.356ZM1461.27 579.777C1463.94 579.836 1466.59 579.838 1469.22 579.787C1472.31 579.411 1475.37 578.96 1478.38 578.44C1465.05 579.655 1450.98 578.706 1453.2 579.499C1450.21 579.386 1447.19 579.202 1444.15 578.944C1446.72 578.838 1446.42 578.846 1438.42 577.811C1436.57 577.998 1428.65 576.888 1419.18 574.96C1426.05 576.433 1432.7 577.523 1439.56 578.292C1439.55 578.361 1439.55 578.431 1439.54 578.5C1424.31 576.509 1443.3 579.747 1453.16 579.639C1453.94 579.762 1454.74 579.881 1455.53 579.994C1457.46 579.951 1459.37 579.878 1461.27 579.777ZM503.785 24.4795C505.228 22.8459 506.762 21.3 508.383 19.849C514.189 13.5021 500.977 25.2406 495.559 36.2484C496.721 34.5879 495.107 37.8353 493.649 41.7635C492.153 45.67 490.923 50.2901 490.826 50.7744C491.518 48.8519 492.302 46.881 493.146 45.0029C495.437 37.7589 498.892 30.6788 503.785 24.4795ZM558.258 3.63491C551.114 2.34417 586.068 5.26444 596.814 9.60357C599.428 10.3501 604.038 12.0287 606.017 12.6499C607.212 12.9402 608.507 13.2741 609.606 13.5505C610.72 14.0704 631.965 21.7694 639.707 25.3139C640.407 25.7572 641.109 26.2043 641.813 26.6554C644.748 27.9482 647.759 29.3191 650.519 30.604C650.116 30.5379 649.713 30.4727 649.312 30.4086C651.486 31.2992 653.688 32.2226 655.917 33.1791C664.539 37.3621 659.067 35.2879 665.32 38.3091C672.294 41.7362 661.223 35.4793 661.556 35.4057C655.633 32.3743 642.584 26.2623 636.62 23.7078C633.299 22.317 637.229 23.2815 622.196 17.7809C618.999 16.4051 615.513 14.9843 612.283 13.7282C606.152 11.7785 599.866 9.99834 593.355 8.47806C592.198 8.00523 591.05 7.54601 589.911 7.10026C589.406 6.78724 574.245 4.18812 574.988 4.58386C568.869 3.34713 555.952 1.5625 542.141 3.59902C540.88 3.87533 539.461 4.21151 538.168 4.56461C551.464 2.24421 542.411 3.96761 546.408 3.60884C548.86 3.40237 555.62 3.36607 558.258 3.63491ZM1329.14 538.647C1347.78 548.253 1335.85 542.436 1356.18 552.694C1354.87 551.816 1353.55 550.929 1352.24 550.034C1341.94 545.383 1326.39 536.482 1329.12 538.636C1329.13 538.64 1329.13 538.643 1329.14 538.647ZM1535.92 564.097C1525.02 568.343 1530.73 566.818 1516.62 571.383C1516.62 571.385 1516.61 571.387 1516.6 571.389C1523.97 569.231 1531.19 566.693 1538.31 563.816C1537.52 563.914 1536.72 564.007 1535.92 564.097ZM947.189 250.25C938.408 242.777 940.06 244.374 932.264 237.423C920.007 227.688 930.2 236.14 929.97 236.417C932.797 238.645 935.565 240.823 938.355 243.021C944.737 248.804 938.369 243.693 938.349 243.719C938.354 243.723 938.36 243.728 938.365 243.733C938.296 243.815 938.067 243.653 940.557 245.823C942.764 247.296 944.975 248.771 947.189 250.25ZM909.09 218.974C912.272 221.317 913.885 222.26 905.934 215.433C905.928 215.428 905.923 215.423 905.917 215.419C904.926 215.288 897.524 208.563 894.027 205.707C893.077 204.993 892.128 204.281 891.18 203.569C897.111 208.659 903.082 213.797 909.09 218.974ZM773.257 110.08C773.579 109.585 780.602 114.836 771.1 106.955C769.193 105.529 767.295 104.115 765.407 102.716C764.091 101.893 762.799 101.091 761.412 100.222C737.493 81.4153 729.28 77.3734 770.804 107.347C770.81 107.351 770.816 107.355 770.822 107.359C771.632 108.263 772.443 109.17 773.257 110.08ZM815.394 142.818C815.89 142.816 816.386 142.815 816.882 142.814C821.771 147.665 828.767 152.343 838.701 161.066C839.689 161.745 840.678 162.425 841.668 163.108C845.334 166.27 882.46 196.874 874.702 189.887C871.332 186.832 863.576 180.82 862.87 180.235C860.631 178.367 857.866 175.755 854.083 172.683C851.882 170.896 847.16 167.446 842.676 163.805C832.601 155.607 814.785 140.214 801.079 130.496C800.161 129.657 799.245 128.821 798.331 127.988C788.323 120.258 791.451 123.059 782.53 115.744C775.209 111.825 819.574 144.539 809.769 138.417C809.775 138.421 809.78 138.426 809.786 138.43C811.649 139.884 813.518 141.346 815.394 142.818ZM1081.83 362.414C1082.25 363.103 1093.8 371.902 1090.75 370.252C1094.58 373.051 1098.39 375.835 1102.25 378.641C1102.26 378.572 1102.27 378.503 1102.28 378.435C1098.55 375.511 1094.87 372.611 1091.17 369.694C1091.22 369.61 1091.26 369.526 1091.31 369.442C1085.63 365.329 1062.97 346.7 1063.89 347.003C1062.59 346.12 1061.29 345.237 1059.99 344.353C1049.37 335.169 1039.82 327.818 1028.29 317.791C1027.3 317.126 1026.32 316.46 1025.33 315.793C1024.8 315.229 1024.26 314.665 1023.73 314.101C1019.45 310.537 1015.18 306.971 1010.91 303.405C996.739 292.102 1023.5 315.003 1026.84 317.683C1027.28 318.039 1027.37 317.797 1030.12 320.029C1035 324.005 1062.09 346.612 1070.64 353.336C1070.62 353.52 1070.59 353.704 1070.56 353.887C1074.3 356.721 1078.07 359.579 1081.83 362.414ZM718.646 69.983C718.068 69.3974 717.491 68.8141 716.916 68.2332C705.658 60.9003 697.779 55.9135 700.639 58.3256C700.645 58.3295 700.651 58.3333 700.658 58.3373C706.84 62.2046 712.71 66.0196 718.646 69.983ZM465.131 689.37C465.465 689.798 471.338 691.81 479.597 693.548C479.227 693.363 478.856 693.176 478.484 692.988C474.078 692.146 469.117 690.541 456.481 686.335C456.428 686.49 456.376 686.645 456.323 686.799C459.252 687.705 462.037 688.517 465.131 689.37ZM728.532 76.8192C731.788 79.2873 741.85 85.6991 735.479 81.1598C730.621 77.7096 726.775 75.4819 728.532 76.8192ZM1577.4 543.897C1574.76 545.41 1572.09 546.894 1569.41 548.343C1568.08 549.238 1566.77 550.113 1565.44 550.985C1565.44 550.981 1565.45 550.978 1565.46 550.975C1569.46 548.709 1573.47 546.327 1577.4 543.897ZM977.424 275.53C969.296 268.757 961.26 262.053 953.153 255.289C953.014 255.291 952.875 255.293 952.736 255.294C961.064 261.838 964.043 264.797 965.924 266.401C965.915 266.394 965.907 266.387 965.899 266.38C971.896 271.494 977.693 276.415 983.324 281.264C981.359 279.355 979.405 277.454 977.424 275.53ZM1004.77 299.106C1003.82 297.485 1002.07 295.935 989.361 285.91C989.802 286.381 990.243 286.852 990.684 287.323C997.149 292.66 1001.01 295.686 999.664 294.998C1001.37 296.369 1003.07 297.742 1004.77 299.106ZM878.205 193.188C879.57 194.574 891.655 204.325 891.033 203.679C890.878 203.489 875.51 190.436 878.205 193.188ZM361.403 639.426C364.242 641.255 367.349 643.221 370.368 645.097C366.223 642.675 362.239 640.293 358.304 637.892C359.34 638.409 360.373 638.92 361.403 639.426ZM328.565 618.868C326.573 617.373 333.448 621.507 321.368 612.848C330.179 619.067 339.423 625.358 348.493 631.261C343.974 628.421 339.956 625.854 335.603 623.012C336.251 623.652 336.898 624.29 337.544 624.925C334.578 622.951 331.585 620.932 328.565 618.868ZM319.233 611.805C322.126 614.2 312.826 607.775 304.951 601.993C300.427 598.681 297.017 596.165 296.095 595.464C295.545 595.044 293.206 592.914 292.357 592.204C296.244 595.056 299.865 597.717 303.796 600.612C302.54 599.558 301.317 598.528 300.126 597.521C301.83 598.758 303.592 600.038 305.415 601.364C308.214 603.399 310.993 605.398 313.749 607.36C311.775 606.064 309.789 604.751 307.792 603.419C311.647 606.284 315.46 609.08 319.233 611.805ZM426.012 674.955C422.515 673.365 418.799 671.61 415.346 669.923C415.961 670.403 416.551 670.868 417.225 671.372C419.397 672.411 421.548 673.419 423.679 674.395C424.46 674.586 425.237 674.772 426.012 674.955ZM356.137 636.81C361.321 639.194 373.468 648.703 358.565 638.697C357.067 637.677 355.641 636.585 356.137 636.81ZM286.653 588.421C276.415 581.646 279.533 582.351 288.564 589.422C289.039 589.795 287.423 588.932 286.653 588.421ZM212.219 534.584C211.342 533.938 210.381 532.735 202.295 527.301C201.124 526.385 199.923 525.447 198.69 524.486C201.685 526.469 227.072 544.825 223.347 542.604C219.519 539.834 216.15 537.467 212.219 534.584ZM235.836 553.577C239.711 556.353 243.461 559.03 247.318 561.783C246.14 560.78 244.928 559.752 243.767 558.761C245.645 560.066 247.571 561.405 249.459 562.717C252.533 565.195 255.661 567.714 258.696 570.174C250.43 564.261 242.012 558.291 233.767 552.39C234.466 552.793 235.155 553.188 235.836 553.577ZM337.32 626.968C329.906 621.779 320.753 615.684 308.84 606.986C308.835 606.981 308.829 606.977 308.823 606.972C308.224 606.533 307.264 605.617 305.324 604.184C305.164 604.066 304.715 603.738 304.033 603.239C297.761 598.62 271.73 579.744 274.108 581.165C286.866 590.127 290.958 593.659 294.444 595.39C294.979 595.957 295.54 596.543 296.074 597.109C299.118 599.429 301.776 601.401 304.129 603.108C310.224 607.521 313.541 609.548 318.477 612.905C318.39 612.973 318.302 613.04 318.215 613.107C322.621 616.253 327.155 619.435 331.786 622.618C331.178 622.117 330.568 621.614 329.957 621.109C331.589 622.232 333.213 623.343 334.829 624.44C338.591 627.373 343.481 630.714 337.32 626.968ZM218.711 540.972C214.66 539.057 180.956 513.686 165.158 502.207C173.608 507.844 186.203 517.532 195.042 524.02C212.331 536.699 200.547 527.699 203.564 529.749C205.146 530.83 214.436 538.251 218.711 540.972ZM365.019 644.631C356.095 639.06 350.982 635.988 343.333 630.6C343.993 630.966 344.644 631.325 345.351 631.72C348.158 633.764 369.493 647.3 365.019 644.631ZM142.52 485.217C158.537 497.42 151.333 491.19 159.48 497.886C153.807 493.739 148.057 489.531 142.396 485.385C142.437 485.329 142.479 485.273 142.52 485.217ZM746.13 92.9974C753.024 98.0094 761.118 104.212 765.263 106.95C760.722 103.483 755.734 99.7228 751.023 96.2178C749.384 95.1332 747.753 94.0596 746.13 92.9974ZM519.88 18.3069C521.486 17.164 528.412 13.5992 529.294 13.403C530.717 12.8633 530.359 13.1197 530.391 13.1343C539.908 10.1095 531.032 12.369 538.132 10.4623C539.358 9.70902 556.893 8.09906 563.912 9.11288C574.743 9.8585 585.746 12.4771 589.47 13.4144C596.471 15.103 608.361 18.488 619.225 22.7274C623.463 24.3752 624.896 25.1673 629.324 27.0266C641.032 31.9365 657.433 39.7554 673.873 48.8083C696.016 60.9478 717.738 75.7667 730.281 84.6388C735.627 88.4232 740.895 92.5266 743.577 94.4426C745.831 95.9574 748.101 97.4948 750.386 99.0541C756.759 104.787 759.582 105.951 766.835 111.31C771.489 114.76 773.538 116.644 774.164 117.119C778.368 120.322 780.426 121.756 783.62 124.194C787.206 126.932 792.338 131.073 793.653 132.077C794.393 132.65 792.331 130.561 806.055 141.396C820.282 152.661 834.127 163.879 848.295 175.463C844.213 170.835 839.72 168.065 833.803 163.323C832.225 162.06 833.321 162.741 831.951 161.643C828.05 158.512 820.74 152.84 817.482 150.192C814.014 147.371 815.432 148.027 810.94 144.628C810.713 144.457 811.322 145.135 810.271 144.333C799.811 136.371 796.433 133.35 783.268 123.156C774.62 115.977 720.1 76.4873 717.893 75.4846C708.52 67.9766 766.658 109.214 772.745 114.53C775.071 116.318 772.519 114.588 774.63 116.236C775.588 116.98 783.717 122.782 791.617 128.907C801.327 136.393 820.162 151.655 828.991 158.789C906.076 220.997 979.669 284.759 1056.11 347.316C1057.74 348.649 1060.01 350.26 1065.32 354.592C1157.89 429.047 1254.17 507.898 1362.82 560.86C1371.42 564.867 1379.2 568.085 1388.04 571.222C1414.55 580.611 1442.45 585.304 1470.69 583.937C1474.22 583.61 1477.72 583.189 1481.17 582.68C1472.24 583.951 1455.87 583.654 1454.3 583.473C1453.71 583.445 1450.43 583.539 1444.96 583.106C1437.24 582.458 1433.9 581.755 1433.3 581.695C1431.39 581.426 1432.63 581.751 1430.79 581.481C1416.9 579.337 1406.34 576.684 1394.25 572.799C1380.28 568.129 1374.04 565.101 1363.98 560.855C1363.68 560.678 1363.37 560.5 1363.07 560.321C1362.35 559.89 1361.62 559.456 1360.9 559.019C1353.44 556.547 1311.75 534.134 1295.59 523.733C1290.47 520.591 1291.47 520.954 1289.75 519.888C1288.68 519.202 1288.82 519.714 1275.56 511.186C1268.93 506.893 1267.28 505.558 1263.92 503.36C1262.09 502.159 1262.28 502.52 1259.65 500.775C1244.75 490.87 1232.59 482.368 1218.23 472.109C1214.17 469.197 1214.21 469.024 1213.3 468.373C1209.99 466.002 1204.13 462.126 1195.7 455.938C1181.85 445.839 1154.75 425.255 1143.71 416.469C1142.08 415.182 1140.88 414.003 1139.69 413.077C1137.88 411.68 1137.05 411.288 1136.73 411.042C1130.71 406.34 1134.45 409.025 1130.38 405.899C1128.19 404.21 1125.77 402.613 1120.69 398.631C1114 393.392 1115.5 394.222 1112.7 392.042C1112.41 391.812 1112.2 391.894 1109.47 389.731C1099.09 381.511 1084.15 369.538 1074.42 361.626C1071.62 359.351 1069.64 357.572 1065.76 354.406C1057.89 348.077 1013.56 311.562 1010.02 308.46C1009.64 308.137 1013.74 311.184 1007.49 305.989C1005.6 304.568 1003.71 303.147 1001.82 301.727C998.907 299.057 995.976 296.369 993.061 293.693C992.74 294.272 974.87 279.469 975.46 279.096C973.519 277.437 971.579 275.779 969.642 274.123C965.281 271.069 962.677 268.669 954.682 262.324C953.559 261.2 952.412 260.057 951.274 258.921C950.905 258.733 950.535 258.546 950.166 258.358C946.281 254.443 939.084 249.08 938.252 248.387C935.041 245.714 932.724 243.606 931.224 242.357C925.552 237.626 913.254 227.577 906.767 222.063C906.459 221.801 906.903 221.889 905.035 220.297C901.668 217.428 901.131 217.393 896.859 213.353C895.889 212.668 894.919 211.983 893.951 211.3C893.018 210.461 892.086 209.624 891.155 208.787C885.511 204.132 879.678 199.33 873.957 194.638C879.399 198.66 873.522 193.532 867.716 189.123C865.751 187.632 867.297 189.194 866.641 188.698C865.792 188.026 840.086 166.848 838.418 165.349C837.137 164.401 835.859 163.456 834.584 162.515C834.05 161.902 833.516 161.29 832.983 160.678C832.275 160.169 831.566 159.66 830.859 159.153C824.392 153.587 806.263 139.874 803.185 137.42C801.471 136.044 803.533 136.884 795.121 130.377C794.732 130.281 794.342 130.186 793.953 130.091C792.038 128.626 790.132 127.172 788.233 125.73C784.696 122.964 779.808 118.85 779.733 118.549C778.525 117.77 777.321 116.996 776.12 116.226C773.261 113.532 757.321 101.693 750.507 97.0514C748.67 95.5646 746.844 94.0932 745.028 92.6375C742.463 90.9538 739.713 89.151 737.009 87.3991C730.924 83.1364 737.458 87.4824 736.178 86.5522C733.421 84.4977 719.538 75.3794 720.584 75.5363C718.639 74.2107 716.709 72.9066 714.793 71.6244C713.731 71.0819 712.672 70.5455 711.618 70.0153C708.775 67.5781 702.561 63.5845 690.97 56.3062C689.951 55.8172 688.782 55.242 687.697 54.7234C683.936 52.2926 680.249 49.9758 676.636 47.7785C676.008 47.5835 675.381 47.3917 674.757 47.2031C674.526 47.1296 674.295 47.0563 674.064 46.9833C672.342 46.0656 670.635 45.1665 668.942 44.2859C665.659 42.0433 659.673 39.4206 656.39 37.5824C651.786 35.0131 655.795 36.6028 664.087 40.8722C663.973 40.2772 637.895 27.5439 632.06 25.3571C632.464 25.5944 632.805 25.8054 633.171 26.0282C639.082 28.5384 645.604 31.5186 651.389 34.3076C656.135 37.4614 639.738 29.1861 632.233 26.1774C631.527 25.896 627.204 24.2763 619.625 21.306C616.411 19.9741 604.782 15.4744 602.285 14.752C583.436 9.20784 597.383 13.2791 578.583 8.6988C582.439 9.90461 571.703 7.0875 560.021 6.71815C558.091 6.27568 541.265 7.67646 540.195 8.32514C533.229 9.92856 540.757 7.52091 530.771 10.5475C529.636 11.0328 528.533 11.5444 527.388 12.1165C525.129 13.0495 523.038 14.0677 520.903 15.2945C508.003 22.4442 506.969 26.8825 503.9 30.8691C502.782 32.6459 503.975 30.2005 501.212 34.9014C500.243 36.7018 499.22 38.7483 497.234 43.8596C491.823 60.0161 490.956 66.0967 491.783 81.6388C491.74 84.0152 491.763 86.4241 491.844 88.811C492.116 90.4046 492.414 91.9951 492.737 93.5807C493.966 105.829 493.881 101.359 494.622 105.73C494.708 106.175 494.798 106.637 494.894 107.114C497.247 118.846 501.557 140.478 501.637 142.475C504.391 152.166 505.932 164.045 506.751 167.901C507.31 170.176 507.871 172.455 508.432 174.737C508.894 177.461 509.356 180.188 509.814 182.898C510.282 181.425 512.425 195.592 512.685 196.917C512.989 198.459 517.619 219.94 519.259 227.947C520.897 235.946 523.558 249.916 523.811 251.148C524.102 252.567 527.099 266.136 529.283 276.77C531.196 286.082 542.246 341.309 541.859 337.764C541.209 334.137 540.233 328.986 539.364 324.533C536.666 310.722 520.19 229.747 516.013 209.069C509.24 175.605 502.176 141.01 495.34 107.026C493.682 98.7759 492.638 90.4293 492.359 82.1024C492.285 79.5829 492.48 79.1812 492.484 77.0231C492.425 73.7553 492.781 65.3629 493.317 62.1785C494.675 50.0242 500.703 36.156 504.772 30.972C513.359 19.007 523.015 14.0303 533.45 10.8076C536.61 9.3923 554.057 6.47983 566.001 8.17796C568.097 8.42538 570.175 8.72254 572.334 9.08023C566.458 8.06758 550.213 7.52155 542.829 9.02904C531.887 10.7874 526.395 13.4701 522.809 15.3036C519.371 16.3006 505.711 28.0061 502.456 35.5477C501.25 37.7054 500.84 38.0847 499.929 40.009C494.841 50.4551 492.654 65.7546 492.859 75.6792C492.434 71.6067 493.473 96.9788 494.221 98.2399C494.544 100.402 495.073 102.714 495.927 106.909C495.965 107.089 496.002 107.273 496.04 107.46C497.798 116.145 497.191 115.172 499.79 125.966C500.222 128.683 500.656 131.407 501.092 134.138C501.643 134.183 507.878 168.43 510.502 178C510.616 178.22 501.789 133.902 501.062 130.232C499.668 123.267 498.032 115.193 496.334 106.828C492.531 88.7981 492.16 68.2143 495.883 53.7758C496.566 47.0311 506.693 28.9506 508.4 28.2941C510.006 26.3845 508.403 27.9802 509.102 27.1565C516.595 18.9568 519.689 18.2552 519.887 17.9895C520.242 17.8646 518.637 19.0486 519.88 18.3069ZM317.787 613.875C323.087 617.671 328.76 621.645 334.3 625.43C333.832 625.254 333.362 625.076 332.892 624.898C330.367 623.123 327.823 621.316 325.26 619.476C323.209 618.133 321.367 616.925 319.405 615.623C318.867 615.042 318.327 614.46 317.787 613.875ZM303.98 604.492C303.783 604.351 303.594 604.214 303.412 604.081C299.034 600.899 299.008 600.598 297.97 599.82C294.982 597.576 291.756 595.33 288.799 593.158C292.513 595.186 299.477 600.577 303.452 604.027C303.636 604.188 303.812 604.343 303.98 604.492ZM405.55 668.814C404.362 668.18 396.843 663.642 387.92 659.335C381.284 655.427 375.254 651.7 368.866 647.629C379.445 654.426 395.052 662.693 400.425 665.457C402.558 666.576 402.872 666.955 404.562 667.826C414.111 672.765 423.977 676.766 424.692 677.783C415.287 673.337 407.086 669.631 405.55 668.814ZM349.1 635.733C347.696 634.665 346.286 633.585 344.87 632.494C350.253 636.031 355.547 639.416 360.749 642.654C359.271 641.894 357.785 641.122 356.291 640.339C353.913 638.834 351.516 637.299 349.1 635.733ZM566.091 455.862C566.86 459.662 567.627 463.455 568.393 467.246C568.446 467.017 567.568 462.683 567.309 461.07C567.31 461.077 567.312 461.084 567.313 461.091C567.025 459.295 567.304 460.033 566.701 456.78C566.498 456.474 566.294 456.168 566.091 455.862ZM1485.81 582.552C1492.75 583.907 1549.51 565.44 1544.17 565.792C1541.83 566.81 1522.86 574.131 1516.99 575.573C1509.31 578.169 1487.83 581.786 1485.81 582.552ZM1583.9 545.627C1584.82 545.135 1552.06 562.949 1548.52 563.956C1549.25 563.685 1550.38 563.295 1551.33 562.886C1556.01 561.119 1577.11 549.886 1583.9 545.627ZM523.577 243.155C524.008 246.147 524.44 249.142 524.872 252.141C524.941 251.315 525.011 250.489 525.08 249.664C524.579 247.492 524.078 245.323 523.577 243.155ZM574.83 9.3422C610.174 15.3311 642.815 30.9586 674.267 48.0925C686.907 55.0701 699.861 63.1706 712.06 71.2765C708.366 68.9402 704.648 66.6305 700.739 64.2551C692.176 58.7875 682.964 53.2096 674.137 48.3294C644.14 31.8417 612.642 17.1141 580.857 10.7637C578.81 10.2429 576.891 9.78353 574.83 9.3422ZM417.742 675.966C429.501 681.474 439.289 685.49 452.509 690.486C439.765 686.19 433.69 683.186 421.921 678.295C421.914 678.292 421.907 678.289 421.901 678.286C420.522 677.525 419.136 676.752 417.742 675.966ZM589.681 568.94C590.601 572.752 591.524 576.589 592.439 580.393C591.533 575.785 590.61 571.108 589.703 566.514C589.696 567.323 589.689 568.132 589.681 568.94ZM938.235 250.465C948.84 258.881 974.941 281.586 983.622 288.273C984.184 288.706 979.294 284.385 987.612 290.877C981.449 285.823 977.101 282.281 976.469 282.112C974.712 280.521 972.946 278.922 971.187 277.328C968.122 274.856 965.063 272.386 962.009 269.922C962.512 269.985 962.26 269.794 957.525 266.074C955.461 264.254 953.429 262.462 951.342 260.623C950.369 259.96 949.397 259.297 948.425 258.635C946.697 256.976 944.971 255.318 943.248 253.663C936.016 247.837 940.149 251.709 938.235 250.465ZM901.991 220.09C903.688 221.549 951.797 261.546 930.371 242.904C924.656 238.144 918.945 233.392 913.277 228.681C917.384 233.289 902.481 219.796 901.173 218.686C895.097 213.509 887.277 207.292 882.839 203.602C879.004 200.411 876.837 198.408 874.151 196.194C865.085 188.71 850.493 176.765 848.295 175.463C855.382 181.259 862.753 187.316 870.05 193.323C877.85 199.749 884.538 205.735 899.442 217.51C903.037 220.571 901.563 219.713 901.991 220.09ZM594.542 592.019C594.423 591.448 596.821 615.277 596.56 615.34C596.692 615.41 596.347 607.698 596.241 606.545C596.241 606.537 596.24 606.53 596.239 606.523C596.216 606.067 596.551 608.372 596.294 604.762C595.872 600.586 595.255 596.134 594.542 592.019ZM1394.15 574.124C1395.55 574.694 1413.8 580.76 1432.89 583.261C1451.89 586.066 1470.78 584.893 1471.87 584.747C1472.46 584.685 1471.63 584.64 1471.86 584.573C1454.76 586.157 1430.37 583.448 1414.51 579.531C1410.14 578.506 1411.41 578.94 1411.16 578.889C1411.15 578.887 1411.14 578.884 1411.13 578.881C1408.64 578.355 1397.38 574.795 1394.15 574.124ZM1001.89 303.295C999.528 301.248 997.143 299.183 994.769 297.126C994.081 296.704 993.394 296.283 992.707 295.861C992.713 295.866 992.718 295.871 992.724 295.875C995.777 298.348 998.851 300.835 1001.89 303.295ZM1085.66 372.637C1085.12 372.094 1084.58 371.551 1084.04 371.007C1077.9 366.04 1071.74 361.02 1065.64 356.036C1066.29 356.503 1066.93 356.969 1067.58 357.436C1058.41 349.801 1054.4 346.878 1049.5 342.806C1049.5 342.811 1049.51 342.815 1049.51 342.82C1048.99 342.381 1048.45 341.722 1046.49 340.099C1041.98 336.386 1029.11 325.677 1027.45 324.517C1023.91 322.081 1050 343.387 1054.87 347.373C1057.07 349.18 1059.61 351.457 1060.95 352.552C1062.41 353.751 1064.54 355.225 1068.1 358.136C1069.12 358.977 1080.62 368.623 1085.66 372.637ZM1196.1 457.843C1194.24 456.252 1190 453.347 1188.51 452.206C1188.16 451.934 1191.03 453.869 1187.69 451.34C1186.68 450.723 1185.67 450.103 1184.66 449.482C1188.4 452.236 1192.27 455.066 1196.1 457.843ZM596.274 631.839C596.538 631.164 597.082 618.44 596.91 617.776C596.677 613.876 596.763 618.719 596.58 623.714C596.429 628.735 595.869 634.182 596.274 631.839ZM331.673 626.998C334.153 629.005 317.933 618.052 301.919 606.107C289.039 596.538 276.311 587.13 273.975 585.447C274.317 585.307 287.582 595.39 280.875 589.961C285.216 593.323 294.704 600.282 302.16 605.779C305.978 608.593 309.121 610.867 310.602 611.963C313.256 613.927 313.768 614.615 314.167 614.912C315.66 616.064 329.985 625.692 331.673 626.998ZM227.21 551.464C232.55 555.396 237.9 559.313 243.268 563.236C236.846 558.672 230.503 554.154 224.102 549.562C225.085 550.158 226.199 550.849 227.21 551.464ZM220.335 546.659C220.349 547.051 202.285 533.611 197.415 530.114C203.175 533.703 211.739 540.56 220.335 546.659ZM551.616 698.604C561.265 694.714 564.72 691.572 553.569 697.466C553.23 697.635 551.208 698.757 551.616 698.604ZM939.874 253.51C941.226 254.649 957.998 269.082 959.049 269.771C962.429 271.993 951.273 262.894 947.615 259.601C941.783 254.344 950.761 261.554 936 249.419C936.658 249.848 937.317 250.278 937.976 250.707C929.437 243.519 931.828 246.365 930.24 245.144C929.776 244.789 924.401 240.221 923.407 239.443C910.953 229.707 938.639 252.465 939.874 253.51ZM569.804 462.186C565.959 441.842 567.338 450.662 563.13 429.849C562.788 429.187 569.096 459.585 569.804 462.186ZM783.804 125.575C800.844 138.655 814.587 149.95 830.198 162.081C829.751 160.802 779.513 121.863 783.804 125.575ZM1624.49 521.551C1560.2 572.392 1457.06 608.675 1373.81 567.767C1366.2 564.568 1364.48 563.505 1362.11 562.384C1361.72 562.198 1361.32 562.006 1360.87 561.796C1358.83 560.848 1359.11 561.182 1356.39 559.876C1257.55 510.394 1174.21 444.226 1091.65 378.622C1086.48 374.496 1061.57 353.785 1055.88 349.841C1051.57 346.877 1069.75 361.301 1072.78 363.747C1075.04 365.587 1075.01 365.824 1076.52 367.048C1078.12 368.346 1076.88 367.166 1078.75 368.669C1086.63 375.042 1095.18 381.984 1102.37 387.711C1172.75 443.411 1242.41 496.934 1319.98 541.293C1329.51 546.634 1327.5 545.653 1327.98 545.928C1327.98 545.931 1327.99 545.934 1327.99 545.937C1338.73 551.825 1350.3 557.769 1361.77 563.11C1405.29 584.035 1458.54 593.023 1506.07 581.292C1548.55 571.585 1586.48 548.761 1621.49 523.847C1622.5 523.082 1623.49 522.316 1624.49 521.551ZM905.159 223.733C908.918 227.676 910.163 227.892 924.902 240.546C926.183 241.48 927.466 242.416 928.75 243.352C920.823 236.749 912.979 230.223 905.134 223.712C905.142 223.719 905.151 223.726 905.159 223.733ZM1003.07 305.893C1005.03 308.632 1038.72 335.836 1053.73 348.29C1056.75 350.237 1034.73 332.393 1029.62 328.091C1027.07 325.955 1013.56 314.21 1002.99 305.709C1003.02 305.771 1003.05 305.832 1003.07 305.893ZM393.5 666.309C396.186 667.725 399.074 669.22 401.936 670.665C394.652 666.806 388.279 663.23 381.19 659.091C392.251 665.46 403.391 671.415 414.52 676.808C412.31 675.943 410.234 675.122 408.061 674.236C403.301 671.745 398.043 668.885 393.5 666.309ZM430.236 684.04C410.403 675.289 430.992 684.096 436.399 686.413C439.422 687.781 432.4 684.985 430.236 684.04ZM484.791 702.098C474.577 700.584 454.543 694.19 461.877 695.851C472.591 699.35 479.351 701.188 495.447 703.894C493.124 703.675 490.757 703.402 488.346 703.074C488.335 703.072 488.324 703.07 488.313 703.068C487.088 702.747 485.92 702.423 484.791 702.098ZM420.988 680.337C407.885 674.131 446.213 691.086 434.019 686.038C433.289 685.803 421.528 680.653 420.988 680.337ZM1545.59 569.08C1547.12 568.242 1536.88 572.529 1533.35 573.738C1518.32 579.363 1498.22 584.495 1481.52 586.102C1482.78 586.035 1484.03 585.955 1485.27 585.865C1506.1 583.269 1526.39 577.318 1545.59 569.08ZM1429.33 584.801C1417.84 583.025 1406.73 580.361 1395.75 576.915C1394.75 576.612 1389.95 575.211 1393.46 576.408C1405.06 580.095 1417.06 582.98 1429.33 584.801ZM848.755 178.647C855.418 184.229 835.711 168.886 836.865 169.055C840.922 172.317 844.767 175.419 848.755 178.647ZM784.912 127.982C789.26 131.277 793.686 134.658 798.087 138.043C798.049 138.103 798.011 138.162 797.973 138.222C793.612 134.778 789.222 131.336 784.912 127.982ZM1585.62 548.452C1580.55 551.293 1568.46 558.205 1560.64 562.021C1566.13 559.595 1578.6 552.651 1585.62 548.452ZM949.596 262.773C949.159 262.196 975.835 284.583 966.4 277.06C960.779 272.283 955.204 267.542 949.596 262.773ZM1003.76 308.358C998.002 303.611 993.577 299.846 994.927 300.636C997.976 303.193 1001 305.73 1004.04 308.274C1003.95 308.302 1003.85 308.33 1003.76 308.358ZM524.014 705.884C536.729 705.125 549.6 702.168 560.914 695.893C560.528 696.186 560.137 696.477 559.741 696.764C548.673 702.606 536.255 705.365 523.982 706.097C523.993 706.026 524.003 705.955 524.014 705.884ZM1592.05 545.241C1599.35 540.611 1606.55 535.752 1613.64 530.774C1606.49 535.679 1599.23 540.464 1591.88 545.016C1591.93 545.095 1591.98 545.174 1592.03 545.254C1592.03 545.25 1592.04 545.245 1592.05 545.241ZM361.862 649.933C394.99 670.079 352.307 645.274 344.169 638.967C344.16 638.962 344.15 638.956 344.14 638.95C343.401 638.418 345.126 639.296 343.902 638.399C347.212 640.67 350.488 642.884 353.731 645.04C356.83 646.858 359.715 648.516 362.997 650.386C364.003 651.054 365.005 651.716 366.005 652.372C364.63 651.569 363.249 650.756 361.862 649.933ZM234.534 560.684C206.177 540.172 235.505 560.74 249.272 571.085C249.11 571.082 237.126 562.555 234.534 560.684ZM308.677 614.424C313.22 617.644 317.605 620.697 322.141 623.799C322.701 624.26 323.259 624.72 323.817 625.178C320.12 622.687 316.891 620.486 313.39 618.065C311.826 616.863 310.255 615.65 308.677 614.424ZM468.066 700.468C476.623 702.738 487.805 705.432 460.071 697.639C460.064 697.711 460.057 697.782 460.051 697.854C461.187 698.208 464.475 699.136 464.647 699.188C465.147 699.35 464.498 699.423 468.066 700.468ZM181.235 524.153C180.333 523.522 179.626 523.927 171.688 517.129C168.941 515.163 166.685 513.558 164.109 511.717C163.558 511.107 163.002 510.494 162.439 509.876C171.922 517.027 173.362 517.673 174.034 518.16C177.286 520.516 174.801 518.898 176.858 520.414C182.197 524.354 194.594 533.308 188.634 529.536C186.634 528.285 182.114 524.766 181.235 524.153ZM200.08 538.496C198.943 537.588 202.844 540.171 201.994 539.474C201.279 538.889 189.644 530.092 193.044 532.129C194.989 533.573 196.703 534.848 198.776 536.384C199.388 536.956 199.992 537.522 200.586 538.08C202.513 539.375 204.307 540.571 206.343 541.942C209.36 544.45 215.795 549.53 207.792 543.951C210.56 545.943 213.773 548.255 216.568 550.257C218.225 551.313 219.817 552.321 221.353 553.286C220.478 552.876 219.588 552.455 218.682 552.021C212.502 547.549 206.157 542.932 200.08 538.496ZM109.712 471.736C110.121 471.922 110.528 472.108 110.935 472.294C99.8044 464.258 83.5641 452.282 93.2618 458.752C107.562 469.305 122.382 480.232 136.787 490.831C137.726 491.613 138.655 492.388 139.575 493.156C128.625 484.717 131.64 488.382 122.352 481.091C120.789 479.862 125.646 482.961 115.427 475.709C115.713 476.038 115.998 476.366 116.282 476.693C114.134 475.072 111.944 473.42 109.712 471.736ZM17.7137 403.196C36.4379 417.299 15.2855 401.983 12.5172 399.568C12.5227 399.572 12.5285 399.576 12.5341 399.58C3.9236 392.204 23.1528 406.985 24.6513 408.093C26.2831 409.299 30.5224 411.762 38.5822 418.766C31.876 413.764 24.8486 408.52 17.7137 403.196ZM77.5267 447.847C76.0069 446.741 76.9262 447.248 76.2715 446.764C76.266 446.76 76.2601 446.756 76.2544 446.751C66.2833 439.384 43.1499 422.341 40.6565 419.917C48.2492 425.522 80.7165 449.528 82.202 451.012C80.6592 449.969 79.1008 448.914 77.5267 447.847ZM146.622 498.643C152.525 503.373 139.082 493.485 135.493 490.657C134.839 490.136 140.75 493.923 146.622 498.643ZM602.419 605.475C600.588 588.729 602.598 610.767 601.585 603.181C601.902 606.292 602.154 609.693 602.292 612.879C602.39 610.447 602.433 607.976 602.419 605.475ZM653.774 45.5252C657.237 47.3295 655.67 46.342 655.972 46.4925C658.124 47.6032 660.106 48.7999 660.954 49.2307C676.803 57.4252 666.416 51.6836 666.252 51.5456C665.999 51.2199 670.244 53.286 664.585 50.0192C661.035 48.1868 657.817 46.5709 654.135 44.7651C652.401 43.7799 650.685 42.8165 648.986 41.8748C641.975 38.6673 650.998 43.1321 651.956 43.9332C652.31 44.228 645.639 41.0191 653.774 45.5252ZM598.374 575.618C597.569 573.056 595.933 566.685 596.889 573.064C596.891 573.071 596.892 573.078 596.894 573.085C597.071 574.265 597.977 579.018 598.188 580.485C598.458 581.633 598.693 582.601 598.895 583.401C599.995 587.917 600.13 587.336 599.576 583.27C599.319 581.42 598.908 578.815 598.374 575.618ZM589.014 20.3614C583.191 18.7965 577.115 17.4595 571.056 16.5533C571.183 16.3928 571.311 16.2324 571.439 16.0723C574.846 16.6031 577.796 17.1778 581.11 17.9129C582.256 18.0688 583.529 18.266 584.599 18.4296C580.54 17.2936 576.689 16.3444 572.619 15.5332C567.709 14.8731 562.784 14.4844 558.062 14.4449C560.209 14.5886 562.425 14.8036 564.714 15.0933C552.915 14.5256 555.452 14.1475 545.77 14.7878C542.651 15.3268 539.308 16.1294 536.331 17.1345C531.772 18.2378 527.524 19.8289 523.481 22.101C517.126 26.4003 516.94 27.1826 521.06 24.1673C518.124 26.5237 514.834 29.0576 512.053 32.7243C511.825 33.025 512.423 32.5924 512.219 32.8553C505.187 42.3576 503.966 48.3958 502.78 51.3429C501.765 54.4243 501.514 55.0356 501.066 56.9863C500.264 59.6599 499.427 71.0118 499.675 71.1829C499.717 71.2982 500.386 65.4933 500.772 64.3201C501.383 63.1548 499.829 66.2616 500.537 84.7776C499.275 65.3985 505.514 45.1102 501.45 58.2345C502.03 55.3133 503.878 47.4903 507.222 41.0492C510.426 34.5225 515.048 29.737 515.607 29.217C517.265 27.6394 516.84 28.3385 519.006 26.4947C520.397 25.7062 523.014 21.1463 536.446 17.5412C538.157 16.9687 539.775 16.5011 541.563 16.0714C543.302 15.8273 544.889 15.6748 546.589 15.5612C543.25 16.2058 539.793 17.1241 536.694 18.2747C549.52 14.5004 561.605 16.0857 570.117 16.6718C577.71 17.7729 581.07 18.6841 577.903 18.2751C580.083 18.6844 582.475 19.1897 584.624 19.688C586.062 19.8884 587.525 20.1127 589.014 20.3614ZM588.543 528.236C587.275 520.489 586.145 517.859 586.351 519.057C587.515 525.809 589.204 532.272 588.543 528.236ZM641.319 39.0715C633.487 35.2118 625.77 31.6878 618.012 28.4957C617.944 28.6696 617.877 28.8435 617.809 29.0173C625.621 32.0301 633.407 35.3806 641.319 39.0715ZM603.023 607.966C602.938 608.805 602.846 609.639 602.749 610.469C603.816 620.179 602.422 630.103 601.955 634.882C601.86 635.924 602.374 633.865 602.614 631.853C603.159 630.529 603.532 609.714 603.023 607.966ZM289.474 604.182C292.372 606.195 295.122 608.103 298.188 610.244C297.93 610.249 297.672 610.255 297.415 610.261C295.934 609.206 294.493 608.182 293.091 607.187C291.854 606.162 290.797 605.269 289.474 604.182ZM322.478 627.658C327.79 631.351 333.022 634.907 338.175 638.328C318.218 625.108 334.556 636.223 322.218 628.034C322.304 627.908 322.391 627.783 322.478 627.658ZM376.479 662.373C375.774 662.076 375.066 661.776 374.358 661.473C368.981 658.357 363.464 655.053 357.931 651.634C361.24 654.062 364.599 656.478 367.881 658.806C369.883 659.996 371.872 661.164 373.848 662.311C374.728 662.335 375.605 662.355 376.479 662.373ZM793.084 140.712C796.086 143.062 806.52 150.96 806.17 150.556C801.923 147.017 797.798 143.595 793.542 140.092C793.407 140.224 793.271 140.355 793.136 140.486C792.572 139.926 792.009 139.366 791.448 138.808C788.913 136.913 786.393 135.036 783.887 133.179C782.746 132.087 781.607 130.999 780.473 129.915C779.119 129.105 777.769 128.299 776.423 127.499C788.013 136.857 787.89 136.392 790.367 138.322C791.633 139.315 792.367 140.037 792.782 140.437C792.883 140.528 792.984 140.62 793.084 140.712ZM635.385 37.6352C650.798 44.7636 659.631 48.9966 670.346 55.2095C670.846 55.5033 671.35 55.8035 671.861 56.1112C671.489 55.8464 670.992 55.5192 670.385 55.1394C659.884 48.0134 616.082 27.8123 599.089 22.8148C597.203 22.3795 595.388 21.9898 593.536 21.6146C603.081 24.1921 609.634 26.9266 614.327 28.7273C618.117 30.2061 617.626 29.8775 617.938 29.9972C617.951 30.0022 617.964 30.0072 617.977 30.0123C626.371 33.4118 629.136 34.8094 635.385 37.6352ZM604.033 621.901C604.439 616.754 603.95 608.023 603.585 607.908C603.815 612.844 603.835 617.71 603.608 622.658C603.716 621.653 603.975 622.763 604.033 621.901ZM382.589 666.877C385.938 668.892 393.802 673.007 390.559 670.945C389.992 670.601 382.017 666.44 386.882 668.539C379.184 664.292 380.686 665.732 382.589 666.877ZM520.265 190.531C520.914 193.657 521.557 196.747 522.205 199.864C522.482 200.564 522.759 201.264 523.037 201.964C522.111 198.144 521.191 194.354 520.265 190.531ZM595.718 664.279C593.311 668.235 590.33 675.604 584.409 682.082C582.394 684.578 580.215 686.938 577.875 689.149C577.869 689.154 577.863 689.16 577.858 689.165C577.915 689.353 577.972 689.54 578.028 689.728C585.686 682.574 591.63 673.696 595.718 664.279ZM534.591 18.6464C532.92 19.0963 531.291 19.6178 529.653 20.2439C526.912 21.5432 524.265 23.1278 521.882 24.9272C523.27 24.0328 524.641 23.259 526.124 22.5213C528.758 20.9783 531.669 19.6641 534.591 18.6464ZM556.885 703.64C567.079 698.865 570.407 696.192 557.682 702.764C552.193 705.159 545.804 707.84 556.885 703.64ZM944.635 264.885C941.957 262.58 939.284 260.28 936.617 257.985C935.624 257.305 934.63 256.626 933.638 255.948C937.294 258.918 940.959 261.897 944.635 264.885ZM340.535 641.224C340.955 641.36 341.376 641.495 341.795 641.629C344.488 643.414 347.159 645.163 349.809 646.874C349.077 646.547 348.344 646.217 347.609 645.885C345.267 644.36 342.909 642.806 340.535 641.224ZM926.542 249.642C924.426 247.842 922.24 245.984 920.095 244.161C918.604 242.988 917.114 241.816 915.626 240.647C917.611 242.379 919.6 244.116 921.592 245.856C923.244 247.12 924.914 248.398 926.542 249.642ZM456.738 700.326C460.606 701.829 476.296 705.809 462.315 701.65C453.273 698.758 456.26 700.127 456.738 700.326ZM436.333 693.045C450.282 698.655 440.269 693.815 423.085 687.209C439.994 694.403 435.545 692.64 436.333 693.045ZM319.357 628.013C319.049 627.797 318.832 627.412 316.423 625.714C310.68 621.668 303.622 616.544 297.551 612.031C294.313 609.627 291.59 607.61 289.548 606.104C274.416 594.783 227.937 561.882 222.8 557.452C221.738 556.537 224.546 558.128 224.095 557.78C222.76 556.756 214.918 551.286 216.484 552.097C224.119 557.64 231.735 563.126 239.364 568.6C237.393 567.413 235.389 566.202 233.422 565.015C252.491 578.582 246.184 574.068 251.876 577.667C254.997 580.106 258.158 582.581 261.205 584.982C268.263 589.903 275.285 594.835 282.429 599.878C280.7 598.755 279.034 597.68 277.426 596.648C287.87 604.564 284.887 602.207 290.869 606.25C290.811 606.352 290.753 606.454 290.695 606.556C293.6 608.589 295.952 610.285 297.822 611.664C302.246 614.922 303.609 616.116 305.205 617.277C309.893 620.625 316.252 623.715 333.528 637.005C341.271 641.367 340.62 642.518 345.5 644.865C358.165 653.84 333.442 637.826 322.042 629.738C322.036 629.734 322.03 629.729 322.024 629.725C321.144 629.113 322.475 630.192 319.357 628.013ZM387.232 669.631C378.601 665.785 411.511 683.141 400.983 676.659C399.353 675.796 397.713 674.916 396.063 674.02C392.954 672.503 390.194 671.136 387.213 669.62C387.219 669.624 387.226 669.627 387.232 669.631ZM593.033 541.774C586.154 508.559 589.591 527.565 592.165 538.735C592.678 540.965 593.016 542.19 593.033 541.774ZM658.028 49.2243C658.486 49.381 658.945 49.539 659.405 49.6984C649.485 44.3889 629.859 35.1038 630.019 35.8184C639.391 39.8932 648.765 44.4181 658.028 49.2243ZM576.196 18.7255C578.41 19.0641 587.805 21.2821 586.673 20.8599C582.897 19.7975 578.503 18.7445 574.674 17.9827C572.777 17.7495 570.779 17.5416 568.912 17.3956C571.526 17.7251 575.654 18.6113 576.196 18.7255Z" fill="#87392B" fill-opacity="0.36"/>
</svg>
