<svg width="1721" height="671" viewBox="0 0 1721 671" fill="none" xmlns="http://www.w3.org/2000/svg">
<path d="M1666.48 488.585C1617.93 512.588 1587.15 538.661 1539.26 563.167C1480.16 597.754 1386.78 609.005 1314.63 568.428C1263.12 542.3 1217.03 509.542 1176.89 479.412C1104.54 424.642 1035.37 364.159 968.111 304.762C964.658 301.708 962.727 299.746 961.166 298.363C946.503 285.383 921.652 263.569 907.171 250.715C876.505 223.422 823.059 176.528 794.373 152.389C782.464 142.274 769.638 131.737 765.229 127.591C760.66 123.86 757.944 122.217 756.749 121.288C756.736 121.277 756.723 121.266 756.709 121.254C752.918 118.29 743.421 110.44 741.227 108.773C740.907 108.531 742.685 110.28 737.555 106.192C737.103 105.836 737.635 105.979 733.316 102.664C732.278 101.823 717.111 90.8014 712.921 87.849C703.397 80.9687 685.605 68.3034 668.898 58.4281C659.817 53.0347 651.564 48.4917 645.205 45.1869C642.461 43.7617 640.744 43.0175 637.679 41.4956C636.103 40.7126 633.837 39.4715 633.364 39.2469C631.407 38.2644 621.708 34.5054 625.563 34.9883C615.821 30.7552 618.616 32.4706 618.27 32.5661C607.503 28.0855 602.554 25.9372 599.544 25.5052C573.858 16.8713 543.773 11.8535 524.057 26.3582C504.366 40.8983 501.288 71.4473 505.38 97.7875C505.455 98.2737 505.53 98.7602 505.605 99.247C505.701 99.25 505.796 99.2529 505.892 99.2559C508.141 116.184 509.68 121.905 510.642 131.588C511.692 137.526 512.738 143.423 513.791 149.359C534.559 283.75 556.605 417.706 576.61 551.028C579.417 570.06 579.787 589.712 574.871 609.065C572.942 615.792 572.591 617.565 567.549 628.121C562.006 639.772 549.36 654.894 533.327 662.067C519.462 669.138 497.39 671.502 481.377 669.842C477.802 669.547 475.259 669.342 474.841 669.293C472.465 668.986 472.372 668.77 470.035 668.413C467.258 667.981 464.131 667.576 460.967 666.915C449.335 664.552 437.18 660.612 435.791 660.14C428.886 657.816 427.605 657.056 427.051 656.868C419.737 654.112 422.401 655.271 420.567 654.559C411.037 650.71 404.437 647.391 392.02 641.779C392.433 641.8 392.845 641.821 393.256 641.84C383.709 636.979 389.846 640.522 387.846 639.609C386.924 639.327 366.792 628.361 365.496 627.458C360.288 624.418 360.231 624.101 359.782 623.838C358.579 623.164 345.444 615.493 338.874 610.958C331.025 605.589 340.651 611.32 338.715 609.961C338.309 609.701 330.244 604.451 329.267 603.609C328.173 602.706 335.055 607.287 334.973 607.145C334.954 607.119 323.638 599.151 325.95 600.447C327.777 601.512 343.479 612.155 346.96 614.136C347.525 614.471 346.612 613.596 347.109 613.897C348.635 615.3 386.941 637.209 388.809 637.66C386.64 636.689 384.619 635.772 382.588 634.834C385.17 636.208 387.932 637.645 390.687 639.039C386.652 637.12 382.916 635.279 379.09 633.33C384.003 637.207 402.081 644.948 402.966 644.712C403.208 644.601 393.083 639.201 402.991 643.487C401.427 642.701 400.069 641.999 398.595 641.233C395.508 639.863 392.379 638.425 389.208 636.92C391.265 638.031 393.305 639.112 395.329 640.164C394.545 639.856 393.759 639.544 392.97 639.228C386.996 636.386 381.483 633.617 375.734 630.587C372.829 628.932 373.532 629.093 371.524 627.927C347.583 613.514 362.689 623.076 347.261 613.538C345.102 612.058 342.927 610.549 340.737 609.012C341.272 609.871 334.49 605.217 326.292 599.868C327.351 600.416 328.406 600.959 329.457 601.495C317.217 593.534 294.506 575.868 300.297 581.089C297.652 579.055 295.206 577.146 292.634 575.123C290.369 573.574 288.089 571.999 285.796 570.399C283.736 568.805 281.665 567.189 279.583 565.552C278.557 564.745 277.553 563.956 276.568 563.182C276.597 563.117 276.626 563.052 276.654 562.987C277.655 563.767 278.676 564.563 279.719 565.377C281.166 566.506 282.608 567.624 284.044 568.732C282.708 567.494 281.368 566.246 280.023 564.988C279.637 564.628 279.254 564.271 278.875 563.916C277.024 562.517 275.241 561.172 273.521 559.876C280.636 565.672 270.977 558.556 268.271 556.807C262.062 552.109 258.274 548.724 256.13 547.046C255.269 546.362 243.129 537.82 248.19 540.832C242.176 536.313 236.093 531.774 230.047 527.282C227.733 525.455 225.416 523.627 223.104 521.801C228.385 525.409 213.844 513.855 224.822 522.036C233.002 528.127 234.848 529.916 238.667 532.83C242.123 535.469 244.077 536.707 247.861 539.604C259.294 548.362 269.993 556.677 280.253 564.693C292.892 574.562 305.175 583.754 318.574 593.186C323.66 596.762 328.267 599.764 331.59 602.001C335.333 604.512 330.498 601.612 335.299 604.715C340.471 608.035 341.796 608.613 343.154 609.483C344.012 610.03 346.617 611.913 349.079 613.448C359.275 619.909 374.707 628.411 376.371 629.268C377.947 630.496 408.411 645.817 410.237 646.247C411.015 646.591 409.142 646.596 416.26 648.779C418.426 649.662 420.748 650.581 422.956 651.423C422.546 651.413 422.135 651.402 421.724 651.39C434.909 655.8 430.499 654.586 443.258 658.59C472.614 668.61 529.122 673.617 554.233 641.421C559.491 635.032 561.2 632.278 565.433 623.565C569.999 615.587 574.522 592.638 572.855 597.531C575.919 578.044 573.879 574.751 574.106 565.054C573.924 563.881 573.725 562.654 573.522 561.521C573.289 557.474 572.927 554.459 572.498 551.626C571.846 547.364 571.13 543.544 570.074 536.714C569.331 531.913 570.59 537.401 568.654 527.751C568.409 525.886 568.162 524.015 567.918 522.164C568.085 522.579 568.252 522.994 568.419 523.409C566.708 512.659 566.649 511.928 566.455 513.224C565.731 507.99 565.013 502.806 564.285 497.567C564.06 496.937 563.835 496.307 563.612 495.681C563.677 496.858 567.647 522.654 572.042 551.692C579.216 586.593 566.401 626.844 559.421 633.817C553.827 642.427 542.307 653.811 528.227 659.444C514.369 665.338 499.833 666.227 491.602 666.128C485.269 665.99 482.185 665.615 472.939 664.375C463.61 663.111 452.162 660.541 447.293 659.133C430.441 656.639 360.393 621.822 408.462 644.466C407.114 643.713 405.758 642.947 404.394 642.166C385.384 633.631 392.057 636.551 376.83 628.384C370.109 624.766 355.28 616.278 356.308 616.115C368.175 623.2 380.61 630.339 391.231 635.668C392.367 636.285 404.917 642.102 411.683 645.045C417.621 647.616 413.112 646.586 426.737 651.142C436.264 655.415 442.588 656.619 445.107 657.305C449.915 658.576 450.343 659.03 454.973 660.226C459.953 661.487 463.813 661.992 464.458 662.116C471.387 664.857 509.516 665.202 511.142 663.402C509.677 663.73 508.184 664.026 506.663 664.288C516.394 662.865 514.409 662.604 516.907 662.033C518.785 661.556 520.619 661.025 522.522 660.393C521.801 660.706 521.07 661.011 520.329 661.306C531.503 657.212 523.309 661.066 538.077 653.056C547.281 647.507 554.559 638.902 555.122 638.074C555.304 637.831 553.091 640.351 555.751 636.923C560.366 631.266 565.526 620.022 566.132 618.728C567.366 615.438 566.982 615.648 567.142 615.208C569.19 613.529 574.287 579.145 572.85 572.931C572.649 566.192 572.013 559.114 570.93 551.854C569.344 541.206 567.69 530.15 566.027 519.33C565.743 517.479 566.073 518.638 565.787 516.783C565.327 513.786 562.765 498.55 562.395 496.25C561.487 490.574 559.276 475.546 558.844 473.199C558.782 472.864 559.338 477.835 558.385 472.069C557.326 465.659 558.134 469.075 558.083 468.725C556.169 455.688 554.7 447.478 553.28 438.578C552.821 435.701 552.2 430.348 551.503 426.28C551.423 425.812 551.377 426.771 551.296 426.312C550.239 420.186 549.694 414.375 549.301 411.706C548.34 405.193 548.632 408.775 548.577 408.436C547.891 404.107 547.069 398.24 546.024 391.657C541.354 362.261 537.549 338.277 532.62 307.025C532 303.099 531.447 298.414 531.353 297.814C531.057 295.96 530.925 296.525 530.079 291.157C528.299 279.847 526.627 269.37 524.855 258.162C524.499 255.909 524.548 254.917 524.28 253.2C523.377 247.425 519.736 227.846 520.341 227.425C517.949 216.069 517.247 208.393 515.786 199.184C512.326 177.382 506.832 143.245 503.512 121.458C502.812 116.869 502.647 114.703 502.261 112.164C501.97 110.252 501.076 104.586 500.129 98.5825C498.746 90.2814 498.432 81.1081 498.461 80.3295C498.606 77.6638 498.748 79.2477 499.214 65.6634C500.159 57.7573 500.527 58.8049 500.81 57.1873C503.204 44.5988 509.398 33.8891 508.731 36.1861C516.145 23.6412 525.07 18.8467 530.573 17.0216C530.333 16.8261 536.598 13.7407 544.918 12.7058C540.775 13.5917 538.942 14.2576 535.855 15.3088C532.75 16.5482 527.967 17.6761 519.984 23.768C519.738 23.9649 520.077 23.4256 519.83 23.6226C517.549 25.3546 513.353 29.6451 510.635 33.7501C507.954 37.8569 509.32 35.5033 508.302 37.1971C507.419 38.7881 507.608 38.8027 506.461 41.1675C502.808 48.8932 501.301 56.509 500.543 61.3625C500.054 64.4518 499.543 67.9078 499.393 70.339C498.905 76.7353 499.204 88.1598 500.917 98.4632C501.692 103.354 502.433 108.062 503.035 111.963C503.425 114.498 503.065 113.457 503.916 119.02C504.015 119.667 504.588 122.02 505.391 126.884C506.191 131.734 506.684 135.534 507.197 138.672C507.624 141.284 507.63 140.156 508.482 145.513C509.185 149.989 517.039 200.653 517.448 203.392C518.032 207.355 518.08 209.285 518.491 211.685C518.565 212.108 518.921 212.788 519.171 214.257C523.298 238.498 531.49 292.266 535.879 320.006C545.052 377.99 553.619 431.473 562.644 490.016C562.846 491.053 563.048 492.09 563.249 493.126C562.347 487.217 561.438 481.279 560.532 475.373C560.64 475.318 560.749 475.264 560.857 475.209C559.643 467.2 559.534 468.294 559.406 468.547C559.02 465.582 558.633 462.615 558.245 459.643C557.451 457.132 554.661 437.373 553.072 427.189C552.042 420.576 550.659 412.716 550.125 409.228C548.997 401.858 549.272 402.009 549.185 401.43C549.036 400.44 547.209 390.192 546.049 382.759C544.337 371.79 544.528 370.539 541.84 355.568C539.001 336.29 535.529 314.983 532.211 294.245C533.185 298.139 529.91 279.604 528.586 271.218C520.514 220.07 510.695 157.195 502.781 105.347C502.387 102.768 502.061 100.436 501.775 98.3332C501.336 95.0822 501.1 92.3681 500.88 90.1481C500.694 88.1836 500.37 87.3506 500.242 84.6058C500.24 84.1234 500.367 83.7817 500.323 78.7C498.786 65.7921 507.341 35.4209 514.277 30.9817C543.421 -1.70182 595.861 18.0976 633.867 35.5951C634.815 36.1506 635.768 36.7141 636.727 37.2857C642.249 39.5661 657.087 47.2269 670.699 55.3643C676.745 58.9407 683.075 62.9775 687.357 65.7643C711.349 81.2428 740.724 103.641 760.407 119.459C764.672 122.876 768.284 125.978 772.182 129.155C773.895 130.55 776.145 132.166 777.945 133.645C798.189 150.225 825.072 173.441 844.976 190.765C890.115 230.019 932.212 267.794 977.833 307.979C1085.03 400.865 1190.82 497.701 1316.58 564.556C1372.56 594.162 1441.28 599.637 1499.97 575.951C1502.55 574.974 1502.49 575.208 1504.48 574.428C1516.35 570.07 1541.42 557.376 1553.53 550.128C1563.29 544.571 1578.56 535.323 1581.63 532.969C1547.95 553.944 1510.53 575.297 1469.38 584.829C1466.46 585.503 1466.07 585.376 1465.71 585.455C1459.05 586.765 1463.35 586.274 1453.58 587.976C1450.42 589.094 1419.93 590.453 1423.53 590.594C1416.15 592.138 1365 584.472 1355.91 579.922C1352.97 579.001 1354.99 579.842 1354.41 579.663C1351.93 578.891 1350.96 578.298 1348.8 577.53C1342.97 575.605 1328.35 569.654 1325.73 568.323C1323.77 567.419 1320.59 565.898 1316.86 563.988C1309.24 560.119 1298.67 554.272 1293.5 551.367C1286.37 547.358 1287.57 548.344 1281.34 544.713C1276.45 541.809 1281.76 544.788 1271.19 538.284C1265.86 535.065 1247.53 523.463 1243.12 520.455C1238.64 517.468 1233.95 514.118 1227.97 510.002C1219.2 504.035 1200.73 490.889 1192.11 484.518C1191.6 484.145 1190.24 483.393 1188.99 482.458C1186.4 480.52 1187.33 480.9 1185.39 479.414C1183.35 478.018 1149.53 452.056 1144.07 447.571C1140.18 444.49 1137.39 442.456 1135.23 440.732C1133.54 439.377 1133.49 439.069 1131.76 437.681C1131.2 437.23 1126.63 433.79 1122.14 430.142C1117.89 426.722 1101.9 413.375 1100.09 411.85C1098.88 410.852 1100.11 412.063 1096.55 409.105C1093.3 406.406 1091.29 404.477 1089.43 402.928C1085.11 399.314 1080.29 395.482 1075.75 391.659C1062.73 380.669 1063.56 381.022 1062.79 380.365C1060.65 378.52 1059.65 377.951 1058.94 377.352C1055.95 374.829 1048.61 368.606 1045.95 366.326C1042.63 363.49 1041.36 362.127 1037.87 359.11C1035.26 356.86 1029.85 352.463 1023.9 347.307C1010.48 335.695 994.588 321.822 981.523 310.304C977.63 306.872 977.159 306.204 975.973 305.153C969.723 299.607 966.079 296.668 964.297 295.09C951.62 283.868 929.133 263.485 917.351 253.01C912.594 248.779 891.489 230.294 879.539 219.744C878.179 218.543 879.551 219.553 878.022 218.238C874.367 215.096 874.505 215.621 872.681 214.005C871.799 213.223 869.914 211.339 867.345 209.063C853.868 197.124 844.68 189.32 838.454 183.915C784.24 137.298 728.801 89.2168 671.276 54.3832C665.756 51.1305 660.659 48.234 655.298 45.3088C648.081 41.384 639.19 36.9211 628.22 31.7274C627.912 31.4842 627.605 31.2418 627.297 31.0005C626.867 30.9074 626.437 30.8158 626.009 30.7257C613.523 25.3366 608.424 23.395 595.24 19.0961C594.062 18.7194 590.634 17.2752 588.385 17.2404C574.924 13.5961 582.419 15.6614 572.28 13.8837C562.235 12.4002 552.339 11.9461 542.881 13.6079C540.307 14.0309 544.364 12.9093 549.427 12.3688C554.593 11.7678 560.491 11.9366 561.331 11.9941C563.661 12.1207 566.053 12.5987 568.397 12.8933C575.049 13.7075 581.657 14.9907 583.05 15.5577C591.846 17.4251 580.925 14.9037 582.095 14.9823C587.966 16.3924 593.485 18.0466 599.184 19.9947C602.474 19.6993 632.414 33.2397 630.596 32.1226C632.976 33.3529 635.151 34.5172 637.48 35.7822C648.306 40.316 654.051 43.8923 667.195 51.6714C666.266 51.0271 665.343 50.3893 664.424 49.758C664.595 49.8242 669.024 52.2911 671.586 53.8554C673.134 54.7998 673.903 55.3445 672.228 54.5318C684.091 61.0761 683.551 61.8386 694.077 68.0288C700.241 72.1057 696.701 70.0626 707.322 77.4829C713.796 82.0409 721.782 87.6347 728.854 92.9421C730.497 94.1751 731.086 94.8863 732.557 96.0021C734.044 97.1307 734.849 97.4825 736.556 98.7822C740.083 101.465 744.632 105.182 746.896 106.939C748.916 108.505 751.976 110.669 756.669 114.366C773.357 127.596 768.306 123.943 770.8 126.059C773.504 128.383 775.702 129.724 781.267 134.359C781.826 134.826 780.236 133.793 782.067 135.293C783.541 136.503 784.455 136.947 789.36 140.968C791.221 142.405 820.982 167.508 825.517 171.478C832.348 177.32 847.689 190.88 854.64 196.958C857.361 199.332 860.403 201.742 863.315 204.294C872.931 212.716 888.296 226.272 900.347 236.945C911.334 246.67 930.146 263.902 936.376 268.922C951.701 282.437 955.27 286.016 956.402 287.024C959.512 289.791 961.097 290.91 965.045 294.386C1016.14 339.479 1083.87 398.491 1134.39 438.712C1191.92 484.41 1251.44 529.395 1317.3 563.109C1385.64 600.766 1472.52 595.16 1538.71 556.436C1539.02 556.163 1539.33 555.889 1539.65 555.615C1523.97 564.029 1504.74 572.537 1487.93 577.882C1465.68 585.804 1430.6 590.469 1413.3 588.503C1420.25 588.809 1431.76 588.585 1431.51 588.223C1418.89 588.869 1406.42 588.32 1394.02 586.636C1394.38 586.837 1394.73 587.037 1395.09 587.236C1382.02 585.605 1369.06 582.621 1356.4 578.608C1354.18 577.899 1355.68 578.53 1353.79 577.912C1351.73 577.225 1353.17 577.557 1352.79 577.427C1347.57 575.659 1345.92 575.147 1345.28 574.918C1343.63 574.286 1344.97 574.682 1340.2 572.774C1331.37 569.183 1325.39 566.671 1327.57 567.044C1324.82 565.786 1322.05 564.466 1319.27 563.083C1318.69 562.93 1318.12 562.775 1317.55 562.618C1317.34 562.563 1317.12 562.507 1316.91 562.451C1300.84 553.51 1292.77 550.082 1284.34 544.12C1281.32 542.508 1278.26 540.846 1275.37 539.257C1273.85 538.14 1272.32 537.013 1270.78 535.876C1270.39 535.8 1270 535.725 1269.61 535.649C1253.96 525.854 1237.87 515.316 1223.57 505.309C1213.45 498.2 1211.38 496.637 1202.58 490.269C1183.21 476.078 1202.52 489.979 1186.78 477.926C1187.51 478.683 1188.23 479.438 1188.96 480.192C1186.29 478.283 1183.62 476.356 1180.93 474.413C1179.18 472.914 1177.42 471.406 1175.66 469.892C1167.19 464.364 1162.34 459.841 1161.24 458.991C1160.39 458.325 1156.93 456.227 1147.81 448.565C1151.34 452.116 1140.63 442.897 1139.73 442.167C1138.89 441.499 1127.99 432.947 1123.69 429.442C1120.29 426.685 1113.05 420.619 1107.98 416.454C1103.53 412.799 1103.85 413.321 1103.53 413.056C1098.03 408.54 1101.57 411.259 1097.61 407.968C1093.65 404.673 1090.46 402.233 1089.61 401.506C1089.19 401.14 1090.75 402.199 1088.79 400.536C1083.54 396.094 1073.96 388.244 1067.93 383.123C1065.79 381.308 1063.22 378.915 1060.87 376.901C1057.25 373.813 1055.42 372.529 1053.33 370.725C1052.6 370.098 1048.14 365.852 1042.31 360.899C1041.2 359.961 1037.52 357.708 1033.88 353.255C1033.46 353.074 1033.03 352.893 1032.61 352.712C1013.02 336.194 1008.43 330.64 999.201 323.896C985.291 311.543 995.149 319.673 993.653 318.281C992.685 317.383 988.061 313.461 987.565 313.016C986.687 312.228 986.922 312.268 985.952 311.415C968.176 295.79 975.893 302.898 970.165 298.045C956.548 286.492 946.664 276.693 969.749 297.415C969.795 297.362 969.841 297.31 969.888 297.258C964.1 292.24 949.627 279.388 954.708 283.411C958.664 286.56 993.104 317.183 973.798 299.632C969.414 295.644 966.935 293.806 959.596 286.659C954.557 282.166 953.381 281.976 946.672 275.693C947.656 276.861 948.64 278.029 949.625 279.198C940.045 271.102 928.776 260.593 921.478 254.293C919 252.153 909.532 245.183 912.279 246.201C908.061 242.549 888.941 225.385 885.184 222.209C884.308 221.471 882.751 220.833 870.396 209.718C869.577 208.904 868.761 208.094 867.92 207.263C879.539 217.184 859.35 199.197 865.226 203.639C866.995 205.505 875.947 213.561 877.335 214.946C879.697 217.302 872.071 210.947 881.614 219.249C888.191 223.848 870.812 209.1 873.994 210.773C861.272 200.13 860.202 198.711 857.402 196.24C845.477 185.749 837.583 179.021 826.219 169.129C823.388 166.908 843.848 184.879 846.546 187.152C836.636 179.368 852.956 193.563 859.987 199.239C860.439 199.882 860.892 200.526 861.344 201.17C852.524 193.319 843.822 185.676 834.865 178.144C834.336 177.595 833.807 177.046 833.279 176.498C835.324 178.124 837.376 179.758 839.434 181.4C832.174 174.898 836.282 179.153 826.755 170.329C826.309 170.223 825.864 170.118 825.418 170.012C815.926 161.774 806.604 153.757 797.047 145.656C791.972 141.904 773.393 126.4 777.177 128.819C769.795 122.736 778.742 130.415 771.737 124.875C768.646 122.429 762.531 117.524 761.16 116.244C762.069 116.293 771.339 123.686 774.124 125.51C772.627 123.856 730.276 91.0518 734.338 93.6563C730.906 90.9703 732.287 92.3852 726.044 87.825C711.03 76.8054 688.725 60.7792 672.721 51.9257C670.052 50.4233 667.619 49.1113 665.467 48.0087C668.026 49.5406 670.364 50.9507 672.525 52.2579C684.431 59.5605 690.013 62.842 701.23 70.4547C709.676 75.5518 758.28 112.706 747.077 104.885C748.903 106.222 750.739 107.574 752.585 108.941C754.255 110.467 755.878 111.962 757.537 113.492C752.68 109.655 747.419 105.548 742.402 101.696C741.301 100.637 740.204 99.5852 739.112 98.54C738.491 98.2099 737.871 97.8816 737.252 97.5548C735.194 96.0088 732.924 94.3119 730.747 92.6999C731.443 93.0489 732.14 93.4 732.838 93.7533C729.484 91.183 726.168 88.6729 722.893 86.2257C723.668 87.03 724.445 87.8385 725.224 88.6511C709.713 77.2953 714.747 80.8789 706.271 74.4318C699.713 69.8424 710.856 77.9291 696.519 68.2281C680.943 58.0905 689.93 63.1033 672.387 52.4932C671.406 51.9189 670.352 51.3065 669.218 50.6553C668.845 50.5466 668.473 50.4388 668.101 50.3318C663.141 47.3588 658.564 44.6919 653.418 41.8244C654.029 42.2834 654.641 42.7456 655.255 43.2108C645.023 37.5203 630.644 30.9265 627.071 28.9004C637.917 34.0795 637.834 33.3165 635.24 31.8769C632.444 30.5117 609.836 18.9887 583.97 12.96C558.115 5.69034 529.479 12.0165 522.594 18.1738C503.165 31.0721 497.7 50.607 496.638 71.2256C497.143 64.2062 498.864 47.6046 507.139 34.4087C515.018 20.7995 529.557 14.4435 533.94 13.3378C534.924 13.0931 534.618 13.7043 540.384 11.5202C559.427 7.51208 583.455 11.8007 606.343 20.0701C605.553 20.0105 604.769 19.9569 603.991 19.9091C589.881 14.3994 576.085 12.9453 578.145 12.5074C575.095 11.9184 572.233 11.4587 569.301 11.0907C569.284 11.2303 569.267 11.3699 569.25 11.5095C564.68 10.9404 560.306 10.6424 555.845 10.6573C555.844 10.5166 555.843 10.3759 555.842 10.2352C552.153 10.2514 548.496 10.4841 544.769 11.0227C544.405 11.2173 544.046 11.4144 543.692 11.614C538.236 12.1181 526.473 15.9043 519.833 21.4258C513.142 26.7961 510.076 31.1587 515.298 24.813C511.595 28.3915 508.506 32.5588 506.021 37.0959C506.119 37.1309 506.218 37.1658 506.316 37.2009C505.274 39.1246 504.319 41.1623 503.493 43.1913C503.686 42.4827 503.886 41.7881 504.108 41.0752C500.027 50.39 497.928 60.0405 497.606 66.7827C498.103 62.3755 498.88 57.9909 500.003 53.705C497.503 61.8787 497.272 77.7157 497.46 79.0935C497.533 83.3795 497.441 85.6573 497.85 90.2956C498.268 94.4838 498.401 93.8847 498.483 94.6639C498.662 96.161 498.843 97.5183 499.018 98.7508C501.499 116.216 499.757 109.499 502.237 119.202C502.274 120.348 502.312 121.496 502.349 122.645C502.699 124.127 503.051 125.625 503.399 127.093C504.429 133.757 505.47 140.479 506.506 147.15C506.329 144.893 506.153 142.64 505.977 140.391C507.621 150.375 508.016 155.14 508.158 156.096C508.568 158.841 508.984 160.065 509.118 160.915C515.536 201.788 511.43 176.968 513.836 197.522C515.305 204.741 514.465 197.336 514.629 196.257C516.002 205.939 516.573 208.964 518.169 219.173C518.585 221.833 518.863 224.723 519.125 226.395C519.352 227.845 520.258 232.354 520.812 235.846C521.734 241.654 522.849 249.415 524.112 257.363C525.164 263.984 528.505 284.209 530.745 298.339C531.699 304.365 531.321 302.992 531.568 304.549C531.67 305.196 532.602 309.869 533.214 313.733C538.21 345.271 543.193 377.616 548.154 409.319C551.648 431.646 555.328 454.342 558.755 476.732C559.483 481.493 558.958 478.993 559.272 481.071C559.38 481.782 559.754 482.611 560.786 489.999C561.159 492.665 560.523 489.63 560.914 492.247C561.106 493.527 561.396 494.007 562.584 501.472C564.731 514.967 565.552 522.323 565.741 523.511C566.1 525.778 566.176 525.097 566.639 528.121C567.946 536.667 569.128 544.427 570.265 551.951C571.116 557.608 571.693 562.976 572.014 568.699C572.206 571.706 572.752 584.368 570.935 596.213C569.345 608.168 565.018 618.915 564.461 620.046C562.193 624.947 564.044 620.26 560.959 626.427C560.128 628.186 559.234 629.903 558.278 631.574C559.976 629.049 561.561 626.322 562.939 623.599C559.257 631.274 553.552 639.163 548.964 643.553C548.249 644.504 539.976 651.374 535.037 653.895C537.035 652.682 538.972 651.362 540.804 649.965C540.106 650.392 539.4 650.806 538.684 651.208C529.666 657.33 518.523 661.138 507.548 662.682C503.596 663.205 504.855 662.92 500.839 663.271C477.519 663.756 483.06 664.383 461.15 659.509C468.282 661.846 496.176 663.825 500.171 662.762C502.983 662.766 513.902 661.913 509.805 661.606C520.923 659.449 521.441 658.754 522.069 658.812C522.609 658.612 523.161 659.215 532.716 654.481C532.287 654.571 531.858 654.658 531.428 654.74C537.945 651.375 542.256 647.963 545.744 645.164C547.109 644.445 563.508 625.102 566.345 611.322C572.021 592.934 571.819 571.003 568.904 552.149C568.823 551.613 568.742 551.08 568.662 550.548C567.671 543.97 567.329 540.177 567.204 539.348C567.019 538.129 566.317 534.779 565.951 532.362C564.592 523.333 560.747 495.839 559.159 489.118C562.378 510.138 565.564 531.161 568.7 552.178C573.487 584.278 570.72 621.661 545.316 644.605C547.919 642.253 539.383 651.36 526.891 656.399C514.676 661.771 499.662 662.564 498.497 662.592C495.924 662.708 498.081 662.413 497.315 662.438C491.469 662.617 486.753 662.627 484.872 662.52C483.453 662.43 480.645 662.148 475.814 661.562C474.916 661.451 474.649 661.553 473.673 661.421C467.21 660.531 460.975 659.276 454.791 657.746C454.416 657.652 452.906 657.071 451.327 656.649C449.745 656.229 448.105 655.972 447.698 655.856C442.749 654.488 434.301 651.567 429.783 649.877C428.216 649.3 429.255 649.841 427.491 649.181C422.056 647.098 423.86 647.525 417.118 644.839C414.921 643.94 414.995 644.228 410.754 642.342C407.737 640.983 408.213 640.761 407.738 640.534C406.935 640.192 396.773 635.758 393.492 633.78C401.145 636.864 385.392 629.654 386.168 630.304C382.302 628.197 378.374 625.987 374.385 623.671C372.949 622.948 371.632 622.284 370.292 621.601C354.823 612.304 345.157 606.394 330.584 596.493C329.906 596.076 317.395 587.211 318.171 587.597C325.566 592.611 333.211 597.759 337.664 601.068C346.019 605.781 345.875 606.38 358.887 614.244C363.372 616.913 363.75 616.922 364.264 617.228C381.297 627.504 410.035 641.53 422.4 646.613C425.958 647.918 413.378 642.738 418.254 644.632C419.69 645.229 436.35 651.996 450.702 655.773C465.003 659.67 476.509 661.089 465.777 659.649C468.024 660.053 470.148 660.395 472.528 660.726C474.949 660.67 486.091 661.749 484.852 662.119C485.948 662.077 487.031 662.02 488.1 661.949C490.191 661.925 492.688 661.932 496.266 661.783C502.639 661.653 527.701 659.835 544.537 644.436C561.793 629.629 566.316 607.411 566.799 605.689C566.701 605.565 566.603 605.442 566.504 605.32C559.877 640.651 524.81 665.294 486.085 661.131C487.202 661.304 488.31 661.462 489.409 661.605C474.015 661.055 458.821 657.759 444.075 653.123C459.57 657.933 485.591 662.38 502.433 660.463C505.499 660.179 503.273 660.573 503.978 660.519C505.85 660.319 507.613 659.995 514.056 658.56C520.517 657.618 535.369 650.769 536.421 649.553C538.895 648.08 544.84 643.086 548.081 639.462C552.354 634.703 549.644 638.024 550.499 637.064C553.944 633.013 556.434 628.899 558.42 625.222C561.607 619.929 566.018 607.552 566.226 603.185C565.255 607.497 563.972 611.825 562.405 615.9C570.011 593.982 570.384 574.911 566.912 552.438C566.768 551.579 566.621 550.714 566.472 549.841C565.803 547.347 566.113 550.351 566.345 552.521C566.538 554.356 566.671 555.601 566.154 552.549C565.968 551.482 565.699 549.885 565.319 547.59C565.572 549.249 565.824 550.906 566.076 552.56C566.284 553.93 566.476 555.292 566.652 556.645C566.872 557.335 567.087 558.023 567.298 558.711C567.789 563.791 568.078 569.13 568.082 574.273C568.169 572.748 568.236 571.31 568.281 569.828C569.589 588.278 565.655 606.799 562.793 612.497C562.819 612.9 562.842 613.304 562.863 613.707C558.322 630.634 539.041 648.191 541.988 644.129C541.407 644.669 540.813 645.199 540.207 645.72C531.871 651.398 535.469 649.15 532.258 651.141C531.612 652.28 512.697 658.651 521.014 655.565C502.265 660.472 508.147 659.026 502.778 660.01C490.173 661.376 467.803 658.577 477.272 659.198C475.431 658.962 473.561 658.688 471.663 658.374C465.658 657.949 459.483 656.099 453.287 654.298C451.107 653.72 448.894 653.097 446.65 652.428C445.167 652.163 443.724 651.895 442.237 651.6C422.097 644.024 428.097 648.108 419.403 642.811C420.881 643.304 422.378 643.794 423.847 644.259C427.273 645.557 430.581 646.741 433.933 647.87C420.481 643.08 406.88 637.011 394.055 630.494C377.925 621.681 368.386 616.871 351.193 605.697C349.548 604.718 347.893 603.722 346.229 602.71C348.107 603.423 354.446 607.587 342.685 599.791C341.834 598.905 349.882 604.076 353.327 606.46C354.165 607.049 346.686 602.626 354.952 607.801C360.627 611.26 350.246 604.671 367.629 615.197C367.024 614.762 366.419 614.325 365.812 613.885C367.69 614.998 369.556 616.087 371.408 617.154C372.991 618.251 374.473 619.278 376.178 620.419C380.772 622.693 383.245 623.779 393.296 629.01C390.434 627.657 394.139 629.955 399.169 632.403C399.22 632.298 399.271 632.192 399.323 632.087C411.285 637.702 407.382 636.268 417.627 640.418C418.621 640.937 419.542 641.421 420.595 641.952C426.561 644.27 447.843 651.042 443.799 650.249C449.944 651.677 462.738 655.062 467.497 656.255C467.882 656.206 468.266 656.156 468.648 656.105C471.068 656.503 473.87 656.902 476.411 657.188C477.84 657.434 479.251 657.657 480.647 657.857C482.415 657.951 484.392 658.025 486.209 658.045C487.313 658.217 488.407 658.375 489.492 658.517C492.284 658.446 495.46 658.266 498.294 657.964C500.06 657.957 501.801 657.91 503.646 657.8C503.919 657.891 521.135 654.465 525.439 652.171C526.751 651.54 528.054 650.86 529.302 650.152C529.982 649.94 530.656 649.718 531.325 649.485C532.208 648.897 533.098 648.274 533.966 647.631C536.131 646.407 538.16 645.096 540.169 643.61C547.445 636.678 547.542 636.329 549.12 634.645C552.202 631.592 558.851 618.569 559.455 616.117C560.369 613.83 560.93 612.819 561.566 610.921C566.337 595.159 565.665 589.911 565.908 588.456C565.924 586.887 565.649 588.621 565.829 585.29C565.995 581.622 566.228 579.193 566.189 575.967C566.208 572.621 565.594 561.671 564.116 552.845C563.172 546.837 562.39 541.867 562.302 541.213C561.985 538.86 563.702 544.246 562.329 536.666C561.819 536.501 559.835 520.094 560.322 527.83C559.369 521.115 558.407 514.376 557.446 507.673C556.999 508.53 556.098 500.161 554.691 491.182C552.698 478.418 547.878 449.706 548.62 450.685C548.014 447.649 547.406 444.609 546.797 441.565C543.729 420.613 540.327 400.124 537.056 379.36C527.348 317.732 516.822 250.873 507.253 189.504C506.793 186.555 507.049 186.95 506.719 184.829C504.976 173.66 500.283 144.697 497.884 129.055C497.117 124.061 496.917 121.568 496.679 119.985C495.869 114.595 495.825 115.905 495.446 113.43C495.159 111.554 494.32 105.806 493.417 99.5987C492.36 92.6114 491.914 84.8742 491.858 81.0045C491.772 77.3178 491.636 72.9343 492.023 68.6266C492.056 68.2571 492.206 68.9555 492.233 68.643C492.983 60.7627 492.378 65.4848 492.682 62.8309C494.903 44.2368 504.034 22.3889 523.76 12.3868C528.493 9.76735 536.215 7.47903 540.686 6.7286C542.364 6.44884 539.262 6.73549 545.161 5.87189C547.267 5.61638 547.828 5.75823 550.108 5.60404C559.869 5.18694 563.074 4.90728 571.364 6.41909C587.216 8.10114 613.454 17.0098 626.437 22.9683C629.519 24.3191 630.995 25.1152 634.018 26.5135C636.058 27.458 639.669 28.9743 642.919 30.5857C646.278 32.2491 650.971 34.8185 657.107 38.1251C663.613 41.6144 671.178 45.8682 672.707 46.7685C673.628 47.3057 674.26 47.7483 674.912 48.1986C675.447 48.5728 675.997 48.9531 676.767 49.411C681.758 52.2973 695.357 60.7455 701.697 65.1095C708.68 69.8428 712.324 72.5934 714.69 74.2725C716.814 75.784 719.427 77.4471 720.415 78.1635C721.975 79.2953 722.127 79.6723 723.99 81.0366C727.016 83.2566 730.234 85.4711 734.882 88.9762C816.945 151.78 890.907 220.33 965.968 286.5C974.305 293.891 979.15 297.976 991.425 308.868C996.411 313.288 994.156 311.602 998.081 314.993C999.833 316.505 999.508 315.987 1001.71 317.91C1011.45 326.402 1022.68 336.405 1026.92 340.075C1028.59 341.531 1030.64 343.047 1034.08 346.025C1059.74 368.222 1090.26 394.27 1118.53 417.312C1133.48 429.535 1156.36 447.684 1174 461.137C1220.57 496.773 1272.15 532.866 1320.32 557.104C1322.5 558.204 1324.66 559.257 1326.8 560.264C1402.29 599.82 1492.72 581.315 1561.81 535.406C1528.56 555.686 1479.92 579.049 1436.7 581.613C1397.33 584.97 1357.25 575.261 1320.55 556.634C1241.86 516.111 1170.23 459.116 1101.99 403.024C1067.19 374.216 1024.13 336.936 987.088 304.132C985.405 302.644 981.833 299.7 978.193 296.467C977.419 295.781 968.016 287.106 964.802 284.258C967.526 287.329 955.204 275.84 951.274 272.373C946.329 268.015 935.936 259.133 924.479 248.795C914.132 239.459 917.146 241.876 916.576 241.354C912.929 238.022 911.41 237.087 908.55 234.599C897 224.453 837.22 171.713 820.204 157.422C815.854 153.712 815.866 153.472 814.89 152.64C812.369 150.499 808.364 147.36 804.175 143.837C796.64 137.491 787.943 130.044 783.71 126.57C773.907 118.469 754.116 102.819 740.762 92.6661C737.071 89.8482 737.288 89.7658 735.565 88.4609C727.869 82.5597 707.982 68.4103 697.796 61.7314C690.697 56.9825 682.718 51.8704 675.325 47.496C665.962 41.9503 656.632 36.765 647.314 32.0629C646.208 31.3982 645.109 30.7434 644.017 30.0983C642.187 29.2939 640.379 28.5153 638.59 27.762C608.788 13.8661 575.567 0.383513 540.833 5.90125C538.921 6.24317 532.962 7.47141 527.475 9.82986C521.896 12.1135 517.015 15.5607 515.703 16.6073C513.455 18.3575 511.501 20.3185 508.678 23.3797C504.951 27.8287 507.761 23.118 502.488 31.0326C501.212 33.2333 502.528 31.1797 500.164 35.6662C499.748 36.3839 495.955 44.1201 494.093 52.3288C492.07 60.4972 491.591 68.8378 491.529 69.6664C491.321 72.4663 490.883 74.9952 490.864 75.7141C490.786 79.4923 491.111 79.3436 491.201 81.8665C491.433 88.7046 492.404 97.3769 492.775 99.696C492.804 99.9026 492.827 100.058 492.843 100.155C495.068 114.15 499.393 140.271 501.564 154.99C501.862 157.019 501.603 156.811 501.651 157.168C501.966 159.472 502.444 160.863 502.794 163.053C504.675 174.827 507.419 193.325 509.247 205.163C509.458 206.526 510.037 209.401 510.409 211.831C512.517 225.599 511.618 221.175 511.733 221.956C512.007 223.822 512.737 227.042 513.532 231.976C515.582 244.692 519.417 269.083 521.561 282.724C523.166 292.934 522.896 292.823 522.997 293.493C523.216 294.929 524.042 298.875 525.129 305.596C527.222 318.532 526.795 317.084 527.645 322.402C527.715 322.849 527.782 322.043 528.734 327.941C530.576 339.336 534.431 364.972 536.358 377.177C537.1 381.87 537.454 382.936 538.213 387.746C539.417 395.364 541.911 412.593 542.122 413.948C542.182 414.328 542.525 415.15 542.874 417.387C543.259 419.847 543.528 422.281 543.814 424.112C545.447 434.556 548.602 452.485 547.078 447.6C547.782 450.922 548.482 454.221 549.186 457.549C552.532 479.428 555.864 500.668 559.18 522.332C559.922 527.18 560.401 531.314 561.024 535.412C561.422 538.018 562.787 546.445 563.82 552.888C564.404 556.514 564.759 559.479 564.872 560.539C566.265 565.888 565.475 596.061 563.821 599.509C562.475 606.718 559.909 613.158 558.88 615.845C558.034 618.026 559.077 616.139 557.307 620.198C554.431 627.438 546.057 637.364 544.229 638.776C543.447 639.383 545.226 638.571 537.974 644.336C533.984 647.265 531.446 648.383 529.889 649.221C529.351 649.359 530.414 649.739 521.127 653.229C514.53 655.428 511.564 655.589 510.821 655.783C509.681 655.995 507.3 656.703 502.791 657.17C492.522 658.588 473.173 656.559 463.49 654.266C461.624 653.849 461.966 654.284 454.631 652.443C449.255 651.022 450.219 651.041 448.174 650.459C444.982 649.516 440.364 648.394 433.282 645.859C423.972 644.389 362.844 612.485 360.232 609.522C358.089 608.171 355.89 606.807 354.92 606.079C355.827 606.524 356.731 606.965 357.632 607.4C366.556 613.255 363.122 610.666 365.554 612.099C369.031 614.189 382.343 621.764 385.669 623.365C386.828 623.939 384.329 622.397 390.506 625.508C397.388 628.935 400.285 630.728 403.174 631.536C412.607 636.685 422.42 640.101 411.08 634.98C404.285 633.282 344.943 599.313 333.918 590.509C324.31 584.045 306.937 571.752 296.061 563.347C293.803 561.618 290.382 558.981 286.87 556.215C280.157 550.929 273.592 545.734 274.15 545.937C268.44 541.458 274.371 546.415 273.127 545.498C270.435 543.493 252.51 529.402 249.022 526.763C231.989 513.798 210.396 497.827 194.244 484.819C195.052 485.351 195.848 485.872 196.63 486.382C200.472 489.198 217.413 502.475 219.561 503.649C194.561 484.53 169.579 465.001 144.559 445.425C145.041 446.199 113.797 421.696 112.619 420.588C113.241 420.889 113.861 421.187 114.478 421.483C131.746 435.749 130.588 433.895 141.964 443.308C146.668 446.998 145.507 445.779 147.899 447.592C171.53 465.485 148.087 448.384 165.944 462.054C160.735 457.539 175.554 468.943 182.22 474.065C183.764 475.265 203.446 490.634 205.758 492.392C218.952 502.574 241.841 519.601 254.866 529.882C265.249 537.899 271.033 542.072 280.482 549.35C286.426 553.932 285.859 553.653 287.708 555.142C288.007 555.383 288.373 555.673 288.849 556.044C295.963 561.57 298.571 562.849 302.576 566.803C307.207 570.158 312.379 573.841 317.223 577.2C317.154 577.295 317.086 577.39 317.018 577.486C320.07 579.676 323.015 581.76 326.09 583.904C327.085 584.456 328.077 585.002 329.066 585.543C338.88 592.461 334.568 589.827 336.229 591.36C338.333 592.802 340.422 594.218 342.496 595.607C344.304 596.491 346.176 597.405 347.997 598.276C357.58 604.475 367.519 610.534 377.215 616.018C377.82 616.492 378.423 616.964 379.025 617.433C379.103 617.343 379.182 617.254 379.259 617.164C395.988 626.457 413.592 634.996 431.44 641.598C436.219 643.448 407.892 631.78 405.834 630.401C393.917 625.142 363.997 608.212 364.131 607.578C356.957 603.774 336.535 590.422 330.471 585.661C339.99 592.241 349.771 598.668 359.393 604.61C359.156 604.301 358.919 603.992 358.682 603.682C370.846 611.745 372.247 612.561 385.708 619.341C385.632 619.512 385.555 619.683 385.479 619.854C394.549 624.147 410.478 632.894 411.42 632.354C416.485 634.711 421.079 636.737 426.325 638.877C437.364 642.354 420.192 638.063 463.579 649.848C466.617 650.484 465.977 650.595 470.434 651.358C471.713 651.456 479.416 653.001 493.584 653.008C495.828 652.973 496.003 653.145 498.264 653.048C503.571 652.972 513.588 650.586 509.078 652.037C519.215 650.09 521.713 648.416 522.796 647.968C523.832 647.398 523.331 647.488 526.084 646.096C529.663 644.153 529.066 644.848 532.055 642.937C535.322 640.135 533.819 643.137 545.484 630.421C544.301 631.955 543.029 633.441 541.694 634.842C542.442 634.209 543.175 633.554 543.893 632.876C549.989 625.039 549.368 625.661 551.323 621.33C554.893 614.961 557.317 608.807 559.281 598.518C561.749 578.228 560.867 588.778 560.748 564.863C560.331 561.075 559.798 557.406 559.122 553.571C559.102 553.454 559.081 553.337 559.061 553.22C558.286 546.523 559.372 551.891 557.931 541.895C558.558 549.783 555.599 528.721 554.568 525.221C554.628 524.832 554.688 524.443 554.747 524.054C554.411 521.832 554.074 519.607 553.736 517.377C553.642 517.384 553.548 517.391 553.454 517.398C553.073 514.417 552.691 511.433 552.311 508.467C551.88 506.253 551.448 504.036 551.015 501.816C550.647 498.101 550.285 494.431 549.917 490.73C549.578 488.426 549.237 486.113 548.897 483.808C548.869 484.553 548.844 485.309 548.817 486.059C548.408 483.084 548.003 480.137 547.593 477.168C547.895 480.643 547.299 478.525 545.884 469.301C544.718 461.709 546.516 470.2 543.79 453.88C543.6 452.747 542.952 450.772 540.499 435.343C537.551 416.821 539.198 425.792 538.692 422.488C538.593 421.843 537.539 416.202 536.686 410.912C536.203 407.911 535.886 404.994 535.824 404.596C535.527 402.742 535.248 402.23 534.838 399.659C533.8 393.144 532.518 384.359 531.504 377.975C531.043 375.07 530.498 372.354 530.292 371.057C529.974 369.044 529.749 366.469 529.428 364.435C528.241 356.925 525.859 345.619 526.118 342.006C524.234 334.902 522.742 319.64 522.417 320.824C519.556 301.506 510.784 250.142 511.863 251.524C509.413 240.699 510.091 241.617 509.353 237.029C508.53 231.907 508.811 234.582 508.173 230.514C506.684 221.017 505.308 211.934 503.815 202.469C504.164 203.935 504.514 205.402 504.864 206.87C503.331 196.934 503.607 200.412 501.954 190.278C498.924 171.681 500.373 179.48 500.242 176.688C500.066 177.473 496.655 155.503 496.344 153.265C496.159 151.931 497.449 157.706 495.219 144.279C495.219 145.031 495.218 145.783 495.218 146.536C494.417 140.404 491.612 123.774 491.21 120.933C491.025 119.631 490.876 112.566 489.15 106.311C489.147 105.528 489.143 104.744 489.14 103.962C488.928 102.754 488.716 101.547 488.505 100.342C487.431 94.1764 486.708 87.9133 486.408 81.5907C486.584 80.3687 486.775 79.1361 486.983 77.9188C486.978 75.5008 487.039 73.0653 487.173 70.6307C486.898 72.23 486.653 73.8603 486.44 75.4639C486.259 60.3921 491.55 41.7456 493.786 39.066C494.978 35.8977 496.4 32.7678 498.096 29.7171C499.443 27.8839 500.88 26.1255 502.419 24.4425C512.857 12.0968 513.914 12.346 523.435 6.76279C523.11 7.09991 522.791 7.43923 522.479 7.78059C529.53 3.57096 544.11 -0.145147 555.139 0.0169081C560.417 -0.1473 569.205 0.9412 570.491 1.13441C571.644 1.12266 583.761 2.37785 584.714 3.49605C601.775 7.1746 608.73 10.5416 615.217 12.892C619.324 14.4704 621.525 15.1579 626.118 17.0873C632.692 19.8565 639.407 23.1352 643.069 24.9172C645.221 25.9632 645.709 26.0087 647.212 26.7546C654.256 30.3064 649.973 28.2947 657.226 32.1001C657.859 32.4329 663.444 35.1664 669.105 38.413C671.014 39.5016 674.722 41.7355 677.647 43.5453C679.546 44.7212 681.08 45.6971 681.376 45.8756C684.611 47.8698 682.228 45.6853 693.137 53.3209C692.877 53.0413 692.64 52.7777 692.348 52.4788C705.62 60.8196 707.903 63.1101 710.333 64.7914C710.661 65.0199 713.893 67.0826 715.784 68.4542C718.973 70.7652 720.163 71.9015 720.875 72.4254C723.56 74.3899 731.603 80.1632 736.99 84.508C736.41 83.226 755.014 97.203 758.857 101.217C762.168 103.652 765.47 106.1 768.82 108.606C770.221 109.879 771.627 111.161 773.038 112.45C774.014 113.088 774.993 113.73 775.973 114.374C780.562 118.424 784.966 122.361 789.535 126.466C789.999 126.515 790.463 126.565 790.928 126.615C792.23 127.729 793.536 128.849 794.846 129.975C795.761 130.999 796.647 132.002 797.515 132.991C799.148 134.3 800.786 135.617 802.43 136.943C802.926 137.165 803.421 137.387 803.918 137.611C812.702 144.78 807.589 142.262 824.75 155.238C827.242 157.519 829.746 159.816 832.262 162.128C835.622 164.264 840.672 169.065 845.097 172.811C848.203 175.44 848.18 175.12 852.397 178.774C856.632 182.447 856.314 182.459 856.64 182.744C860.004 185.69 862.685 187.777 865.152 189.983C865.525 190.317 866.294 191.327 869.471 194.129C872.632 196.918 874.824 198.476 879.444 202.602C881.833 204.735 882.387 205.509 884.515 207.407C894.709 216.497 905.658 224.718 912.469 232.474C914.34 233.909 927.157 244.492 932.494 249.267C940.789 256.689 937.424 254.046 940.696 257.008C941.165 257.433 943.733 259.595 950.691 265.78C951.937 266.887 951.743 266.524 951.923 266.681C960.082 273.914 975.746 287.923 984.703 295.843C985.5 296.548 989.936 299.929 996.676 306.571C1007.46 315.532 1026.72 333.514 1041.09 345.128C1043.03 346.791 1045.29 348.926 1046.15 349.661C1053.55 355.971 1051.14 353.373 1067.47 368.151C1066.27 366.833 1070.28 369.996 1075.85 374.742C1084.21 381.848 1077.99 377.136 1084.74 382.786C1084.82 382.697 1084.89 382.608 1084.97 382.519C1100.19 395.716 1103.71 398.008 1119.34 410.846C1125.02 415.507 1133.21 422.474 1134.56 423.555C1135.07 423.971 1141.46 428.745 1142.07 429.23C1145.45 431.92 1147.26 433.534 1150.16 435.836C1159.67 443.4 1171.53 452.114 1169.02 451.005C1171.77 452.958 1174.51 454.895 1177.25 456.816C1186.84 465.06 1195.16 470.03 1196.84 472.134C1198.73 473.366 1200.63 474.59 1202.51 475.805C1241.06 504.182 1280.76 531.138 1322.66 552.444C1328.59 555.441 1334.43 558.135 1340.17 560.544C1342.31 561.494 1363.69 569.116 1365.01 569.249C1370.14 570.841 1364.56 569.929 1375.12 572.485C1376.38 572.568 1377.63 572.639 1378.87 572.696C1392.4 575.386 1385.83 574.225 1391.11 575.298C1393.4 575.62 1392.69 575.358 1395.76 575.764C1412.21 578.638 1446.46 577.194 1464.15 572.411C1467.72 571.587 1467.23 571.842 1468.34 571.575C1471.42 570.821 1477.31 569.056 1483.37 567.099C1521.1 555.932 1569.04 525.066 1603.48 502.607C1605.85 501.092 1606.24 501.061 1607.84 500.052C1610.02 498.668 1614.93 495.39 1617.3 493.94C1619.54 492.573 1621 491.841 1623.41 490.403C1634.41 483.822 1649.65 475.054 1663.34 470.441C1664.42 469.828 1679.21 466.189 1679.69 466.4C1680.72 466.32 1677.92 467.129 1677.62 467.42C1677.38 467.82 1679.33 466.933 1690.6 465.872C1680.52 467.142 1677.54 468.641 1679.76 468.274C1682.02 468.162 1689.83 466.061 1702.92 467.112C1689.79 466.13 1677.03 469.11 1665.34 473.5C1665.35 473.578 1665.36 473.657 1665.37 473.735C1676.2 470.414 1687.43 466.602 1705.32 468.376C1704.76 468.381 1704.2 468.393 1703.64 468.412C1687.78 467.009 1669.75 472.866 1659.59 477.816C1675.06 471.655 1692.35 467.589 1709.23 471.201C1708.39 471.097 1707.54 471.012 1706.69 470.944C1698.56 469.275 1680.94 471.718 1674.69 474.113C1662.7 478.254 1668.05 476.487 1675.39 474.359C1682.87 472.149 1692.76 471.294 1688.9 471.874C1662.17 475.541 1639.16 490.103 1616.79 503.9C1616.62 504.395 1637.49 490.186 1660.77 480.466C1684 469.464 1710.14 473.181 1709.17 474.022C1701.11 472.464 1692.79 472.704 1684.69 474.212C1688.29 473.747 1692.03 473.513 1695.6 473.595C1694.61 473.679 1693.63 473.786 1692.64 473.914C1678.96 475.067 1665.84 480.119 1653.46 486.229C1691.62 466.977 1713.41 475.663 1721 480.572C1719.96 480.142 1718.92 479.746 1717.89 479.385C1714.14 477.334 1701.69 473.413 1687.32 475.8C1672.99 477.844 1657.98 484.833 1647.91 490.204C1652.14 487.979 1670.2 479.898 1674.47 479.169C1675.61 478.862 1671.74 480.254 1674.38 479.529C1677.69 478.578 1686.97 476.279 1694.7 476.196C1702.5 475.962 1708.57 477.548 1706.46 477.277C1705.18 477.047 1692.62 475.525 1679.42 479.28C1666.18 482.686 1653.1 489.548 1648.74 491.79C1668.81 481.658 1691.78 473.459 1712.27 479.844C1699.34 477.198 1687.04 477.445 1663.54 487.138C1660.01 488.935 1670.71 483.839 1682.69 481.346C1694.74 478.462 1707.31 480.68 1707.79 481.009C1699.44 479.518 1690.63 480.235 1682.04 482.432C1689.29 480.684 1696.76 479.966 1703.86 480.779C1703.88 480.839 1703.89 480.9 1703.9 480.961C1685.4 479.194 1667.6 486.591 1646.92 497.658C1647.73 497.499 1660.16 490.979 1666.48 488.585ZM247.437 523.294C247.171 522.766 254.309 528.28 258.33 531.388C257.759 530.889 257.218 530.413 256.645 529.914C265.108 536.471 281.049 548.996 281.958 549.078C287.996 553.704 285.111 552.005 287.076 553.6C287.22 553.717 287.619 554.021 288.224 554.481C290.84 556.475 297.247 561.269 302.245 565.329C303.746 566.455 305.24 567.569 306.728 568.671C307.117 568.756 307.485 568.825 307.893 568.924C309.962 570.702 312.019 572.454 314.063 574.182C304.983 567.604 296.952 561.557 288.084 554.66C274.408 544.018 261.057 533.676 247.471 523.32C247.46 523.311 247.448 523.302 247.437 523.294ZM484.251 653.216C493.662 654.271 508.039 652.598 505.053 652.462C499.198 653.273 493.212 653.475 487.386 653.25C486.355 653.253 485.31 653.242 484.251 653.216ZM788.346 126.026C794.779 131.908 800.862 136.464 810.991 145.114C811.038 145.032 811.085 144.949 811.131 144.867C806.757 141.458 796.198 132.404 788.346 126.026ZM47.3107 369.543C45.7691 368.285 44.3927 367.157 42.9878 366.006C49.0956 370.181 50.3119 371.587 57.0438 376.827C57.4516 377.144 57.3814 376.943 57.5233 377.054C59.1732 378.343 60.5932 379.636 62.052 380.782C64.8004 382.94 67.3359 384.759 72.5419 388.862C76.528 392.004 76.4032 392.184 77.7861 393.265C78.8114 394.066 91.2194 403.057 98.3977 409.029C112.455 420.718 51.9147 373.244 47.3107 369.543ZM5.11394 335.759C6.5678 336.903 8.01163 338.039 9.44528 339.167C4.91007 336.021 13.7191 342.902 19.8482 347.724C19.5105 347.87 6.36816 337.333 -5.48833e-06 332.432C1.71672 333.551 3.42119 334.66 5.11394 335.759ZM184.296 477.321C178.711 473.021 179.94 473.464 180.228 473.536C181.971 474.892 183.661 476.207 185.535 477.662C185.124 477.55 184.711 477.437 184.296 477.321ZM142.279 444.704C144.323 445.958 156.339 455.208 162.167 459.729C162.402 459.912 160.812 458.862 164.72 461.895C166.124 462.988 178.177 471.688 175.256 470.199C164.296 461.75 153.498 453.4 142.294 444.716C142.289 444.712 142.284 444.708 142.279 444.704ZM130.152 434.996C132.575 436.787 134.971 438.555 137.291 440.263C138.384 441.284 139.462 442.292 140.524 443.287C137.991 441.344 135.382 439.341 132.694 437.276C131.855 436.523 130.991 435.75 130.152 434.996ZM1367.85 573.511C1367.26 573.207 1366.67 572.9 1366.08 572.59C1363.66 571.917 1351.66 568.597 1355.35 569.931C1359.43 571.227 1363.74 572.463 1367.85 573.511ZM1419.06 581.059C1421.56 581.152 1424.17 581.195 1426.74 581.186C1429.68 580.862 1432.59 580.471 1435.47 580.018C1422.78 580.931 1409.26 579.884 1411.4 580.693C1408.47 580.55 1405.51 580.336 1402.66 580.066C1405.1 579.977 1404.81 579.97 1397.26 578.917C1395.52 579.106 1387.74 577.935 1378.86 576.075C1385.35 577.506 1391.71 578.6 1398.33 579.399C1398.32 579.469 1398.31 579.538 1398.31 579.608C1383.67 577.573 1401.75 580.825 1411.36 580.833C1412.11 580.963 1412.86 581.089 1413.61 581.21C1415.44 581.186 1417.25 581.135 1419.06 581.059ZM515.099 15.5372C516.8 14.3275 518.563 13.2199 520.418 12.1977C527.141 7.53769 512.302 15.5327 504.807 24.9217C506.26 23.5825 504.042 26.3481 501.905 29.8186C499.716 33.2839 497.762 37.4731 497.578 37.948C498.591 36.1837 499.665 34.4925 500.831 32.8342C504.334 26.3245 509.153 20.2954 515.099 15.5372ZM570.037 4.68115C563.495 2.88787 596.164 8.5784 606.219 13.1529C608.771 14.0519 613.174 15.9563 614.9 16.6004C616.004 16.9284 617.118 17.2675 618.241 17.6177C619.704 18.3884 638.978 26.4391 646.621 30.3044C647.285 30.7697 647.99 31.2593 648.592 31.6985C651.24 33.0013 653.928 34.3575 656.657 35.7683C656.262 35.6882 655.868 35.6092 655.474 35.5311C657.574 36.4921 659.726 37.5004 661.848 38.5102C669.634 42.669 664.546 40.5408 670.528 43.7222C677.247 47.3504 666.608 40.7725 666.962 40.7201C661.837 37.8442 649.379 31.3492 643.646 28.5826C640.354 27.0206 644.445 28.2943 630.075 22.2592C626.956 20.7369 624.177 19.4112 620.892 17.9324C614.955 15.6973 609.096 13.6973 603.09 11.904C602.038 11.3843 601.059 10.8962 599.955 10.3782C599.211 9.98289 585.176 6.55998 585.792 6.95511C580.315 5.35484 567.99 2.63765 554.842 2.82202C553.659 2.92603 552.252 3.06071 550.993 3.22047C563.76 2.74068 555.049 3.21253 558.846 3.37793C561.173 3.48851 567.525 4.17309 570.037 4.68115ZM1293.07 540.524C1310.38 549.81 1299.77 544.455 1318.63 554.361C1317.41 553.503 1316.19 552.637 1314.97 551.761C1305.33 547.25 1290.42 538.347 1293.05 540.513C1293.06 540.517 1293.06 540.52 1293.07 540.524ZM1491.07 567.82C1480.51 571.495 1485.95 570.255 1472.35 574.175C1472.34 574.177 1472.33 574.178 1472.33 574.18C1479.41 572.346 1486.47 570.144 1493.38 567.664C1492.61 567.72 1491.84 567.772 1491.07 567.82ZM934.189 255.235C925.965 247.825 927.484 249.389 920.221 242.519C908.803 232.938 918.304 241.276 918.05 241.532C920.66 243.702 923.276 245.878 925.896 248.059C931.861 253.795 925.879 248.72 925.858 248.745C925.863 248.75 925.869 248.754 925.874 248.759C925.802 248.84 925.586 248.678 927.917 250.831C930.005 252.297 932.095 253.765 934.189 255.235ZM898.502 224.24C901.489 226.559 902.954 227.442 895.639 220.779C895.634 220.774 895.628 220.77 895.623 220.765C894.672 220.637 887.742 213.949 884.457 211.108C883.562 210.397 882.667 209.688 881.774 208.979C887.314 214.024 893.002 219.211 898.502 224.24ZM771.514 116.17C771.853 115.686 778.495 120.98 769.544 113.051C767.74 111.612 765.944 110.186 764.157 108.773C762.907 107.941 761.661 107.115 760.419 106.294C738.07 87.4787 730.301 83.4448 769.236 113.434C769.242 113.438 769.247 113.442 769.253 113.446C770.005 114.351 770.759 115.259 771.514 116.17ZM810.924 148.755C811.409 148.76 811.895 148.764 812.38 148.77C816.789 153.482 823.426 158.181 832.747 166.889C833.675 167.563 834.575 168.213 835.492 168.878C838.864 171.982 873.616 202.363 866.391 195.44C863.233 192.397 855.934 186.408 855.333 185.878C853.314 184.089 850.679 181.443 847.132 178.388C845.074 176.616 840.558 173.12 836.421 169.554C827.064 161.475 810.452 146.193 797.519 136.459C796.692 135.647 795.867 134.838 795.043 134.031C785.645 126.308 788.547 129.088 780.15 121.746C773.256 117.866 814.849 150.443 805.62 144.345C805.625 144.35 805.63 144.354 805.636 144.359C807.392 145.815 809.155 147.281 810.924 148.755ZM1060.2 366.182C1060.58 366.861 1071.41 375.553 1068.52 373.919C1072.12 376.69 1075.75 379.477 1079.36 382.238C1079.37 382.171 1079.38 382.103 1079.4 382.036C1075.92 379.16 1072.42 376.258 1068.96 373.373C1069.01 373.291 1069.05 373.209 1069.1 373.126C1063.77 369.075 1042.53 350.631 1043.42 350.942C1042.2 350.069 1040.97 349.195 1039.74 348.32C1029.83 339.25 1020.84 331.964 1010.07 322.051C1009.14 321.392 1008.21 320.733 1007.29 320.073C1006.79 319.516 1006.3 318.96 1005.8 318.403C1001.8 314.883 997.798 311.35 993.802 307.821C980.504 296.626 1005.55 319.299 1008.67 321.936C1009.08 322.288 1009.18 322.051 1011.76 324.26C1016.33 328.195 1041.68 350.548 1049.71 357.203C1049.68 357.383 1049.64 357.564 1049.6 357.744C1053.14 360.566 1056.67 363.379 1060.2 366.182ZM720.517 76.067C719.976 75.4733 719.436 74.8817 718.897 74.2924C707.983 66.6345 701.153 61.9344 703.674 64.2834C703.679 64.2874 703.685 64.2915 703.691 64.2955C709.471 68.219 714.785 71.9449 720.517 76.067ZM437.072 645.546C437.358 645.975 443.004 648.117 450.785 650.035C450.437 649.841 450.088 649.645 449.738 649.448C445.642 648.533 440.809 646.76 428.9 642.366C428.843 642.518 428.785 642.671 428.727 642.824C431.532 643.788 434.11 644.625 437.072 645.546ZM729.63 82.8463C732.716 85.361 742.299 91.9043 736.253 87.2857C731.641 83.7738 727.966 81.4846 729.63 82.8463ZM1531.68 550.25C1529.08 551.569 1526.46 552.861 1523.82 554.123C1522.52 554.921 1521.21 555.713 1519.9 556.494C1519.9 556.491 1519.91 556.488 1519.92 556.485C1523.88 554.476 1527.8 552.392 1531.68 550.25ZM962.463 280.243C954.897 273.576 947.29 266.864 939.76 260.218C939.625 260.219 939.489 260.22 939.354 260.221C947.113 266.656 949.931 269.627 951.681 271.207C951.673 271.2 951.666 271.193 951.658 271.186C957.293 276.272 962.654 281.088 967.939 285.904C966.112 284.016 964.286 282.129 962.463 280.243ZM988.009 303.558C987.153 301.95 985.559 300.456 973.614 290.511C974.023 290.977 974.431 291.442 974.839 291.908C980.904 297.2 984.513 300.181 983.235 299.5C984.825 300.853 986.417 302.206 988.009 303.558ZM869.663 198.722C870.986 200.147 882.151 209.681 881.625 209.085C881.43 208.853 867.209 196.035 869.663 198.722ZM339.143 594.82C341.811 596.647 344.741 598.618 347.576 600.494C343.675 598.071 339.912 595.681 336.208 593.282C337.19 593.8 338.168 594.313 339.143 594.82ZM308.222 574.303C306.354 572.815 312.853 576.943 301.504 568.319C309.794 574.516 318.455 580.765 326.999 586.667C322.735 583.825 318.959 581.268 314.863 578.435C315.463 579.07 316.061 579.704 316.659 580.334C313.871 578.367 311.058 576.357 308.222 574.303ZM299.477 567.276C302.193 569.669 293.336 563.186 285.927 557.424C281.74 554.178 278.578 551.706 277.748 551.036C277.232 550.618 275.051 548.502 274.258 547.795C277.92 550.641 281.295 553.27 284.998 556.157C283.823 555.109 282.68 554.085 281.566 553.084C283.127 554.284 284.74 555.525 286.407 556.808C289.076 558.863 291.726 560.881 294.356 562.863C292.497 561.574 290.628 560.268 288.75 558.944C292.362 561.79 295.938 564.567 299.477 567.276ZM400.044 630.603C396.74 628.981 393.219 627.191 389.975 625.488C390.554 625.974 391.084 626.433 391.718 626.942C393.769 627.997 395.801 629.023 397.815 630.018C398.561 630.217 399.304 630.412 400.044 630.603ZM334.157 592.197C339.071 594.586 350.429 604.084 336.425 594.078C335.019 593.06 333.686 591.971 334.157 592.197ZM268.888 544.033C259.256 537.297 262.236 537.999 270.704 545.034C271.15 545.405 269.615 544.543 268.888 544.033ZM199.017 490.493C198.199 489.854 197.315 488.659 189.699 483.248C188.604 482.34 187.481 481.409 186.329 480.455C189.164 482.439 212.966 500.666 209.467 498.468C205.864 495.707 202.697 493.352 199.017 490.493ZM221.093 509.356C224.738 512.123 228.251 514.779 231.877 517.522C230.78 516.526 229.645 515.502 228.565 514.519C230.334 515.821 232.14 517.15 233.916 518.456C236.789 520.919 239.717 523.426 242.549 525.866C234.788 519.985 226.876 514.04 219.139 508.175C219.799 508.576 220.45 508.969 221.093 509.356ZM316.346 582.346C309.394 577.181 300.771 571.1 289.601 562.462C289.595 562.457 289.59 562.453 289.585 562.448C289.023 562.012 288.133 561.104 286.314 559.681C286.154 559.557 285.686 559.194 284.975 558.643C278.885 553.897 254.782 535.385 257.026 536.801C268.999 545.702 272.828 549.217 276.143 550.95C276.634 551.509 277.173 552.106 277.638 552.646C280.439 554.909 282.895 556.84 285.074 558.516C290.875 562.967 294.016 564.99 298.691 568.354C298.603 568.42 298.515 568.486 298.427 568.552C302.56 571.678 306.831 574.854 311.175 578.02C310.607 577.522 310.039 577.022 309.469 576.52C311.001 577.639 312.527 578.744 314.045 579.837C317.562 582.754 322.155 586.086 316.346 582.346ZM205.03 496.826C201.189 494.917 169.579 469.695 154.756 458.293C162.698 463.89 174.511 473.526 182.806 479.975C199.029 492.576 187.989 483.635 190.826 485.673C192.31 486.744 200.991 494.11 205.03 496.826ZM342.415 599.991C334.006 594.41 329.203 591.351 322.017 585.973C322.637 586.336 323.266 586.705 323.93 587.096C326.555 589.124 346.636 602.663 342.415 599.991ZM133.526 441.411C148.544 453.54 141.82 447.352 149.429 453.997C144.114 449.883 138.702 445.689 133.396 441.576C133.439 441.521 133.483 441.466 133.526 441.411ZM745.916 99.0093C752.571 104.188 759.764 110.087 763.823 112.953C759.41 109.361 755.15 105.925 750.568 102.281C749.01 101.18 747.459 100.089 745.916 99.0093ZM531.57 13.3712C533.362 12.6213 540.541 10.5216 541.331 10.475C542.749 10.206 542.384 10.3882 542.408 10.4096C551.989 9.02902 543.142 9.80658 550.155 9.04299C551.482 8.59018 568.199 9.14183 574.856 10.6319C585.248 12.3276 595.196 15.398 599.07 16.637C605.169 18.5167 617.118 22.6773 626.874 27.0569C630.976 28.8839 632.475 29.7967 636.405 31.6636C646.452 36.4495 659.308 43.1593 673.116 51.253C695.364 64.2373 718.486 81.1184 730.992 90.6251C736.206 94.5863 740.664 98.343 743.345 100.392C745.488 101.932 747.644 103.492 749.815 105.074C755.889 110.92 758.192 111.79 765.165 117.285C769.565 120.762 771.504 122.667 772.069 123.124C775.854 126.196 777.812 127.647 780.832 130.102C784.22 132.856 789.056 137.011 790.298 138.019C791.069 138.654 788.866 136.337 801.847 147.235C815.185 158.462 828.123 169.595 841.341 181.062C837.536 176.439 833.357 173.738 827.85 169.055C826.365 167.793 827.406 168.477 826.115 167.379C822.465 164.269 815.475 158.511 812.55 155.982C809.393 153.25 810.715 153.883 806.481 150.483C806.267 150.312 806.831 150.988 805.839 150.184C795.872 142.123 793.057 139.396 780.535 129.072C772.647 122.116 721.263 82.328 719.526 81.5025C710.582 73.8587 764.862 115.095 770.81 120.557C773.004 122.356 770.595 120.617 772.571 122.264C773.379 122.935 780.957 128.684 788.449 134.865C797.346 142.163 815.015 157.382 823.351 164.533C895.346 226.209 964.224 289.341 1035.83 351.208C1037.35 352.527 1039.49 354.12 1044.46 358.402C1129.56 430.704 1218.31 507.022 1319.05 559.617C1329.06 564.643 1338.66 568.811 1348.95 572.518C1374.26 581.632 1400.9 586.238 1428.08 585.359C1431.45 585.094 1434.76 584.747 1438.08 584.316C1429.61 585.359 1413.81 584.86 1412.4 584.676C1411.91 584.648 1408.52 584.693 1403.37 584.23C1396.1 583.55 1392.84 582.845 1392.24 582.776C1390.36 582.497 1391.57 582.829 1389.77 582.548C1376.71 580.426 1366.66 577.892 1354.8 574.005C1341.87 569.621 1335.31 566.433 1326.07 562.484C1325.08 561.886 1324.08 561.278 1323.08 560.663C1322.26 560.329 1321 559.767 1319.37 558.995C1307.13 553.562 1274.72 534.775 1261.03 525.7C1256.23 522.614 1257.18 522.973 1255.56 521.928C1254.52 521.224 1254.84 521.866 1242.13 513.309C1235.82 509.021 1234.36 507.763 1231.2 505.595C1229.48 504.417 1229.65 504.771 1227.19 503.06C1212.97 493.145 1201.52 484.738 1188.12 474.671C1184.31 471.808 1184.37 471.638 1183.51 470.998C1180.34 468.613 1174.76 464.738 1166.9 458.667C1153.75 448.594 1128.35 428.285 1118.05 419.635C1116.53 418.369 1115.38 417.18 1114.25 416.258C1112.54 414.862 1111.74 414.465 1111.45 414.226C1105.81 409.589 1109.32 412.237 1105.51 409.155C1103.46 407.489 1101.18 405.912 1096.42 401.984C1090.13 396.791 1091.53 397.592 1088.91 395.439C1088.63 395.212 1088.43 395.291 1085.87 393.157C1076.17 385.063 1062.11 373.171 1053.02 365.373C1050.4 363.13 1048.54 361.36 1044.89 358.221C1037.53 351.974 996.014 315.854 992.695 312.779C992.343 312.459 996.204 315.479 990.341 310.336C988.563 308.928 986.786 307.52 985.01 306.112C982.29 303.468 979.59 300.838 976.861 298.181C976.525 298.752 959.758 284.071 960.374 283.728C958.57 282.096 956.769 280.467 954.951 278.821C950.835 275.788 948.405 273.411 940.894 267.114C939.844 265.997 938.796 264.881 937.748 263.765C937.399 263.581 937.05 263.396 936.701 263.212C933.125 259.366 926.321 254.015 925.545 253.332C922.533 250.678 920.368 248.588 918.961 247.347C913.765 242.761 902.123 232.694 896.086 227.254C895.801 226.997 896.227 227.084 894.504 225.527C891.415 222.736 890.849 222.659 886.87 218.655C885.954 217.972 885.038 217.289 884.123 216.608C883.25 215.775 882.378 214.942 881.506 214.111C876.153 209.432 870.871 204.826 865.442 200.106C870.577 204.118 865.069 199.015 859.594 194.617C857.742 193.129 859.181 194.682 858.563 194.187C857.797 193.55 833.654 172.446 832.231 171.067C831.062 170.154 829.858 169.211 828.652 168.268C828.158 167.658 827.664 167.049 827.17 166.441C826.5 165.93 825.831 165.421 825.162 164.913C819.01 159.289 802.203 145.81 799.219 143.277C797.646 141.931 799.441 142.635 791.814 136.362C791.436 136.263 791.059 136.163 790.683 136.064C788.875 134.593 787.074 133.132 785.281 131.683C781.947 128.909 777.325 124.759 777.297 124.486C776.194 123.735 775.093 122.989 773.995 122.247C771.342 119.568 756.447 107.772 750.024 103.096C748.291 101.594 746.566 100.106 744.851 98.6334C742.367 96.8872 739.902 95.1693 737.456 93.4805C731.707 89.1644 737.902 93.5788 736.694 92.6366C734.063 90.54 720.901 81.2595 722.072 81.5441C720.383 80.3054 718.462 78.9073 716.656 77.6046C715.636 77.0419 714.62 76.4849 713.608 75.9338C710.739 73.3183 705.512 69.7043 694.241 62C693.246 61.4747 692.255 60.9564 691.269 60.4454C688.098 58.1856 684.278 55.5678 680.879 53.2933C680.054 53.0013 679.233 52.7148 678.417 52.4337C676.912 51.5505 675.421 50.6884 673.942 49.8476C673.903 49.8249 673.863 49.8022 673.823 49.7795C670.736 47.4746 664.752 44.5637 661.974 42.834C657.936 40.333 661.201 41.7185 669.195 46.2337C668.746 45.4627 645.112 32.7017 639.08 30.056C639.426 30.2887 639.773 30.5225 640.12 30.7573C646.067 33.6125 651.544 36.3977 657.342 39.4867C661.663 42.6802 646.69 34.3019 639.184 30.868C638.473 30.5474 634.878 29.0467 627.344 25.6575C624.634 24.3704 613.315 19.289 611.26 18.5672C593.43 12.1234 606.526 16.9262 589.008 11.3167C592.583 12.7378 582.562 9.36462 571.433 7.91571C569.51 7.36827 553.515 6.84673 552.408 7.23076C545.582 7.76856 553.028 6.60575 543.18 7.93389C542.02 8.21481 540.902 8.51817 539.783 8.8518C537.464 9.34735 535.291 9.93447 533.116 10.655C519.566 14.7854 517.65 18.5482 513.918 21.6724C512.498 23.0996 514.119 21.0477 510.539 24.8909C509.26 26.3856 507.859 28.1065 505.027 32.5495C496.985 46.8529 495.359 52.7112 494.363 67.5981C494.05 69.8824 493.81 72.1483 493.634 74.4582C493.733 76.009 493.862 77.5527 494.019 79.0993C493.991 90.9214 494.371 86.639 494.675 90.8836C494.904 93.2595 495.246 96.1581 495.716 99.2507C497.434 110.586 499.561 124.893 499.546 126.498C501.78 135.833 502.705 147.311 503.322 151.047C503.764 153.263 504.204 155.462 504.644 157.663C504.961 160.283 505.279 162.908 505.598 165.538C506.145 164.169 507.537 177.769 507.733 179.081C507.959 180.592 511.456 201.319 512.679 209.074C513.895 216.788 515.827 230.296 516.013 231.476C516.23 232.843 518.515 245.959 520.143 256.244C521.568 265.244 529.725 318.585 529.523 315.176C529.063 311.677 528.357 306.698 527.72 302.4C525.746 289.065 513.513 210.838 510.419 190.845C505.76 160.823 500.888 129.76 496.174 99.1813C494.589 88.8618 494.031 78.3985 494.883 68.1108C495.097 65.6843 495.336 65.3404 495.593 63.2899C495.914 60.1341 497.32 52.2497 498.318 49.2595C501.284 37.8997 509.793 25.9119 514.733 21.9774C525.414 12.6307 535.318 10.1211 545.693 8.64259C548.86 7.88834 565.732 7.34437 576.905 9.86834C579.029 10.3104 580.923 10.7543 582.916 11.2544C577.256 9.85753 562.017 7.88208 554.804 8.2917C544.164 8.54792 538.632 9.99868 534.889 11.0701C531.495 11.4652 516.262 19.3851 511.614 25.7896C510.038 27.5676 509.577 27.8293 508.338 29.4586C501.421 38.2843 497.074 52.5664 496.125 62.051C496.133 58.1328 494.341 82.4034 495.018 83.6914C495.128 85.8778 495.439 88.2337 495.919 92.665C496.263 95.72 496.485 97.5383 496.677 99.1052C497.022 101.884 497.255 103.862 498.563 110.597C498.857 113.244 499.142 115.834 499.434 118.463C499.984 118.556 504.418 151.594 506.536 160.859C506.646 161.12 500.14 118.26 499.61 114.734C498.879 109.948 498.05 104.59 497.186 99.028C493.977 79.93 495.251 56.5238 502.067 41.7204C503.286 38.8207 506.316 33.0114 510.131 28.4888C513.862 23.9025 518.146 20.7377 518.74 20.2868C520.642 18.8583 518.806 19.9875 519.63 19.3741C528.382 13.3541 531.371 13.2699 531.636 13.064C532 13.0194 530.241 13.8241 531.57 13.3712ZM297.975 569.305C302.948 573.079 308.285 577.042 313.486 580.809C313.039 580.632 312.591 580.454 312.143 580.274C309.774 578.508 307.387 576.709 304.984 574.88C303.04 573.532 301.315 572.336 299.466 571.038C298.97 570.462 298.473 569.885 297.975 569.305ZM284.992 559.976C284.761 559.799 284.54 559.63 284.331 559.469C280.349 556.397 280.323 556.096 279.36 555.331C276.546 553.092 273.535 550.876 270.748 548.706C274.238 550.715 280.646 555.968 284.381 559.404C284.596 559.603 284.8 559.794 284.992 559.976ZM380.554 624.278C379.433 623.637 372.373 619.065 363.928 614.721C357.686 610.796 352.006 607.055 346.005 602.982C355.947 609.78 370.684 618.109 375.751 620.901C377.762 622.031 378.049 622.409 379.643 623.289C388.663 628.285 397.993 632.369 398.643 633.391C389.755 628.857 382.007 625.106 380.554 624.278ZM327.381 591.082C326.068 590.017 324.75 588.942 323.427 587.856C328.486 591.382 333.464 594.763 338.362 598.002C336.963 597.239 335.557 596.465 334.144 595.681C331.906 594.177 329.652 592.644 327.381 591.082ZM547.572 429.277C548.142 432.948 548.711 436.615 549.278 440.275C549.344 440.06 548.692 435.87 548.517 434.315C548.518 434.322 548.519 434.328 548.52 434.335C548.326 432.602 548.566 433.321 548.133 430.18C547.946 429.879 547.759 429.578 547.572 429.277ZM1442.59 584.293C1449.11 585.587 1504.07 569.723 1498.98 569.93C1496.67 570.807 1478.25 577.148 1472.62 578.364C1465.14 580.61 1444.49 583.554 1442.59 584.293ZM1537.93 552.389C1538.78 551.938 1506.63 567.483 1503.22 568.348C1503.93 568.12 1505.03 567.797 1505.95 567.445C1510.53 565.922 1531.18 556.127 1537.93 552.389ZM516.197 223.814C516.471 226.697 516.745 229.579 517.02 232.467C517.132 231.678 517.244 230.89 517.357 230.102C516.969 228.004 516.583 225.911 516.197 223.814ZM585.228 11.6763C616.871 19.4965 645.493 34.1763 673.54 50.5327C687.159 58.5563 701.131 67.984 713.985 77.195C710.437 74.7737 706.939 72.4308 703.495 70.1707C693.585 63.3196 683.522 56.7372 673.405 50.7613C646.773 35.1005 619.015 21.1572 590.963 13.4981C589.156 12.8848 587.171 12.2555 585.228 11.6763ZM392.011 631.501C403.127 637.11 412.404 641.232 424.888 646.42C412.831 641.939 407.1 638.872 395.944 633.863C395.938 633.86 395.931 633.857 395.925 633.854C394.627 633.082 393.323 632.298 392.011 631.501ZM565.239 538.541C565.96 542.245 566.68 545.942 567.395 549.623C566.73 545.174 566.055 540.667 565.386 536.218C565.337 536.993 565.288 537.767 565.239 538.541ZM925.432 255.374C935.411 263.744 959.731 286.155 967.901 292.791C968.43 293.221 963.859 288.942 971.674 295.378C965.895 290.37 961.816 286.859 961.207 286.689C959.572 285.118 957.94 283.549 956.308 281.98C953.434 279.531 950.56 277.081 947.693 274.636C948.182 274.702 947.946 274.513 943.495 270.821C941.57 269.022 939.646 267.225 937.726 265.431C936.816 264.779 935.906 264.128 934.997 263.478C933.403 261.849 931.783 260.196 930.18 258.557C923.387 252.773 927.244 256.612 925.432 255.374ZM891.569 225.322C893.044 226.677 938.156 266.371 918.102 247.877C912.834 243.234 907.438 238.48 902.125 233.806C905.912 238.362 892.017 224.999 890.839 223.939C885.152 218.802 877.749 212.573 873.649 208.958C870.145 205.868 868.074 203.836 865.559 201.639C856.981 194.134 843.493 182.423 841.341 181.062C848.068 186.899 854.764 192.736 861.682 198.774C869.065 205.221 875.129 211.003 889.202 222.766C892.575 225.811 891.17 224.95 891.569 225.322ZM568.831 560.835C568.765 560.387 569.693 583.157 569.417 583.26C569.548 583.255 569.684 575.97 569.649 574.855C569.649 574.848 569.649 574.841 569.649 574.835C569.653 574.385 569.847 576.659 569.812 573.12C569.645 569.077 569.306 564.888 568.831 560.835ZM1354.67 575.324C1356.18 575.953 1373.76 581.841 1391.82 584.34C1409.88 587.149 1428.18 586.314 1429.2 586.191C1429.76 586.138 1428.97 586.079 1429.19 586.016C1412.78 587.273 1389.36 584.463 1374.21 580.625C1369.93 579.594 1371.23 580.045 1370.98 579.99C1370.97 579.988 1370.96 579.985 1370.95 579.983C1368.62 579.475 1357.98 576.038 1354.67 575.324ZM985.01 307.653C982.793 305.623 980.578 303.593 978.366 301.563C977.717 301.147 977.065 300.727 976.414 300.309C976.42 300.313 976.425 300.318 976.43 300.323C979.298 302.775 982.147 305.209 985.01 307.653ZM1063.45 376.238C1062.95 375.702 1062.45 375.166 1061.95 374.63C1056.2 369.72 1050.45 364.782 1044.71 359.822C1045.32 360.286 1045.93 360.75 1046.54 361.213C1037.94 353.653 1034.18 350.772 1029.59 346.744C1029.59 346.749 1029.6 346.754 1029.61 346.758C1029.11 346.324 1028.62 345.675 1026.78 344.07C1022.55 340.387 1010.51 329.803 1008.94 328.651C1005.6 326.235 1030.06 347.325 1034.61 351.258C1036.67 353.044 1039.04 355.294 1040.29 356.376C1041.67 357.563 1043.66 359.012 1047.01 361.906C1047.99 362.757 1058.73 372.271 1063.45 376.238ZM1167.2 460.54C1165.46 458.972 1161.49 456.12 1160.09 454.987C1159.76 454.718 1162.49 456.65 1159.32 454.122C1158.35 453.5 1157.38 452.875 1156.4 452.249C1160.01 455.039 1163.61 457.803 1167.2 460.54ZM568.056 598.982C568.362 598.406 569.747 586.226 569.61 585.626C569.625 581.913 569.404 586.51 568.901 591.232C568.407 596.138 567.501 601.144 568.056 598.982ZM310.861 582.336C313.186 584.34 297.839 573.347 282.784 561.451C270.745 551.975 258.888 542.688 256.689 541.009C257.035 540.88 269.466 550.901 263.189 545.503C267.246 548.836 276.047 555.675 283.034 561.13C286.672 563.97 289.674 566.271 291.079 567.373C293.568 569.324 294.034 570.006 294.408 570.301C295.804 571.443 309.288 581.038 310.861 582.336ZM212.806 507.217C217.817 511.127 222.836 515.023 227.871 518.924C221.847 514.388 215.877 509.883 209.868 505.318C210.816 505.928 211.85 506.602 212.806 507.217ZM206.348 502.439C206.33 502.815 189.405 489.468 184.822 485.984C190.264 489.564 198.276 496.376 206.348 502.439ZM519.594 658.741C529.264 655.729 532.608 653.078 521.566 657.785C521.225 657.921 519.188 658.858 519.594 658.741ZM926.891 258.38C928.187 259.536 943.789 273.757 944.811 274.465C948.018 276.683 937.502 267.618 934.161 264.42C928.726 259.223 937.148 266.371 923.298 254.328C923.921 254.755 924.544 255.182 925.167 255.61C917.162 248.475 919.364 251.292 917.87 250.079C917.41 249.705 912.456 245.245 911.523 244.474C899.843 234.829 925.7 257.314 926.891 258.38ZM550.948 435.479C548.168 415.839 549.085 424.337 545.967 404.234C545.661 403.591 550.376 432.954 550.948 435.479ZM780.949 131.466C796.969 144.558 809.575 155.584 824.38 167.789C823.835 166.402 777.098 127.914 780.949 131.466ZM1578.07 531.57C1513.39 576.047 1415.1 608.298 1335.21 569.164C1326.85 565.569 1326.09 564.854 1323.02 563.436C1321 562.473 1321.27 562.812 1318.58 561.47C1318.46 561.409 1318.34 561.348 1318.22 561.287C1224.69 512.454 1146.28 446.903 1069.02 382.161C1064.15 378.058 1040.84 357.589 1035.49 353.687C1031.41 350.747 1048.48 365.029 1051.32 367.447C1053.44 369.265 1053.4 369.498 1054.81 370.707C1056.31 371.989 1055.16 370.824 1056.9 372.31C1064.26 378.586 1072.34 385.51 1079.06 391.145C1145.05 446.203 1210.54 499.198 1284.14 543.157C1293.16 548.433 1291.2 547.436 1291.66 547.713C1291.66 547.716 1291.67 547.72 1291.68 547.723C1299.88 552.422 1309.14 557.436 1317.94 561.843C1360.59 583.978 1414.17 594.164 1462.01 583.65C1502.92 575.46 1540.16 555.542 1575.09 533.6C1576.09 532.924 1577.08 532.247 1578.07 531.57ZM894.438 228.883C897.89 232.759 899.142 233.024 912.918 245.558C914.111 246.473 915.305 247.39 916.501 248.308C909.197 241.869 901.724 235.287 894.415 228.862C894.422 228.869 894.431 228.876 894.438 228.883ZM986.04 310.213C987.832 312.924 1019.4 339.83 1033.46 352.152C1036.32 354.085 1015.67 336.427 1010.89 332.173C1008.5 330.058 995.89 318.455 985.964 310.032C985.99 310.092 986.015 310.152 986.04 310.213ZM369.015 621.675C371.554 623.105 374.273 624.61 376.977 626.073C370.117 622.18 364.096 618.571 357.425 614.418C367.844 620.814 378.359 626.825 388.861 632.298C386.784 631.424 384.798 630.578 382.739 629.678C378.248 627.154 373.293 624.269 369.015 621.675ZM403.706 639.669C384.975 630.737 404.426 639.72 409.549 642.115C412.406 643.519 405.752 640.635 403.706 639.669ZM455.414 658.704C445.611 656.869 426.681 650.132 433.651 651.929C443.831 655.65 450.255 657.607 465.541 660.817C463.311 660.519 461.042 660.17 458.735 659.769C458.724 659.767 458.714 659.764 458.703 659.762C457.518 659.399 456.517 659.068 455.414 658.704ZM394.952 635.877C382.582 629.547 418.811 646.882 407.268 641.707C406.568 641.456 395.469 636.198 394.952 635.877ZM1500.27 573.273C1501.77 572.519 1491.78 576.241 1488.38 577.274C1473.79 582.123 1454.41 586.502 1438.37 587.744C1439.59 587.703 1440.81 587.652 1442.02 587.59C1462 585.505 1481.58 580.413 1500.27 573.273ZM1388.32 585.864C1377.57 584.119 1366.84 581.513 1356.22 578.111C1355.15 577.782 1350.67 576.457 1353.97 577.603C1365.38 581.3 1376.8 584.064 1388.32 585.864ZM841.644 184.201C847.926 189.788 829.264 174.388 830.517 174.679C834.204 177.823 837.914 180.998 841.644 184.201ZM781.924 133.858C786.041 137.177 790.205 140.561 794.199 143.824C794.16 143.882 794.12 143.941 794.08 143.999C790.126 140.678 786.002 137.236 781.924 133.858ZM1539.5 555.297C1534.47 557.769 1522.59 563.813 1514.96 567.128C1520.31 565.049 1532.55 558.975 1539.5 555.297ZM935.92 267.529C935.49 266.933 960.515 289.149 951.648 281.682C946.387 276.952 941.144 272.232 935.92 267.529ZM986.594 312.638C981.191 307.933 977.074 304.226 978.348 305.006C981.187 307.523 984.029 310.04 986.873 312.557C986.78 312.584 986.687 312.611 986.594 312.638ZM492.746 664.023C504.931 663.955 517.38 661.985 528.723 656.952C528.328 657.203 527.922 657.454 527.539 657.69C516.53 662.33 504.477 664.174 492.704 664.233C492.718 664.163 492.732 664.093 492.746 664.023ZM1545.81 552.571C1553.05 548.489 1560.14 544.248 1567.22 539.845C1560.08 544.172 1552.94 548.336 1545.65 552.337C1545.7 552.418 1545.74 552.5 1545.79 552.582C1545.8 552.578 1545.8 552.574 1545.81 552.571ZM339.112 605.201C370.301 625.389 330.059 600.502 322.447 594.235C322.438 594.229 322.429 594.224 322.42 594.218C321.728 593.687 323.36 594.566 322.215 593.673C325.321 595.937 328.398 598.146 331.445 600.301C334.365 602.118 337.1 603.787 340.191 605.657C341.135 606.325 342.077 606.987 343.015 607.644C341.72 606.839 340.418 606.025 339.112 605.201ZM219.497 516.347C192.89 495.956 220.442 516.41 233.341 526.695C233.186 526.693 221.932 518.209 219.497 516.347ZM289.093 569.783C293.362 572.986 297.473 576.017 301.752 579.117C302.274 579.575 302.795 580.032 303.315 580.487C299.846 578.011 296.791 575.807 293.506 573.4C292.04 572.206 290.57 571 289.093 569.783ZM439.413 656.661C447.476 659.11 458.136 662.032 431.831 653.671C431.821 653.742 431.812 653.813 431.802 653.885C432.882 654.26 436.01 655.254 436.174 655.31C436.649 655.483 436.019 655.54 439.413 656.661ZM169.367 480.007C168.526 479.385 167.797 479.761 160.408 473.026C157.835 471.078 155.697 469.467 153.285 467.643C152.778 467.04 152.266 466.433 151.749 465.821C160.625 472.916 162.015 473.576 162.639 474.055C165.69 476.395 163.351 474.786 165.279 476.292C170.299 480.216 181.931 489.111 176.315 485.36C174.407 484.098 170.196 480.619 169.367 480.007ZM187.024 494.256C185.963 493.356 189.63 495.922 188.838 495.231C188.177 494.656 177.264 485.909 180.478 487.939C182.293 489.367 183.923 490.651 185.857 492.17C186.425 492.737 186.985 493.298 187.535 493.851C189.34 495.131 191.051 496.338 192.958 497.695C195.759 500.173 201.809 505.242 194.269 499.681C196.861 501.656 199.88 503.956 202.517 505.956C204.076 507.005 205.574 508.006 207.02 508.966C206.19 508.557 205.345 508.137 204.485 507.704C198.676 503.25 192.74 498.676 187.024 494.256ZM102.234 427.911C102.623 428.098 103.011 428.284 103.398 428.469C92.9526 420.489 77.7047 408.583 86.8377 415.018C100.264 425.51 114.159 436.359 127.683 446.896C128.56 447.672 129.427 448.441 130.285 449.202C120.038 440.828 122.782 444.442 114.096 437.208C112.63 435.987 117.218 439.077 107.607 431.86C107.869 432.186 108.131 432.51 108.392 432.835C106.379 431.225 104.326 429.584 102.234 427.911ZM15.9343 359.816C33.4938 373.827 13.6275 358.604 11.0481 356.209C11.0534 356.213 11.0587 356.217 11.0641 356.222C3.0317 348.902 21.0505 363.584 22.4559 364.684C23.9869 365.882 27.9962 368.335 35.509 375.284C29.2187 370.314 22.6289 365.107 15.9343 359.816ZM72.0383 404.175C70.6117 403.076 71.4823 403.582 70.8681 403.101C70.8627 403.097 70.8574 403.093 70.852 403.088C61.4994 395.771 39.7885 378.836 37.4733 376.431C44.6011 382.002 75.0643 405.853 76.4379 407.323C74.9861 406.285 73.5196 405.236 72.0383 404.175ZM136.889 454.656C142.411 459.353 129.787 449.52 126.433 446.716C125.824 446.201 131.383 449.958 136.889 454.656ZM575.881 574.193C575.073 557.952 575.737 579.269 575.187 571.892C575.316 575.016 575.353 578.177 575.292 581.245C575.543 578.932 575.739 576.581 575.881 574.193ZM658.955 50.6143C662.065 52.3985 660.67 51.4228 660.942 51.5718C663.002 52.7405 664.909 53.9979 665.724 54.4522C667.383 55.3763 668.754 56.146 669.872 56.772C678.266 61.5277 670.884 56.9704 670.78 56.8835C670.583 56.5861 673.823 58.2992 670.317 56.015C670.014 55.8206 669.666 55.5995 669.268 55.3494C665.9 53.4439 662.593 51.6182 659.347 49.8703C657.787 48.8911 656.297 47.9609 654.617 46.9386C647.812 43.4819 656.641 48.3155 657.367 49.0428C657.696 49.3443 651.606 46.1153 658.955 50.6143ZM573.563 545.276C572.893 542.791 571.593 536.627 572.215 542.773C572.216 542.779 572.217 542.786 572.218 542.793C572.334 543.93 572.99 548.516 573.124 549.93C573.231 550.494 573.331 551.014 573.425 551.491C574.594 557.81 574.762 556.885 574.242 551.372C574.079 549.738 573.849 547.681 573.563 545.276ZM598.09 23.5123C592.396 21.5899 586.867 19.9626 581.055 18.6004C581.189 18.4495 581.323 18.2987 581.458 18.1482C584.503 18.8764 587.673 19.7371 590.607 20.6161C591.689 20.8377 592.783 21.0732 593.891 21.3226C590.103 19.9746 586.513 18.7978 582.617 17.6911C578.118 16.7227 573.259 15.8988 568.753 15.4111C570.881 15.7717 572.894 16.1719 575.047 16.6459C563.834 15.0407 566.308 14.9062 556.886 14.3827C553.838 14.5177 550.446 14.8408 547.505 15.3457C542.889 15.7082 538.54 16.4875 534.295 17.8259C527.448 20.6014 527.045 21.2925 531.594 19.3052C528.316 20.9475 524.69 22.5948 521.342 25.3908C521.066 25.6216 521.721 25.3548 521.474 25.5555C512.946 32.8309 510.803 38.2088 509.199 40.7103C507.736 43.3829 507.398 43.925 506.683 45.6461C505.471 48.0291 503.193 58.4595 503.426 58.7017C503.451 58.8018 504.839 53.4864 505.385 52.4405C506.173 51.4624 504.071 54.0597 502.711 71.559C503.505 53.1011 512.802 35.4383 506.882 46.8768C507.845 44.2802 510.835 37.3136 515.188 32.0739C519.423 26.7118 524.761 23.292 525.405 22.9086C527.323 21.7727 526.738 22.3736 529.168 21.0965C530.716 20.5686 533.986 17.0948 547.554 15.7652C549.204 15.4836 550.902 15.2573 552.676 15.0872C554.404 15.0913 555.92 15.1521 557.578 15.2533C554.3 15.472 550.777 15.8969 547.683 16.5281C560.575 14.8494 571.932 17.4077 580.158 18.6528C587.253 20.2756 590.573 21.3931 587.563 20.7972C589.607 21.3395 591.698 21.9334 593.835 22.5804C595.271 22.88 596.751 23.2117 598.09 23.5123ZM566.216 499.491C565.352 492.015 564.361 489.455 564.504 490.609C565.315 497.124 566.665 503.384 566.216 499.491ZM647.23 43.9031C640.171 40.0341 632.923 36.2976 625.377 32.7553C625.302 32.9256 625.226 33.0959 625.15 33.2663C632.759 36.6326 640.085 40.1993 647.23 43.9031ZM576.328 576.604C576.191 577.4 576.048 578.19 575.899 578.975C576.355 588.427 574.303 597.797 573.505 602.364C573.332 603.391 574.003 601.369 574.371 599.496C575.007 598.364 576.745 578.222 576.328 576.604ZM270.897 559.57C273.598 561.554 276.208 563.469 279.09 565.599C278.839 565.602 278.587 565.605 278.337 565.609C276.943 564.559 275.587 563.539 274.268 562.548C273.115 561.532 272.107 560.63 270.897 559.57ZM301.899 582.921C306.887 586.597 311.805 590.141 316.653 593.556C297.879 580.37 313.234 591.45 301.629 583.289C301.719 583.166 301.809 583.044 301.899 582.921ZM352.712 617.619C352.042 617.319 351.37 617.016 350.697 616.71C345.625 613.579 340.435 610.271 335.218 606.845C338.325 609.276 341.463 611.685 344.54 614.016C346.427 615.209 348.302 616.382 350.165 617.533C351.017 617.565 351.866 617.594 352.712 617.619ZM789.223 146.426C791.962 148.707 801.878 156.681 801.54 156.265C797.56 152.736 793.613 149.254 789.701 145.822C789.563 145.95 789.424 146.078 789.286 146.206C788.781 145.663 788.277 145.122 787.774 144.582C785.497 142.776 783.034 140.823 780.683 138.971C779.615 137.877 778.55 136.787 777.489 135.702C776.199 134.883 774.914 134.068 773.631 133.259C784.549 142.654 784.484 142.218 786.768 144.112C787.92 145.073 788.578 145.773 788.951 146.159C789.042 146.248 789.132 146.337 789.223 146.426ZM641.754 42.415C653.5 48.4583 661.343 52.6025 669.473 57.4498C671.51 58.6725 673.58 59.9722 675.757 61.4141C674.675 60.5706 672.467 59.1013 669.554 57.3125C655.191 48.0725 621.232 31.5841 607.656 26.4485C605.892 25.9406 604.003 25.4086 602.224 24.9402C611.439 28.0254 617.686 31.0324 621.835 32.8713C625.249 34.4039 624.969 34.1349 625.229 34.2498C625.241 34.2554 625.254 34.261 625.266 34.2667C633.531 38.0911 635.518 39.2622 641.754 42.415ZM576.45 590.034C577.188 585.196 577.252 576.671 576.893 576.582C576.818 581.265 576.522 586.065 575.977 590.726C576.15 589.775 576.336 590.851 576.45 590.034ZM358.426 622.13C361.577 624.153 369.008 628.307 365.96 626.233C365.426 625.886 357.892 621.691 362.508 623.815C355.246 619.539 356.635 620.98 358.426 622.13ZM515.624 173.239C516.106 176.243 516.593 179.272 517.076 182.269C517.315 182.949 517.555 183.629 517.795 184.309C517.073 180.634 516.347 176.926 515.624 173.239ZM565.118 630.123C562.456 633.64 558.887 640.477 552.566 646.084C550.392 648.276 548.086 650.315 545.63 652.21C545.624 652.215 545.618 652.219 545.612 652.224C545.653 652.414 545.693 652.604 545.732 652.794C553.742 646.688 560.329 638.789 565.118 630.123ZM545.572 16.5529C543.841 16.7241 542.288 16.9284 540.559 17.2436C537.635 18.0189 534.853 19.0086 532.226 20.2258C533.674 19.6847 535.22 19.1903 536.759 18.7806C539.534 17.8241 542.553 17.0716 545.572 16.5529ZM524.351 664.211C534.402 660.503 537.829 658.209 525.182 663.416C519.627 665.31 513.616 667.338 524.351 664.211ZM930.994 269.582C928.521 267.326 925.994 265.023 923.501 262.751C922.562 262.075 921.623 261.399 920.685 260.725C924.112 263.669 927.578 266.647 930.994 269.582ZM318.816 596.434C319.218 596.571 319.62 596.707 320.021 596.843C322.551 598.624 325.063 600.369 327.555 602.08C326.86 601.751 326.164 601.42 325.466 601.086C323.264 599.563 321.047 598.012 318.816 596.434ZM914.046 254.468C912.049 252.669 910.056 250.874 908.066 249.082C906.665 247.918 905.263 246.752 903.864 245.59C905.718 247.306 907.601 249.049 909.428 250.742C910.966 251.982 912.505 253.224 914.046 254.468ZM428.536 656.291C432.121 657.829 447.125 662.171 433.817 657.711C425.309 654.672 428.07 656.08 428.536 656.291ZM409.193 648.701C422.42 654.513 412.943 649.495 396.675 642.722C412.653 650.084 408.455 648.293 409.193 648.701ZM298.85 583.249C298.565 583.037 298.358 582.646 296.098 580.957C290.662 576.898 283.977 571.756 278.256 567.251C275.271 564.903 272.759 562.931 270.868 561.453C256.695 550.223 213.02 517.473 208.237 513.081C207.248 512.174 209.901 513.757 209.479 513.411C208.237 512.4 200.859 506.954 202.347 507.766C209.514 513.278 216.656 518.727 223.824 524.178C221.957 522.99 220.078 521.792 218.212 520.603C236.122 534.101 230.202 529.613 235.565 533.195C238.491 535.623 241.452 538.085 244.295 540.464C250.932 545.363 257.514 550.254 264.244 555.283C262.616 554.166 261.04 553.091 259.522 552.062C269.298 559.919 266.539 557.603 272.147 561.607C272.086 561.708 272.024 561.808 271.963 561.908C274.631 563.882 276.801 565.537 278.537 566.892C282.79 570.204 284.069 571.402 285.583 572.568C289.98 575.894 296.041 578.988 312.2 592.215C319.518 596.574 318.842 597.712 323.467 600.063C335.348 609.023 312.08 593.012 301.379 584.967C301.373 584.963 301.367 584.959 301.362 584.955C300.536 584.345 301.778 585.417 298.85 583.249ZM362.798 624.899C354.62 621.001 385.682 638.527 375.786 631.999C374.248 631.126 372.702 630.237 371.146 629.333C368.214 627.803 365.596 626.417 362.78 624.889C362.786 624.892 362.792 624.896 362.798 624.899ZM569.992 512.637C564.852 480.54 567.296 498.889 569.283 509.689C569.681 511.853 569.953 513.033 569.992 512.637ZM662.839 54.3535C663.283 54.524 663.729 54.6957 664.175 54.8688C655.062 49.5382 636.543 39.7504 636.526 40.3894C645.541 44.7976 654.328 49.508 662.839 54.3535ZM585.871 21.1311C587.956 21.6252 596.808 24.3563 595.826 23.8919C591.862 22.5107 588.341 21.3783 584.38 20.2685C582.53 19.8982 580.722 19.5713 578.955 19.2863C581.378 19.8044 585.257 20.957 585.871 21.1311Z" fill="#87392B" fill-opacity="0.36"/>
</svg>
